<svg viewBox="-691.9652205882354 0 3767.870441176471 1683.78" xmlns="http://www.w3.org/2000/svg">

  <defs>
    <style type="text/css">
      .st0 {
        fill-rule: evenodd;
        clip-rule: evenodd;
        fill: #F0F5FB;
        stroke: #87A3B8;
        stroke-width: 10.8;
        stroke-linecap: round;
        stroke-linejoin: round;
        stroke-miterlimit: 2.6131;
      }

      .st1 {
        fill-rule: evenodd;
        clip-rule: evenodd;
        fill: none;
        stroke: #87A3B8;
        stroke-width: 1.9199;
        stroke-linecap: round;
        stroke-linejoin: round;
        stroke-miterlimit: 2.6131;
        stroke-dasharray: 1.9199, 3.8398;
      }

      .st2 {
        fill-rule: evenodd;
        clip-rule: evenodd;
        fill: #FFFFFF;
        stroke: #87A3B8;
        stroke-width: 1.44;
        stroke-linecap: round;
        stroke-linejoin: round;
        stroke-miterlimit: 2.6131;
      }

      .st3 {
        fill-rule: evenodd;
        clip-rule: evenodd;
        fill: none;
        stroke: #87A3B8;
        stroke-width: 1.44;
        stroke-linecap: round;
        stroke-linejoin: round;
        stroke-miterlimit: 2.6131;
      }

      .st4 {
        fill-rule: evenodd;
        clip-rule: evenodd;
        fill: #D6E5EF;
      }

      .st5 {
        fill-rule: evenodd;
        clip-rule: evenodd;
        fill: #010005;
      }

      .st6 {
        fill-rule: evenodd;
        clip-rule: evenodd;
        fill: #A9C2CC;
      }

      .st7 {
        fill-rule: evenodd;
        clip-rule: evenodd;
        fill: #F0F5FB;
      }

      .st8 {
        fill-rule: evenodd;
        clip-rule: evenodd;
        fill: #87A3B8;
      }
    </style>
  </defs>

  <g transform="rotate(0)">

    <path class="st0"
      d="M1379.29,1640.67h818.25v-15.75h62.25c8.69,0,16.98-3.66,22.83-10.08c5.85-6.42,8.73-15.01,7.92-23.67v-1548  H114.04l-21,1497l1290,51L1379.29,1640.67z">
    </path>
    <path class="st1"
      d="M108.91,409.17h605.13V193.92h11.25V43.17 M272.29,1113.42v124.5 M392.07,1160.3h68.09v-0.75 M460.16,1180.92  v-42.75 M97.28,1237.92l547.38,0v-57h-184.5v57 M392.07,1551.99v-438.57 M104.58,717.41h462.83v12.57 M567.41,775.36v286.12   M567.41,1106.86v6.56H99.01l0.02,0 M1424.67,914.67l-46.5-3l-733.5,32.25v193.5l700.5-8.25l332.25,19.5 M1570.54,648.42  l-13.81,273.07 M1677.42,1148.67l25.5-493.5l-264.75-13.5l-13.5,273l264.14,13.65 M1192.23,1199.1l0,128.08h-81.81v253.25l0-0.03   M1716.42,1640.67l6-71.25h234.75V1464.8 M1957.17,1419.42v-199.5l-574.5-27.75l-484.88,17.63 M852.41,1211.45l-5.99,0.22v358.28v0   M2197.54,1624.92v-60.75 M2290.54,1564.17h-268.12v76.5 M2290.54,937.92h-266.63v311.44 M2023.92,1294.73v174.19h266.63   M2084.67,799.92h-66.75 M2095.17,799.92v77.25h0.38 M2173.17,877.17v-77.25 M2084.67,740.67h-66.75v68.25 M2017.92,854.3v22.88  h155.25v24 M2084.67,709.55h205.87 M2084.67,619.17v180.75h205.87 M2164.94,546.72v72.45 M2023.18,539.45v79.73h267.36   M725.29,68.67h788.25l-7.5,136.5l216.81,19.39v0 M1512.04,304.17l206.18,10.58v0 M2290.54,211.17h-567l-16.02,312.07   M1512.04,304.17l-10.5,208.5l223.99,11.5 M1770.9,526.5l432.38,22.19 M2248.65,551.02l41.89,2.15 M296.29,409.17v108h197.25v-108   M1969.92,1165.92V941.67l-216-11.25l-12.75,223.5L1969.92,1165.92z">
    </path>
    <g>
      <rect x="833.06" y="161.54" class="st2" width="388.5" height="711"></rect>
      <line class="st3" x1="833.06" y1="517.04" x2="1221.56" y2="517.04"></line>
      <ellipse transform="matrix(0.9639 -0.2664 0.2664 0.9639 -158.1565 300.1621)" class="st3" cx="1027.31" cy="733.04"
        rx="51.75" ry="51.75"></ellipse>
      <ellipse transform="matrix(0.9827 -0.185 0.185 0.9827 -77.9357 199.0329)" class="st3" cx="1027.31" cy="517.04"
        rx="51.75" ry="51.75"></ellipse>
      <ellipse transform="matrix(0.9827 -0.185 0.185 0.9827 -37.965 195.3024)" class="st3" cx="1027.31" cy="301.04"
        rx="51.75" ry="51.75"></ellipse>
      <path class="st3" d="M1027.31,681.29c-78.35,4.58-142.1,57.16-141.39,191.25"></path>
      <path class="st3" d="M1027.31,681.29c78.35,4.58,142.1,57.16,141.39,191.25"></path>
      <path class="st3" d="M1027.31,352.79c-78.35-4.58-142.1-57.16-141.39-191.25"></path>
      <path class="st3" d="M1027.31,352.79c78.35-4.58,142.1-57.16,141.39-191.25"></path>
      <line class="st3" x1="975.56" y1="733.04" x2="944.06" y2="872.54"></line>
      <line class="st3" x1="1079.06" y1="733.04" x2="1110.56" y2="872.54"></line>
      <line class="st3" x1="975.56" y1="301.04" x2="944.06" y2="161.54"></line>
      <line class="st3" x1="1079.06" y1="301.04" x2="1110.56" y2="161.54"></line>
    </g>
    <path class="st4"
      d="M2236.55,854.91v9.5h9.5v9.5h9.5v9.5h9.5v11.81c-26.88,0-53.76,0-80.64,0v-80.64h11.81v9.5h9.5v9.5h9.5v9.5h9.5  v11.81H2236.55L2236.55,854.91z M2263.9,872.9l3.26-3.26l-8.34-8.34h4.4v-4.61h-12.27v12.27h4.61v-4.39L2263.9,872.9z">
    </path>
    <path class="st4"
      d="M2164.43,1519.23v8.6h-8.6v8.6h-8.6v8.6h-8.6v10.69c24.34,0,48.67,0,73.01,0v-73.01h-10.69v8.6h-8.6v8.6h-8.6  v8.6h-8.6v10.69H2164.43L2164.43,1519.23z M2139.67,1535.51l-2.95-2.95l7.55-7.55h-3.98v-4.18h11.11v11.11h-4.18v-3.98  L2139.67,1535.51z">
    </path>
    <path class="st4"
      d="M1595.51,262.9v8.6h-8.6v8.6h-8.6v8.6h-8.6v10.69c24.34,0,48.67,0,73.01,0V226.4h-10.69v8.6h-8.6v8.6h-8.6v8.6  h-8.6v10.69H1595.51L1595.51,262.9z M1570.75,279.19l-2.95-2.95l7.55-7.55h-3.98v-4.18h11.11v11.11h-4.18v-3.98L1570.75,279.19z">
    </path>
    <path class="st4"
      d="M1960.07,380.86h65.69c7.03,0,12.77-5.75,12.77-12.77l0,0c0-7.03-5.75-12.78-12.77-12.78h-65.69  c-7.03,0-12.77,5.75-12.77,12.78l0,0C1947.3,375.11,1953.05,380.86,1960.07,380.86z">
    </path>
    <g>
      <polygon class="st5"
        points="1959.62,373.83 1959.62,362.33 1961.48,362.33 1961.48,372.18 1966.16,372.18 1966.16,373.83  "></polygon>
      <polygon class="st5"
        points="1967.58,373.83 1967.58,372.32 1969.14,372.32 1969.14,363.85 1967.58,363.85 1967.58,362.33    1972.59,362.33 1972.59,363.85 1971.01,363.85 1971.01,372.32 1972.59,372.32 1972.59,373.83  ">
      </polygon>
      <path class="st5"
        d="M1974.93,362.33h5.09c0.96,0,1.71,0.27,2.25,0.81c0.54,0.54,0.82,1.26,0.82,2.16c0,0.43-0.06,0.79-0.18,1.1   c-0.12,0.3-0.27,0.55-0.46,0.74c-0.19,0.19-0.4,0.33-0.64,0.43c-0.24,0.09-0.48,0.15-0.71,0.17v0.1c0.23,0.01,0.49,0.07,0.77,0.17   c0.28,0.1,0.54,0.26,0.78,0.47c0.24,0.21,0.44,0.49,0.61,0.82c0.16,0.33,0.25,0.74,0.25,1.23c0,0.46-0.07,0.9-0.22,1.3   c-0.15,0.41-0.35,0.76-0.62,1.05c-0.26,0.3-0.58,0.53-0.94,0.7c-0.36,0.17-0.76,0.26-1.19,0.26h-5.6V362.33L1974.93,362.33z    M1976.79,372.23h3.2c0.48,0,0.86-0.13,1.14-0.38c0.27-0.25,0.41-0.62,0.41-1.09v-0.56c0-0.47-0.14-0.83-0.41-1.09   c-0.27-0.25-0.65-0.38-1.14-0.38h-3.2V372.23L1976.79,372.23z M1976.79,367.19h2.88c0.46,0,0.82-0.12,1.07-0.35   c0.25-0.24,0.38-0.57,0.38-1.01v-0.53c0-0.44-0.13-0.78-0.38-1.01c-0.25-0.24-0.61-0.35-1.07-0.35h-2.88V367.19z">
      </path>
      <path class="st5"
        d="M1987.65,373.83h-1.86v-11.5h4.96c1.03,0,1.84,0.31,2.44,0.93c0.59,0.62,0.89,1.46,0.89,2.53   c0,0.82-0.19,1.51-0.57,2.05c-0.38,0.54-0.94,0.93-1.67,1.15l2.49,4.84h-2.08l-2.31-4.65h-2.29V373.83L1987.65,373.83z    M1990.61,367.62c0.47,0,0.84-0.12,1.1-0.37c0.26-0.25,0.4-0.6,0.4-1.06v-0.79c0-0.46-0.13-0.81-0.4-1.06   c-0.26-0.24-0.63-0.37-1.1-0.37h-2.97v3.64H1990.61z">
      </path>
      <path class="st5"
        d="M2003.76,373.83l-1.04-3.11h-4.3l-1,3.11h-1.89l3.92-11.5h2.34l3.92,11.5H2003.76L2003.76,373.83z    M2000.61,364.05h-0.08l-1.66,5.07h3.39L2000.61,364.05z">
      </path>
      <path class="st5"
        d="M2009.34,373.83h-1.86v-11.5h4.96c1.03,0,1.84,0.31,2.44,0.93c0.59,0.62,0.89,1.46,0.89,2.53   c0,0.82-0.19,1.51-0.57,2.05c-0.38,0.54-0.94,0.93-1.67,1.15l2.49,4.84h-2.08l-2.31-4.65h-2.29V373.83L2009.34,373.83z    M2012.31,367.62c0.47,0,0.84-0.12,1.1-0.37c0.26-0.25,0.4-0.6,0.4-1.06v-0.79c0-0.46-0.13-0.81-0.4-1.06   c-0.26-0.24-0.63-0.37-1.1-0.37h-2.97v3.64H2012.31z">
      </path>
      <polygon class="st5"
        points="2020.36,373.83 2020.36,369.3 2016.41,362.33 2018.53,362.33 2021.33,367.46 2021.38,367.46    2024.17,362.33 2026.21,362.33 2022.22,369.27 2022.22,373.83  ">
      </polygon>
    </g>
    <path class="st4"
      d="M2192.07,598.38h65.69c7.03,0,12.77-5.75,12.77-12.77l0,0c0-7.03-5.75-12.78-12.77-12.78h-65.69  c-7.03,0-12.77,5.75-12.77,12.78l0,0C2179.29,592.63,2185.04,598.38,2192.07,598.38z">
    </path>
    <g>
      <polygon class="st5"
        points="2191.62,591.36 2191.62,579.86 2193.48,579.86 2193.48,589.71 2198.16,589.71 2198.16,591.36  "></polygon>
      <polygon class="st5"
        points="2199.57,591.36 2199.57,589.84 2201.14,589.84 2201.14,581.37 2199.57,581.37 2199.57,579.86    2204.58,579.86 2204.58,581.37 2203,581.37 2203,589.84 2204.58,589.84 2204.58,591.36  ">
      </polygon>
      <path class="st5"
        d="M2206.92,579.86h5.09c0.96,0,1.71,0.27,2.25,0.81c0.54,0.54,0.82,1.26,0.82,2.16c0,0.43-0.06,0.79-0.18,1.1   c-0.12,0.3-0.27,0.55-0.46,0.74c-0.19,0.19-0.4,0.34-0.64,0.43c-0.24,0.09-0.48,0.15-0.71,0.17v0.1c0.23,0.01,0.49,0.07,0.77,0.17   c0.28,0.1,0.54,0.26,0.78,0.47c0.24,0.21,0.44,0.49,0.61,0.82c0.16,0.33,0.25,0.74,0.25,1.23c0,0.46-0.07,0.9-0.22,1.3   c-0.15,0.41-0.35,0.76-0.62,1.05c-0.26,0.3-0.58,0.53-0.94,0.7c-0.36,0.17-0.76,0.26-1.19,0.26h-5.6V579.86L2206.92,579.86z    M2208.78,589.76h3.2c0.48,0,0.86-0.13,1.14-0.38c0.27-0.25,0.41-0.62,0.41-1.09v-0.56c0-0.47-0.14-0.83-0.41-1.09   c-0.27-0.25-0.65-0.38-1.14-0.38h-3.2V589.76L2208.78,589.76z M2208.78,584.72h2.88c0.46,0,0.82-0.12,1.07-0.35   c0.25-0.24,0.38-0.57,0.38-1.01v-0.53c0-0.44-0.13-0.78-0.38-1.01c-0.25-0.24-0.61-0.35-1.07-0.35h-2.88V584.72z">
      </path>
      <path class="st5"
        d="M2219.64,591.36h-1.86v-11.5h4.96c1.03,0,1.84,0.31,2.44,0.93c0.59,0.62,0.89,1.46,0.89,2.53   c0,0.82-0.19,1.51-0.57,2.05c-0.38,0.54-0.94,0.93-1.67,1.15l2.49,4.84h-2.08l-2.31-4.65h-2.29V591.36L2219.64,591.36z    M2222.6,585.15c0.47,0,0.84-0.12,1.1-0.37c0.26-0.25,0.4-0.6,0.4-1.06v-0.79c0-0.46-0.13-0.81-0.4-1.06   c-0.26-0.24-0.63-0.37-1.1-0.37h-2.97v3.64H2222.6z">
      </path>
      <path class="st5"
        d="M2235.75,591.36l-1.04-3.11h-4.3l-1,3.11h-1.89l3.92-11.5h2.34l3.92,11.5H2235.75L2235.75,591.36z    M2232.6,581.57h-0.08l-1.66,5.07h3.39L2232.6,581.57z">
      </path>
      <path class="st5"
        d="M2241.34,591.36h-1.86v-11.5h4.96c1.03,0,1.85,0.31,2.44,0.93c0.59,0.62,0.89,1.46,0.89,2.53   c0,0.82-0.19,1.51-0.57,2.05c-0.38,0.54-0.94,0.93-1.67,1.15l2.49,4.84h-2.08l-2.31-4.65h-2.29V591.36L2241.34,591.36z    M2244.3,585.15c0.47,0,0.84-0.12,1.1-0.37c0.26-0.25,0.4-0.6,0.4-1.06v-0.79c0-0.46-0.13-0.81-0.4-1.06   c-0.26-0.24-0.63-0.37-1.1-0.37h-2.97v3.64H2244.3z">
      </path>
      <polygon class="st5"
        points="2252.36,591.36 2252.36,586.83 2248.4,579.86 2250.53,579.86 2253.33,584.98 2253.38,584.98    2256.16,579.86 2258.2,579.86 2254.22,586.79 2254.22,591.36  ">
      </polygon>
    </g>
    <g>
      <path class="st6"
        d="M2148.11,866.14h-30.76c-3.46,0-6.3-2.83-6.3-6.3v-43.99c0-3.46,2.83-6.3,6.3-6.3h30.76   c3.46,0,6.3,2.83,6.3,6.3v43.99C2154.41,863.3,2151.57,866.14,2148.11,866.14z">
      </path>
      <path class="st7"
        d="M2133.84,833.3h-2.3v-5.89l-1.55,1.55l-1.63-1.63l4.33-4.33l4.33,4.33l-1.63,1.63l-1.55-1.55V833.3   L2133.84,833.3z M2133.92,842.39h-2.3v5.89l-1.55-1.55l-1.63,1.63l4.33,4.33l4.33-4.33l-1.63-1.63l-1.55,1.55V842.39z">
      </path>
    </g>
    <path class="st8"
      d="M2189.63,740.14c11.15,0,20.19,9.04,20.19,20.19c0,11.15-9.04,20.19-20.19,20.19  c-11.15,0-20.19-9.04-20.19-20.19C2169.44,749.18,2178.48,740.14,2189.63,740.14L2189.63,740.14z M2189.63,754.29  c2.03,0,3.68-1.65,3.68-3.68s-1.65-3.68-3.68-3.68c-2.03,0-3.68,1.65-3.68,3.68S2187.6,754.29,2189.63,754.29L2189.63,754.29z   M2184.43,773.73h10.39c1.83,0,3.03-2.28,2.21-4.22l-5.48-12.73c-0.25-0.73-0.93-1.21-1.69-1.21h-0.38c-0.76,0-1.43,0.48-1.68,1.2  l-5.57,12.75C2181.4,771.45,2182.6,773.73,2184.43,773.73z">
    </path>
    <path class="st8"
      d="M2189.63,645.64c11.15,0,20.19,9.04,20.19,20.19c0,11.15-9.04,20.19-20.19,20.19  c-11.15,0-20.19-9.04-20.19-20.19C2169.44,654.68,2178.48,645.64,2189.63,645.64L2189.63,645.64z M2193.92,661.17h-8.58  c-1.9,0-3.14,2.58-2.29,4.78l4.84,12.49c0.66,1.69,2.82,1.69,3.48,0l4.84-12.49C2197.06,663.76,2195.82,661.17,2193.92,661.17  L2193.92,661.17z M2189.63,659.57c2.1,0,3.81-1.71,3.81-3.81c0-2.1-1.71-3.81-3.81-3.81c-2.1,0-3.81,1.71-3.81,3.81  C2185.82,657.86,2187.53,659.57,2189.63,659.57z">
    </path>
    <g>
      <path class="st6"
        d="M443.08,1230.47h-33.93c-3.82,0-6.95-3.13-6.95-6.95v-48.53c0-3.82,3.13-6.95,6.95-6.95h33.93   c3.82,0,6.95,3.13,6.95,6.95v48.53C450.03,1227.35,446.91,1230.47,443.08,1230.47z">
      </path>
      <path class="st7"
        d="M427.34,1194.25h-2.54v-6.49l-1.71,1.71l-1.79-1.79l4.78-4.78l4.78,4.78l-1.79,1.79l-1.71-1.71V1194.25   L427.34,1194.25z M427.43,1204.27h-2.54v6.49l-1.71-1.71l-1.79,1.79l4.78,4.78l4.78-4.78l-1.79-1.79l-1.71,1.71V1204.27z">
      </path>
    </g>
    <path class="st4"
      d="M2086.05,1359.43h136.09c12.73,0,23.14-10.41,23.14-23.14l0,0c0-12.73-10.41-23.14-23.14-23.14h-136.09  c-12.73,0-23.14,10.41-23.14,23.14l0,0C2062.91,1349.02,2073.32,1359.43,2086.05,1359.43z">
    </path>
    <g>
      <path class="st5"
        d="M2094.45,1331.33l-1.04-3.11h-4.3l-1,3.11h-1.89l3.92-11.5h2.34l3.92,11.5H2094.45L2094.45,1331.33z    M2091.3,1321.55h-0.08l-1.66,5.07h3.39L2091.3,1321.55z">
      </path>
      <path class="st5"
        d="M2098.17,1319.84h4.07c0.74,0,1.4,0.12,2,0.36c0.6,0.24,1.11,0.6,1.53,1.08c0.42,0.48,0.75,1.08,0.98,1.8   c0.23,0.72,0.35,1.56,0.35,2.51s-0.11,1.79-0.35,2.51c-0.23,0.72-0.56,1.32-0.98,1.8c-0.42,0.48-0.93,0.84-1.53,1.08   c-0.6,0.24-1.27,0.36-2,0.36h-4.07V1319.84L2098.17,1319.84z M2102.24,1329.69c0.86,0,1.55-0.27,2.08-0.81   c0.53-0.54,0.79-1.33,0.79-2.37v-1.85c0-1.04-0.26-1.83-0.79-2.37c-0.53-0.54-1.22-0.81-2.08-0.81h-2.21v8.2H2102.24z">
      </path>
      <polygon class="st5"
        points="2118.22,1322.54 2118.13,1322.54 2117.23,1324.4 2114.71,1329 2112.19,1324.4 2111.28,1322.54    2111.2,1322.54 2111.2,1331.33 2109.42,1331.33 2109.42,1319.84 2111.63,1319.84 2114.71,1325.68 2114.81,1325.68 2117.89,1319.84    2120,1319.84 2120,1331.33 2118.22,1331.33  ">
      </polygon>
      <polygon class="st5"
        points="2122.34,1331.33 2122.34,1329.82 2123.9,1329.82 2123.9,1321.35 2122.34,1321.35 2122.34,1319.84    2127.34,1319.84 2127.34,1321.35 2125.76,1321.35 2125.76,1329.82 2127.34,1329.82 2127.34,1331.33  ">
      </polygon>
      <polygon class="st5"
        points="2132.78,1324.98 2131.51,1322.54 2131.46,1322.54 2131.46,1331.33 2129.68,1331.33 2129.68,1319.84    2131.76,1319.84 2135.51,1326.19 2136.78,1328.63 2136.83,1328.63 2136.83,1319.84 2138.61,1319.84 2138.61,1331.33    2136.54,1331.33  ">
      </polygon>
      <polygon class="st5"
        points="2140.95,1331.33 2140.95,1329.82 2142.52,1329.82 2142.52,1321.35 2140.95,1321.35 2140.95,1319.84    2145.96,1319.84 2145.96,1321.35 2144.38,1321.35 2144.38,1329.82 2145.96,1329.82 2145.96,1331.33  ">
      </polygon>
      <path class="st5"
        d="M2151.74,1331.53c-0.97,0-1.79-0.18-2.46-0.53c-0.68-0.35-1.25-0.82-1.74-1.42l1.28-1.2   c0.41,0.49,0.85,0.87,1.34,1.12s1.05,0.38,1.67,0.38c0.74,0,1.29-0.16,1.66-0.49c0.37-0.33,0.56-0.77,0.56-1.33   c0-0.45-0.13-0.81-0.4-1.07c-0.26-0.26-0.73-0.46-1.4-0.59l-1.02-0.18c-1.12-0.21-1.96-0.58-2.52-1.1   c-0.56-0.53-0.84-1.25-0.84-2.17c0-0.51,0.1-0.96,0.29-1.38c0.19-0.41,0.46-0.76,0.81-1.04c0.35-0.28,0.77-0.5,1.26-0.65   c0.49-0.15,1.05-0.23,1.66-0.23c0.87,0,1.62,0.15,2.26,0.45c0.64,0.3,1.18,0.74,1.63,1.31l-1.3,1.15c-0.3-0.38-0.66-0.69-1.09-0.92   c-0.43-0.23-0.96-0.35-1.6-0.35c-0.66,0-1.17,0.13-1.53,0.4c-0.36,0.26-0.54,0.65-0.54,1.15c0,0.48,0.15,0.84,0.44,1.08   c0.3,0.24,0.76,0.41,1.38,0.54l1.02,0.21c1.15,0.22,2,0.59,2.53,1.12c0.53,0.53,0.8,1.25,0.8,2.17c0,0.54-0.09,1.03-0.28,1.47   s-0.46,0.82-0.82,1.13c-0.36,0.31-0.79,0.55-1.31,0.73C2152.99,1331.45,2152.4,1331.53,2151.74,1331.53z">
      </path>
      <polygon class="st5"
        points="2162.14,1321.48 2162.14,1331.33 2160.28,1331.33 2160.28,1321.48 2156.85,1321.48 2156.85,1319.84    2165.56,1319.84 2165.56,1321.48  ">
      </polygon>
      <path class="st5"
        d="M2169.24,1331.33h-1.86v-11.5h4.96c1.03,0,1.84,0.31,2.44,0.93c0.59,0.62,0.89,1.46,0.89,2.53   c0,0.82-0.19,1.51-0.57,2.05c-0.38,0.54-0.94,0.93-1.67,1.15l2.49,4.84h-2.08l-2.31-4.65h-2.29V1331.33L2169.24,1331.33z    M2172.2,1325.12c0.47,0,0.84-0.12,1.1-0.37c0.26-0.25,0.4-0.6,0.4-1.06v-0.79c0-0.46-0.13-0.81-0.4-1.06   c-0.26-0.24-0.63-0.37-1.1-0.37h-2.97v3.64H2172.2z">
      </path>
      <path class="st5"
        d="M2185.35,1331.33l-1.04-3.11h-4.3l-1,3.11h-1.89l3.92-11.5h2.34l3.92,11.5H2185.35L2185.35,1331.33z    M2182.2,1321.55h-0.08l-1.66,5.07h3.39L2182.2,1321.55z">
      </path>
      <polygon class="st5"
        points="2192.27,1321.48 2192.27,1331.33 2190.41,1331.33 2190.41,1321.48 2186.98,1321.48 2186.98,1319.84    2195.7,1319.84 2195.7,1321.48  ">
      </polygon>
      <polygon class="st5"
        points="2196.91,1331.33 2196.91,1329.82 2198.48,1329.82 2198.48,1321.35 2196.91,1321.35 2196.91,1319.84    2201.92,1319.84 2201.92,1321.35 2200.34,1321.35 2200.34,1329.82 2201.92,1329.82 2201.92,1331.33  ">
      </polygon>
      <polygon class="st5"
        points="2206.91,1331.33 2203.14,1319.84 2205.07,1319.84 2206.9,1325.52 2208,1329.52 2208.07,1329.52    2209.19,1325.52 2211.02,1319.84 2212.89,1319.84 2209.07,1331.33  ">
      </polygon>
      <polygon class="st5"
        points="2214.61,1331.33 2214.61,1319.84 2221.97,1319.84 2221.97,1321.48 2216.47,1321.48 2216.47,1324.68    2221.46,1324.68 2221.46,1326.33 2216.47,1326.33 2216.47,1329.69 2221.97,1329.69 2221.97,1331.33  ">
      </polygon>
      <path class="st5"
        d="M2131.48,1352.95c-0.75,0-1.43-0.13-2.03-0.39c-0.61-0.26-1.13-0.64-1.57-1.14c-0.43-0.5-0.77-1.12-1-1.86   c-0.24-0.74-0.35-1.6-0.35-2.56c0-0.97,0.12-1.82,0.35-2.56c0.24-0.74,0.57-1.36,1-1.86c0.43-0.5,0.96-0.88,1.57-1.14   c0.61-0.26,1.29-0.39,2.03-0.39c0.75,0,1.43,0.13,2.03,0.39c0.61,0.26,1.13,0.64,1.56,1.14c0.43,0.5,0.77,1.12,1,1.86   c0.24,0.74,0.35,1.6,0.35,2.56c0,0.97-0.12,1.82-0.35,2.56c-0.24,0.74-0.57,1.36-1,1.86c-0.43,0.5-0.96,0.88-1.56,1.14   C2132.9,1352.82,2132.23,1352.95,2131.48,1352.95L2131.48,1352.95z M2131.48,1351.3c0.44,0,0.84-0.08,1.21-0.23   c0.37-0.16,0.68-0.38,0.94-0.67c0.26-0.29,0.46-0.65,0.6-1.07c0.14-0.42,0.21-0.89,0.21-1.42v-1.82c0-0.53-0.07-1-0.21-1.42   c-0.14-0.42-0.34-0.77-0.6-1.07c-0.26-0.29-0.57-0.51-0.94-0.67c-0.37-0.15-0.77-0.23-1.21-0.23c-0.45,0-0.86,0.08-1.22,0.23   c-0.36,0.16-0.67,0.38-0.93,0.67c-0.26,0.29-0.46,0.65-0.6,1.07c-0.14,0.42-0.21,0.89-0.21,1.42v1.82c0,0.53,0.07,1,0.21,1.42   c0.14,0.42,0.34,0.77,0.6,1.07c0.26,0.29,0.57,0.51,0.93,0.67C2130.62,1351.22,2131.03,1351.3,2131.48,1351.3z">
      </path>
      <polygon class="st5"
        points="2138.76,1352.75 2138.76,1341.25 2145.94,1341.25 2145.94,1342.9 2140.62,1342.9 2140.62,1346.1    2145.35,1346.1 2145.35,1347.74 2140.62,1347.74 2140.62,1352.75  ">
      </polygon>
      <polygon class="st5"
        points="2148.15,1352.75 2148.15,1341.25 2155.33,1341.25 2155.33,1342.9 2150.01,1342.9 2150.01,1346.1    2154.74,1346.1 2154.74,1347.74 2150.01,1347.74 2150.01,1352.75  ">
      </polygon>
      <polygon class="st5"
        points="2157.05,1352.75 2157.05,1351.24 2158.61,1351.24 2158.61,1342.77 2157.05,1342.77 2157.05,1341.25    2162.06,1341.25 2162.06,1342.77 2160.47,1342.77 2160.47,1351.24 2162.06,1351.24 2162.06,1352.75  ">
      </polygon>
      <path class="st5"
        d="M2168.71,1352.95c-1.5,0-2.69-0.51-3.54-1.52c-0.86-1.02-1.29-2.49-1.29-4.42c0-0.97,0.11-1.82,0.33-2.55   c0.22-0.74,0.54-1.36,0.96-1.86c0.42-0.51,0.93-0.89,1.52-1.14c0.6-0.26,1.27-0.39,2.02-0.39c1,0,1.84,0.22,2.51,0.65   c0.68,0.43,1.21,1.08,1.59,1.93l-1.57,0.86c-0.2-0.55-0.5-0.99-0.91-1.31c-0.41-0.32-0.95-0.49-1.62-0.49   c-0.89,0-1.59,0.3-2.09,0.91c-0.51,0.61-0.76,1.44-0.76,2.51v1.75c0,1.07,0.25,1.91,0.76,2.52c0.51,0.61,1.2,0.91,2.09,0.91   c0.69,0,1.25-0.18,1.69-0.54c0.43-0.36,0.75-0.82,0.96-1.38l1.5,0.91c-0.38,0.83-0.92,1.48-1.61,1.95   C2170.56,1352.72,2169.71,1352.95,2168.71,1352.95z">
      </path>
      <polygon class="st5"
        points="2174.84,1352.75 2174.84,1341.25 2182.2,1341.25 2182.2,1342.9 2176.7,1342.9 2176.7,1346.1    2181.69,1346.1 2181.69,1347.74 2176.7,1347.74 2176.7,1351.1 2182.2,1351.1 2182.2,1352.75  ">
      </polygon>
    </g>
    <path class="st4"
      d="M1490.12,1408.41h97.45c7.03,0,12.77-5.75,12.77-12.77l0,0c0-7.03-5.75-12.78-12.77-12.78h-97.45  c-7.03,0-12.77,5.75-12.77,12.78l0,0C1477.34,1402.66,1483.09,1408.41,1490.12,1408.41z">
    </path>
    <g>
      <path class="st5"
        d="M1493.55,1401.58c-0.97,0-1.79-0.18-2.46-0.53c-0.68-0.35-1.25-0.82-1.74-1.42l1.28-1.2   c0.41,0.49,0.85,0.87,1.34,1.12c0.49,0.25,1.05,0.38,1.67,0.38c0.74,0,1.29-0.16,1.66-0.49c0.37-0.33,0.56-0.77,0.56-1.33   c0-0.45-0.13-0.81-0.4-1.07c-0.26-0.26-0.73-0.46-1.4-0.59l-1.02-0.18c-1.12-0.21-1.96-0.58-2.52-1.1   c-0.56-0.53-0.84-1.25-0.84-2.17c0-0.51,0.1-0.96,0.29-1.38c0.19-0.41,0.46-0.76,0.81-1.04c0.35-0.28,0.77-0.5,1.26-0.65   c0.49-0.15,1.05-0.23,1.66-0.23c0.87,0,1.62,0.15,2.26,0.45c0.64,0.3,1.18,0.74,1.63,1.31l-1.3,1.15c-0.3-0.38-0.66-0.69-1.09-0.92   c-0.43-0.23-0.96-0.35-1.6-0.35c-0.66,0-1.17,0.13-1.53,0.4c-0.36,0.26-0.54,0.65-0.54,1.15c0,0.48,0.15,0.84,0.44,1.08   c0.3,0.24,0.76,0.41,1.38,0.54l1.02,0.21c1.15,0.22,2,0.59,2.53,1.12c0.53,0.53,0.8,1.25,0.8,2.17c0,0.54-0.09,1.03-0.28,1.47   c-0.19,0.44-0.46,0.82-0.82,1.13c-0.36,0.31-0.79,0.55-1.31,0.73C1494.8,1401.5,1494.21,1401.58,1493.55,1401.58z">
      </path>
      <polygon class="st5"
        points="1503.94,1391.53 1503.94,1401.38 1502.08,1401.38 1502.08,1391.53 1498.66,1391.53 1498.66,1389.88    1507.37,1389.88 1507.37,1391.53  ">
      </polygon>
      <path class="st5"
        d="M1515.3,1401.38l-1.04-3.11h-4.3l-1,3.11h-1.89l3.92-11.5h2.34l3.92,11.5H1515.3L1515.3,1401.38z    M1512.15,1391.6h-0.08l-1.66,5.07h3.39L1512.15,1391.6z">
      </path>
      <polygon class="st5"
        points="1519.02,1401.38 1519.02,1389.88 1526.2,1389.88 1526.2,1391.53 1520.88,1391.53 1520.88,1394.73    1525.61,1394.73 1525.61,1396.38 1520.88,1396.38 1520.88,1401.38  ">
      </polygon>
      <polygon class="st5"
        points="1528.41,1401.38 1528.41,1389.88 1535.59,1389.88 1535.59,1391.53 1530.27,1391.53 1530.27,1394.73    1535,1394.73 1535,1396.38 1530.27,1396.38 1530.27,1401.38  ">
      </polygon>
      <path class="st5"
        d="M1543.55,1401.38h-1.86v-11.5h4.96c1.03,0,1.85,0.31,2.44,0.93c0.59,0.62,0.89,1.46,0.89,2.53   c0,0.82-0.19,1.51-0.57,2.05c-0.38,0.54-0.94,0.93-1.67,1.15l2.49,4.84h-2.08l-2.31-4.65h-2.29V1401.38L1543.55,1401.38z    M1546.51,1395.17c0.47,0,0.84-0.12,1.1-0.37c0.26-0.25,0.4-0.6,0.4-1.06v-0.79c0-0.46-0.13-0.81-0.4-1.06   c-0.26-0.24-0.63-0.37-1.1-0.37h-2.97v3.64H1546.51z">
      </path>
      <path class="st5"
        d="M1556.76,1401.58c-0.75,0-1.42-0.13-2.03-0.39c-0.61-0.26-1.13-0.64-1.56-1.14c-0.43-0.5-0.77-1.12-1-1.86   c-0.24-0.74-0.35-1.6-0.35-2.56c0-0.97,0.12-1.82,0.35-2.56c0.24-0.74,0.57-1.36,1-1.86c0.43-0.5,0.96-0.88,1.56-1.14   c0.61-0.26,1.29-0.39,2.03-0.39c0.75,0,1.42,0.13,2.03,0.39c0.61,0.26,1.13,0.64,1.57,1.14c0.43,0.5,0.77,1.12,1,1.86   c0.24,0.74,0.35,1.6,0.35,2.56c0,0.97-0.12,1.82-0.35,2.56c-0.24,0.74-0.57,1.36-1,1.86c-0.43,0.5-0.96,0.88-1.57,1.14   C1558.19,1401.45,1557.51,1401.58,1556.76,1401.58L1556.76,1401.58z M1556.76,1399.93c0.44,0,0.84-0.08,1.21-0.23   c0.37-0.16,0.68-0.38,0.94-0.67c0.26-0.29,0.46-0.65,0.6-1.07c0.14-0.42,0.21-0.89,0.21-1.42v-1.82c0-0.53-0.07-1-0.21-1.42   c-0.14-0.42-0.34-0.77-0.6-1.07c-0.26-0.29-0.57-0.51-0.94-0.67c-0.37-0.15-0.77-0.23-1.21-0.23c-0.45,0-0.86,0.08-1.22,0.23   c-0.36,0.16-0.67,0.38-0.93,0.67c-0.26,0.29-0.46,0.65-0.6,1.07c-0.14,0.42-0.21,0.89-0.21,1.42v1.82c0,0.53,0.07,1.01,0.21,1.42   c0.14,0.42,0.34,0.77,0.6,1.07c0.26,0.29,0.57,0.51,0.93,0.67C1555.9,1399.86,1556.31,1399.93,1556.76,1399.93z">
      </path>
      <path class="st5"
        d="M1568.49,1401.58c-0.75,0-1.42-0.13-2.03-0.39c-0.61-0.26-1.13-0.64-1.56-1.14c-0.43-0.5-0.77-1.12-1-1.86   c-0.24-0.74-0.35-1.6-0.35-2.56c0-0.97,0.12-1.82,0.35-2.56c0.24-0.74,0.57-1.36,1-1.86c0.43-0.5,0.96-0.88,1.56-1.14   c0.61-0.26,1.29-0.39,2.03-0.39c0.75,0,1.42,0.13,2.03,0.39c0.61,0.26,1.13,0.64,1.57,1.14c0.43,0.5,0.77,1.12,1,1.86   c0.24,0.74,0.35,1.6,0.35,2.56c0,0.97-0.12,1.82-0.35,2.56c-0.24,0.74-0.57,1.36-1,1.86c-0.43,0.5-0.96,0.88-1.57,1.14   C1569.92,1401.45,1569.24,1401.58,1568.49,1401.58L1568.49,1401.58z M1568.49,1399.93c0.44,0,0.84-0.08,1.21-0.23   c0.37-0.16,0.68-0.38,0.94-0.67c0.26-0.29,0.46-0.65,0.6-1.07c0.14-0.42,0.21-0.89,0.21-1.42v-1.82c0-0.53-0.07-1-0.21-1.42   c-0.14-0.42-0.34-0.77-0.6-1.07c-0.26-0.29-0.57-0.51-0.94-0.67c-0.37-0.15-0.77-0.23-1.21-0.23c-0.45,0-0.86,0.08-1.22,0.23   c-0.36,0.16-0.67,0.38-0.93,0.67c-0.26,0.29-0.46,0.65-0.6,1.07c-0.14,0.42-0.21,0.89-0.21,1.42v1.82c0,0.53,0.07,1.01,0.21,1.42   c0.14,0.42,0.34,0.77,0.6,1.07c0.26,0.29,0.57,0.51,0.93,0.67C1567.63,1399.86,1568.04,1399.93,1568.49,1399.93z">
      </path>
      <polygon class="st5"
        points="1584.57,1392.59 1584.49,1392.59 1583.58,1394.45 1581.06,1399.04 1578.54,1394.45 1577.63,1392.59    1577.55,1392.59 1577.55,1401.38 1575.77,1401.38 1575.77,1389.88 1577.98,1389.88 1581.06,1395.73 1581.16,1395.73    1584.24,1389.88 1586.35,1389.88 1586.35,1401.38 1584.57,1401.38  ">
      </polygon>
    </g>
    <path class="st4"
      d="M923.17,1413.31h104.48c12.73,0,23.14-10.41,23.14-23.14l0,0c0-12.73-10.41-23.14-23.14-23.14H923.17  c-12.73,0-23.14,10.41-23.14,23.14l0,0C900.03,1402.9,910.44,1413.31,923.17,1413.31z">
    </path>
    <g>
      <path class="st5"
        d="M928.74,1385.41c-1.5,0-2.69-0.51-3.54-1.52c-0.86-1.02-1.29-2.49-1.29-4.42c0-0.97,0.11-1.82,0.33-2.55   c0.22-0.74,0.54-1.36,0.96-1.86c0.42-0.51,0.93-0.89,1.52-1.14c0.6-0.26,1.27-0.39,2.02-0.39c1,0,1.84,0.22,2.51,0.65   c0.68,0.43,1.21,1.08,1.59,1.93l-1.57,0.86c-0.2-0.55-0.5-0.99-0.91-1.31c-0.41-0.32-0.95-0.49-1.62-0.49   c-0.89,0-1.59,0.3-2.09,0.91c-0.51,0.61-0.76,1.44-0.76,2.51v1.75c0,1.07,0.25,1.91,0.76,2.52c0.51,0.61,1.2,0.91,2.09,0.91   c0.69,0,1.25-0.18,1.69-0.54c0.43-0.36,0.75-0.82,0.96-1.38l1.5,0.91c-0.38,0.83-0.92,1.48-1.61,1.95   C930.59,1385.18,929.74,1385.41,928.74,1385.41z">
      </path>
      <path class="st5"
        d="M939.11,1385.41c-0.75,0-1.42-0.13-2.03-0.39c-0.61-0.26-1.13-0.64-1.57-1.14c-0.43-0.5-0.77-1.12-1-1.86   c-0.24-0.74-0.35-1.6-0.35-2.56c0-0.97,0.12-1.82,0.35-2.56c0.24-0.74,0.57-1.36,1-1.86c0.43-0.5,0.96-0.88,1.57-1.14   c0.61-0.26,1.29-0.39,2.03-0.39c0.75,0,1.42,0.13,2.03,0.39c0.61,0.26,1.13,0.64,1.57,1.14c0.43,0.5,0.77,1.12,1,1.86   c0.24,0.74,0.35,1.6,0.35,2.56c0,0.97-0.12,1.82-0.35,2.56c-0.24,0.74-0.57,1.36-1,1.86c-0.43,0.5-0.96,0.88-1.57,1.14   C940.53,1385.28,939.85,1385.41,939.11,1385.41L939.11,1385.41z M939.11,1383.76c0.44,0,0.84-0.08,1.21-0.23   c0.37-0.16,0.68-0.38,0.94-0.67c0.26-0.29,0.46-0.65,0.6-1.07c0.14-0.42,0.21-0.89,0.21-1.42v-1.82c0-0.53-0.07-1-0.21-1.42   c-0.14-0.42-0.34-0.77-0.6-1.07c-0.26-0.29-0.57-0.51-0.94-0.67c-0.37-0.15-0.77-0.23-1.21-0.23c-0.45,0-0.86,0.08-1.22,0.23   c-0.36,0.16-0.67,0.38-0.93,0.67c-0.26,0.29-0.46,0.65-0.6,1.07c-0.14,0.42-0.21,0.89-0.21,1.42v1.82c0,0.53,0.07,1,0.21,1.42   c0.14,0.42,0.34,0.77,0.6,1.07c0.26,0.29,0.57,0.51,0.93,0.67C938.25,1383.69,938.66,1383.76,939.11,1383.76z">
      </path>
      <polygon class="st5"
        points="949.49,1378.85 948.22,1376.42 948.17,1376.42 948.17,1385.21 946.39,1385.21 946.39,1373.71    948.46,1373.71 952.22,1380.07 953.49,1382.51 953.54,1382.51 953.54,1373.71 955.32,1373.71 955.32,1385.21 953.24,1385.21  ">
      </polygon>
      <polygon class="st5"
        points="958.15,1385.21 958.15,1373.71 965.33,1373.71 965.33,1375.36 960.01,1375.36 960.01,1378.56    964.74,1378.56 964.74,1380.2 960.01,1380.2 960.01,1385.21  ">
      </polygon>
      <polygon class="st5"
        points="967.54,1385.21 967.54,1373.71 974.9,1373.71 974.9,1375.36 969.4,1375.36 969.4,1378.56    974.39,1378.56 974.39,1380.2 969.4,1380.2 969.4,1383.57 974.9,1383.57 974.9,1385.21  ">
      </polygon>
      <path class="st5"
        d="M979.17,1385.21h-1.86v-11.5h4.96c1.03,0,1.85,0.31,2.44,0.93c0.59,0.62,0.89,1.46,0.89,2.53   c0,0.82-0.19,1.51-0.57,2.05c-0.38,0.54-0.94,0.93-1.67,1.15l2.49,4.84h-2.08l-2.31-4.65h-2.29V1385.21L979.17,1385.21z    M982.14,1379c0.47,0,0.84-0.12,1.1-0.37c0.26-0.25,0.4-0.6,0.4-1.06v-0.79c0-0.46-0.13-0.81-0.4-1.06   c-0.26-0.24-0.63-0.37-1.1-0.37h-2.97v3.64H982.14z">
      </path>
      <polygon class="st5"
        points="988.1,1385.21 988.1,1373.71 995.46,1373.71 995.46,1375.36 989.96,1375.36 989.96,1378.56    994.95,1378.56 994.95,1380.2 989.96,1380.2 989.96,1383.57 995.46,1383.57 995.46,1385.21  ">
      </polygon>
      <polygon class="st5"
        points="1000.97,1378.85 999.7,1376.42 999.65,1376.42 999.65,1385.21 997.87,1385.21 997.87,1373.71    999.95,1373.71 1003.7,1380.07 1004.97,1382.51 1005.02,1382.51 1005.02,1373.71 1006.8,1373.71 1006.8,1385.21 1004.72,1385.21     ">
      </polygon>
      <path class="st5"
        d="M1013.95,1385.41c-1.5,0-2.69-0.51-3.54-1.52c-0.86-1.02-1.29-2.49-1.29-4.42c0-0.97,0.11-1.82,0.33-2.55   c0.22-0.74,0.54-1.36,0.96-1.86c0.42-0.51,0.93-0.89,1.52-1.14c0.6-0.26,1.27-0.39,2.02-0.39c1,0,1.84,0.22,2.51,0.65   c0.68,0.43,1.21,1.08,1.59,1.93l-1.57,0.86c-0.2-0.55-0.5-0.99-0.91-1.31c-0.41-0.32-0.95-0.49-1.62-0.49   c-0.89,0-1.59,0.3-2.09,0.91c-0.51,0.61-0.76,1.44-0.76,2.51v1.75c0,1.07,0.25,1.91,0.76,2.52c0.51,0.61,1.2,0.91,2.09,0.91   c0.69,0,1.25-0.18,1.69-0.54c0.43-0.36,0.75-0.82,0.96-1.38l1.5,0.91c-0.38,0.83-0.92,1.48-1.61,1.95   C1015.79,1385.18,1014.95,1385.41,1013.95,1385.41z">
      </path>
      <polygon class="st5"
        points="1020.08,1385.21 1020.08,1373.71 1027.44,1373.71 1027.44,1375.36 1021.94,1375.36 1021.94,1378.56    1026.93,1378.56 1026.93,1380.2 1021.94,1380.2 1021.94,1383.57 1027.44,1383.57 1027.44,1385.21  ">
      </polygon>
      <path class="st5"
        d="M955.25,1406.63h-1.86v-11.5h4.96c1.03,0,1.85,0.31,2.44,0.93c0.59,0.62,0.89,1.46,0.89,2.53   c0,0.82-0.19,1.51-0.57,2.05c-0.38,0.54-0.94,0.93-1.67,1.15l2.49,4.84h-2.08l-2.31-4.65h-2.29V1406.63L955.25,1406.63z    M958.22,1400.42c0.47,0,0.84-0.12,1.1-0.37c0.26-0.25,0.4-0.6,0.4-1.06v-0.79c0-0.46-0.13-0.81-0.4-1.06   c-0.26-0.24-0.63-0.37-1.1-0.37h-2.97v3.64H958.22z">
      </path>
      <path class="st5"
        d="M968.46,1406.83c-0.75,0-1.42-0.13-2.03-0.39c-0.61-0.26-1.13-0.64-1.57-1.14c-0.43-0.5-0.77-1.12-1-1.86   c-0.24-0.74-0.35-1.6-0.35-2.56c0-0.97,0.12-1.82,0.35-2.56c0.24-0.74,0.57-1.36,1-1.86c0.43-0.5,0.96-0.88,1.57-1.14   c0.61-0.26,1.29-0.39,2.03-0.39c0.75,0,1.43,0.13,2.03,0.39c0.61,0.26,1.13,0.64,1.57,1.14c0.43,0.5,0.77,1.12,1,1.86   c0.24,0.74,0.35,1.6,0.35,2.56c0,0.97-0.12,1.82-0.35,2.56c-0.24,0.74-0.57,1.36-1,1.86c-0.43,0.5-0.96,0.88-1.57,1.14   C969.89,1406.7,969.21,1406.83,968.46,1406.83L968.46,1406.83z M968.46,1405.18c0.44,0,0.84-0.08,1.21-0.23   c0.37-0.16,0.68-0.38,0.94-0.67c0.26-0.29,0.46-0.65,0.6-1.07c0.14-0.42,0.21-0.89,0.21-1.42v-1.82c0-0.53-0.07-1-0.21-1.42   c-0.14-0.42-0.34-0.77-0.6-1.07c-0.26-0.29-0.57-0.51-0.94-0.67c-0.37-0.15-0.77-0.23-1.21-0.23c-0.45,0-0.86,0.08-1.22,0.23   c-0.36,0.16-0.67,0.38-0.93,0.67c-0.26,0.29-0.46,0.65-0.6,1.07c-0.14,0.42-0.21,0.89-0.21,1.42v1.82c0,0.53,0.07,1,0.21,1.42   c0.14,0.42,0.34,0.77,0.6,1.07c0.26,0.29,0.57,0.51,0.93,0.67C967.61,1405.1,968.01,1405.18,968.46,1405.18z">
      </path>
      <path class="st5"
        d="M980.19,1406.83c-0.75,0-1.43-0.13-2.03-0.39c-0.61-0.26-1.13-0.64-1.57-1.14c-0.43-0.5-0.77-1.12-1-1.86   c-0.24-0.74-0.35-1.6-0.35-2.56c0-0.97,0.12-1.82,0.35-2.56c0.24-0.74,0.57-1.36,1-1.86c0.43-0.5,0.96-0.88,1.57-1.14   c0.61-0.26,1.29-0.39,2.03-0.39c0.75,0,1.42,0.13,2.03,0.39c0.61,0.26,1.13,0.64,1.57,1.14c0.43,0.5,0.77,1.12,1,1.86   c0.24,0.74,0.35,1.6,0.35,2.56c0,0.97-0.12,1.82-0.35,2.56c-0.24,0.74-0.57,1.36-1,1.86c-0.43,0.5-0.96,0.88-1.57,1.14   C981.62,1406.7,980.94,1406.83,980.19,1406.83L980.19,1406.83z M980.19,1405.18c0.44,0,0.84-0.08,1.21-0.23   c0.37-0.16,0.68-0.38,0.94-0.67c0.26-0.29,0.46-0.65,0.6-1.07c0.14-0.42,0.21-0.89,0.21-1.42v-1.82c0-0.53-0.07-1-0.21-1.42   c-0.14-0.42-0.34-0.77-0.6-1.07c-0.26-0.29-0.57-0.51-0.94-0.67c-0.37-0.15-0.77-0.23-1.21-0.23c-0.45,0-0.86,0.08-1.22,0.23   c-0.36,0.16-0.67,0.38-0.93,0.67c-0.26,0.29-0.46,0.65-0.6,1.07c-0.14,0.42-0.21,0.89-0.21,1.42v1.82c0,0.53,0.07,1,0.21,1.42   c0.14,0.42,0.34,0.77,0.6,1.07c0.26,0.29,0.57,0.51,0.93,0.67C979.34,1405.1,979.74,1405.18,980.19,1405.18z">
      </path>
      <polygon class="st5"
        points="996.27,1397.83 996.19,1397.83 995.28,1399.69 992.76,1404.29 990.24,1399.69 989.34,1397.83    989.25,1397.83 989.25,1406.63 987.47,1406.63 987.47,1395.13 989.68,1395.13 992.76,1400.98 992.86,1400.98 995.94,1395.13    998.05,1395.13 998.05,1406.63 996.27,1406.63  ">
      </polygon>
    </g>
    <path class="st4"
      d="M299.92,931.81h66.23c12.73,0,23.14-10.41,23.14-23.14l0,0c0-12.73-10.41-23.14-23.14-23.14h-66.23  c-12.73,0-23.14,10.41-23.14,23.14l0,0C276.78,921.4,287.19,931.81,299.92,931.81z">
    </path>
    <g>
      <path class="st5"
        d="M308.1,903.91c-0.97,0-1.79-0.18-2.46-0.53c-0.68-0.35-1.25-0.82-1.74-1.42l1.29-1.2   c0.41,0.49,0.85,0.87,1.34,1.12c0.49,0.25,1.05,0.38,1.67,0.38c0.74,0,1.29-0.16,1.66-0.49c0.37-0.33,0.56-0.77,0.56-1.33   c0-0.45-0.13-0.81-0.4-1.07c-0.26-0.26-0.73-0.46-1.4-0.59l-1.02-0.18c-1.12-0.21-1.96-0.58-2.52-1.1   c-0.56-0.53-0.84-1.25-0.84-2.17c0-0.51,0.1-0.96,0.29-1.38c0.19-0.41,0.46-0.76,0.81-1.04c0.35-0.28,0.77-0.5,1.26-0.65   c0.49-0.15,1.05-0.23,1.66-0.23c0.87,0,1.62,0.15,2.26,0.45c0.64,0.3,1.18,0.74,1.63,1.31l-1.3,1.15c-0.3-0.38-0.66-0.69-1.09-0.92   c-0.43-0.23-0.96-0.35-1.6-0.35c-0.66,0-1.17,0.13-1.53,0.4c-0.36,0.26-0.54,0.65-0.54,1.15c0,0.48,0.15,0.84,0.44,1.08   c0.3,0.24,0.76,0.41,1.38,0.54l1.02,0.21c1.15,0.22,2,0.59,2.53,1.12c0.53,0.53,0.8,1.25,0.8,2.17c0,0.54-0.09,1.03-0.28,1.47   c-0.19,0.44-0.46,0.82-0.82,1.13c-0.36,0.31-0.79,0.55-1.31,0.73C309.34,903.83,308.76,903.91,308.1,903.91z">
      </path>
      <polygon class="st5"
        points="318.49,893.86 318.49,903.71 316.63,903.71 316.63,893.86 313.21,893.86 313.21,892.21 321.92,892.21    321.92,893.86  ">
      </polygon>
      <path class="st5"
        d="M325.5,892.21v7.09c0,0.98,0.19,1.72,0.56,2.21c0.37,0.49,1.01,0.74,1.91,0.74c0.9,0,1.54-0.25,1.91-0.74   c0.37-0.5,0.56-1.23,0.56-2.21v-7.09h1.83V899c0,0.85-0.08,1.58-0.23,2.19c-0.15,0.62-0.4,1.12-0.74,1.52   c-0.34,0.4-0.78,0.7-1.33,0.9c-0.54,0.2-1.21,0.3-2,0.3c-0.79,0-1.46-0.1-2-0.3c-0.54-0.2-0.99-0.5-1.33-0.9   c-0.34-0.4-0.59-0.91-0.74-1.52c-0.15-0.62-0.23-1.35-0.23-2.19v-6.79H325.5z">
      </path>
      <path class="st5"
        d="M335.03,892.21h4.07c0.74,0,1.4,0.12,2,0.36c0.6,0.24,1.11,0.6,1.53,1.08c0.42,0.48,0.75,1.08,0.98,1.8   c0.23,0.72,0.35,1.56,0.35,2.51c0,0.96-0.12,1.79-0.35,2.51c-0.23,0.72-0.56,1.32-0.98,1.8c-0.42,0.48-0.93,0.84-1.53,1.08   c-0.6,0.24-1.27,0.36-2,0.36h-4.07V892.21L335.03,892.21z M339.1,902.07c0.86,0,1.55-0.27,2.08-0.81c0.53-0.54,0.79-1.33,0.79-2.37   v-1.85c0-1.04-0.26-1.83-0.79-2.37c-0.53-0.54-1.22-0.81-2.08-0.81h-2.21v8.2H339.1z">
      </path>
      <polygon class="st5"
        points="345.79,903.71 345.79,902.2 347.36,902.2 347.36,893.73 345.79,893.73 345.79,892.21 350.8,892.21    350.8,893.73 349.22,893.73 349.22,902.2 350.8,902.2 350.8,903.71  ">
      </polygon>
      <path class="st5"
        d="M357.59,903.91c-0.75,0-1.42-0.13-2.03-0.39c-0.61-0.26-1.13-0.64-1.57-1.14c-0.43-0.5-0.77-1.12-1-1.86   c-0.24-0.74-0.35-1.6-0.35-2.56c0-0.97,0.12-1.82,0.35-2.56c0.24-0.74,0.57-1.36,1-1.86c0.43-0.5,0.96-0.88,1.57-1.14   c0.61-0.26,1.29-0.39,2.03-0.39c0.75,0,1.42,0.13,2.03,0.39c0.61,0.26,1.13,0.64,1.57,1.14c0.43,0.5,0.77,1.12,1,1.86   c0.24,0.74,0.35,1.6,0.35,2.56c0,0.97-0.12,1.82-0.35,2.56c-0.24,0.74-0.57,1.36-1,1.86c-0.43,0.5-0.96,0.88-1.57,1.14   C359.01,903.78,358.33,903.91,357.59,903.91L357.59,903.91z M357.59,902.26c0.44,0,0.84-0.08,1.21-0.23   c0.37-0.16,0.68-0.38,0.94-0.67c0.26-0.29,0.46-0.65,0.6-1.07c0.14-0.42,0.21-0.89,0.21-1.42v-1.82c0-0.53-0.07-1-0.21-1.42   c-0.14-0.42-0.34-0.77-0.6-1.07c-0.26-0.29-0.57-0.51-0.94-0.67c-0.37-0.15-0.77-0.23-1.21-0.23c-0.45,0-0.86,0.08-1.22,0.23   c-0.36,0.16-0.67,0.38-0.93,0.67c-0.26,0.29-0.46,0.65-0.6,1.07c-0.14,0.42-0.21,0.89-0.21,1.42v1.82c0,0.53,0.07,1,0.21,1.42   c0.14,0.42,0.34,0.77,0.6,1.07c0.26,0.29,0.57,0.51,0.93,0.67C356.73,902.19,357.14,902.26,357.59,902.26z">
      </path>
      <polygon class="st5"
        points="303.56,915.28 303.56,925.13 301.7,925.13 301.7,915.28 298.27,915.28 298.27,913.63 306.99,913.63    306.99,915.28  ">
      </polygon>
      <polygon class="st5"
        points="315.87,920.12 310.66,920.12 310.66,925.13 308.8,925.13 308.8,913.63 310.66,913.63 310.66,918.47    315.87,918.47 315.87,913.63 317.73,913.63 317.73,925.13 315.87,925.13  ">
      </polygon>
      <polygon class="st5"
        points="320.56,925.13 320.56,913.63 327.92,913.63 327.92,915.28 322.42,915.28 322.42,918.47 327.41,918.47    327.41,920.12 322.42,920.12 322.42,923.48 327.92,923.48 327.92,925.13  ">
      </polygon>
      <path class="st5"
        d="M337.51,925.13l-1.04-3.11h-4.3l-1,3.11h-1.89l3.92-11.5h2.34l3.92,11.5H337.51L337.51,925.13z M334.37,915.34   h-0.08l-1.66,5.07h3.39L334.37,915.34z">
      </path>
      <polygon class="st5"
        points="344.43,915.28 344.43,925.13 342.57,925.13 342.57,915.28 339.14,915.28 339.14,913.63 347.86,913.63    347.86,915.28  ">
      </polygon>
      <path class="st5"
        d="M351.53,925.13h-1.86v-11.5h4.96c1.03,0,1.85,0.31,2.44,0.93c0.59,0.62,0.89,1.46,0.89,2.53   c0,0.82-0.19,1.51-0.57,2.05c-0.38,0.54-0.94,0.93-1.67,1.15l2.49,4.84h-2.08l-2.31-4.65h-2.29V925.13L351.53,925.13z    M354.5,918.92c0.47,0,0.84-0.12,1.1-0.37c0.26-0.25,0.4-0.6,0.4-1.06v-0.79c0-0.46-0.13-0.81-0.4-1.06   c-0.26-0.24-0.63-0.37-1.1-0.37h-2.97v3.64H354.5z">
      </path>
      <polygon class="st5"
        points="360.46,925.13 360.46,913.63 367.83,913.63 367.83,915.28 362.32,915.28 362.32,918.47 367.31,918.47    367.31,920.12 362.32,920.12 362.32,923.48 367.83,923.48 367.83,925.13  ">
      </polygon>
    </g>
    <path class="st4"
      d="M982.16,431.83h90.3c12.73,0,23.14-10.41,23.14-23.14l0,0c0-12.73-10.41-23.14-23.14-23.14h-90.3  c-12.73,0-23.14,10.41-23.14,23.14l0,0C959.03,421.42,969.44,431.83,982.16,431.83z">
    </path>
    <g>
      <path class="st5"
        d="M979.03,392.23h5.09c0.96,0,1.7,0.27,2.25,0.81c0.54,0.54,0.82,1.26,0.82,2.16c0,0.43-0.06,0.79-0.18,1.1   c-0.12,0.3-0.27,0.55-0.46,0.74c-0.19,0.19-0.4,0.33-0.64,0.43c-0.24,0.09-0.48,0.15-0.71,0.17v0.1c0.23,0.01,0.49,0.07,0.77,0.17   c0.28,0.1,0.54,0.26,0.78,0.47c0.24,0.21,0.44,0.49,0.61,0.82c0.16,0.33,0.25,0.74,0.25,1.23c0,0.46-0.07,0.9-0.22,1.3   c-0.15,0.41-0.35,0.76-0.62,1.05c-0.26,0.3-0.58,0.53-0.94,0.7c-0.36,0.17-0.76,0.26-1.19,0.26h-5.6V392.23L979.03,392.23z    M980.89,402.13h3.2c0.48,0,0.86-0.13,1.14-0.38c0.27-0.25,0.41-0.62,0.41-1.09v-0.56c0-0.47-0.14-0.83-0.41-1.09   c-0.27-0.25-0.65-0.38-1.14-0.38h-3.2V402.13L980.89,402.13z M980.89,397.09h2.88c0.46,0,0.82-0.12,1.07-0.35   c0.25-0.24,0.38-0.57,0.38-1.01v-0.53c0-0.44-0.13-0.78-0.38-1.01c-0.25-0.24-0.61-0.35-1.07-0.35h-2.88V397.09z">
      </path>
      <path class="st5"
        d="M996.87,403.73l-1.04-3.11h-4.3l-1,3.11h-1.89l3.92-11.5h2.34l3.92,11.5H996.87L996.87,403.73z M993.72,393.95   h-0.08l-1.66,5.07h3.39L993.72,393.95z">
      </path>
      <path class="st5"
        d="M1004.03,403.93c-0.97,0-1.79-0.18-2.46-0.53c-0.68-0.35-1.25-0.82-1.74-1.42l1.28-1.2   c0.41,0.49,0.85,0.87,1.34,1.12c0.49,0.25,1.05,0.38,1.67,0.38c0.74,0,1.29-0.16,1.66-0.49c0.37-0.33,0.56-0.77,0.56-1.33   c0-0.45-0.13-0.81-0.4-1.07c-0.26-0.26-0.73-0.46-1.4-0.59l-1.02-0.18c-1.12-0.21-1.96-0.58-2.52-1.1   c-0.56-0.53-0.84-1.25-0.84-2.17c0-0.51,0.1-0.96,0.29-1.38c0.19-0.41,0.46-0.76,0.81-1.04c0.35-0.28,0.77-0.5,1.26-0.65   c0.49-0.15,1.05-0.23,1.66-0.23c0.87,0,1.62,0.15,2.26,0.45c0.64,0.3,1.18,0.74,1.63,1.31l-1.3,1.15c-0.3-0.38-0.66-0.69-1.09-0.92   c-0.43-0.23-0.96-0.35-1.6-0.35c-0.66,0-1.17,0.13-1.53,0.4c-0.36,0.26-0.54,0.65-0.54,1.15c0,0.48,0.15,0.84,0.44,1.08   c0.3,0.24,0.76,0.41,1.38,0.54l1.02,0.21c1.15,0.22,2,0.59,2.53,1.12c0.53,0.53,0.8,1.25,0.8,2.17c0,0.54-0.09,1.03-0.28,1.47   c-0.19,0.44-0.46,0.82-0.82,1.13c-0.36,0.31-0.79,0.55-1.31,0.73C1005.28,403.84,1004.69,403.93,1004.03,403.93z">
      </path>
      <polygon class="st5"
        points="1013.88,398.36 1012.3,400.17 1012.3,403.73 1010.44,403.73 1010.44,392.23 1012.3,392.23    1012.3,398.06 1012.37,398.06 1014.02,395.97 1017.11,392.23 1019.29,392.23 1015.19,397.08 1019.62,403.73 1017.38,403.73  ">
      </polygon>
      <polygon class="st5"
        points="1021.31,403.73 1021.31,392.23 1028.68,392.23 1028.68,393.88 1023.18,393.88 1023.18,397.08    1028.17,397.08 1028.17,398.72 1023.18,398.72 1023.18,402.08 1028.68,402.08 1028.68,403.73  ">
      </polygon>
      <polygon class="st5"
        points="1035.35,393.88 1035.35,403.73 1033.49,403.73 1033.49,393.88 1030.06,393.88 1030.06,392.23    1038.78,392.23 1038.78,393.88  ">
      </polygon>
      <path class="st5"
        d="M1040.59,392.23h5.09c0.96,0,1.71,0.27,2.25,0.81c0.54,0.54,0.82,1.26,0.82,2.16c0,0.43-0.06,0.79-0.18,1.1   c-0.12,0.3-0.27,0.55-0.46,0.74c-0.19,0.19-0.4,0.33-0.64,0.43c-0.24,0.09-0.48,0.15-0.71,0.17v0.1c0.23,0.01,0.49,0.07,0.77,0.17   c0.28,0.1,0.54,0.26,0.78,0.47c0.24,0.21,0.44,0.49,0.61,0.82c0.16,0.33,0.25,0.74,0.25,1.23c0,0.46-0.07,0.9-0.22,1.3   c-0.15,0.41-0.35,0.76-0.62,1.05c-0.26,0.3-0.58,0.53-0.94,0.7c-0.36,0.17-0.76,0.26-1.19,0.26h-5.6V392.23L1040.59,392.23z    M1042.45,402.13h3.2c0.48,0,0.86-0.13,1.14-0.38c0.27-0.25,0.41-0.62,0.41-1.09v-0.56c0-0.47-0.14-0.83-0.41-1.09   c-0.27-0.25-0.65-0.38-1.14-0.38h-3.2V402.13L1042.45,402.13z M1042.45,397.09h2.88c0.46,0,0.82-0.12,1.07-0.35   c0.25-0.24,0.38-0.57,0.38-1.01v-0.53c0-0.44-0.13-0.78-0.38-1.01c-0.25-0.24-0.61-0.35-1.07-0.35h-2.88V397.09z">
      </path>
      <path class="st5"
        d="M1058.43,403.73l-1.04-3.11h-4.3l-1,3.11h-1.89l3.92-11.5h2.34l3.92,11.5H1058.43L1058.43,403.73z    M1055.28,393.95h-0.08l-1.66,5.07h3.39L1055.28,393.95z">
      </path>
      <polygon class="st5"
        points="1062.15,403.73 1062.15,392.23 1064.01,392.23 1064.01,402.08 1068.69,402.08 1068.69,403.73  "></polygon>
      <polygon class="st5"
        points="1070.6,403.73 1070.6,392.23 1072.47,392.23 1072.47,402.08 1077.14,402.08 1077.14,403.73  "></polygon>
      <path class="st5"
        d="M1006.78,425.35c-1.5,0-2.69-0.51-3.54-1.52c-0.86-1.02-1.29-2.49-1.29-4.42c0-0.97,0.11-1.82,0.33-2.55   c0.22-0.74,0.54-1.36,0.96-1.86c0.42-0.51,0.93-0.89,1.52-1.14c0.6-0.26,1.27-0.39,2.02-0.39c1,0,1.84,0.22,2.51,0.65   c0.68,0.43,1.21,1.08,1.59,1.93l-1.57,0.86c-0.2-0.55-0.5-0.99-0.91-1.31c-0.41-0.32-0.95-0.49-1.62-0.49   c-0.89,0-1.59,0.3-2.09,0.91c-0.51,0.61-0.76,1.44-0.76,2.51v1.75c0,1.07,0.25,1.91,0.76,2.52c0.51,0.61,1.2,0.91,2.09,0.91   c0.69,0,1.25-0.18,1.69-0.54c0.43-0.36,0.75-0.82,0.96-1.38l1.5,0.91c-0.38,0.83-0.92,1.48-1.61,1.95   C1008.62,425.11,1007.77,425.35,1006.78,425.35z">
      </path>
      <path class="st5"
        d="M1017.14,425.35c-0.75,0-1.42-0.13-2.03-0.39c-0.61-0.26-1.13-0.64-1.56-1.14c-0.43-0.5-0.77-1.12-1-1.86   c-0.24-0.74-0.35-1.6-0.35-2.56c0-0.97,0.12-1.82,0.35-2.56c0.24-0.74,0.57-1.36,1-1.86c0.43-0.5,0.96-0.88,1.56-1.14   c0.61-0.26,1.29-0.39,2.03-0.39c0.75,0,1.42,0.13,2.03,0.39c0.61,0.26,1.13,0.64,1.57,1.14c0.43,0.5,0.77,1.12,1,1.86   c0.24,0.74,0.35,1.6,0.35,2.56c0,0.97-0.12,1.82-0.35,2.56c-0.24,0.74-0.57,1.36-1,1.86c-0.43,0.5-0.96,0.88-1.57,1.14   C1018.56,425.22,1017.88,425.35,1017.14,425.35L1017.14,425.35z M1017.14,423.7c0.44,0,0.84-0.08,1.21-0.23   c0.37-0.16,0.68-0.38,0.94-0.67c0.26-0.29,0.46-0.65,0.6-1.07c0.14-0.42,0.21-0.89,0.21-1.42v-1.82c0-0.53-0.07-1-0.21-1.42   c-0.14-0.42-0.34-0.77-0.6-1.07c-0.26-0.29-0.57-0.51-0.94-0.67c-0.37-0.15-0.77-0.23-1.21-0.23c-0.45,0-0.86,0.08-1.22,0.23   c-0.36,0.16-0.67,0.38-0.93,0.67c-0.26,0.29-0.46,0.65-0.6,1.07c-0.14,0.42-0.21,0.89-0.21,1.42v1.82c0,0.53,0.07,1,0.21,1.42   c0.14,0.42,0.34,0.77,0.6,1.07c0.26,0.29,0.57,0.51,0.93,0.67C1016.28,423.62,1016.69,423.7,1017.14,423.7z">
      </path>
      <path class="st5"
        d="M1026.18,413.65v7.09c0,0.98,0.19,1.72,0.56,2.21c0.37,0.49,1.01,0.74,1.91,0.74c0.9,0,1.54-0.25,1.91-0.74   c0.37-0.5,0.56-1.23,0.56-2.21v-7.09h1.83v6.79c0,0.85-0.08,1.58-0.23,2.19c-0.15,0.62-0.4,1.12-0.74,1.52   c-0.34,0.4-0.78,0.7-1.33,0.9c-0.54,0.2-1.21,0.3-2,0.3c-0.79,0-1.46-0.1-2-0.3c-0.54-0.2-0.99-0.5-1.33-0.9   c-0.34-0.4-0.59-0.91-0.74-1.52c-0.15-0.62-0.23-1.35-0.23-2.19v-6.79H1026.18z">
      </path>
      <path class="st5"
        d="M1037.58,425.15h-1.86v-11.5h4.96c1.03,0,1.85,0.31,2.44,0.93c0.59,0.62,0.89,1.46,0.89,2.53   c0,0.82-0.19,1.51-0.57,2.05c-0.38,0.54-0.94,0.93-1.67,1.15l2.49,4.84h-2.08l-2.31-4.65h-2.29V425.15L1037.58,425.15z    M1040.55,418.94c0.47,0,0.84-0.12,1.1-0.37c0.26-0.25,0.4-0.6,0.4-1.06v-0.79c0-0.46-0.13-0.81-0.4-1.06   c-0.26-0.24-0.63-0.37-1.1-0.37h-2.97v3.64H1040.55z">
      </path>
      <polygon class="st5"
        points="1050.38,415.3 1050.38,425.15 1048.52,425.15 1048.52,415.3 1045.09,415.3 1045.09,413.65    1053.81,413.65 1053.81,415.3  ">
      </polygon>
    </g>

    <!---->

    <defs>
      <filter id="dropShadow809305">
        <feDropShadow dx="0" dy="0" stdDeviation="3" flood-opacity="0.2"></feDropShadow>
      </filter>
    </defs>

    

    <!---->
    

    <!---->
    <!---->
    <!---->
    <rect role="button" x="1737.6370849609375" y="212.1629180908203" width="532.0911865234375"
      height="319.92820739746094" opacity="0" class="cursor-pointer"></rect>



    <defs>
      <filter id="dropShadow810215">
        <feDropShadow dx="0" dy="0" stdDeviation="3" flood-opacity="0.2"></feDropShadow>
      </filter>
    </defs>

    

    <!---->
    

    <!---->
    <!---->
    <!---->
    <rect role="button" x="2158.59521484375" y="548.929443359375" width="124.603515625" height="67.35333251953125"
      opacity="0" class="cursor-pointer"></rect>



    <defs>
      <filter id="dropShadow1162357">
        <feDropShadow dx="0" dy="0" stdDeviation="3" flood-opacity="0.2"></feDropShadow>
      </filter>
    </defs>

    

    <!---->
    

    <!---->
    <!---->
    <!---->
    <rect role="button" x="1727.5340576171875" y="535.4588012695312" width="276.1485595703125"
      height="397.38446044921875" opacity="0" class="cursor-pointer"></rect>



    <defs>
      <filter id="dropShadow794953">
        <feDropShadow dx="0" dy="0" stdDeviation="3" flood-opacity="0.2"></feDropShadow>
      </filter>
    </defs>

    

    <!---->
    

    <!---->
    <!---->
    <!---->
    <rect role="button" x="734.0728149414062" y="80.82396697998047" width="687.0037231445312" height="825.078010559082"
      opacity="0" class="cursor-pointer"></rect>



    <defs>
      <filter id="dropShadow794952">
        <feDropShadow dx="0" dy="0" stdDeviation="3" flood-opacity="0.2"></feDropShadow>
      </filter>
    </defs>

    

    <!---->
    

    <!---->
    <!---->
    <defs>
      <filter id="dropShadowPin794952">
        <feDropShadow dx="0" dy="0" stdDeviation="0.2" flood-opacity="0.1"></feDropShadow>
      </filter>
    </defs>

    

    <svg x="316.08977661132815" y="911.2646533203125" width="13.299999999999999" height="13.299999999999999" class="text-secondary
    ">
      <svg style="transform-origin: 0.5em 0.5em;" class="svg-inline--fa fa-stamp" data-prefix="fas" data-icon="stamp"
        data-fa-transform="" data-fa-mask="" data-fa-processed="" aria-hidden="true" aria-labelledby="" role="img"
        viewBox="0 0 512 512">
        <g transform="translate(256 256)">
          <g transform="translate(0, 0)  scale(1, 1)  rotate(360 0 0)">
            <path fill="currentColor"
              d="M312 201.8c0-17.4 9.2-33.2 19.9-47 12.6-16.2 20.1-36.6 20.1-58.8 0-53-43-96-96-96s-96 43-96 96c0 22.1 7.5 42.5 20.1 58.8 10.7 13.8 19.9 29.6 19.9 47 0 29.9-24.3 54.2-54.2 54.2L112 256c-61.9 0-112 50.1-112 112 0 26.5 21.5 48 48 48l416 0c26.5 0 48-21.5 48-48 0-61.9-50.1-112-112-112l-33.8 0c-29.9 0-54.2-24.3-54.2-54.2zM56 464c-13.3 0-24 10.7-24 24s10.7 24 24 24l400 0c13.3 0 24-10.7 24-24s-10.7-24-24-24L56 464z"
              transform="translate(-256 -256)"></path>
          </g>
        </g>
      </svg>
    </svg>

    <rect role="button" x="117.7900390625" y="710.577392578125" width="447.89947509765625" height="397.384521484375"
      opacity="0" class="cursor-pointer"></rect>



    <defs>
      <filter id="dropShadow997733">
        <feDropShadow dx="0" dy="0" stdDeviation="3" flood-opacity="0.2"></feDropShadow>
      </filter>
    </defs>

    

    <!---->
    

    <!---->
    <!---->
    <!---->
    <rect role="button" x="2027.2562255859375" y="1054.0792236328125" width="114.5006103515625"
      height="188.5892333984375" opacity="0" class="cursor-pointer"></rect>



    <defs>
      <filter id="dropShadow794942">
        <feDropShadow dx="0" dy="0" stdDeviation="3" flood-opacity="0.2"></feDropShadow>
      </filter>
    </defs>

    

    <!---->
    

    <!---->
    <!---->
    <!---->
    <rect role="button" x="835.1027221679688" y="1202.2564697265625" width="279.51629638671875"
      height="367.0755615234375" opacity="0" class="cursor-pointer"></rect>


  </g>
</svg>