<svg  viewBox="-490.18371323529414 0 2664.1474264705885 1190.55" xmlns="http://www.w3.org/2000/svg">

  <defs>
    <style type="text/css">
      .st0 {
        fill-rule: evenodd;
        clip-rule: evenodd;
        fill: #F0F5FB;
        stroke: #87A3B8;
        stroke-width: 9.6001;
        stroke-linecap: round;
        stroke-linejoin: round;
        stroke-miterlimit: 2.6131;
      }

      .st1 {
        fill-rule: evenodd;
        clip-rule: evenodd;
        fill: none;
        stroke: #87A3B8;
        stroke-width: 1.9199;
        stroke-linecap: round;
        stroke-linejoin: round;
        stroke-miterlimit: 2.6131;
        stroke-dasharray: 1.9199, 3.8398;
      }

      .st2 {
        fill-rule: evenodd;
        clip-rule: evenodd;
        fill: #D6E5EF;
      }

      .st3 {
        fill-rule: evenodd;
        clip-rule: evenodd;
        fill: #A9C2CC;
      }

      .st4 {
        fill-rule: evenodd;
        clip-rule: evenodd;
        fill: #F0F5FB;
      }

      .st5 {
        fill-rule: evenodd;
        clip-rule: evenodd;
        fill: #87A3B8;
      }

      .st6 {
        fill-rule: evenodd;
        clip-rule: evenodd;
        fill: #010005;
      }
    </style>
  </defs>

  <g transform="rotate(0)">

    <g>
      <path class="st0"
        d="M30.67,81.86v634.33l18.71,3.4L32.37,983.18l102.04,8.5l-1.7,32.31l1520.35,86.73V182.19h-22.11v-64.62   c0-19.37-14.73-35.57-34.01-37.41L30.67,81.86z">
      </path>
      <path class="st1"
        d="M30.67,367.56h25.51 M1259.57,386.26V80.52l0,0 M1075.69,386.26V80.72l0,0 M95.29,367.56h133.07    M267.48,367.56h17.43 M324.02,367.56H453.7 M492.81,367.56h12.33v-57.82h130.95v78.23h153.05 M379.3,748.43l-16.47,288.69    M610.56,761.61l-16.47,288.71 M842.76,774.84l-16.47,288.72h0 M1099.54,789.46l-16.47,288.74h0 M1329.81,802.58l-16.47,288.76h0    M1559.52,815.67l-16.47,288.78h0 M134.41,991.68l22.11-255.94l10.82,0.62 M206.44,738.59l125,7.12 M370.55,747.93l21.26,1.21    M430.92,751.37l129.25,7.36 M599.29,760.97l20.41,1.16 M658.81,764.36l134.35,7.65 M832.27,774.24l14.46,0.82 M885.84,777.29   l167.51,9.54 M1092.46,789.06l22.11,1.26 M1153.68,792.55l125.85,7.17 M1318.64,801.95l22.96,1.31 M1380.72,805.48l128.4,7.31    M1548.23,815.03l11.29,0.64l1.7-96.93l91.83,8.5 M1630.94,182.19h-65.47 M1565.47,80.19l0,299.27h87.58 M946.45,80.86l0,305.4   h2.97 M988.54,386.26h174.31 M1241.08,386.26h172.61 M1452.8,386.26h8.93V80.3l0,0 M702.41,309.74h83.33 M785.74,214.5V334.4    M702.41,214.5H820.6 M702.41,309.74V81.13v0 M636.09,309.74h66.32v78.23 M603.77,309.74V81.23v0 M505.14,309.74V81.34v0    M275.56,81.59v285.97 M403.1,458.54l-11.9,202.37l710.86,40.81l17.01-246.59L403.1,458.54z">
      </path>
      <path class="st2"
        d="M106.7,822.62v7.84h7.84v7.84h7.84v7.84h7.84v9.74c-22.17,0-44.35,0-66.52,0v-66.52h9.74v7.84h7.84v7.84h7.84   v7.84h7.84v9.74H106.7L106.7,822.62z M129.26,837.46l2.69-2.69l-6.88-6.88h3.63v-3.81h-10.12v10.12h3.81v-3.63L129.26,837.46z">
      </path>
      <path class="st2"
        d="M1504.47,204.63v7.84h-7.84v7.84h-7.84v7.84h-7.84v9.74c22.17,0,44.35,0,66.52,0v-66.52h-9.74v7.84h-7.84v7.84   h-7.84v7.84h-7.84v9.74H1504.47L1504.47,204.63z M1481.91,219.47l-2.69-2.69l6.88-6.88h-3.63v-3.81h10.12v10.12h-3.81v-3.62   L1481.91,219.47z">
      </path>
      <path class="st2"
        d="M773.62,150.28v10.3h10.3v10.3h10.3v10.3h10.3v12.8c-29.14,0-58.28,0-87.42,0v-87.42h12.8v10.3h10.3v10.3h10.3   v10.3h10.3v12.8H773.62L773.62,150.28z M803.27,169.78l3.54-3.54l-9.04-9.04h4.76v-5h-13.3v13.3h5v-4.76L803.27,169.78z">
      </path>
      <g>
        <path class="st3"
          d="M765.79,303.98h-44.63c-5.03,0-9.14-4.11-9.14-9.14v-63.83c0-5.03,4.11-9.14,9.14-9.14h44.63    c5.03,0,9.14,4.11,9.14,9.14v63.83C774.93,299.87,770.81,303.98,765.79,303.98z">
        </path>
        <path class="st4"
          d="M745.09,256.34h-3.34v-8.54l-2.25,2.25l-2.36-2.36l6.28-6.28l6.28,6.28l-2.36,2.36l-2.25-2.25V256.34    L745.09,256.34z M745.2,269.52h-3.34v8.54l-2.25-2.25l-2.36,2.36l6.28,6.28l6.28-6.28l-2.36-2.36l-2.25,2.25V269.52z">
        </path>
      </g>
      <path class="st5"
        d="M654.69,181.05c10.61,0,19.21,8.6,19.21,19.21c0,10.61-8.6,19.21-19.21,19.21c-10.61,0-19.21-8.6-19.21-19.21   C635.48,189.65,644.08,181.05,654.69,181.05L654.69,181.05z M654.69,194.51c1.93,0,3.5-1.57,3.5-3.5c0-1.93-1.57-3.5-3.5-3.5   c-1.93,0-3.5,1.57-3.5,3.5C651.19,192.95,652.76,194.51,654.69,194.51L654.69,194.51z M649.75,213.01h9.89   c1.75,0,2.88-2.17,2.1-4.01l-5.22-12.11c-0.24-0.69-0.88-1.15-1.6-1.15h-0.37c-0.72,0-1.36,0.46-1.6,1.14l-5.3,12.12   C646.87,210.84,648,213.01,649.75,213.01z">
      </path>
      <path class="st5"
        d="M555.21,181.05c10.61,0,19.21,8.6,19.21,19.21c0,10.61-8.6,19.21-19.21,19.21c-10.61,0-19.21-8.6-19.21-19.21   C536.01,189.65,544.61,181.05,555.21,181.05L555.21,181.05z M559.29,195.83h-8.16c-1.81,0-2.99,2.46-2.18,4.54l4.6,11.88   c0.62,1.61,2.68,1.61,3.31,0l4.6-11.88C562.28,198.29,561.1,195.83,559.29,195.83L559.29,195.83z M555.21,194.3   c2,0,3.63-1.62,3.63-3.62c0-2-1.62-3.63-3.63-3.63c-2,0-3.62,1.62-3.62,3.63C551.59,192.68,553.21,194.3,555.21,194.3z">
      </path>
      <path class="st2"
        d="M105.15,252.72H218.1c14.88,0,27.06-12.18,27.06-27.06l0,0c0-14.88-12.18-27.06-27.06-27.06H105.15   c-14.89,0-27.06,12.18-27.06,27.06l0,0C78.09,240.55,90.27,252.72,105.15,252.72z">
      </path>
      <g>
        <path class="st6"
          d="M112.78,220.2c-1.73,0-3.08-0.58-4.07-1.75c-0.98-1.17-1.47-2.86-1.47-5.08c0-1.11,0.13-2.09,0.38-2.93    c0.25-0.84,0.62-1.56,1.1-2.14c0.48-0.58,1.06-1.02,1.75-1.31c0.69-0.3,1.46-0.44,2.32-0.44c1.15,0,2.11,0.25,2.88,0.75    c0.78,0.5,1.38,1.24,1.82,2.22l-1.8,0.98c-0.23-0.63-0.58-1.13-1.05-1.5c-0.47-0.37-1.09-0.56-1.86-0.56    c-1.02,0-1.82,0.35-2.4,1.04c-0.58,0.7-0.87,1.66-0.87,2.89v2.01c0,1.23,0.29,2.19,0.87,2.89c0.58,0.7,1.38,1.04,2.4,1.04    c0.79,0,1.44-0.2,1.94-0.61c0.5-0.41,0.87-0.94,1.11-1.58l1.72,1.04c-0.44,0.96-1.06,1.7-1.85,2.24    C114.9,219.93,113.93,220.2,112.78,220.2z">
        </path>
        <polygon class="st6"
          points="119.81,219.97 119.81,206.77 121.95,206.77 121.95,218.08 127.32,218.08 127.32,219.97   "></polygon>
        <path class="st6"
          d="M138.1,219.97l-1.19-3.57h-4.93l-1.15,3.57h-2.17l4.5-13.2h2.68l4.5,13.2H138.1L138.1,219.97z M134.48,208.74    h-0.09l-1.91,5.82h3.9L134.48,208.74z">
        </path>
        <path class="st6"
          d="M146.32,220.2c-1.11,0-2.05-0.2-2.83-0.6c-0.78-0.4-1.44-0.95-1.99-1.63l1.47-1.38    c0.47,0.57,0.98,1,1.54,1.29c0.56,0.29,1.2,0.43,1.92,0.43c0.84,0,1.48-0.19,1.91-0.57c0.43-0.38,0.64-0.89,0.64-1.53    c0-0.52-0.15-0.93-0.45-1.23c-0.3-0.3-0.84-0.53-1.61-0.68l-1.17-0.21c-1.29-0.24-2.25-0.66-2.89-1.27    c-0.64-0.61-0.96-1.44-0.96-2.5c0-0.58,0.11-1.11,0.33-1.58c0.22-0.47,0.53-0.87,0.93-1.19c0.4-0.32,0.88-0.57,1.45-0.75    c0.57-0.18,1.2-0.26,1.91-0.26c1,0,1.86,0.17,2.59,0.52c0.73,0.35,1.36,0.85,1.87,1.5l-1.49,1.32c-0.34-0.44-0.76-0.79-1.25-1.06    c-0.49-0.26-1.1-0.4-1.83-0.4c-0.76,0-1.34,0.15-1.76,0.45c-0.42,0.3-0.62,0.74-0.62,1.32c0,0.55,0.17,0.97,0.51,1.24    c0.34,0.27,0.87,0.48,1.59,0.61l1.17,0.25c1.32,0.25,2.29,0.68,2.9,1.29c0.61,0.61,0.92,1.44,0.92,2.5c0,0.62-0.11,1.18-0.32,1.68    c-0.21,0.5-0.53,0.94-0.94,1.3c-0.41,0.36-0.91,0.64-1.5,0.83C147.75,220.1,147.08,220.2,146.32,220.2z">
        </path>
        <path class="st6"
          d="M157.4,220.2c-1.11,0-2.05-0.2-2.83-0.6c-0.78-0.4-1.44-0.95-1.99-1.63l1.47-1.38c0.47,0.57,0.98,1,1.54,1.29    c0.56,0.29,1.2,0.43,1.92,0.43c0.84,0,1.48-0.19,1.91-0.57c0.43-0.38,0.64-0.89,0.64-1.53c0-0.52-0.15-0.93-0.45-1.23    c-0.3-0.3-0.84-0.53-1.61-0.68l-1.17-0.21c-1.29-0.24-2.25-0.66-2.89-1.27c-0.64-0.61-0.96-1.44-0.96-2.5    c0-0.58,0.11-1.11,0.33-1.58c0.22-0.47,0.53-0.87,0.93-1.19c0.4-0.32,0.88-0.57,1.45-0.75c0.57-0.18,1.2-0.26,1.91-0.26    c1,0,1.86,0.17,2.59,0.52c0.73,0.35,1.36,0.85,1.87,1.5l-1.49,1.32c-0.34-0.44-0.76-0.79-1.25-1.06c-0.49-0.26-1.1-0.4-1.83-0.4    c-0.76,0-1.34,0.15-1.76,0.45c-0.42,0.3-0.62,0.74-0.62,1.32c0,0.55,0.17,0.97,0.51,1.24c0.34,0.27,0.87,0.48,1.59,0.61l1.17,0.25    c1.32,0.25,2.29,0.68,2.9,1.29c0.61,0.61,0.92,1.44,0.92,2.5c0,0.62-0.11,1.18-0.32,1.68c-0.21,0.5-0.53,0.94-0.94,1.3    c-0.41,0.36-0.91,0.64-1.5,0.83C158.83,220.1,158.16,220.2,157.4,220.2z">
        </path>
        <path class="st6"
          d="M166.89,219.97h-2.14v-13.2h5.69c1.18,0,2.12,0.36,2.8,1.07c0.68,0.71,1.02,1.68,1.02,2.9    c0,0.95-0.22,1.73-0.65,2.35c-0.43,0.62-1.07,1.06-1.92,1.31l2.86,5.56h-2.38l-2.65-5.33h-2.63V219.97L166.89,219.97z     M170.3,212.84c0.54,0,0.96-0.14,1.27-0.42c0.3-0.28,0.45-0.69,0.45-1.22v-0.9c0-0.53-0.15-0.93-0.45-1.22    c-0.3-0.28-0.72-0.42-1.27-0.42h-3.4v4.18H170.3z">
        </path>
        <path class="st6"
          d="M182.06,220.2c-0.86,0-1.64-0.15-2.34-0.44s-1.3-0.73-1.8-1.3c-0.5-0.57-0.88-1.29-1.15-2.14    c-0.27-0.85-0.41-1.83-0.41-2.94c0-1.11,0.14-2.09,0.41-2.94c0.27-0.85,0.66-1.56,1.15-2.14c0.5-0.57,1.1-1.01,1.8-1.3    s1.48-0.44,2.34-0.44c0.86,0,1.64,0.15,2.34,0.44c0.7,0.3,1.3,0.73,1.8,1.3c0.5,0.57,0.88,1.29,1.15,2.14    c0.27,0.85,0.41,1.83,0.41,2.94c0,1.11-0.14,2.09-0.41,2.94c-0.27,0.85-0.66,1.56-1.15,2.14c-0.5,0.57-1.1,1.01-1.8,1.3    C183.69,220.05,182.91,220.2,182.06,220.2L182.06,220.2z M182.06,218.31c0.5,0,0.97-0.09,1.39-0.26c0.42-0.18,0.78-0.43,1.08-0.77    c0.3-0.34,0.53-0.74,0.69-1.23c0.16-0.48,0.25-1.02,0.25-1.63v-2.09c0-0.61-0.08-1.15-0.25-1.63c-0.16-0.48-0.39-0.89-0.69-1.23    c-0.3-0.33-0.66-0.59-1.08-0.77c-0.42-0.18-0.89-0.26-1.39-0.26c-0.52,0-0.98,0.09-1.4,0.26c-0.42,0.18-0.77,0.43-1.07,0.77    c-0.3,0.34-0.53,0.74-0.69,1.23c-0.16,0.48-0.25,1.02-0.25,1.63v2.09c0,0.61,0.08,1.15,0.25,1.63c0.16,0.48,0.39,0.89,0.69,1.23    c0.3,0.33,0.65,0.59,1.07,0.77C181.07,218.22,181.54,218.31,182.06,218.31z">
        </path>
        <path class="st6"
          d="M195.52,220.2c-0.86,0-1.64-0.15-2.34-0.44s-1.3-0.73-1.8-1.3c-0.5-0.57-0.88-1.29-1.15-2.14    c-0.27-0.85-0.41-1.83-0.41-2.94c0-1.11,0.14-2.09,0.41-2.94c0.27-0.85,0.66-1.56,1.15-2.14c0.5-0.57,1.1-1.01,1.8-1.3    s1.48-0.44,2.34-0.44s1.64,0.15,2.34,0.44c0.7,0.3,1.3,0.73,1.8,1.3c0.5,0.57,0.88,1.29,1.15,2.14c0.27,0.85,0.41,1.83,0.41,2.94    c0,1.11-0.14,2.09-0.41,2.94c-0.27,0.85-0.66,1.56-1.15,2.14c-0.5,0.57-1.1,1.01-1.8,1.3C197.15,220.05,196.38,220.2,195.52,220.2    L195.52,220.2z M195.52,218.31c0.5,0,0.97-0.09,1.39-0.26c0.42-0.18,0.78-0.43,1.08-0.77c0.3-0.34,0.53-0.74,0.69-1.23    c0.16-0.48,0.25-1.02,0.25-1.63v-2.09c0-0.61-0.08-1.15-0.25-1.63c-0.16-0.48-0.39-0.89-0.69-1.23c-0.3-0.33-0.66-0.59-1.08-0.77    c-0.42-0.18-0.89-0.26-1.39-0.26c-0.52,0-0.98,0.09-1.4,0.26c-0.42,0.18-0.77,0.43-1.07,0.77c-0.3,0.34-0.53,0.74-0.69,1.23    c-0.16,0.48-0.25,1.02-0.25,1.63v2.09c0,0.61,0.08,1.15,0.25,1.63c0.16,0.48,0.39,0.89,0.69,1.23c0.3,0.33,0.65,0.59,1.07,0.77    C194.53,218.22,195,218.31,195.52,218.31z">
        </path>
        <polygon class="st6"
          points="213.97,209.87 213.88,209.87 212.84,212.01 209.94,217.29 207.05,212.01 206.01,209.87     205.92,209.87 205.92,219.97 203.88,219.97 203.88,206.77 206.41,206.77 209.94,213.49 210.06,213.49 213.59,206.77     216.01,206.77 216.01,219.97 213.97,219.97   ">
        </polygon>
        <path class="st6"
          d="M149.86,236.78c0.82,0,1.42-0.17,1.82-0.52c0.39-0.35,0.59-0.79,0.59-1.33v-0.13c0-0.61-0.19-1.07-0.57-1.39    c-0.38-0.32-0.89-0.48-1.53-0.48c-0.63,0-1.17,0.14-1.61,0.43c-0.44,0.28-0.81,0.68-1.12,1.18l-1.42-1.23    c0.2-0.29,0.43-0.57,0.68-0.83c0.25-0.26,0.55-0.49,0.89-0.69c0.34-0.2,0.72-0.35,1.15-0.47c0.43-0.12,0.92-0.18,1.47-0.18    c0.62,0,1.19,0.08,1.72,0.23c0.53,0.15,0.98,0.38,1.36,0.67c0.38,0.3,0.67,0.66,0.89,1.08c0.21,0.42,0.32,0.9,0.32,1.43    c0,0.42-0.07,0.79-0.2,1.13c-0.13,0.34-0.32,0.64-0.55,0.9c-0.23,0.26-0.5,0.47-0.81,0.63c-0.31,0.16-0.63,0.28-0.97,0.36v0.09    c0.38,0.08,0.73,0.2,1.07,0.37c0.33,0.17,0.63,0.39,0.88,0.66c0.25,0.27,0.45,0.59,0.6,0.96c0.14,0.37,0.22,0.8,0.22,1.28    c0,0.58-0.11,1.11-0.34,1.58c-0.23,0.47-0.55,0.88-0.95,1.22c-0.41,0.34-0.9,0.6-1.48,0.78c-0.58,0.18-1.22,0.27-1.93,0.27    c-0.62,0-1.16-0.07-1.63-0.2c-0.47-0.13-0.88-0.31-1.24-0.53c-0.36-0.22-0.67-0.47-0.95-0.76c-0.27-0.28-0.51-0.58-0.71-0.88    l1.57-1.23c0.16,0.26,0.34,0.51,0.52,0.73c0.18,0.22,0.39,0.41,0.62,0.57c0.23,0.16,0.5,0.28,0.79,0.37    c0.3,0.09,0.63,0.13,1.01,0.13c0.81,0,1.42-0.19,1.85-0.58c0.43-0.38,0.64-0.92,0.64-1.6v-0.13c0-0.68-0.23-1.2-0.68-1.55    c-0.45-0.35-1.1-0.53-1.93-0.53h-1.4v-1.82H149.86z">
        </path>
        <polygon class="st6"
          points="157.91,244.55 157.91,242.77 161.62,242.77 161.62,232.9 161.47,232.9 158.4,236.18 157.1,235     160.46,231.35 163.72,231.35 163.72,242.77 166.93,242.77 166.93,244.55   ">
        </polygon>
        <polygon class="st6"
          points="169.26,244.55 169.26,242.77 172.96,242.77 172.96,232.9 172.81,232.9 169.75,236.18 168.44,235     171.81,231.35 175.06,231.35 175.06,242.77 178.27,242.77 178.27,244.55   ">
        </polygon>
      </g>
      <path class="st2"
        d="M335.59,252.72h112.94c14.89,0,27.06-12.18,27.06-27.06l0,0c0-14.88-12.18-27.06-27.06-27.06H335.59   c-14.89,0-27.06,12.18-27.06,27.06l0,0C308.53,240.55,320.7,252.72,335.59,252.72z">
      </path>
      <g>
        <path class="st6"
          d="M343.21,220.2c-1.73,0-3.08-0.58-4.07-1.75c-0.98-1.17-1.47-2.86-1.47-5.08c0-1.11,0.13-2.09,0.38-2.93    c0.25-0.84,0.62-1.56,1.1-2.14c0.48-0.58,1.06-1.02,1.75-1.31c0.69-0.3,1.46-0.44,2.32-0.44c1.15,0,2.11,0.25,2.88,0.75    c0.78,0.5,1.38,1.24,1.82,2.22l-1.8,0.98c-0.23-0.63-0.58-1.13-1.05-1.5c-0.47-0.37-1.09-0.56-1.86-0.56    c-1.02,0-1.82,0.35-2.4,1.04c-0.58,0.7-0.87,1.66-0.87,2.89v2.01c0,1.23,0.29,2.19,0.87,2.89c0.58,0.7,1.38,1.04,2.4,1.04    c0.79,0,1.44-0.2,1.94-0.61c0.5-0.41,0.87-0.94,1.11-1.58l1.72,1.04c-0.44,0.96-1.06,1.7-1.85,2.24    C345.33,219.93,344.36,220.2,343.21,220.2z">
        </path>
        <polygon class="st6"
          points="350.24,219.97 350.24,206.77 352.38,206.77 352.38,218.08 357.75,218.08 357.75,219.97   "></polygon>
        <path class="st6"
          d="M368.53,219.97l-1.19-3.57h-4.93l-1.15,3.57h-2.17l4.5-13.2h2.68l4.5,13.2H368.53L368.53,219.97z     M364.92,208.74h-0.09l-1.91,5.82h3.9L364.92,208.74z">
        </path>
        <path class="st6"
          d="M376.75,220.2c-1.11,0-2.05-0.2-2.83-0.6c-0.78-0.4-1.44-0.95-1.99-1.63l1.47-1.38    c0.47,0.57,0.98,1,1.54,1.29c0.56,0.29,1.2,0.43,1.92,0.43c0.84,0,1.48-0.19,1.91-0.57c0.43-0.38,0.64-0.89,0.64-1.53    c0-0.52-0.15-0.93-0.45-1.23c-0.3-0.3-0.84-0.53-1.61-0.68l-1.17-0.21c-1.29-0.24-2.25-0.66-2.89-1.27    c-0.64-0.61-0.96-1.44-0.96-2.5c0-0.58,0.11-1.11,0.33-1.58c0.22-0.47,0.53-0.87,0.93-1.19c0.4-0.32,0.88-0.57,1.45-0.75    c0.57-0.18,1.2-0.26,1.91-0.26c1,0,1.86,0.17,2.59,0.52c0.73,0.35,1.36,0.85,1.87,1.5l-1.49,1.32c-0.34-0.44-0.76-0.79-1.25-1.06    c-0.49-0.26-1.1-0.4-1.83-0.4c-0.76,0-1.34,0.15-1.76,0.45c-0.42,0.3-0.62,0.74-0.62,1.32c0,0.55,0.17,0.97,0.51,1.24    c0.34,0.27,0.87,0.48,1.59,0.61l1.17,0.25c1.32,0.25,2.29,0.68,2.9,1.29c0.61,0.61,0.92,1.44,0.92,2.5c0,0.62-0.11,1.18-0.32,1.68    c-0.21,0.5-0.53,0.94-0.94,1.3c-0.41,0.36-0.91,0.64-1.5,0.83C378.18,220.1,377.51,220.2,376.75,220.2z">
        </path>
        <path class="st6"
          d="M387.83,220.2c-1.11,0-2.05-0.2-2.83-0.6c-0.78-0.4-1.44-0.95-1.99-1.63l1.47-1.38    c0.47,0.57,0.98,1,1.54,1.29c0.56,0.29,1.2,0.43,1.92,0.43c0.84,0,1.48-0.19,1.91-0.57c0.43-0.38,0.64-0.89,0.64-1.53    c0-0.52-0.15-0.93-0.45-1.23c-0.3-0.3-0.84-0.53-1.61-0.68l-1.17-0.21c-1.29-0.24-2.25-0.66-2.89-1.27    c-0.64-0.61-0.96-1.44-0.96-2.5c0-0.58,0.11-1.11,0.33-1.58c0.22-0.47,0.53-0.87,0.93-1.19c0.4-0.32,0.88-0.57,1.45-0.75    c0.57-0.18,1.2-0.26,1.91-0.26c1,0,1.86,0.17,2.59,0.52c0.73,0.35,1.36,0.85,1.87,1.5l-1.49,1.32c-0.34-0.44-0.76-0.79-1.25-1.06    c-0.49-0.26-1.1-0.4-1.83-0.4c-0.76,0-1.34,0.15-1.76,0.45c-0.42,0.3-0.62,0.74-0.62,1.32c0,0.55,0.17,0.97,0.51,1.24    c0.34,0.27,0.87,0.48,1.59,0.61l1.17,0.25c1.32,0.25,2.29,0.68,2.9,1.29c0.61,0.61,0.92,1.44,0.92,2.5c0,0.62-0.11,1.18-0.32,1.68    c-0.21,0.5-0.53,0.94-0.94,1.3c-0.41,0.36-0.91,0.64-1.5,0.83C389.26,220.1,388.59,220.2,387.83,220.2z">
        </path>
        <path class="st6"
          d="M397.32,219.97h-2.14v-13.2h5.69c1.18,0,2.12,0.36,2.8,1.07c0.68,0.71,1.02,1.68,1.02,2.9    c0,0.95-0.22,1.73-0.65,2.35c-0.43,0.62-1.07,1.06-1.92,1.31l2.86,5.56h-2.38l-2.65-5.33h-2.63V219.97L397.32,219.97z     M400.73,212.84c0.54,0,0.96-0.14,1.27-0.42c0.3-0.28,0.45-0.69,0.45-1.22v-0.9c0-0.53-0.15-0.93-0.45-1.22    c-0.3-0.28-0.72-0.42-1.27-0.42h-3.4v4.18H400.73z">
        </path>
        <path class="st6"
          d="M412.49,220.2c-0.86,0-1.64-0.15-2.34-0.44c-0.7-0.3-1.3-0.73-1.8-1.3c-0.5-0.57-0.88-1.29-1.15-2.14    c-0.27-0.85-0.41-1.83-0.41-2.94c0-1.11,0.14-2.09,0.41-2.94c0.27-0.85,0.66-1.56,1.15-2.14c0.5-0.57,1.1-1.01,1.8-1.3    c0.7-0.3,1.48-0.44,2.34-0.44c0.86,0,1.64,0.15,2.34,0.44c0.7,0.3,1.3,0.73,1.8,1.3c0.5,0.57,0.88,1.29,1.15,2.14    c0.27,0.85,0.41,1.83,0.41,2.94c0,1.11-0.14,2.09-0.41,2.94c-0.27,0.85-0.66,1.56-1.15,2.14c-0.5,0.57-1.1,1.01-1.8,1.3    C414.12,220.05,413.35,220.2,412.49,220.2L412.49,220.2z M412.49,218.31c0.5,0,0.97-0.09,1.39-0.26c0.42-0.18,0.78-0.43,1.08-0.77    c0.3-0.34,0.53-0.74,0.69-1.23c0.16-0.48,0.25-1.02,0.25-1.63v-2.09c0-0.61-0.08-1.15-0.25-1.63c-0.16-0.48-0.39-0.89-0.69-1.23    c-0.3-0.33-0.66-0.59-1.08-0.77c-0.42-0.18-0.89-0.26-1.39-0.26c-0.52,0-0.98,0.09-1.4,0.26c-0.42,0.18-0.77,0.43-1.07,0.77    c-0.3,0.34-0.53,0.74-0.69,1.23c-0.16,0.48-0.25,1.02-0.25,1.63v2.09c0,0.61,0.08,1.15,0.25,1.63c0.16,0.48,0.39,0.89,0.69,1.23    c0.3,0.33,0.65,0.59,1.07,0.77C411.51,218.22,411.97,218.31,412.49,218.31z">
        </path>
        <path class="st6"
          d="M425.95,220.2c-0.86,0-1.64-0.15-2.34-0.44c-0.7-0.3-1.3-0.73-1.8-1.3c-0.5-0.57-0.88-1.29-1.15-2.14    c-0.27-0.85-0.41-1.83-0.41-2.94c0-1.11,0.14-2.09,0.41-2.94c0.27-0.85,0.66-1.56,1.15-2.14c0.5-0.57,1.1-1.01,1.8-1.3    c0.7-0.3,1.48-0.44,2.34-0.44c0.86,0,1.64,0.15,2.34,0.44c0.7,0.3,1.3,0.73,1.8,1.3c0.5,0.57,0.88,1.29,1.15,2.14    c0.27,0.85,0.41,1.83,0.41,2.94c0,1.11-0.14,2.09-0.41,2.94c-0.27,0.85-0.66,1.56-1.15,2.14c-0.5,0.57-1.1,1.01-1.8,1.3    C427.59,220.05,426.81,220.2,425.95,220.2L425.95,220.2z M425.95,218.31c0.5,0,0.97-0.09,1.39-0.26c0.42-0.18,0.78-0.43,1.08-0.77    c0.3-0.34,0.53-0.74,0.69-1.23c0.16-0.48,0.25-1.02,0.25-1.63v-2.09c0-0.61-0.08-1.15-0.25-1.63c-0.16-0.48-0.39-0.89-0.69-1.23    c-0.3-0.33-0.66-0.59-1.08-0.77c-0.42-0.18-0.89-0.26-1.39-0.26c-0.52,0-0.98,0.09-1.4,0.26c-0.42,0.18-0.77,0.43-1.07,0.77    c-0.3,0.34-0.53,0.74-0.69,1.23c-0.16,0.48-0.25,1.02-0.25,1.63v2.09c0,0.61,0.08,1.15,0.25,1.63c0.16,0.48,0.39,0.89,0.69,1.23    c0.3,0.33,0.65,0.59,1.07,0.77C424.97,218.22,425.43,218.31,425.95,218.31z">
        </path>
        <polygon class="st6"
          points="444.4,209.87 444.31,209.87 443.27,212.01 440.38,217.29 437.48,212.01 436.44,209.87 436.35,209.87     436.35,219.97 434.31,219.97 434.31,206.77 436.84,206.77 440.38,213.49 440.49,213.49 444.03,206.77 446.45,206.77     446.45,219.97 444.4,219.97   ">
        </polygon>
        <path class="st6"
          d="M380.29,236.78c0.82,0,1.42-0.17,1.82-0.52c0.39-0.35,0.59-0.79,0.59-1.33v-0.13c0-0.61-0.19-1.07-0.57-1.39    c-0.38-0.32-0.89-0.48-1.53-0.48c-0.63,0-1.17,0.14-1.61,0.43c-0.44,0.28-0.81,0.68-1.12,1.18l-1.42-1.23    c0.2-0.29,0.43-0.57,0.68-0.83c0.25-0.26,0.55-0.49,0.89-0.69c0.34-0.2,0.72-0.35,1.15-0.47c0.43-0.12,0.92-0.18,1.47-0.18    c0.62,0,1.19,0.08,1.72,0.23c0.53,0.15,0.98,0.38,1.36,0.67c0.38,0.3,0.67,0.66,0.89,1.08c0.21,0.42,0.32,0.9,0.32,1.43    c0,0.42-0.07,0.79-0.2,1.13c-0.13,0.34-0.31,0.64-0.55,0.9c-0.23,0.26-0.5,0.47-0.81,0.63c-0.31,0.16-0.63,0.28-0.97,0.36v0.09    c0.38,0.08,0.73,0.2,1.07,0.37c0.33,0.17,0.63,0.39,0.88,0.66c0.25,0.27,0.45,0.59,0.6,0.96c0.14,0.37,0.22,0.8,0.22,1.28    c0,0.58-0.11,1.11-0.34,1.58c-0.23,0.47-0.55,0.88-0.95,1.22c-0.41,0.34-0.9,0.6-1.48,0.78c-0.58,0.18-1.22,0.27-1.93,0.27    c-0.62,0-1.16-0.07-1.63-0.2c-0.47-0.13-0.88-0.31-1.24-0.53c-0.36-0.22-0.67-0.47-0.95-0.76c-0.27-0.28-0.51-0.58-0.71-0.88    l1.57-1.23c0.16,0.26,0.34,0.51,0.52,0.73c0.18,0.22,0.39,0.41,0.62,0.57c0.23,0.16,0.5,0.28,0.79,0.37    c0.3,0.09,0.63,0.13,1.01,0.13c0.81,0,1.42-0.19,1.85-0.58c0.43-0.38,0.64-0.92,0.64-1.6v-0.13c0-0.68-0.23-1.2-0.68-1.55    c-0.45-0.35-1.1-0.53-1.93-0.53h-1.4v-1.82H380.29z">
        </path>
        <polygon class="st6"
          points="388.34,244.55 388.34,242.77 392.05,242.77 392.05,232.9 391.9,232.9 388.84,236.18 387.53,235     390.9,231.35 394.15,231.35 394.15,242.77 397.36,242.77 397.36,244.55   ">
        </polygon>
        <path class="st6"
          d="M408.25,244.55h-8.96v-2.04l4.22-3.76c0.67-0.6,1.18-1.18,1.54-1.73c0.36-0.55,0.54-1.13,0.54-1.73v-0.25    c0-0.64-0.19-1.15-0.58-1.51c-0.38-0.37-0.9-0.55-1.56-0.55c-0.37,0-0.68,0.05-0.95,0.16c-0.27,0.11-0.51,0.26-0.71,0.44    c-0.2,0.19-0.37,0.41-0.5,0.66c-0.13,0.25-0.24,0.52-0.31,0.81l-1.87-0.72c0.14-0.42,0.33-0.82,0.57-1.2    c0.24-0.38,0.54-0.73,0.91-1.03c0.37-0.3,0.8-0.54,1.3-0.72c0.5-0.18,1.08-0.26,1.75-0.26c0.67,0,1.27,0.1,1.8,0.29    c0.53,0.2,0.97,0.47,1.33,0.81c0.36,0.35,0.63,0.76,0.82,1.24c0.19,0.48,0.28,1,0.28,1.57c0,0.53-0.08,1.02-0.25,1.47    c-0.16,0.45-0.39,0.88-0.68,1.29c-0.29,0.4-0.63,0.79-1.01,1.15c-0.38,0.37-0.79,0.74-1.22,1.12l-3.1,2.67h6.66V244.55z">
        </path>
      </g>
      <path class="st2"
        d="M1120.55,257.23h94.39c8.89,0,16.16-7.27,16.16-16.16l0,0c0-8.89-7.27-16.16-16.16-16.16h-94.39   c-8.89,0-16.16,7.27-16.16,16.16l0,0C1104.39,249.96,1111.66,257.23,1120.55,257.23z">
      </path>
      <g>
        <path class="st6"
          d="M1126.87,247.9c-1.73,0-3.08-0.58-4.07-1.75c-0.98-1.17-1.47-2.86-1.47-5.08c0-1.11,0.13-2.09,0.38-2.93    c0.25-0.84,0.62-1.56,1.1-2.14c0.48-0.58,1.06-1.02,1.75-1.31c0.69-0.3,1.46-0.44,2.32-0.44c1.15,0,2.11,0.25,2.88,0.75    c0.78,0.5,1.38,1.24,1.82,2.22l-1.8,0.98c-0.23-0.63-0.58-1.13-1.05-1.5c-0.47-0.37-1.09-0.56-1.86-0.56    c-1.02,0-1.82,0.35-2.4,1.04c-0.58,0.7-0.87,1.66-0.87,2.89v2.01c0,1.23,0.29,2.19,0.87,2.89c0.58,0.7,1.38,1.04,2.4,1.04    c0.79,0,1.44-0.2,1.94-0.61c0.5-0.41,0.87-0.94,1.11-1.58l1.72,1.04c-0.44,0.96-1.06,1.7-1.85,2.24    C1128.99,247.63,1128.02,247.9,1126.87,247.9z">
        </path>
        <path class="st6"
          d="M1142.09,247.67l-1.19-3.57h-4.93l-1.15,3.57h-2.17l4.5-13.2h2.68l4.5,13.2H1142.09L1142.09,247.67z     M1138.48,236.44h-0.09l-1.91,5.82h3.9L1138.48,236.44z">
        </path>
        <path class="st6"
          d="M1155.93,247.9c-0.86,0-1.64-0.15-2.34-0.44c-0.7-0.3-1.3-0.73-1.8-1.3c-0.5-0.57-0.88-1.29-1.15-2.14    c-0.27-0.85-0.41-1.83-0.41-2.94c0-1.11,0.14-2.09,0.41-2.94c0.27-0.85,0.66-1.56,1.15-2.14c0.5-0.57,1.1-1.01,1.8-1.3    c0.7-0.3,1.48-0.44,2.34-0.44c0.86,0,1.64,0.15,2.34,0.44c0.7,0.3,1.3,0.73,1.8,1.3c0.5,0.57,0.88,1.29,1.15,2.14    c0.27,0.85,0.41,1.83,0.41,2.94c0,1.11-0.14,2.09-0.41,2.94c-0.27,0.85-0.66,1.56-1.15,2.14c-0.5,0.57-1.1,1.01-1.8,1.3    C1157.57,247.75,1156.79,247.9,1155.93,247.9L1155.93,247.9z M1155.93,246.01c0.5,0,0.97-0.09,1.39-0.26    c0.42-0.18,0.78-0.43,1.08-0.77c0.3-0.34,0.53-0.74,0.69-1.23c0.16-0.48,0.25-1.02,0.25-1.63v-2.09c0-0.61-0.08-1.15-0.25-1.63    c-0.16-0.48-0.39-0.89-0.69-1.23c-0.3-0.33-0.66-0.59-1.08-0.77c-0.42-0.18-0.89-0.26-1.39-0.26c-0.52,0-0.98,0.09-1.4,0.26    c-0.42,0.18-0.77,0.43-1.07,0.77c-0.3,0.34-0.53,0.74-0.69,1.23c-0.16,0.48-0.25,1.02-0.25,1.63v2.09c0,0.61,0.08,1.15,0.25,1.63    c0.16,0.48,0.39,0.89,0.69,1.23c0.3,0.33,0.65,0.59,1.07,0.77C1154.95,245.92,1155.42,246.01,1155.93,246.01z">
        </path>
        <polygon class="st6"
          points="1164.29,247.67 1164.29,234.48 1172.53,234.48 1172.53,236.37 1166.43,236.37 1166.43,240.04     1171.85,240.04 1171.85,241.93 1166.43,241.93 1166.43,247.67   ">
        </polygon>
        <polygon class="st6"
          points="1175.07,247.67 1175.07,234.48 1183.31,234.48 1183.31,236.37 1177.2,236.37 1177.2,240.04     1182.63,240.04 1182.63,241.93 1177.2,241.93 1177.2,247.67   ">
        </polygon>
        <polygon class="st6"
          points="1185.28,247.67 1185.28,245.93 1187.07,245.93 1187.07,236.22 1185.28,236.22 1185.28,234.48     1191.02,234.48 1191.02,236.22 1189.21,236.22 1189.21,245.93 1191.02,245.93 1191.02,247.67   ">
        </polygon>
        <path class="st6"
          d="M1198.66,247.9c-1.73,0-3.08-0.58-4.07-1.75c-0.98-1.17-1.47-2.86-1.47-5.08c0-1.11,0.13-2.09,0.38-2.93    c0.25-0.84,0.62-1.56,1.1-2.14c0.48-0.58,1.06-1.02,1.75-1.31c0.69-0.3,1.46-0.44,2.32-0.44c1.15,0,2.11,0.25,2.88,0.75    c0.78,0.5,1.38,1.24,1.82,2.22l-1.8,0.98c-0.23-0.63-0.58-1.13-1.05-1.5c-0.47-0.37-1.09-0.56-1.86-0.56    c-1.02,0-1.82,0.35-2.4,1.04c-0.58,0.7-0.87,1.66-0.87,2.89v2.01c0,1.23,0.29,2.19,0.87,2.89c0.58,0.7,1.38,1.04,2.4,1.04    c0.79,0,1.44-0.2,1.94-0.61c0.5-0.41,0.87-0.94,1.11-1.58l1.72,1.04c-0.44,0.96-1.06,1.7-1.85,2.24    C1200.78,247.63,1199.81,247.9,1198.66,247.9z">
        </path>
        <polygon class="st6"
          points="1205.7,247.67 1205.7,234.48 1214.15,234.48 1214.15,236.37 1207.83,236.37 1207.83,240.04     1213.56,240.04 1213.56,241.93 1207.83,241.93 1207.83,245.78 1214.15,245.78 1214.15,247.67   ">
        </polygon>
      </g>
      <path class="st2"
        d="M201.58,914.19h112.94c14.89,0,27.06-12.18,27.06-27.06l0,0c0-14.88-12.18-27.06-27.06-27.06H201.58   c-14.88,0-27.06,12.18-27.06,27.06l0,0C174.52,902.01,186.7,914.19,201.58,914.19z">
      </path>
      <g>
        <path class="st6"
          d="M209.21,881.66c-1.73,0-3.08-0.58-4.07-1.75c-0.98-1.17-1.47-2.86-1.47-5.08c0-1.11,0.13-2.09,0.38-2.93    c0.25-0.84,0.62-1.56,1.1-2.14c0.48-0.58,1.06-1.02,1.75-1.31c0.69-0.3,1.46-0.44,2.32-0.44c1.15,0,2.11,0.25,2.88,0.75    c0.78,0.5,1.38,1.24,1.82,2.22l-1.8,0.98c-0.23-0.63-0.58-1.13-1.05-1.5c-0.47-0.37-1.09-0.56-1.86-0.56    c-1.02,0-1.82,0.35-2.4,1.04c-0.58,0.7-0.87,1.66-0.87,2.89v2.01c0,1.23,0.29,2.19,0.87,2.89c0.58,0.7,1.38,1.04,2.4,1.04    c0.79,0,1.44-0.2,1.94-0.61c0.5-0.41,0.87-0.94,1.11-1.58l1.72,1.04c-0.44,0.95-1.06,1.7-1.85,2.24    C211.33,881.39,210.35,881.66,209.21,881.66z">
        </path>
        <polygon class="st6"
          points="216.24,881.43 216.24,868.24 218.38,868.24 218.38,879.54 223.75,879.54 223.75,881.43   "></polygon>
        <path class="st6"
          d="M234.52,881.43l-1.19-3.57h-4.93l-1.15,3.57h-2.17l4.5-13.2h2.68l4.5,13.2H234.52L234.52,881.43z     M230.91,870.2h-0.09l-1.91,5.82h3.9L230.91,870.2z">
        </path>
        <path class="st6"
          d="M242.75,881.66c-1.11,0-2.05-0.2-2.83-0.61c-0.78-0.4-1.44-0.95-1.99-1.63l1.47-1.38    c0.47,0.57,0.98,1,1.54,1.29c0.56,0.29,1.2,0.43,1.92,0.43c0.84,0,1.48-0.19,1.91-0.57c0.43-0.38,0.64-0.89,0.64-1.53    c0-0.52-0.15-0.93-0.45-1.23c-0.3-0.3-0.84-0.53-1.61-0.68l-1.17-0.21c-1.29-0.24-2.25-0.66-2.89-1.27    c-0.64-0.61-0.96-1.44-0.96-2.5c0-0.58,0.11-1.11,0.33-1.58c0.22-0.47,0.53-0.87,0.93-1.19c0.4-0.32,0.88-0.57,1.45-0.75    c0.57-0.18,1.2-0.26,1.91-0.26c1,0,1.86,0.17,2.59,0.52c0.73,0.35,1.36,0.85,1.87,1.5l-1.49,1.32c-0.34-0.44-0.76-0.79-1.25-1.06    c-0.49-0.26-1.1-0.4-1.83-0.4c-0.76,0-1.34,0.15-1.76,0.45c-0.42,0.3-0.62,0.74-0.62,1.32c0,0.55,0.17,0.97,0.51,1.24    c0.34,0.27,0.87,0.48,1.59,0.61l1.17,0.25c1.32,0.25,2.29,0.68,2.9,1.29c0.61,0.61,0.92,1.44,0.92,2.5c0,0.62-0.11,1.18-0.32,1.68    c-0.21,0.5-0.53,0.94-0.94,1.3c-0.41,0.36-0.91,0.64-1.5,0.83C244.18,881.56,243.51,881.66,242.75,881.66z">
        </path>
        <path class="st6"
          d="M253.83,881.66c-1.11,0-2.05-0.2-2.83-0.61c-0.78-0.4-1.44-0.95-1.99-1.63l1.47-1.38    c0.47,0.57,0.98,1,1.54,1.29s1.2,0.43,1.92,0.43c0.84,0,1.48-0.19,1.91-0.57c0.43-0.38,0.64-0.89,0.64-1.53    c0-0.52-0.15-0.93-0.45-1.23c-0.3-0.3-0.84-0.53-1.61-0.68l-1.17-0.21c-1.29-0.24-2.25-0.66-2.89-1.27    c-0.64-0.61-0.96-1.44-0.96-2.5c0-0.58,0.11-1.11,0.33-1.58c0.22-0.47,0.53-0.87,0.93-1.19c0.4-0.32,0.88-0.57,1.45-0.75    c0.57-0.18,1.2-0.26,1.91-0.26c1,0,1.86,0.17,2.59,0.52c0.73,0.35,1.36,0.85,1.87,1.5l-1.49,1.32c-0.34-0.44-0.76-0.79-1.25-1.06    c-0.49-0.26-1.1-0.4-1.83-0.4c-0.76,0-1.34,0.15-1.76,0.45c-0.42,0.3-0.62,0.74-0.62,1.32c0,0.55,0.17,0.97,0.51,1.24    c0.34,0.27,0.87,0.48,1.59,0.61l1.17,0.25c1.32,0.25,2.29,0.68,2.9,1.29c0.61,0.61,0.92,1.44,0.92,2.5c0,0.62-0.11,1.18-0.32,1.68    c-0.21,0.5-0.53,0.94-0.94,1.3c-0.41,0.36-0.91,0.64-1.5,0.83C255.26,881.56,254.59,881.66,253.83,881.66z">
        </path>
        <path class="st6"
          d="M263.32,881.43h-2.14v-13.2h5.69c1.18,0,2.12,0.36,2.8,1.07c0.68,0.71,1.02,1.68,1.02,2.9    c0,0.95-0.22,1.73-0.65,2.35c-0.43,0.62-1.07,1.06-1.92,1.31l2.86,5.56h-2.38l-2.65-5.33h-2.63V881.43L263.32,881.43z     M266.72,874.31c0.54,0,0.96-0.14,1.27-0.42c0.3-0.28,0.45-0.69,0.45-1.22v-0.9c0-0.53-0.15-0.93-0.45-1.22    c-0.3-0.28-0.72-0.42-1.27-0.42h-3.4v4.18H266.72z">
        </path>
        <path class="st6"
          d="M278.49,881.66c-0.86,0-1.64-0.15-2.34-0.44c-0.7-0.3-1.3-0.73-1.8-1.3c-0.5-0.57-0.88-1.29-1.15-2.14    c-0.27-0.85-0.41-1.83-0.41-2.94s0.14-2.09,0.41-2.94c0.27-0.85,0.66-1.56,1.15-2.14c0.5-0.57,1.1-1.01,1.8-1.3    c0.7-0.3,1.48-0.44,2.34-0.44c0.86,0,1.64,0.15,2.34,0.44c0.7,0.3,1.3,0.73,1.8,1.3c0.5,0.57,0.88,1.29,1.15,2.14    c0.27,0.85,0.41,1.83,0.41,2.94s-0.14,2.09-0.41,2.94c-0.27,0.85-0.66,1.56-1.15,2.14c-0.5,0.57-1.1,1.01-1.8,1.3    C280.12,881.51,279.34,881.66,278.49,881.66L278.49,881.66z M278.49,879.77c0.5,0,0.97-0.09,1.39-0.26    c0.42-0.18,0.78-0.43,1.08-0.77c0.3-0.34,0.53-0.74,0.69-1.23c0.16-0.48,0.25-1.02,0.25-1.63v-2.09c0-0.61-0.08-1.15-0.25-1.63    c-0.16-0.48-0.39-0.89-0.69-1.23c-0.3-0.33-0.66-0.59-1.08-0.77c-0.42-0.18-0.89-0.26-1.39-0.26c-0.52,0-0.98,0.09-1.4,0.26    c-0.42,0.18-0.77,0.43-1.07,0.77c-0.3,0.34-0.53,0.74-0.69,1.23c-0.16,0.48-0.25,1.02-0.25,1.63v2.09c0,0.61,0.08,1.15,0.25,1.63    c0.16,0.48,0.39,0.89,0.69,1.23c0.3,0.33,0.65,0.59,1.07,0.77C277.5,879.68,277.97,879.77,278.49,879.77z">
        </path>
        <path class="st6"
          d="M291.95,881.66c-0.86,0-1.64-0.15-2.34-0.44c-0.7-0.3-1.3-0.73-1.8-1.3c-0.5-0.57-0.88-1.29-1.15-2.14    c-0.27-0.85-0.41-1.83-0.41-2.94s0.14-2.09,0.41-2.94c0.27-0.85,0.66-1.56,1.15-2.14c0.5-0.57,1.1-1.01,1.8-1.3    c0.7-0.3,1.48-0.44,2.34-0.44c0.86,0,1.64,0.15,2.34,0.44c0.7,0.3,1.3,0.73,1.8,1.3c0.5,0.57,0.88,1.29,1.15,2.14    c0.27,0.85,0.41,1.83,0.41,2.94s-0.14,2.09-0.41,2.94c-0.27,0.85-0.66,1.56-1.15,2.14c-0.5,0.57-1.1,1.01-1.8,1.3    C293.58,881.51,292.8,881.66,291.95,881.66L291.95,881.66z M291.95,879.77c0.5,0,0.97-0.09,1.39-0.26    c0.42-0.18,0.78-0.43,1.08-0.77c0.3-0.34,0.53-0.74,0.69-1.23c0.16-0.48,0.25-1.02,0.25-1.63v-2.09c0-0.61-0.08-1.15-0.25-1.63    c-0.16-0.48-0.39-0.89-0.69-1.23c-0.3-0.33-0.66-0.59-1.08-0.77c-0.42-0.18-0.89-0.26-1.39-0.26c-0.52,0-0.98,0.09-1.4,0.26    c-0.42,0.18-0.77,0.43-1.07,0.77c-0.3,0.34-0.53,0.74-0.69,1.23c-0.16,0.48-0.25,1.02-0.25,1.63v2.09c0,0.61,0.08,1.15,0.25,1.63    c0.16,0.48,0.39,0.89,0.69,1.23c0.3,0.33,0.65,0.59,1.07,0.77C290.96,879.68,291.43,879.77,291.95,879.77z">
        </path>
        <polygon class="st6"
          points="310.4,871.34 310.31,871.34 309.27,873.47 306.37,878.75 303.48,873.47 302.44,871.34 302.35,871.34     302.35,881.43 300.3,881.43 300.3,868.24 302.84,868.24 306.37,874.95 306.49,874.95 310.02,868.24 312.44,868.24 312.44,881.43     310.4,881.43   ">
        </polygon>
        <path class="st6"
          d="M246.29,898.24c0.82,0,1.42-0.17,1.82-0.52c0.39-0.35,0.59-0.79,0.59-1.33v-0.13c0-0.61-0.19-1.07-0.57-1.39    c-0.38-0.32-0.89-0.48-1.53-0.48c-0.63,0-1.17,0.14-1.61,0.43c-0.44,0.28-0.81,0.68-1.12,1.18l-1.42-1.23    c0.2-0.29,0.43-0.57,0.68-0.83c0.25-0.26,0.55-0.49,0.89-0.69c0.34-0.2,0.72-0.35,1.15-0.47c0.43-0.12,0.92-0.18,1.47-0.18    c0.62,0,1.19,0.08,1.72,0.23c0.53,0.15,0.98,0.38,1.36,0.67c0.38,0.3,0.67,0.66,0.89,1.08c0.21,0.42,0.32,0.9,0.32,1.43    c0,0.42-0.07,0.79-0.2,1.13s-0.31,0.64-0.55,0.9c-0.23,0.26-0.5,0.47-0.81,0.63c-0.31,0.16-0.63,0.28-0.97,0.36v0.09    c0.38,0.08,0.73,0.2,1.07,0.37c0.33,0.17,0.63,0.39,0.88,0.66c0.25,0.27,0.45,0.59,0.6,0.96c0.14,0.37,0.22,0.8,0.22,1.28    c0,0.58-0.11,1.11-0.34,1.58c-0.23,0.47-0.55,0.88-0.95,1.22c-0.41,0.34-0.9,0.6-1.48,0.78c-0.58,0.18-1.22,0.27-1.93,0.27    c-0.62,0-1.16-0.07-1.63-0.2c-0.47-0.13-0.88-0.31-1.24-0.53c-0.36-0.22-0.67-0.47-0.95-0.76c-0.27-0.28-0.51-0.58-0.71-0.88    l1.57-1.23c0.16,0.26,0.34,0.51,0.52,0.73c0.18,0.22,0.39,0.41,0.62,0.57c0.23,0.16,0.5,0.28,0.79,0.37    c0.3,0.09,0.63,0.13,1.01,0.13c0.81,0,1.42-0.19,1.85-0.58c0.43-0.38,0.64-0.92,0.64-1.6v-0.13c0-0.68-0.23-1.2-0.68-1.55    c-0.45-0.35-1.1-0.53-1.93-0.53h-1.4v-1.82H246.29z">
        </path>
        <polygon class="st6"
          points="254.34,906.01 254.34,904.24 258.05,904.24 258.05,894.37 257.89,894.37 254.83,897.64     253.53,896.47 256.89,892.82 260.14,892.82 260.14,904.24 263.36,904.24 263.36,906.01   ">
        </polygon>
        <path class="st6"
          d="M269.69,906.24c-0.82,0-1.53-0.15-2.14-0.46c-0.6-0.31-1.1-0.75-1.49-1.33c-0.39-0.58-0.68-1.29-0.87-2.14    c-0.19-0.84-0.28-1.81-0.28-2.89c0-1.07,0.09-2.03,0.28-2.88c0.19-0.85,0.48-1.57,0.87-2.15c0.39-0.58,0.89-1.02,1.49-1.33    c0.61-0.31,1.32-0.46,2.14-0.46c1.64,0,2.85,0.6,3.62,1.8c0.78,1.2,1.16,2.87,1.16,5.03s-0.39,3.83-1.16,5.03    C272.54,905.64,271.33,906.24,269.69,906.24L269.69,906.24z M269.69,904.43c0.45,0,0.84-0.09,1.16-0.27    c0.32-0.18,0.58-0.44,0.78-0.78c0.2-0.34,0.35-0.75,0.43-1.22c0.09-0.47,0.13-1,0.13-1.58v-2.31c0-0.58-0.04-1.11-0.13-1.58    c-0.09-0.47-0.23-0.88-0.43-1.22c-0.2-0.34-0.46-0.6-0.78-0.78c-0.32-0.18-0.71-0.27-1.16-0.27c-0.45,0-0.84,0.09-1.16,0.27    c-0.32,0.18-0.58,0.44-0.78,0.78c-0.2,0.34-0.35,0.75-0.43,1.22c-0.09,0.47-0.13,1-0.13,1.58v2.31c0,0.58,0.04,1.11,0.13,1.58    c0.09,0.47,0.23,0.88,0.43,1.22c0.2,0.34,0.46,0.6,0.78,0.78C268.85,904.34,269.24,904.43,269.69,904.43z">
        </path>
      </g>
      <path class="st2"
        d="M434,929.25h112.94c14.89,0,27.06-12.18,27.06-27.06l0,0c0-14.88-12.18-27.06-27.06-27.06H434   c-14.88,0-27.06,12.18-27.06,27.06l0,0C406.94,917.07,419.11,929.25,434,929.25z">
      </path>
      <g>
        <path class="st6"
          d="M441.62,896.72c-1.73,0-3.08-0.58-4.07-1.75c-0.98-1.17-1.47-2.86-1.47-5.08c0-1.11,0.13-2.09,0.38-2.93    c0.25-0.84,0.62-1.56,1.1-2.14c0.48-0.58,1.06-1.02,1.75-1.31c0.69-0.3,1.46-0.44,2.32-0.44c1.15,0,2.11,0.25,2.88,0.75    c0.78,0.5,1.38,1.24,1.82,2.22l-1.8,0.98c-0.23-0.63-0.58-1.13-1.05-1.5c-0.47-0.37-1.09-0.56-1.86-0.56    c-1.02,0-1.82,0.35-2.4,1.04c-0.58,0.7-0.87,1.66-0.87,2.89v2.01c0,1.23,0.29,2.19,0.87,2.89c0.58,0.7,1.38,1.04,2.4,1.04    c0.79,0,1.44-0.2,1.94-0.61c0.5-0.41,0.87-0.94,1.11-1.58l1.72,1.04c-0.44,0.95-1.06,1.7-1.85,2.24    C443.74,896.46,442.77,896.72,441.62,896.72z">
        </path>
        <polygon class="st6"
          points="448.66,896.5 448.66,883.3 450.79,883.3 450.79,894.61 456.16,894.61 456.16,896.5   "></polygon>
        <path class="st6"
          d="M466.94,896.5l-1.19-3.57h-4.93l-1.15,3.57h-2.17l4.5-13.2h2.68l4.5,13.2H466.94L466.94,896.5z     M463.33,885.27h-0.09l-1.91,5.82h3.9L463.33,885.27z">
        </path>
        <path class="st6"
          d="M475.17,896.72c-1.11,0-2.05-0.2-2.83-0.6c-0.78-0.4-1.44-0.95-1.99-1.63l1.47-1.38    c0.47,0.57,0.98,1,1.54,1.29c0.56,0.29,1.2,0.43,1.92,0.43c0.84,0,1.48-0.19,1.91-0.57c0.43-0.38,0.64-0.89,0.64-1.53    c0-0.52-0.15-0.93-0.45-1.23c-0.3-0.3-0.84-0.53-1.61-0.68l-1.17-0.21c-1.29-0.24-2.25-0.66-2.89-1.27    c-0.64-0.61-0.96-1.44-0.96-2.5c0-0.58,0.11-1.11,0.33-1.58c0.22-0.47,0.53-0.87,0.93-1.19c0.4-0.32,0.88-0.57,1.45-0.75    c0.57-0.18,1.2-0.26,1.91-0.26c1,0,1.86,0.17,2.59,0.52c0.73,0.35,1.36,0.85,1.87,1.5l-1.49,1.32c-0.34-0.44-0.76-0.79-1.25-1.06    c-0.49-0.26-1.1-0.4-1.83-0.4c-0.76,0-1.34,0.15-1.76,0.45c-0.42,0.3-0.62,0.74-0.62,1.32c0,0.55,0.17,0.97,0.51,1.24    c0.34,0.27,0.87,0.48,1.59,0.61l1.17,0.25c1.32,0.25,2.29,0.68,2.9,1.29c0.61,0.61,0.92,1.44,0.92,2.5c0,0.62-0.11,1.18-0.32,1.68    c-0.21,0.5-0.53,0.94-0.94,1.3c-0.41,0.36-0.91,0.64-1.5,0.83C476.6,896.63,475.92,896.72,475.17,896.72z">
        </path>
        <path class="st6"
          d="M486.25,896.72c-1.11,0-2.05-0.2-2.83-0.6c-0.78-0.4-1.44-0.95-1.99-1.63l1.47-1.38    c0.47,0.57,0.98,1,1.54,1.29c0.56,0.29,1.2,0.43,1.92,0.43c0.84,0,1.48-0.19,1.91-0.57c0.43-0.38,0.64-0.89,0.64-1.53    c0-0.52-0.15-0.93-0.45-1.23c-0.3-0.3-0.84-0.53-1.61-0.68l-1.17-0.21c-1.29-0.24-2.25-0.66-2.89-1.27    c-0.64-0.61-0.96-1.44-0.96-2.5c0-0.58,0.11-1.11,0.33-1.58c0.22-0.47,0.53-0.87,0.93-1.19c0.4-0.32,0.88-0.57,1.45-0.75    c0.57-0.18,1.2-0.26,1.91-0.26c1,0,1.86,0.17,2.59,0.52c0.73,0.35,1.36,0.85,1.87,1.5l-1.49,1.32c-0.34-0.44-0.76-0.79-1.25-1.06    c-0.49-0.26-1.1-0.4-1.83-0.4c-0.76,0-1.34,0.15-1.76,0.45c-0.42,0.3-0.62,0.74-0.62,1.32c0,0.55,0.17,0.97,0.51,1.24    c0.34,0.27,0.87,0.48,1.59,0.61l1.17,0.25c1.32,0.25,2.29,0.68,2.9,1.29c0.61,0.61,0.92,1.44,0.92,2.5c0,0.62-0.11,1.18-0.32,1.68    c-0.21,0.5-0.53,0.94-0.94,1.3c-0.41,0.36-0.91,0.64-1.5,0.83C487.68,896.63,487,896.72,486.25,896.72z">
        </path>
        <path class="st6"
          d="M495.74,896.5h-2.14v-13.2h5.69c1.18,0,2.12,0.36,2.8,1.07c0.68,0.71,1.02,1.68,1.02,2.9    c0,0.95-0.22,1.73-0.65,2.35c-0.43,0.62-1.07,1.06-1.92,1.31l2.86,5.56h-2.38l-2.65-5.33h-2.63V896.5L495.74,896.5z     M499.14,889.37c0.54,0,0.96-0.14,1.27-0.42c0.3-0.28,0.45-0.69,0.45-1.22v-0.9c0-0.53-0.15-0.93-0.45-1.22    c-0.3-0.28-0.72-0.42-1.27-0.42h-3.4v4.18H499.14z">
        </path>
        <path class="st6"
          d="M510.9,896.72c-0.86,0-1.64-0.15-2.34-0.44c-0.7-0.3-1.3-0.73-1.8-1.3c-0.5-0.57-0.88-1.29-1.15-2.14    c-0.27-0.85-0.41-1.83-0.41-2.94s0.14-2.09,0.41-2.94c0.27-0.85,0.66-1.56,1.15-2.14c0.5-0.57,1.1-1.01,1.8-1.3    c0.7-0.3,1.48-0.44,2.34-0.44c0.86,0,1.64,0.15,2.34,0.44s1.3,0.73,1.8,1.3c0.5,0.57,0.88,1.29,1.15,2.14    c0.27,0.85,0.41,1.83,0.41,2.94s-0.14,2.09-0.41,2.94c-0.27,0.85-0.66,1.56-1.15,2.14c-0.5,0.57-1.1,1.01-1.8,1.3    S511.76,896.72,510.9,896.72L510.9,896.72z M510.9,894.83c0.5,0,0.97-0.09,1.39-0.26c0.42-0.18,0.78-0.43,1.08-0.77    c0.3-0.34,0.53-0.74,0.69-1.23c0.16-0.48,0.25-1.02,0.25-1.63v-2.09c0-0.61-0.08-1.15-0.25-1.63c-0.16-0.48-0.39-0.89-0.69-1.23    c-0.3-0.33-0.66-0.59-1.08-0.77c-0.42-0.18-0.89-0.26-1.39-0.26c-0.52,0-0.98,0.09-1.4,0.26c-0.42,0.18-0.77,0.43-1.07,0.77    c-0.3,0.34-0.53,0.74-0.69,1.23c-0.16,0.48-0.25,1.02-0.25,1.63v2.09c0,0.61,0.08,1.15,0.25,1.63c0.16,0.48,0.39,0.89,0.69,1.23    c0.3,0.33,0.65,0.59,1.07,0.77C509.92,894.74,510.38,894.83,510.9,894.83z">
        </path>
        <path class="st6"
          d="M524.36,896.72c-0.86,0-1.64-0.15-2.34-0.44s-1.3-0.73-1.8-1.3c-0.5-0.57-0.88-1.29-1.15-2.14    c-0.27-0.85-0.41-1.83-0.41-2.94s0.14-2.09,0.41-2.94c0.27-0.85,0.66-1.56,1.15-2.14c0.5-0.57,1.1-1.01,1.8-1.3    s1.48-0.44,2.34-0.44c0.86,0,1.64,0.15,2.34,0.44c0.7,0.3,1.3,0.73,1.8,1.3c0.5,0.57,0.88,1.29,1.15,2.14    c0.27,0.85,0.41,1.83,0.41,2.94s-0.14,2.09-0.41,2.94c-0.27,0.85-0.66,1.56-1.15,2.14c-0.5,0.57-1.1,1.01-1.8,1.3    C526,896.58,525.22,896.72,524.36,896.72L524.36,896.72z M524.36,894.83c0.5,0,0.97-0.09,1.39-0.26c0.42-0.18,0.78-0.43,1.08-0.77    c0.3-0.34,0.53-0.74,0.69-1.23c0.16-0.48,0.25-1.02,0.25-1.63v-2.09c0-0.61-0.08-1.15-0.25-1.63c-0.16-0.48-0.39-0.89-0.69-1.23    c-0.3-0.33-0.66-0.59-1.08-0.77c-0.42-0.18-0.89-0.26-1.39-0.26c-0.52,0-0.98,0.09-1.4,0.26c-0.42,0.18-0.77,0.43-1.07,0.77    c-0.3,0.34-0.53,0.74-0.69,1.23c-0.16,0.48-0.25,1.02-0.25,1.63v2.09c0,0.61,0.08,1.15,0.25,1.63c0.16,0.48,0.39,0.89,0.69,1.23    c0.3,0.33,0.65,0.59,1.07,0.77C523.38,894.74,523.85,894.83,524.36,894.83z">
        </path>
        <polygon class="st6"
          points="542.82,886.4 542.72,886.4 541.68,888.54 538.79,893.81 535.9,888.54 534.86,886.4 534.76,886.4     534.76,896.5 532.72,896.5 532.72,883.3 535.25,883.3 538.79,890.01 538.9,890.01 542.44,883.3 544.86,883.3 544.86,896.5     542.82,896.5   ">
        </polygon>
        <path class="st6"
          d="M478.7,913.31c0.82,0,1.42-0.17,1.82-0.52c0.39-0.35,0.59-0.79,0.59-1.33v-0.13c0-0.61-0.19-1.07-0.57-1.39    c-0.38-0.32-0.89-0.48-1.53-0.48c-0.63,0-1.17,0.14-1.61,0.43c-0.44,0.28-0.81,0.68-1.12,1.18l-1.42-1.23    c0.2-0.29,0.43-0.57,0.68-0.83c0.25-0.26,0.55-0.49,0.89-0.69c0.34-0.2,0.72-0.35,1.15-0.47c0.43-0.12,0.92-0.18,1.47-0.18    c0.62,0,1.19,0.08,1.72,0.23c0.53,0.15,0.98,0.38,1.36,0.67c0.38,0.3,0.67,0.66,0.89,1.08c0.21,0.42,0.32,0.9,0.32,1.43    c0,0.42-0.07,0.79-0.2,1.13c-0.13,0.34-0.31,0.64-0.55,0.9c-0.23,0.26-0.5,0.47-0.81,0.63c-0.31,0.16-0.63,0.28-0.97,0.36v0.09    c0.38,0.08,0.73,0.2,1.07,0.37c0.33,0.17,0.63,0.39,0.88,0.66c0.25,0.27,0.45,0.59,0.6,0.96c0.14,0.37,0.22,0.8,0.22,1.28    c0,0.58-0.11,1.11-0.34,1.58c-0.23,0.47-0.55,0.88-0.95,1.22c-0.41,0.34-0.9,0.6-1.48,0.78c-0.58,0.18-1.22,0.27-1.93,0.27    c-0.62,0-1.16-0.07-1.63-0.2c-0.47-0.13-0.88-0.31-1.24-0.53c-0.36-0.22-0.67-0.47-0.95-0.76c-0.27-0.28-0.51-0.58-0.71-0.88    l1.57-1.23c0.16,0.26,0.34,0.51,0.52,0.73c0.18,0.22,0.39,0.41,0.62,0.57c0.23,0.16,0.5,0.28,0.79,0.37    c0.3,0.09,0.63,0.13,1.01,0.13c0.81,0,1.42-0.19,1.85-0.58c0.43-0.38,0.64-0.92,0.64-1.6v-0.13c0-0.68-0.23-1.2-0.68-1.55    c-0.45-0.35-1.1-0.53-1.93-0.53h-1.4v-1.82H478.7z">
        </path>
        <path class="st6"
          d="M490.76,921.3c-0.82,0-1.53-0.15-2.14-0.46c-0.6-0.31-1.1-0.75-1.49-1.33c-0.39-0.58-0.68-1.29-0.87-2.14    c-0.19-0.84-0.28-1.81-0.28-2.89c0-1.07,0.09-2.03,0.28-2.88c0.19-0.85,0.48-1.57,0.87-2.15c0.39-0.58,0.89-1.02,1.49-1.33    c0.61-0.31,1.32-0.46,2.14-0.46c1.64,0,2.85,0.6,3.62,1.8c0.78,1.2,1.16,2.87,1.16,5.03c0,2.16-0.39,3.83-1.16,5.03    C493.61,920.71,492.4,921.3,490.76,921.3L490.76,921.3z M490.76,919.49c0.45,0,0.84-0.09,1.16-0.27c0.32-0.18,0.58-0.44,0.78-0.78    c0.2-0.34,0.35-0.75,0.43-1.22c0.09-0.47,0.13-1,0.13-1.58v-2.31c0-0.58-0.04-1.11-0.13-1.58c-0.09-0.47-0.23-0.88-0.43-1.22    c-0.2-0.34-0.46-0.6-0.78-0.78c-0.32-0.18-0.71-0.27-1.16-0.27c-0.45,0-0.84,0.09-1.16,0.27c-0.32,0.18-0.58,0.44-0.78,0.78    c-0.2,0.34-0.35,0.75-0.43,1.22c-0.09,0.47-0.13,1-0.13,1.58v2.31c0,0.58,0.04,1.11,0.13,1.58c0.09,0.47,0.23,0.88,0.43,1.22    c0.2,0.34,0.46,0.6,0.78,0.78C489.92,919.4,490.31,919.49,490.76,919.49z">
        </path>
        <path class="st6"
          d="M506.72,912.8c0,0.96-0.14,1.86-0.43,2.7c-0.29,0.84-0.66,1.62-1.12,2.33c-0.45,0.71-0.96,1.34-1.52,1.89    c-0.56,0.55-1.11,1.01-1.65,1.36h-2.84c0.74-0.54,1.41-1.07,2-1.57c0.59-0.5,1.11-1.02,1.55-1.55c0.44-0.53,0.81-1.09,1.11-1.68    c0.3-0.59,0.53-1.24,0.69-1.95l-0.13-0.04c-0.14,0.26-0.3,0.51-0.48,0.75c-0.18,0.23-0.4,0.44-0.64,0.61    c-0.25,0.18-0.53,0.32-0.84,0.42c-0.32,0.1-0.68,0.15-1.1,0.15c-0.55,0-1.07-0.09-1.54-0.28c-0.47-0.19-0.88-0.46-1.23-0.82    c-0.35-0.36-0.62-0.79-0.81-1.29c-0.2-0.5-0.29-1.06-0.29-1.69c0-0.66,0.11-1.26,0.33-1.82c0.22-0.55,0.53-1.03,0.94-1.42    c0.4-0.39,0.89-0.7,1.46-0.92c0.57-0.22,1.2-0.33,1.91-0.33c0.73,0,1.38,0.12,1.96,0.36c0.57,0.24,1.06,0.58,1.46,1.03    c0.4,0.45,0.7,0.99,0.92,1.62C506.61,911.29,506.72,912,506.72,912.8L506.72,912.8z M502.07,914.5c0.77,0,1.37-0.2,1.8-0.61    c0.43-0.41,0.64-1.01,0.64-1.81v-0.26c0-0.79-0.21-1.4-0.64-1.81c-0.43-0.41-1.03-0.61-1.8-0.61c-0.77,0-1.37,0.2-1.8,0.61    c-0.43,0.41-0.64,1.01-0.64,1.81v0.26c0,0.79,0.21,1.4,0.64,1.81C500.7,914.29,501.3,914.5,502.07,914.5z">
        </path>
      </g>
      <path class="st2"
        d="M666.13,942.85h112.94c14.89,0,27.06-12.18,27.06-27.06l0,0c0-14.88-12.18-27.06-27.06-27.06H666.13   c-14.89,0-27.06,12.18-27.06,27.06l0,0C639.07,930.68,651.25,942.85,666.13,942.85z">
      </path>
      <g>
        <path class="st6"
          d="M673.76,910.33c-1.73,0-3.08-0.58-4.07-1.75c-0.98-1.17-1.47-2.86-1.47-5.08c0-1.11,0.13-2.09,0.38-2.93    c0.25-0.84,0.62-1.56,1.1-2.14c0.48-0.58,1.06-1.02,1.75-1.31c0.69-0.3,1.46-0.44,2.32-0.44c1.15,0,2.11,0.25,2.88,0.75    c0.78,0.5,1.38,1.24,1.82,2.22l-1.8,0.98c-0.23-0.63-0.58-1.13-1.05-1.5c-0.47-0.37-1.09-0.56-1.86-0.56    c-1.02,0-1.82,0.35-2.4,1.04c-0.58,0.7-0.87,1.66-0.87,2.89v2.01c0,1.23,0.29,2.19,0.87,2.89c0.58,0.7,1.38,1.04,2.4,1.04    c0.79,0,1.44-0.2,1.94-0.61c0.5-0.41,0.87-0.94,1.11-1.58l1.72,1.04c-0.44,0.95-1.06,1.7-1.85,2.24    C675.87,910.06,674.9,910.33,673.76,910.33z">
        </path>
        <polygon class="st6" points="680.79,910.1 680.79,896.9 682.93,896.9 682.93,908.21 688.3,908.21 688.3,910.1   ">
        </polygon>
        <path class="st6"
          d="M699.07,910.1l-1.19-3.57h-4.93l-1.15,3.57h-2.17l4.5-13.2h2.68l4.5,13.2H699.07L699.07,910.1z     M695.46,898.87h-0.09l-1.91,5.82h3.9L695.46,898.87z">
        </path>
        <path class="st6"
          d="M707.3,910.33c-1.11,0-2.05-0.2-2.83-0.6c-0.78-0.4-1.44-0.95-1.99-1.63l1.47-1.38    c0.47,0.57,0.98,1,1.54,1.29c0.56,0.29,1.2,0.43,1.92,0.43c0.84,0,1.48-0.19,1.91-0.57c0.43-0.38,0.64-0.89,0.64-1.53    c0-0.52-0.15-0.93-0.45-1.23c-0.3-0.3-0.84-0.53-1.61-0.68l-1.17-0.21c-1.29-0.24-2.25-0.66-2.89-1.27    c-0.64-0.61-0.96-1.44-0.96-2.5c0-0.58,0.11-1.11,0.33-1.58c0.22-0.47,0.53-0.87,0.93-1.19c0.4-0.32,0.88-0.57,1.45-0.75    c0.57-0.18,1.2-0.26,1.91-0.26c1,0,1.86,0.17,2.59,0.52c0.73,0.35,1.36,0.85,1.87,1.5l-1.49,1.32c-0.34-0.44-0.76-0.79-1.25-1.06    c-0.49-0.26-1.1-0.4-1.83-0.4c-0.76,0-1.34,0.15-1.76,0.45c-0.42,0.3-0.62,0.74-0.62,1.32c0,0.55,0.17,0.97,0.51,1.24    c0.34,0.27,0.87,0.48,1.59,0.61l1.17,0.25c1.32,0.25,2.29,0.68,2.9,1.29c0.61,0.61,0.92,1.44,0.92,2.5c0,0.62-0.11,1.18-0.32,1.68    c-0.21,0.5-0.53,0.94-0.94,1.3c-0.41,0.36-0.91,0.64-1.5,0.83C708.73,910.23,708.05,910.33,707.3,910.33z">
        </path>
        <path class="st6"
          d="M718.38,910.33c-1.11,0-2.05-0.2-2.83-0.6c-0.78-0.4-1.44-0.95-1.99-1.63l1.47-1.38    c0.47,0.57,0.98,1,1.54,1.29c0.56,0.29,1.2,0.43,1.92,0.43c0.84,0,1.48-0.19,1.91-0.57c0.43-0.38,0.64-0.89,0.64-1.53    c0-0.52-0.15-0.93-0.45-1.23c-0.3-0.3-0.84-0.53-1.61-0.68l-1.17-0.21c-1.29-0.24-2.25-0.66-2.89-1.27    c-0.64-0.61-0.96-1.44-0.96-2.5c0-0.58,0.11-1.11,0.33-1.58c0.22-0.47,0.53-0.87,0.93-1.19c0.4-0.32,0.88-0.57,1.45-0.75    c0.57-0.18,1.2-0.26,1.91-0.26c1,0,1.86,0.17,2.59,0.52c0.73,0.35,1.36,0.85,1.87,1.5l-1.49,1.32c-0.34-0.44-0.76-0.79-1.25-1.06    c-0.49-0.26-1.1-0.4-1.83-0.4c-0.76,0-1.34,0.15-1.76,0.45c-0.42,0.3-0.62,0.74-0.62,1.32c0,0.55,0.17,0.97,0.51,1.24    c0.34,0.27,0.87,0.48,1.59,0.61l1.17,0.25c1.32,0.25,2.29,0.68,2.9,1.29c0.61,0.61,0.92,1.44,0.92,2.5c0,0.62-0.11,1.18-0.32,1.68    c-0.21,0.5-0.53,0.94-0.94,1.3c-0.41,0.36-0.91,0.64-1.5,0.83C719.81,910.23,719.13,910.33,718.38,910.33z">
        </path>
        <path class="st6"
          d="M727.87,910.1h-2.14v-13.2h5.69c1.18,0,2.12,0.36,2.8,1.07c0.68,0.71,1.02,1.68,1.02,2.9    c0,0.95-0.22,1.73-0.65,2.35c-0.43,0.62-1.07,1.06-1.92,1.31l2.85,5.56h-2.38l-2.65-5.33h-2.63V910.1L727.87,910.1z     M731.27,902.97c0.54,0,0.96-0.14,1.27-0.42c0.3-0.28,0.45-0.69,0.45-1.22v-0.9c0-0.53-0.15-0.93-0.45-1.22    c-0.3-0.28-0.72-0.42-1.27-0.42h-3.4v4.18H731.27z">
        </path>
        <path class="st6"
          d="M743.03,910.33c-0.86,0-1.64-0.15-2.34-0.44c-0.7-0.3-1.3-0.73-1.8-1.3c-0.5-0.57-0.88-1.29-1.15-2.14    c-0.27-0.85-0.41-1.83-0.41-2.94s0.14-2.09,0.41-2.94c0.27-0.85,0.66-1.56,1.15-2.14c0.5-0.57,1.1-1.01,1.8-1.3    c0.7-0.3,1.48-0.44,2.34-0.44c0.86,0,1.64,0.15,2.34,0.44c0.7,0.3,1.3,0.73,1.8,1.3c0.5,0.57,0.88,1.29,1.15,2.14    c0.27,0.85,0.41,1.83,0.41,2.94s-0.14,2.09-0.41,2.94c-0.27,0.85-0.66,1.56-1.15,2.14c-0.5,0.57-1.1,1.01-1.8,1.3    C744.67,910.18,743.89,910.33,743.03,910.33L743.03,910.33z M743.03,908.44c0.5,0,0.97-0.09,1.39-0.26    c0.42-0.18,0.78-0.43,1.08-0.77c0.3-0.34,0.53-0.74,0.69-1.23c0.16-0.48,0.25-1.02,0.25-1.63v-2.09c0-0.61-0.08-1.15-0.25-1.63    c-0.16-0.48-0.39-0.89-0.69-1.23c-0.3-0.33-0.66-0.59-1.08-0.77c-0.42-0.18-0.89-0.26-1.39-0.26c-0.52,0-0.98,0.09-1.4,0.26    c-0.42,0.18-0.77,0.43-1.07,0.77c-0.3,0.34-0.53,0.74-0.69,1.23c-0.16,0.48-0.25,1.02-0.25,1.63v2.09c0,0.61,0.08,1.15,0.25,1.63    c0.16,0.48,0.39,0.89,0.69,1.23c0.3,0.33,0.65,0.59,1.07,0.77C742.05,908.35,742.52,908.44,743.03,908.44z">
        </path>
        <path class="st6"
          d="M756.5,910.33c-0.86,0-1.64-0.15-2.34-0.44s-1.3-0.73-1.8-1.3c-0.5-0.57-0.88-1.29-1.15-2.14    c-0.27-0.85-0.41-1.83-0.41-2.94s0.14-2.09,0.41-2.94c0.27-0.85,0.66-1.56,1.15-2.14c0.5-0.57,1.1-1.01,1.8-1.3    s1.48-0.44,2.34-0.44s1.64,0.15,2.34,0.44s1.3,0.73,1.8,1.3c0.5,0.57,0.88,1.29,1.15,2.14c0.27,0.85,0.41,1.83,0.41,2.94    s-0.14,2.09-0.41,2.94c-0.27,0.85-0.66,1.56-1.15,2.14c-0.5,0.57-1.1,1.01-1.8,1.3S757.35,910.33,756.5,910.33L756.5,910.33z     M756.5,908.44c0.5,0,0.97-0.09,1.39-0.26c0.42-0.18,0.78-0.43,1.08-0.77c0.3-0.34,0.53-0.74,0.69-1.23    c0.16-0.48,0.25-1.02,0.25-1.63v-2.09c0-0.61-0.08-1.15-0.25-1.63c-0.16-0.48-0.39-0.89-0.69-1.23c-0.3-0.33-0.66-0.59-1.08-0.77    c-0.42-0.18-0.89-0.26-1.39-0.26c-0.52,0-0.98,0.09-1.4,0.26c-0.42,0.18-0.77,0.43-1.07,0.77c-0.3,0.34-0.53,0.74-0.69,1.23    c-0.16,0.48-0.25,1.02-0.25,1.63v2.09c0,0.61,0.08,1.15,0.25,1.63c0.16,0.48,0.39,0.89,0.69,1.23c0.3,0.33,0.65,0.59,1.07,0.77    C755.51,908.35,755.98,908.44,756.5,908.44z">
        </path>
        <polygon class="st6"
          points="774.95,900.01 774.86,900.01 773.82,902.14 770.92,907.42 768.03,902.14 766.99,900.01 766.9,900.01     766.9,910.1 764.85,910.1 764.85,896.9 767.39,896.9 770.92,903.62 771.04,903.62 774.57,896.9 776.99,896.9 776.99,910.1     774.95,910.1   ">
        </polygon>
        <path class="st6"
          d="M710.83,926.91c0.82,0,1.42-0.17,1.82-0.52c0.39-0.35,0.59-0.79,0.59-1.33v-0.13c0-0.61-0.19-1.07-0.57-1.39    c-0.38-0.32-0.89-0.48-1.53-0.48c-0.63,0-1.17,0.14-1.61,0.43c-0.44,0.28-0.81,0.68-1.12,1.18l-1.42-1.23    c0.2-0.29,0.43-0.57,0.68-0.83c0.25-0.26,0.55-0.49,0.89-0.69c0.34-0.2,0.72-0.35,1.15-0.47c0.43-0.12,0.92-0.18,1.47-0.18    c0.62,0,1.19,0.08,1.72,0.23c0.53,0.15,0.98,0.38,1.36,0.67c0.38,0.3,0.67,0.66,0.89,1.08c0.21,0.42,0.32,0.9,0.32,1.43    c0,0.42-0.07,0.79-0.2,1.13c-0.13,0.34-0.31,0.64-0.55,0.9c-0.23,0.26-0.5,0.47-0.81,0.63c-0.31,0.16-0.63,0.28-0.97,0.36v0.09    c0.38,0.08,0.73,0.2,1.07,0.37c0.33,0.17,0.63,0.39,0.88,0.66c0.25,0.27,0.45,0.59,0.6,0.96c0.14,0.37,0.22,0.8,0.22,1.28    c0,0.58-0.11,1.11-0.34,1.58c-0.23,0.47-0.55,0.88-0.95,1.22s-0.9,0.6-1.48,0.78c-0.58,0.18-1.22,0.27-1.93,0.27    c-0.62,0-1.16-0.07-1.63-0.2s-0.88-0.31-1.24-0.53c-0.36-0.22-0.67-0.47-0.95-0.76c-0.27-0.28-0.51-0.58-0.71-0.88l1.57-1.23    c0.16,0.26,0.34,0.51,0.52,0.73c0.18,0.22,0.39,0.41,0.62,0.57c0.23,0.16,0.5,0.28,0.79,0.37c0.3,0.09,0.63,0.13,1.01,0.13    c0.81,0,1.42-0.19,1.85-0.58c0.43-0.38,0.64-0.92,0.64-1.6v-0.13c0-0.68-0.23-1.2-0.68-1.55c-0.45-0.35-1.1-0.53-1.93-0.53h-1.4    v-1.82H710.83z">
        </path>
        <path class="st6"
          d="M722.9,934.91c-0.82,0-1.53-0.15-2.14-0.46c-0.6-0.31-1.1-0.75-1.49-1.33c-0.39-0.58-0.68-1.29-0.87-2.14    c-0.19-0.84-0.28-1.81-0.28-2.89c0-1.07,0.09-2.03,0.28-2.88s0.48-1.57,0.87-2.15c0.39-0.58,0.89-1.02,1.49-1.33    c0.61-0.31,1.32-0.46,2.14-0.46c1.64,0,2.85,0.6,3.62,1.8c0.78,1.2,1.16,2.87,1.16,5.03c0,2.16-0.39,3.83-1.16,5.03    C725.74,934.31,724.54,934.91,722.9,934.91L722.9,934.91z M722.9,933.09c0.45,0,0.84-0.09,1.16-0.27    c0.32-0.18,0.58-0.44,0.78-0.78c0.2-0.34,0.35-0.75,0.43-1.22c0.09-0.47,0.13-1,0.13-1.58v-2.31c0-0.58-0.04-1.11-0.13-1.58    c-0.09-0.47-0.23-0.88-0.43-1.22c-0.2-0.34-0.46-0.6-0.78-0.78c-0.32-0.18-0.71-0.27-1.16-0.27c-0.45,0-0.84,0.09-1.16,0.27    c-0.32,0.18-0.58,0.44-0.78,0.78c-0.2,0.34-0.35,0.75-0.43,1.22c-0.09,0.47-0.13,1-0.13,1.58v2.31c0,0.58,0.04,1.11,0.13,1.58    c0.09,0.47,0.23,0.88,0.43,1.22c0.2,0.34,0.46,0.6,0.78,0.78C722.06,933,722.44,933.09,722.9,933.09z">
        </path>
        <path class="st6"
          d="M734.24,934.91c-0.77,0-1.45-0.1-2.03-0.29c-0.59-0.2-1.08-0.46-1.47-0.8c-0.4-0.34-0.7-0.74-0.91-1.21    c-0.21-0.47-0.31-0.97-0.31-1.51c0-0.88,0.24-1.59,0.73-2.13c0.49-0.54,1.13-0.91,1.92-1.13v-0.15c-0.68-0.24-1.23-0.62-1.64-1.13    c-0.41-0.52-0.61-1.15-0.61-1.91c0-0.5,0.1-0.96,0.29-1.38c0.2-0.42,0.48-0.77,0.84-1.07c0.37-0.3,0.82-0.53,1.36-0.69    c0.54-0.16,1.15-0.25,1.83-0.25c0.68,0,1.29,0.08,1.83,0.25c0.54,0.16,1,0.39,1.36,0.69c0.37,0.3,0.65,0.65,0.84,1.07    c0.2,0.42,0.29,0.88,0.29,1.38c0,0.76-0.2,1.39-0.61,1.91c-0.41,0.52-0.95,0.89-1.64,1.13v0.15c0.79,0.21,1.43,0.59,1.92,1.13    c0.49,0.54,0.73,1.24,0.73,2.13c0,0.54-0.1,1.05-0.31,1.51c-0.21,0.47-0.51,0.87-0.91,1.21c-0.4,0.34-0.89,0.61-1.47,0.8    C735.69,934.81,735.01,934.91,734.24,934.91L734.24,934.91z M734.24,933.19c0.79,0,1.41-0.18,1.84-0.55    c0.43-0.37,0.65-0.88,0.65-1.53v-0.38c0-0.66-0.22-1.17-0.65-1.53c-0.43-0.37-1.05-0.55-1.84-0.55c-0.79,0-1.41,0.18-1.84,0.55    c-0.43,0.37-0.65,0.88-0.65,1.53v0.38c0,0.66,0.22,1.17,0.65,1.53C732.83,933.01,733.45,933.19,734.24,933.19L734.24,933.19z     M734.24,927.01c0.73,0,1.29-0.16,1.67-0.47c0.38-0.32,0.58-0.78,0.58-1.38v-0.32c0-0.6-0.19-1.07-0.58-1.38    c-0.38-0.32-0.94-0.47-1.67-0.47c-0.73,0-1.29,0.16-1.67,0.47c-0.38,0.32-0.58,0.78-0.58,1.38v0.32c0,0.61,0.19,1.07,0.58,1.38    C732.95,926.85,733.51,927.01,734.24,927.01z">
        </path>
      </g>
      <path class="st2"
        d="M910.17,958.16h112.94c14.89,0,27.06-12.18,27.06-27.06l0,0c0-14.88-12.18-27.06-27.06-27.06H910.17   c-14.88,0-27.06,12.18-27.06,27.06l0,0C883.11,945.98,895.29,958.16,910.17,958.16z">
      </path>
      <g>
        <path class="st6"
          d="M917.79,925.63c-1.73,0-3.08-0.58-4.07-1.75c-0.98-1.17-1.47-2.86-1.47-5.08c0-1.11,0.13-2.09,0.38-2.93    c0.25-0.84,0.62-1.56,1.1-2.14c0.48-0.58,1.06-1.02,1.75-1.31c0.69-0.3,1.46-0.44,2.32-0.44c1.15,0,2.11,0.25,2.88,0.75    c0.78,0.5,1.38,1.24,1.82,2.22l-1.8,0.98c-0.23-0.63-0.58-1.13-1.05-1.5c-0.47-0.37-1.09-0.56-1.86-0.56    c-1.02,0-1.82,0.35-2.4,1.04c-0.58,0.7-0.87,1.66-0.87,2.89v2.01c0,1.23,0.29,2.19,0.87,2.89c0.58,0.7,1.38,1.04,2.4,1.04    c0.79,0,1.44-0.2,1.94-0.61c0.5-0.41,0.87-0.94,1.11-1.58l1.72,1.04c-0.44,0.96-1.06,1.7-1.85,2.24    C919.91,925.37,918.94,925.63,917.79,925.63z">
        </path>
        <polygon class="st6"
          points="924.83,925.41 924.83,912.21 926.96,912.21 926.96,923.52 932.33,923.52 932.33,925.41   "></polygon>
        <path class="st6"
          d="M943.11,925.41l-1.19-3.57h-4.93l-1.15,3.57h-2.17l4.5-13.2h2.68l4.5,13.2H943.11L943.11,925.41z     M939.5,914.18h-0.09L937.5,920h3.9L939.5,914.18z">
        </path>
        <path class="st6"
          d="M951.34,925.63c-1.11,0-2.05-0.2-2.83-0.6c-0.78-0.4-1.44-0.95-1.99-1.63l1.47-1.38    c0.47,0.57,0.98,1,1.54,1.29c0.56,0.29,1.2,0.43,1.92,0.43c0.84,0,1.48-0.19,1.91-0.57c0.43-0.38,0.64-0.89,0.64-1.53    c0-0.52-0.15-0.93-0.45-1.23c-0.3-0.3-0.84-0.53-1.61-0.68l-1.17-0.21c-1.29-0.24-2.25-0.66-2.89-1.27    c-0.64-0.61-0.96-1.44-0.96-2.5c0-0.58,0.11-1.11,0.33-1.58c0.22-0.47,0.53-0.87,0.93-1.19c0.4-0.32,0.88-0.57,1.45-0.75    c0.57-0.18,1.2-0.26,1.91-0.26c1,0,1.86,0.17,2.59,0.52c0.73,0.35,1.36,0.85,1.87,1.5l-1.49,1.32c-0.34-0.44-0.76-0.79-1.25-1.06    c-0.49-0.26-1.1-0.4-1.83-0.4c-0.76,0-1.34,0.15-1.76,0.45c-0.42,0.3-0.62,0.74-0.62,1.32c0,0.55,0.17,0.97,0.51,1.24    c0.34,0.27,0.87,0.48,1.59,0.61l1.17,0.25c1.32,0.25,2.29,0.68,2.9,1.29c0.61,0.61,0.92,1.44,0.92,2.5c0,0.62-0.11,1.18-0.32,1.68    c-0.21,0.5-0.53,0.94-0.94,1.3c-0.41,0.36-0.91,0.64-1.5,0.83C952.77,925.54,952.09,925.63,951.34,925.63z">
        </path>
        <path class="st6"
          d="M962.42,925.63c-1.11,0-2.05-0.2-2.83-0.6c-0.78-0.4-1.44-0.95-1.99-1.63l1.47-1.38    c0.47,0.57,0.98,1,1.54,1.29c0.56,0.29,1.2,0.43,1.92,0.43c0.84,0,1.48-0.19,1.91-0.57c0.43-0.38,0.64-0.89,0.64-1.53    c0-0.52-0.15-0.93-0.45-1.23c-0.3-0.3-0.84-0.53-1.61-0.68l-1.17-0.21c-1.29-0.24-2.25-0.66-2.89-1.27    c-0.64-0.61-0.96-1.44-0.96-2.5c0-0.58,0.11-1.11,0.33-1.58c0.22-0.47,0.53-0.87,0.93-1.19c0.4-0.32,0.88-0.57,1.45-0.75    c0.57-0.18,1.2-0.26,1.91-0.26c1,0,1.86,0.17,2.59,0.52c0.73,0.35,1.36,0.85,1.87,1.5l-1.49,1.32c-0.34-0.44-0.76-0.79-1.25-1.06    c-0.49-0.26-1.1-0.4-1.83-0.4c-0.76,0-1.34,0.15-1.76,0.45c-0.42,0.3-0.62,0.74-0.62,1.32c0,0.55,0.17,0.97,0.51,1.24    c0.34,0.27,0.87,0.48,1.59,0.61l1.17,0.25c1.32,0.25,2.29,0.68,2.9,1.29c0.61,0.61,0.92,1.44,0.92,2.5c0,0.62-0.11,1.18-0.32,1.68    c-0.21,0.5-0.53,0.94-0.94,1.3c-0.41,0.36-0.91,0.64-1.5,0.83C963.85,925.54,963.17,925.63,962.42,925.63z">
        </path>
        <path class="st6"
          d="M971.91,925.41h-2.14v-13.2h5.69c1.18,0,2.12,0.36,2.8,1.07c0.68,0.71,1.02,1.68,1.02,2.9    c0,0.95-0.22,1.73-0.65,2.35c-0.43,0.62-1.07,1.06-1.92,1.31l2.86,5.56h-2.38l-2.65-5.33h-2.63V925.41L971.91,925.41z     M975.31,918.28c0.54,0,0.96-0.14,1.27-0.42c0.3-0.28,0.45-0.69,0.45-1.22v-0.9c0-0.53-0.15-0.93-0.45-1.22    c-0.3-0.28-0.72-0.42-1.27-0.42h-3.4v4.18H975.31z">
        </path>
        <path class="st6"
          d="M987.07,925.63c-0.86,0-1.64-0.15-2.34-0.44s-1.3-0.73-1.8-1.3c-0.5-0.57-0.88-1.29-1.15-2.14    c-0.27-0.85-0.41-1.83-0.41-2.94s0.14-2.09,0.41-2.94c0.27-0.85,0.66-1.56,1.15-2.14c0.5-0.57,1.1-1.01,1.8-1.3    c0.7-0.3,1.48-0.44,2.34-0.44s1.64,0.15,2.34,0.44c0.7,0.3,1.3,0.73,1.8,1.3c0.5,0.57,0.88,1.29,1.15,2.14    c0.27,0.85,0.41,1.83,0.41,2.94s-0.14,2.09-0.41,2.94c-0.27,0.85-0.66,1.56-1.15,2.14c-0.5,0.57-1.1,1.01-1.8,1.3    S987.93,925.63,987.07,925.63L987.07,925.63z M987.07,923.74c0.5,0,0.97-0.09,1.39-0.26c0.42-0.18,0.78-0.43,1.08-0.77    c0.3-0.34,0.53-0.74,0.69-1.23c0.16-0.48,0.25-1.02,0.25-1.63v-2.09c0-0.61-0.08-1.15-0.25-1.63c-0.16-0.48-0.39-0.89-0.69-1.23    c-0.3-0.33-0.66-0.59-1.08-0.77c-0.42-0.18-0.89-0.26-1.39-0.26c-0.52,0-0.98,0.09-1.4,0.26c-0.42,0.18-0.77,0.43-1.07,0.77    c-0.3,0.34-0.53,0.74-0.69,1.23c-0.16,0.48-0.25,1.02-0.25,1.63v2.09c0,0.61,0.08,1.15,0.25,1.63c0.16,0.48,0.39,0.89,0.69,1.23    c0.3,0.33,0.65,0.59,1.07,0.77C986.09,923.66,986.56,923.74,987.07,923.74z">
        </path>
        <path class="st6"
          d="M1000.53,925.63c-0.86,0-1.64-0.15-2.34-0.44c-0.7-0.3-1.3-0.73-1.8-1.3c-0.5-0.57-0.88-1.29-1.15-2.14    c-0.27-0.85-0.41-1.83-0.41-2.94s0.14-2.09,0.41-2.94c0.27-0.85,0.66-1.56,1.15-2.14c0.5-0.57,1.1-1.01,1.8-1.3    c0.7-0.3,1.48-0.44,2.34-0.44c0.86,0,1.64,0.15,2.34,0.44c0.7,0.3,1.3,0.73,1.8,1.3c0.5,0.57,0.88,1.29,1.15,2.14    c0.27,0.85,0.41,1.83,0.41,2.94s-0.14,2.09-0.41,2.94c-0.27,0.85-0.66,1.56-1.15,2.14c-0.5,0.57-1.1,1.01-1.8,1.3    C1002.17,925.49,1001.39,925.63,1000.53,925.63L1000.53,925.63z M1000.53,923.74c0.5,0,0.97-0.09,1.39-0.26    c0.42-0.18,0.78-0.43,1.08-0.77c0.3-0.34,0.53-0.74,0.69-1.23c0.16-0.48,0.25-1.02,0.25-1.63v-2.09c0-0.61-0.08-1.15-0.25-1.63    c-0.16-0.48-0.39-0.89-0.69-1.23c-0.3-0.33-0.66-0.59-1.08-0.77c-0.42-0.18-0.89-0.26-1.39-0.26c-0.52,0-0.98,0.09-1.4,0.26    c-0.42,0.18-0.77,0.43-1.07,0.77c-0.3,0.34-0.53,0.74-0.69,1.23c-0.16,0.48-0.25,1.02-0.25,1.63v2.09c0,0.61,0.08,1.15,0.25,1.63    c0.16,0.48,0.39,0.89,0.69,1.23c0.3,0.33,0.65,0.59,1.07,0.77C999.55,923.66,1000.02,923.74,1000.53,923.74z">
        </path>
        <polygon class="st6"
          points="1018.99,915.31 1018.89,915.31 1017.85,917.45 1014.96,922.72 1012.07,917.45 1011.03,915.31     1010.93,915.31 1010.93,925.41 1008.89,925.41 1008.89,912.21 1011.42,912.21 1014.96,918.92 1015.07,918.92 1018.61,912.21     1021.03,912.21 1021.03,925.41 1018.99,925.41   ">
        </polygon>
        <path class="st6"
          d="M954.87,942.22c0.82,0,1.42-0.17,1.82-0.52c0.39-0.35,0.59-0.79,0.59-1.33v-0.13c0-0.61-0.19-1.07-0.57-1.39    c-0.38-0.32-0.89-0.48-1.53-0.48c-0.63,0-1.17,0.14-1.61,0.43c-0.44,0.28-0.81,0.68-1.12,1.18l-1.42-1.23    c0.2-0.29,0.43-0.57,0.68-0.83c0.25-0.26,0.55-0.49,0.89-0.69c0.34-0.2,0.72-0.35,1.15-0.47c0.43-0.12,0.92-0.18,1.47-0.18    c0.62,0,1.19,0.08,1.72,0.23c0.53,0.15,0.98,0.38,1.36,0.67c0.38,0.3,0.67,0.66,0.89,1.08c0.21,0.42,0.32,0.9,0.32,1.43    c0,0.42-0.07,0.79-0.2,1.13c-0.13,0.34-0.31,0.64-0.55,0.9c-0.23,0.26-0.5,0.47-0.81,0.63c-0.31,0.16-0.63,0.28-0.97,0.36v0.09    c0.38,0.08,0.73,0.2,1.07,0.37c0.33,0.17,0.63,0.39,0.88,0.66c0.25,0.27,0.45,0.59,0.6,0.96c0.14,0.37,0.22,0.8,0.22,1.28    c0,0.58-0.11,1.11-0.34,1.58c-0.23,0.47-0.55,0.88-0.95,1.22c-0.41,0.34-0.9,0.6-1.48,0.78c-0.58,0.18-1.22,0.27-1.93,0.27    c-0.62,0-1.16-0.07-1.63-0.2c-0.47-0.13-0.88-0.31-1.24-0.53c-0.36-0.22-0.67-0.47-0.95-0.76c-0.27-0.28-0.51-0.58-0.71-0.88    l1.57-1.23c0.16,0.26,0.34,0.51,0.52,0.73c0.18,0.22,0.39,0.41,0.62,0.57c0.23,0.16,0.5,0.28,0.79,0.37    c0.3,0.09,0.63,0.13,1.01,0.13c0.81,0,1.42-0.19,1.85-0.58c0.43-0.38,0.64-0.92,0.64-1.6v-0.13c0-0.68-0.23-1.2-0.68-1.55    c-0.45-0.35-1.1-0.53-1.93-0.53h-1.4v-1.82H954.87z">
        </path>
        <path class="st6"
          d="M966.94,950.21c-0.82,0-1.53-0.15-2.14-0.46c-0.6-0.31-1.1-0.75-1.49-1.33c-0.39-0.58-0.68-1.29-0.87-2.14    c-0.19-0.84-0.28-1.81-0.28-2.89c0-1.07,0.09-2.03,0.28-2.88c0.19-0.85,0.48-1.57,0.87-2.15c0.39-0.58,0.89-1.02,1.49-1.33    c0.61-0.31,1.32-0.46,2.14-0.46c1.64,0,2.85,0.6,3.62,1.8c0.78,1.2,1.16,2.87,1.16,5.03s-0.39,3.83-1.16,5.03    C969.78,949.62,968.57,950.21,966.94,950.21L966.94,950.21z M966.94,948.4c0.45,0,0.84-0.09,1.16-0.27    c0.32-0.18,0.58-0.44,0.78-0.78c0.2-0.34,0.35-0.75,0.43-1.22c0.09-0.47,0.13-1,0.13-1.58v-2.31c0-0.58-0.04-1.11-0.13-1.58    c-0.09-0.47-0.23-0.88-0.43-1.22c-0.2-0.34-0.46-0.6-0.78-0.78c-0.32-0.18-0.71-0.27-1.16-0.27c-0.45,0-0.84,0.09-1.16,0.27    c-0.32,0.18-0.58,0.44-0.78,0.78c-0.2,0.34-0.35,0.75-0.43,1.22c-0.09,0.47-0.13,1-0.13,1.58v2.31c0,0.58,0.04,1.11,0.13,1.58    c0.09,0.47,0.23,0.88,0.43,1.22c0.2,0.34,0.46,0.6,0.78,0.78S966.48,948.4,966.94,948.4z">
        </path>
        <polygon class="st6"
          points="975.84,949.99 980.62,938.55 975.63,938.55 975.63,940.99 973.8,940.99 973.8,936.79 982.74,936.79     982.74,938.64 978.09,949.99   ">
        </polygon>
      </g>
      <path class="st2"
        d="M1150.81,970.92h112.94c14.89,0,27.06-12.18,27.06-27.06l0,0c0-14.88-12.18-27.06-27.06-27.06h-112.94   c-14.89,0-27.06,12.18-27.06,27.06l0,0C1123.75,958.74,1135.92,970.92,1150.81,970.92z">
      </path>
      <g>
        <path class="st6"
          d="M1158.43,938.39c-1.73,0-3.08-0.58-4.07-1.75c-0.98-1.17-1.47-2.86-1.47-5.08c0-1.11,0.13-2.09,0.38-2.93    c0.25-0.84,0.62-1.56,1.1-2.14c0.48-0.58,1.06-1.02,1.75-1.31c0.69-0.3,1.46-0.44,2.32-0.44c1.15,0,2.11,0.25,2.88,0.75    c0.78,0.5,1.38,1.24,1.82,2.22l-1.8,0.98c-0.23-0.63-0.58-1.13-1.05-1.5c-0.47-0.37-1.09-0.56-1.86-0.56    c-1.02,0-1.82,0.35-2.4,1.04c-0.58,0.7-0.87,1.66-0.87,2.89v2.01c0,1.23,0.29,2.19,0.87,2.89c0.58,0.7,1.38,1.04,2.4,1.04    c0.79,0,1.44-0.2,1.94-0.61c0.5-0.41,0.87-0.94,1.11-1.58l1.72,1.04c-0.44,0.96-1.06,1.7-1.85,2.24    C1160.55,938.12,1159.58,938.39,1158.43,938.39z">
        </path>
        <polygon class="st6"
          points="1165.46,938.16 1165.46,924.96 1167.6,924.96 1167.6,936.27 1172.97,936.27 1172.97,938.16   "></polygon>
        <path class="st6"
          d="M1183.75,938.16l-1.19-3.57h-4.93l-1.15,3.57h-2.17l4.5-13.2h2.68l4.5,13.2H1183.75L1183.75,938.16z     M1180.14,926.93h-0.09l-1.91,5.82h3.9L1180.14,926.93z">
        </path>
        <path class="st6"
          d="M1191.97,938.39c-1.11,0-2.05-0.2-2.83-0.6c-0.78-0.4-1.44-0.95-1.99-1.63l1.47-1.38    c0.47,0.57,0.98,1,1.54,1.29c0.56,0.29,1.2,0.43,1.92,0.43c0.84,0,1.48-0.19,1.91-0.57c0.43-0.38,0.64-0.89,0.64-1.53    c0-0.52-0.15-0.93-0.45-1.23c-0.3-0.3-0.84-0.53-1.61-0.68l-1.17-0.21c-1.29-0.24-2.25-0.66-2.89-1.27    c-0.64-0.61-0.96-1.44-0.96-2.5c0-0.58,0.11-1.11,0.33-1.58c0.22-0.47,0.53-0.87,0.93-1.19c0.4-0.32,0.88-0.57,1.45-0.75    c0.57-0.18,1.2-0.26,1.91-0.26c1,0,1.86,0.17,2.59,0.52c0.73,0.35,1.36,0.85,1.87,1.5l-1.49,1.32c-0.34-0.44-0.76-0.79-1.25-1.06    c-0.49-0.26-1.1-0.4-1.83-0.4c-0.76,0-1.34,0.15-1.76,0.45c-0.42,0.3-0.62,0.74-0.62,1.32c0,0.55,0.17,0.97,0.51,1.24    c0.34,0.27,0.87,0.48,1.59,0.61l1.17,0.25c1.32,0.25,2.29,0.68,2.9,1.29c0.61,0.61,0.92,1.44,0.92,2.5c0,0.62-0.11,1.18-0.32,1.68    c-0.21,0.5-0.53,0.94-0.94,1.3c-0.41,0.36-0.91,0.64-1.5,0.83C1193.4,938.29,1192.73,938.39,1191.97,938.39z">
        </path>
        <path class="st6"
          d="M1203.05,938.39c-1.11,0-2.05-0.2-2.83-0.6c-0.78-0.4-1.44-0.95-1.99-1.63l1.47-1.38    c0.47,0.57,0.98,1,1.54,1.29c0.56,0.29,1.2,0.43,1.92,0.43c0.84,0,1.48-0.19,1.91-0.57c0.43-0.38,0.64-0.89,0.64-1.53    c0-0.52-0.15-0.93-0.45-1.23c-0.3-0.3-0.84-0.53-1.61-0.68l-1.17-0.21c-1.29-0.24-2.25-0.66-2.89-1.27    c-0.64-0.61-0.96-1.44-0.96-2.5c0-0.58,0.11-1.11,0.33-1.58c0.22-0.47,0.53-0.87,0.93-1.19c0.4-0.32,0.88-0.57,1.45-0.75    c0.57-0.18,1.2-0.26,1.91-0.26c1,0,1.86,0.17,2.59,0.52c0.73,0.35,1.36,0.85,1.87,1.5l-1.49,1.32c-0.34-0.44-0.76-0.79-1.25-1.06    c-0.49-0.26-1.1-0.4-1.83-0.4c-0.76,0-1.34,0.15-1.76,0.45c-0.42,0.3-0.62,0.74-0.62,1.32c0,0.55,0.17,0.97,0.51,1.24    c0.34,0.27,0.87,0.48,1.59,0.61l1.17,0.25c1.32,0.25,2.29,0.68,2.9,1.29c0.61,0.61,0.92,1.44,0.92,2.5c0,0.62-0.11,1.18-0.32,1.68    c-0.21,0.5-0.53,0.94-0.94,1.3c-0.41,0.36-0.91,0.64-1.5,0.83C1204.48,938.29,1203.81,938.39,1203.05,938.39z">
        </path>
        <path class="st6"
          d="M1212.54,938.16h-2.14v-13.2h5.69c1.18,0,2.12,0.36,2.8,1.07c0.68,0.71,1.02,1.68,1.02,2.9    c0,0.95-0.22,1.73-0.65,2.35c-0.43,0.62-1.07,1.06-1.92,1.31l2.85,5.56h-2.38l-2.65-5.33h-2.63V938.16L1212.54,938.16z     M1215.95,931.03c0.54,0,0.96-0.14,1.27-0.42c0.3-0.28,0.45-0.69,0.45-1.22v-0.9c0-0.53-0.15-0.93-0.45-1.22    c-0.3-0.28-0.72-0.42-1.27-0.42h-3.4v4.18H1215.95z">
        </path>
        <path class="st6"
          d="M1227.71,938.39c-0.86,0-1.64-0.15-2.34-0.44c-0.7-0.3-1.3-0.73-1.8-1.3c-0.5-0.57-0.88-1.29-1.15-2.14    c-0.27-0.85-0.41-1.83-0.41-2.94c0-1.11,0.14-2.09,0.41-2.94c0.27-0.85,0.66-1.56,1.15-2.14c0.5-0.57,1.1-1.01,1.8-1.3    c0.7-0.3,1.48-0.44,2.34-0.44s1.64,0.15,2.34,0.44c0.7,0.3,1.3,0.73,1.8,1.3c0.5,0.57,0.88,1.29,1.15,2.14    c0.27,0.85,0.41,1.83,0.41,2.94c0,1.11-0.14,2.09-0.41,2.94c-0.27,0.85-0.66,1.56-1.15,2.14c-0.5,0.57-1.1,1.01-1.8,1.3    C1229.34,938.24,1228.57,938.39,1227.71,938.39L1227.71,938.39z M1227.71,936.5c0.5,0,0.97-0.09,1.39-0.26    c0.42-0.18,0.78-0.43,1.08-0.77c0.3-0.34,0.53-0.74,0.69-1.23c0.16-0.48,0.25-1.02,0.25-1.63v-2.09c0-0.61-0.08-1.15-0.25-1.63    c-0.16-0.48-0.39-0.89-0.69-1.23c-0.3-0.33-0.66-0.59-1.08-0.77c-0.42-0.18-0.89-0.26-1.39-0.26c-0.52,0-0.98,0.09-1.4,0.26    c-0.42,0.18-0.77,0.43-1.07,0.77c-0.3,0.34-0.53,0.74-0.69,1.23c-0.16,0.48-0.25,1.02-0.25,1.63v2.09c0,0.61,0.08,1.15,0.25,1.63    c0.16,0.48,0.39,0.89,0.69,1.23c0.3,0.33,0.65,0.59,1.07,0.77C1226.73,936.41,1227.19,936.5,1227.71,936.5z">
        </path>
        <path class="st6"
          d="M1241.17,938.39c-0.86,0-1.64-0.15-2.34-0.44c-0.7-0.3-1.3-0.73-1.8-1.3c-0.5-0.57-0.88-1.29-1.15-2.14    c-0.27-0.85-0.41-1.83-0.41-2.94c0-1.11,0.14-2.09,0.41-2.94c0.27-0.85,0.66-1.56,1.15-2.14c0.5-0.57,1.1-1.01,1.8-1.3    c0.7-0.3,1.48-0.44,2.34-0.44s1.64,0.15,2.34,0.44c0.7,0.3,1.3,0.73,1.8,1.3c0.5,0.57,0.88,1.29,1.15,2.14    c0.27,0.85,0.41,1.83,0.41,2.94c0,1.11-0.14,2.09-0.41,2.94c-0.27,0.85-0.66,1.56-1.15,2.14c-0.5,0.57-1.1,1.01-1.8,1.3    C1242.81,938.24,1242.03,938.39,1241.17,938.39L1241.17,938.39z M1241.17,936.5c0.5,0,0.97-0.09,1.39-0.26    c0.42-0.18,0.78-0.43,1.08-0.77c0.3-0.34,0.53-0.74,0.69-1.23c0.16-0.48,0.25-1.02,0.25-1.63v-2.09c0-0.61-0.08-1.15-0.25-1.63    c-0.16-0.48-0.39-0.89-0.69-1.23c-0.3-0.33-0.66-0.59-1.08-0.77c-0.42-0.18-0.89-0.26-1.39-0.26c-0.52,0-0.98,0.09-1.4,0.26    c-0.42,0.18-0.77,0.43-1.07,0.77c-0.3,0.34-0.53,0.74-0.69,1.23c-0.16,0.48-0.25,1.02-0.25,1.63v2.09c0,0.61,0.08,1.15,0.25,1.63    c0.16,0.48,0.39,0.89,0.69,1.23c0.3,0.33,0.65,0.59,1.07,0.77C1240.19,936.41,1240.65,936.5,1241.17,936.5z">
        </path>
        <polygon class="st6"
          points="1259.63,928.07 1259.53,928.07 1258.49,930.2 1255.6,935.48 1252.7,930.2 1251.67,928.07     1251.57,928.07 1251.57,938.16 1249.53,938.16 1249.53,924.96 1252.06,924.96 1255.6,931.68 1255.71,931.68 1259.25,924.96     1261.67,924.96 1261.67,938.16 1259.63,938.16   ">
        </polygon>
        <path class="st6"
          d="M1195.51,954.97c0.82,0,1.42-0.17,1.81-0.52c0.39-0.35,0.59-0.79,0.59-1.33v-0.13c0-0.61-0.19-1.07-0.57-1.39    c-0.38-0.32-0.89-0.48-1.53-0.48c-0.63,0-1.17,0.14-1.61,0.43c-0.44,0.28-0.81,0.68-1.12,1.18l-1.42-1.23    c0.2-0.29,0.43-0.57,0.68-0.83c0.25-0.26,0.55-0.49,0.89-0.69c0.34-0.2,0.72-0.35,1.15-0.47c0.43-0.12,0.92-0.18,1.47-0.18    c0.62,0,1.19,0.08,1.72,0.23s0.98,0.38,1.36,0.67c0.38,0.3,0.67,0.66,0.89,1.08c0.21,0.42,0.32,0.9,0.32,1.43    c0,0.42-0.07,0.79-0.2,1.13c-0.13,0.34-0.31,0.64-0.55,0.9c-0.23,0.26-0.5,0.47-0.81,0.63c-0.31,0.16-0.63,0.28-0.97,0.36v0.09    c0.38,0.08,0.73,0.2,1.07,0.37c0.33,0.17,0.63,0.39,0.88,0.66c0.25,0.27,0.45,0.59,0.6,0.96c0.14,0.37,0.22,0.8,0.22,1.28    c0,0.58-0.11,1.11-0.34,1.58c-0.23,0.47-0.55,0.88-0.95,1.22c-0.41,0.34-0.9,0.6-1.48,0.78c-0.58,0.18-1.22,0.27-1.93,0.27    c-0.62,0-1.16-0.07-1.63-0.2s-0.88-0.31-1.24-0.53c-0.36-0.22-0.67-0.47-0.95-0.76c-0.27-0.28-0.51-0.58-0.71-0.88l1.57-1.23    c0.16,0.26,0.34,0.51,0.52,0.73c0.18,0.22,0.39,0.41,0.62,0.57c0.23,0.16,0.5,0.28,0.79,0.37c0.3,0.09,0.63,0.13,1.01,0.13    c0.81,0,1.42-0.19,1.85-0.58c0.43-0.38,0.64-0.92,0.64-1.6v-0.13c0-0.68-0.23-1.2-0.68-1.55c-0.45-0.35-1.1-0.53-1.93-0.53h-1.4    v-1.82H1195.51z">
        </path>
        <path class="st6"
          d="M1207.57,962.97c-0.82,0-1.53-0.15-2.14-0.46c-0.6-0.31-1.1-0.75-1.49-1.33c-0.39-0.58-0.68-1.29-0.87-2.14    c-0.19-0.84-0.28-1.81-0.28-2.89c0-1.07,0.09-2.03,0.28-2.88c0.19-0.85,0.48-1.57,0.87-2.15c0.39-0.58,0.89-1.02,1.49-1.33    c0.61-0.31,1.32-0.46,2.14-0.46c1.64,0,2.85,0.6,3.62,1.8c0.78,1.2,1.16,2.87,1.16,5.03c0,2.16-0.39,3.83-1.16,5.03    C1210.42,962.37,1209.21,962.97,1207.57,962.97L1207.57,962.97z M1207.57,961.15c0.45,0,0.84-0.09,1.16-0.27    c0.32-0.18,0.58-0.44,0.78-0.78c0.2-0.34,0.35-0.75,0.43-1.22c0.09-0.47,0.13-1,0.13-1.58v-2.31c0-0.58-0.04-1.11-0.13-1.58    c-0.09-0.47-0.23-0.88-0.43-1.22c-0.2-0.34-0.46-0.6-0.78-0.78c-0.32-0.18-0.71-0.27-1.16-0.27c-0.45,0-0.84,0.09-1.16,0.27    c-0.32,0.18-0.58,0.44-0.78,0.78c-0.2,0.34-0.35,0.75-0.43,1.22c-0.09,0.47-0.13,1-0.13,1.58v2.31c0,0.58,0.04,1.11,0.13,1.58    c0.09,0.47,0.23,0.88,0.43,1.22c0.2,0.34,0.46,0.6,0.78,0.78C1206.73,961.06,1207.12,961.15,1207.57,961.15z">
        </path>
        <path class="st6"
          d="M1218.95,962.97c-0.73,0-1.38-0.12-1.96-0.36c-0.57-0.24-1.06-0.58-1.46-1.03c-0.4-0.45-0.7-0.99-0.92-1.62    c-0.21-0.63-0.32-1.34-0.32-2.14c0-0.96,0.15-1.86,0.43-2.7c0.29-0.84,0.66-1.62,1.12-2.33c0.45-0.71,0.96-1.33,1.52-1.88    c0.56-0.55,1.11-1.01,1.65-1.37h2.84c-0.74,0.54-1.41,1.07-2,1.57c-0.59,0.5-1.11,1.02-1.55,1.55c-0.44,0.53-0.81,1.09-1.11,1.68    c-0.3,0.59-0.53,1.24-0.69,1.95l0.13,0.04c0.14-0.26,0.3-0.51,0.48-0.75c0.18-0.23,0.4-0.44,0.64-0.61    c0.25-0.18,0.53-0.31,0.84-0.42c0.32-0.1,0.68-0.15,1.1-0.15c0.55,0,1.07,0.09,1.54,0.28c0.47,0.19,0.88,0.46,1.23,0.82    c0.35,0.36,0.62,0.79,0.81,1.3c0.2,0.5,0.29,1.07,0.29,1.68c0,0.67-0.11,1.28-0.33,1.82c-0.22,0.55-0.53,1.02-0.94,1.41    c-0.4,0.39-0.89,0.7-1.47,0.92C1220.28,962.86,1219.65,962.97,1218.95,962.97L1218.95,962.97z M1218.95,961.23    c0.77,0,1.37-0.21,1.8-0.61c0.43-0.41,0.64-1.01,0.64-1.81v-0.26c0-0.79-0.21-1.4-0.64-1.81c-0.43-0.41-1.03-0.61-1.8-0.61    s-1.37,0.2-1.8,0.61c-0.43,0.41-0.64,1.01-0.64,1.81v0.26c0,0.79,0.21,1.4,0.64,1.81    C1217.59,961.02,1218.19,961.23,1218.95,961.23z">
        </path>
      </g>
      <path class="st2"
        d="M1382.94,985.37h112.94c14.89,0,27.06-12.18,27.06-27.06l0,0c0-14.88-12.18-27.06-27.06-27.06h-112.94   c-14.88,0-27.06,12.18-27.06,27.06l0,0C1355.88,973.19,1368.06,985.37,1382.94,985.37z">
      </path>
      <g>
        <path class="st6"
          d="M1390.56,952.84c-1.73,0-3.08-0.58-4.07-1.75c-0.98-1.17-1.47-2.86-1.47-5.08c0-1.11,0.13-2.09,0.38-2.93    c0.25-0.84,0.62-1.56,1.1-2.14c0.48-0.58,1.06-1.02,1.75-1.31c0.69-0.3,1.46-0.44,2.32-0.44c1.15,0,2.11,0.25,2.88,0.75    c0.78,0.5,1.38,1.24,1.82,2.22l-1.8,0.98c-0.23-0.63-0.58-1.13-1.05-1.5c-0.47-0.37-1.09-0.56-1.86-0.56    c-1.02,0-1.82,0.35-2.4,1.04c-0.58,0.7-0.87,1.66-0.87,2.89v2.01c0,1.23,0.29,2.19,0.87,2.89c0.58,0.7,1.38,1.04,2.4,1.04    c0.79,0,1.44-0.2,1.94-0.61c0.5-0.41,0.87-0.94,1.11-1.58l1.72,1.04c-0.44,0.96-1.06,1.7-1.85,2.24    C1392.68,952.58,1391.71,952.84,1390.56,952.84z">
        </path>
        <polygon class="st6"
          points="1397.6,952.62 1397.6,939.42 1399.73,939.42 1399.73,950.73 1405.1,950.73 1405.1,952.62   "></polygon>
        <path class="st6"
          d="M1415.88,952.62l-1.19-3.57h-4.93l-1.15,3.57h-2.17l4.5-13.2h2.68l4.5,13.2H1415.88L1415.88,952.62z     M1412.27,941.39h-0.09l-1.91,5.82h3.9L1412.27,941.39z">
        </path>
        <path class="st6"
          d="M1424.11,952.84c-1.11,0-2.05-0.2-2.83-0.6c-0.78-0.4-1.44-0.95-1.99-1.63l1.47-1.38    c0.47,0.57,0.98,1,1.54,1.29c0.56,0.29,1.2,0.43,1.92,0.43c0.84,0,1.48-0.19,1.91-0.57s0.64-0.89,0.64-1.53    c0-0.52-0.15-0.93-0.45-1.23c-0.3-0.3-0.84-0.53-1.61-0.68l-1.17-0.21c-1.29-0.24-2.25-0.66-2.89-1.27    c-0.64-0.61-0.96-1.44-0.96-2.5c0-0.58,0.11-1.11,0.33-1.58c0.22-0.47,0.53-0.87,0.93-1.19c0.4-0.32,0.88-0.57,1.45-0.75    c0.57-0.18,1.2-0.26,1.91-0.26c1,0,1.86,0.17,2.59,0.52c0.73,0.35,1.36,0.85,1.87,1.5l-1.49,1.32c-0.34-0.44-0.76-0.79-1.25-1.06    c-0.49-0.26-1.1-0.4-1.83-0.4c-0.76,0-1.34,0.15-1.76,0.45c-0.42,0.3-0.62,0.74-0.62,1.32c0,0.55,0.17,0.97,0.51,1.24    c0.34,0.27,0.87,0.48,1.59,0.61l1.17,0.25c1.32,0.25,2.29,0.68,2.9,1.29c0.61,0.61,0.92,1.44,0.92,2.5c0,0.62-0.11,1.18-0.32,1.68    c-0.21,0.5-0.53,0.94-0.94,1.3c-0.41,0.36-0.91,0.64-1.5,0.83C1425.54,952.75,1424.86,952.84,1424.11,952.84z">
        </path>
        <path class="st6"
          d="M1435.19,952.84c-1.11,0-2.05-0.2-2.83-0.6c-0.78-0.4-1.44-0.95-1.99-1.63l1.47-1.38    c0.47,0.57,0.98,1,1.54,1.29s1.2,0.43,1.92,0.43c0.84,0,1.48-0.19,1.91-0.57c0.43-0.38,0.64-0.89,0.64-1.53    c0-0.52-0.15-0.93-0.45-1.23c-0.3-0.3-0.84-0.53-1.61-0.68l-1.17-0.21c-1.29-0.24-2.25-0.66-2.89-1.27    c-0.64-0.61-0.96-1.44-0.96-2.5c0-0.58,0.11-1.11,0.33-1.58c0.22-0.47,0.53-0.87,0.93-1.19c0.4-0.32,0.88-0.57,1.45-0.75    c0.57-0.18,1.2-0.26,1.91-0.26c1,0,1.86,0.17,2.59,0.52c0.73,0.35,1.36,0.85,1.87,1.5l-1.49,1.32c-0.34-0.44-0.76-0.79-1.25-1.06    c-0.49-0.26-1.1-0.4-1.83-0.4c-0.76,0-1.34,0.15-1.76,0.45c-0.42,0.3-0.62,0.74-0.62,1.32c0,0.55,0.17,0.97,0.51,1.24    c0.34,0.27,0.87,0.48,1.59,0.61l1.17,0.25c1.32,0.25,2.29,0.68,2.9,1.29c0.61,0.61,0.92,1.44,0.92,2.5c0,0.62-0.11,1.18-0.32,1.68    c-0.21,0.5-0.53,0.94-0.94,1.3c-0.41,0.36-0.91,0.64-1.5,0.83C1436.62,952.75,1435.94,952.84,1435.19,952.84z">
        </path>
        <path class="st6"
          d="M1444.68,952.62h-2.14v-13.2h5.69c1.18,0,2.12,0.36,2.8,1.07c0.68,0.71,1.02,1.68,1.02,2.9    c0,0.95-0.22,1.73-0.65,2.35s-1.07,1.06-1.92,1.31l2.86,5.56h-2.38l-2.65-5.33h-2.63V952.62L1444.68,952.62z M1448.08,945.49    c0.54,0,0.96-0.14,1.27-0.42c0.3-0.28,0.45-0.69,0.45-1.22v-0.9c0-0.53-0.15-0.93-0.45-1.22c-0.3-0.28-0.72-0.42-1.27-0.42h-3.4    v4.18H1448.08z">
        </path>
        <path class="st6"
          d="M1459.84,952.84c-0.86,0-1.64-0.15-2.34-0.44s-1.3-0.73-1.8-1.3c-0.5-0.57-0.88-1.29-1.15-2.14    c-0.27-0.85-0.41-1.83-0.41-2.94s0.14-2.09,0.41-2.94c0.27-0.85,0.66-1.56,1.15-2.14c0.5-0.57,1.1-1.01,1.8-1.3    s1.48-0.44,2.34-0.44s1.64,0.15,2.34,0.44s1.3,0.73,1.8,1.3c0.5,0.57,0.88,1.29,1.15,2.14c0.27,0.85,0.41,1.83,0.41,2.94    s-0.14,2.09-0.41,2.94c-0.27,0.85-0.66,1.56-1.15,2.14c-0.5,0.57-1.1,1.01-1.8,1.3S1460.7,952.84,1459.84,952.84L1459.84,952.84z     M1459.84,950.95c0.5,0,0.97-0.09,1.39-0.26c0.42-0.18,0.78-0.43,1.08-0.77c0.3-0.34,0.53-0.74,0.69-1.23    c0.16-0.48,0.25-1.02,0.25-1.63v-2.09c0-0.61-0.08-1.15-0.25-1.63c-0.16-0.48-0.39-0.89-0.69-1.23c-0.3-0.33-0.66-0.59-1.08-0.77    c-0.42-0.18-0.89-0.26-1.39-0.26c-0.52,0-0.98,0.09-1.4,0.26c-0.42,0.18-0.77,0.43-1.07,0.77c-0.3,0.34-0.53,0.74-0.69,1.23    c-0.16,0.48-0.25,1.02-0.25,1.63v2.09c0,0.61,0.08,1.15,0.25,1.63c0.16,0.48,0.39,0.89,0.69,1.23c0.3,0.33,0.65,0.59,1.07,0.77    C1458.86,950.87,1459.33,950.95,1459.84,950.95z">
        </path>
        <path class="st6"
          d="M1473.3,952.84c-0.86,0-1.64-0.15-2.34-0.44s-1.3-0.73-1.8-1.3c-0.5-0.57-0.88-1.29-1.15-2.14    c-0.27-0.85-0.41-1.83-0.41-2.94s0.14-2.09,0.41-2.94c0.27-0.85,0.66-1.56,1.15-2.14c0.5-0.57,1.1-1.01,1.8-1.3    s1.48-0.44,2.34-0.44s1.64,0.15,2.34,0.44s1.3,0.73,1.8,1.3c0.5,0.57,0.88,1.29,1.15,2.14c0.27,0.85,0.41,1.83,0.41,2.94    s-0.14,2.09-0.41,2.94c-0.27,0.85-0.66,1.56-1.15,2.14c-0.5,0.57-1.1,1.01-1.8,1.3S1474.16,952.84,1473.3,952.84L1473.3,952.84z     M1473.3,950.95c0.5,0,0.97-0.09,1.39-0.26c0.42-0.18,0.78-0.43,1.08-0.77c0.3-0.34,0.53-0.74,0.69-1.23    c0.16-0.48,0.25-1.02,0.25-1.63v-2.09c0-0.61-0.08-1.15-0.25-1.63c-0.16-0.48-0.39-0.89-0.69-1.23c-0.3-0.33-0.66-0.59-1.08-0.77    c-0.42-0.18-0.89-0.26-1.39-0.26c-0.52,0-0.98,0.09-1.4,0.26c-0.42,0.18-0.77,0.43-1.07,0.77c-0.3,0.34-0.53,0.74-0.69,1.23    c-0.16,0.48-0.25,1.02-0.25,1.63v2.09c0,0.61,0.08,1.15,0.25,1.63c0.16,0.48,0.39,0.89,0.69,1.23c0.3,0.33,0.65,0.59,1.07,0.77    C1472.32,950.87,1472.79,950.95,1473.3,950.95z">
        </path>
        <polygon class="st6"
          points="1491.76,942.52 1491.66,942.52 1490.62,944.66 1487.73,949.93 1484.84,944.66 1483.8,942.52     1483.7,942.52 1483.7,952.62 1481.66,952.62 1481.66,939.42 1484.2,939.42 1487.73,946.13 1487.84,946.13 1491.38,939.42     1493.8,939.42 1493.8,952.62 1491.76,952.62   ">
        </polygon>
        <path class="st6"
          d="M1427.64,969.43c0.82,0,1.42-0.17,1.82-0.52c0.39-0.35,0.59-0.79,0.59-1.33v-0.13c0-0.61-0.19-1.07-0.57-1.39    c-0.38-0.32-0.89-0.48-1.53-0.48c-0.63,0-1.17,0.14-1.61,0.43c-0.44,0.28-0.81,0.68-1.12,1.18l-1.42-1.23    c0.2-0.29,0.43-0.57,0.68-0.83c0.25-0.26,0.55-0.49,0.89-0.69c0.34-0.2,0.72-0.35,1.15-0.47c0.43-0.12,0.92-0.18,1.47-0.18    c0.62,0,1.19,0.08,1.72,0.23c0.53,0.15,0.98,0.38,1.36,0.67c0.38,0.3,0.67,0.66,0.89,1.08c0.21,0.42,0.32,0.9,0.32,1.43    c0,0.42-0.07,0.79-0.2,1.13c-0.13,0.34-0.31,0.64-0.55,0.9c-0.23,0.26-0.5,0.47-0.81,0.63c-0.31,0.16-0.63,0.28-0.97,0.36v0.09    c0.38,0.08,0.73,0.2,1.07,0.37c0.33,0.17,0.63,0.39,0.88,0.66c0.25,0.27,0.45,0.59,0.6,0.96c0.14,0.37,0.22,0.8,0.22,1.28    c0,0.58-0.11,1.11-0.34,1.58c-0.23,0.47-0.55,0.88-0.95,1.22c-0.41,0.34-0.9,0.6-1.48,0.78c-0.58,0.18-1.22,0.27-1.93,0.27    c-0.62,0-1.16-0.07-1.63-0.2c-0.47-0.13-0.88-0.31-1.24-0.53c-0.36-0.22-0.67-0.47-0.95-0.76c-0.27-0.28-0.51-0.58-0.71-0.88    l1.57-1.23c0.16,0.26,0.34,0.51,0.52,0.73c0.18,0.22,0.39,0.41,0.62,0.57c0.23,0.16,0.5,0.28,0.79,0.37    c0.3,0.09,0.63,0.13,1.01,0.13c0.81,0,1.42-0.19,1.85-0.58c0.43-0.38,0.64-0.92,0.64-1.6v-0.13c0-0.68-0.23-1.2-0.68-1.55    c-0.45-0.35-1.1-0.53-1.93-0.53h-1.4v-1.82H1427.64z">
        </path>
        <path class="st6"
          d="M1439.71,977.42c-0.82,0-1.53-0.15-2.14-0.46c-0.6-0.31-1.1-0.75-1.49-1.33c-0.39-0.58-0.68-1.29-0.87-2.14    c-0.19-0.84-0.28-1.81-0.28-2.89c0-1.07,0.09-2.03,0.28-2.88c0.19-0.85,0.48-1.57,0.87-2.15c0.39-0.58,0.89-1.02,1.49-1.33    c0.61-0.31,1.32-0.46,2.14-0.46c1.64,0,2.85,0.6,3.62,1.8c0.78,1.2,1.16,2.87,1.16,5.03c0,2.16-0.39,3.83-1.16,5.03    C1442.55,976.83,1441.34,977.42,1439.71,977.42L1439.71,977.42z M1439.71,975.61c0.45,0,0.84-0.09,1.16-0.27    c0.32-0.18,0.58-0.44,0.78-0.78c0.2-0.34,0.35-0.75,0.43-1.22c0.09-0.47,0.13-1,0.13-1.58v-2.31c0-0.58-0.04-1.11-0.13-1.58    c-0.09-0.47-0.23-0.88-0.43-1.22c-0.2-0.34-0.46-0.6-0.78-0.78c-0.32-0.18-0.71-0.27-1.16-0.27c-0.45,0-0.84,0.09-1.16,0.27    c-0.32,0.18-0.58,0.44-0.78,0.78c-0.2,0.34-0.35,0.75-0.43,1.22c-0.09,0.47-0.13,1-0.13,1.58v2.31c0,0.58,0.04,1.11,0.13,1.58    c0.09,0.47,0.23,0.88,0.43,1.22c0.2,0.34,0.46,0.6,0.78,0.78C1438.86,975.52,1439.25,975.61,1439.71,975.61z">
        </path>
        <path class="st6"
          d="M1454.98,965.85h-5.86l-0.34,4.67h0.13c0.15-0.26,0.31-0.5,0.47-0.71c0.16-0.21,0.35-0.39,0.57-0.54    c0.21-0.15,0.46-0.27,0.74-0.35c0.28-0.08,0.61-0.12,0.98-0.12c0.57,0,1.09,0.09,1.58,0.28c0.49,0.19,0.91,0.46,1.27,0.81    c0.36,0.35,0.64,0.78,0.84,1.3c0.2,0.51,0.3,1.09,0.3,1.73c0,0.66-0.1,1.26-0.31,1.82c-0.21,0.55-0.51,1.03-0.92,1.43    c-0.4,0.4-0.9,0.71-1.48,0.93c-0.59,0.22-1.25,0.33-1.99,0.33c-0.59,0-1.12-0.07-1.57-0.2c-0.45-0.13-0.85-0.31-1.2-0.53    c-0.35-0.22-0.65-0.47-0.91-0.76c-0.26-0.28-0.49-0.58-0.69-0.88l1.55-1.23c0.16,0.26,0.33,0.5,0.51,0.72    c0.18,0.21,0.38,0.4,0.61,0.57c0.23,0.16,0.48,0.29,0.77,0.38c0.28,0.09,0.61,0.13,0.97,0.13c0.78,0,1.38-0.21,1.81-0.64    c0.42-0.43,0.63-1.02,0.63-1.78v-0.23c0-0.76-0.21-1.35-0.63-1.78c-0.42-0.43-1.02-0.64-1.81-0.64c-0.57,0-1.02,0.11-1.36,0.32    c-0.34,0.21-0.63,0.45-0.87,0.72l-1.76-0.25l0.49-7.35h7.49V965.85z">
        </path>
      </g>
    </g>

    <!---->

    <defs>
      <filter id="dropShadow843535">
        <feDropShadow dx="0" dy="0" stdDeviation="2" flood-opacity="0.2"></feDropShadow>
      </filter>
    </defs>

    

    <!---->
    

    <!---->
    <!---->
    <!---->
    <rect role="button" x="1337.2486572265625" y="814.3616943359375" width="209.5433349609375"
      height="276.2161865234375" opacity="0" class="cursor-pointer"></rect>



    <defs>
      <filter id="dropShadow809298">
        <feDropShadow dx="0" dy="0" stdDeviation="2" flood-opacity="0.2"></feDropShadow>
      </filter>
    </defs>

    

    <!---->
    

    <!---->
    <!---->
    <!---->
    <rect role="button" x="1099.1312255859375" y="790.5499267578125" width="214.3056640625" height="283.3597412109375"
      opacity="0" class="cursor-pointer"></rect>



    <defs>
      <filter id="dropShadow809299">
        <feDropShadow dx="0" dy="0" stdDeviation="2" flood-opacity="0.2"></feDropShadow>
      </filter>
    </defs>

    

    <!---->
    

    <!---->
    <!---->
    <!---->
    <rect role="button" x="856.2514038085938" y="773.8817138671875" width="228.59271240234375" height="292.884521484375"
      opacity="0" class="cursor-pointer"></rect>



    <defs>
      <filter id="dropShadow809300">
        <feDropShadow dx="0" dy="0" stdDeviation="2" flood-opacity="0.2"></feDropShadow>
      </filter>
    </defs>

    

    <!---->
    

    <!---->
    <!---->
    <!---->
    <rect role="button" x="606.2280883789062" y="754.8323364257812" width="221.44921875" height="295.26556396484375"
      opacity="0" class="cursor-pointer"></rect>



    <defs>
      <filter id="dropShadow809301">
        <feDropShadow dx="0" dy="0" stdDeviation="2" flood-opacity="0.2"></feDropShadow>
      </filter>
    </defs>

    

    <!---->
    

    <!---->
    <!---->
    <!---->
    <rect role="button" x="384.77886962890625" y="752.451171875" width="207.16217041015625" height="292.8843994140625"
      opacity="0" class="cursor-pointer"></rect>



    <defs>
      <filter id="dropShadow809302">
        <feDropShadow dx="0" dy="0" stdDeviation="2" flood-opacity="0.2"></feDropShadow>
      </filter>
    </defs>

    

    <!---->
    

    <!---->
    <!---->
    <!---->
    <rect role="button" x="153.804931640625" y="731.0205688476562" width="204.781005859375" height="304.79034423828125"
      opacity="0" class="cursor-pointer"></rect>



    <defs>
      <filter id="dropShadow809303">
        <feDropShadow dx="0" dy="0" stdDeviation="2" flood-opacity="0.2"></feDropShadow>
      </filter>
    </defs>

    

    <!---->
    

    <!---->
    <!---->
    <!---->
    <rect role="button" x="34.74620819091797" y="85.72228240966797" width="235.73627471923828"
      height="280.9785842895508" opacity="0" class="cursor-pointer"></rect>



    <defs>
      <filter id="dropShadow809304">
        <feDropShadow dx="0" dy="0" stdDeviation="2" flood-opacity="0.2"></feDropShadow>
      </filter>
    </defs>

    

    <!---->
    

    <!---->
    <!---->
    <!---->
    <rect role="button" x="282.38836669921875" y="88.10345458984375" width="219.06805419921875"
      height="276.21624755859375" opacity="0" class="cursor-pointer"></rect>


  </g>
</svg>