<svg class="map-mode-root-svg-map unselectable touch-action-none cursor-grab"
  viewBox="-490.18371323529414 0 2664.1474264705885 1190.55" xmlns="http://www.w3.org/2000/svg">

  <defs>
    <style type="text/css">
      .st0 {
        fill-rule: evenodd;
        clip-rule: evenodd;
        fill: #F0F5FB;
        stroke: #87A3B8;
        stroke-width: 9.6001;
        stroke-linecap: round;
        stroke-linejoin: round;
        stroke-miterlimit: 2.6131;
      }

      .st1 {
        fill-rule: evenodd;
        clip-rule: evenodd;
        fill: none;
        stroke: #87A3B8;
        stroke-width: 1.9199;
        stroke-linecap: round;
        stroke-linejoin: round;
        stroke-miterlimit: 2.6131;
        stroke-dasharray: 1.9199, 3.8398;
      }

      .st2 {
        fill-rule: evenodd;
        clip-rule: evenodd;
        fill: #D6E5EF;
      }

      .st3 {
        fill-rule: evenodd;
        clip-rule: evenodd;
        fill: #A9C2CC;
      }

      .st4 {
        fill-rule: evenodd;
        clip-rule: evenodd;
        fill: #F0F5FB;
      }

      .st5 {
        fill-rule: evenodd;
        clip-rule: evenodd;
        fill: #010005;
      }

      .st6 {
        fill-rule: evenodd;
        clip-rule: evenodd;
        fill: #87A3B8;
      }
    </style>
  </defs>

  <g transform="rotate(0)">

    <g>
      <path class="st0"
        d="M27.04,79.59h1533.56h45.06c10.03,0,19.6,4.2,26.39,11.58c6.79,7.38,10.18,17.27,9.35,27.26v60.6l15.27,4.09   v928.16l-1534.85-82.35l1.55-40.4l-96.33-3.11L51.9,637.39l138.28,9.32V460.26H27.04V79.59z">
      </path>
      <path class="st1"
        d="M27.04,367.04h26.41 M87.64,367.04H226.7 M260.88,367.04h17.09 M312.16,367.04H455.1 M489.29,367.04h11.65   V79.59 M379.65,751.27l-15.59,290.67 M608.24,764.49l-15.54,289.71 M840.55,777.94l-15.49,288.73v0 M1100.7,792.99l-15.43,287.64h0    M1333.75,806.47l-15.38,286.66h0 M1566.82,819.96l1.55-16.7l88.3,3.88 M123.38,988.54l20.2-250.93l18.65,1.08 M196.4,740.67   l141.52,8.19 M372.1,750.83l20.85,1.21 M427.14,754.02l138.14,7.99 M599.46,763.99l19.56,1.13 M653.21,767.1l137.51,7.96    M824.9,777.03l25.75,1.49 M884.84,780.5l169.24,9.79 M1088.26,792.27l32.83,1.9 M1155.28,796.15l134.98,7.81 M1324.44,805.93   l24.08,1.39 M1382.7,809.31l137.49,7.96 M1554.38,819.24l12.44,0.72l-15.33,285.69h0 M631.46,459.49v218.19l-0.03,0.64    M1641.4,179.03h-71.47 M1569.93,79.59v382.23h86.75 M1273.16,383.35V79.59 M1078.16,383.35V79.59 M949.2,79.59v303.76h4.66    M988.05,383.35h177.13 M1233.54,383.35h178.68 M1446.41,383.35h14.76V79.59 M702.15,381.02h83.13 M702.15,311.88v69.14h-62.93   v-69.14 M702.15,301h81.57 M783.73,215.54V331.3 M702.15,215.54h116.53 M601.55,311.88V79.59 M500.94,311.88h201.21V79.59    M272.54,367.04V79.59 M584.94,459.49h907.3v265.69l-907.3-49.38 M550.76,673.93l-285.99-15.57V459.49h285.99">
      </path>
      <path class="st2"
        d="M1502.96,197.6v8.39h-8.39v8.39h-8.39v8.39h-8.39v10.43c23.73,0,47.47,0,71.2,0V162h-10.43v8.39h-8.39v8.39   h-8.39v8.39h-8.39v10.43H1502.96L1502.96,197.6z M1478.81,213.48l-2.88-2.88l7.37-7.37h-3.88v-4.07h10.84V210h-4.07v-3.88   L1478.81,213.48z">
      </path>
      <path class="st2"
        d="M771.49,147.1v8.39h8.39v8.39h8.39v8.39h8.39v10.43c-23.73,0-47.47,0-71.2,0v-71.2h10.43v8.39h8.39v8.39h8.39   v8.39h8.39v10.43H771.49L771.49,147.1z M795.64,162.98l2.88-2.88l-7.37-7.37h3.88v-4.07H784.2v10.84h4.07v-3.88L795.64,162.98z">
      </path>
      <path class="st2"
        d="M76.56,833.09v8.39h-8.39v8.39h-8.39v8.39h-8.39v10.43c23.73,0,47.47,0,71.2,0v-71.2h-10.43v8.39h-8.39v8.39   h-8.39v8.39h-8.39v10.43H76.56L76.56,833.09z M52.41,848.97l-2.88-2.88l7.37-7.37h-3.88v-4.07h10.83v10.84h-4.07v-3.88   L52.41,848.97z">
      </path>
      <g>
        <path class="st3"
          d="M758.87,290.94h-35.65c-4.02,0-7.3-3.29-7.3-7.3v-50.99c0-4.02,3.29-7.3,7.3-7.3h35.65    c4.02,0,7.3,3.29,7.3,7.3v50.99C766.17,287.65,762.89,290.94,758.87,290.94z">
        </path>
        <path class="st4"
          d="M742.34,252.88h-2.67v-6.82l-1.8,1.8l-1.89-1.89l5.02-5.02l5.02,5.02l-1.89,1.89l-1.8-1.8V252.88    L742.34,252.88z M742.43,263.41h-2.67v6.82l-1.8-1.8l-1.89,1.89l5.02,5.02l5.02-5.02l-1.89-1.89l-1.8,1.8V263.41z">
        </path>
      </g>
      <path class="st2"
        d="M99.68,258.61h113.11c15.66,0,28.48-12.81,28.48-28.48l0,0c0-15.66-12.81-28.48-28.48-28.48H99.68   c-15.66,0-28.48,12.81-28.48,28.48l0,0C71.2,245.79,84.01,258.61,99.68,258.61z">
      </path>
      <g>
        <path class="st5"
          d="M106.23,224.65c-1.77,0-3.15-0.6-4.16-1.79c-1.01-1.19-1.51-2.93-1.51-5.2c0-1.14,0.13-2.14,0.39-3    c0.26-0.86,0.63-1.59,1.12-2.19c0.49-0.59,1.09-1.04,1.79-1.35c0.7-0.3,1.49-0.45,2.37-0.45c1.17,0,2.16,0.25,2.95,0.77    c0.79,0.51,1.42,1.27,1.87,2.27l-1.84,1.01c-0.23-0.65-0.59-1.16-1.07-1.54s-1.12-0.57-1.91-0.57c-1.05,0-1.86,0.35-2.46,1.07    c-0.59,0.71-0.89,1.7-0.89,2.95v2.06c0,1.26,0.3,2.24,0.89,2.95c0.59,0.71,1.41,1.07,2.46,1.07c0.81,0,1.47-0.21,1.98-0.63    c0.51-0.42,0.89-0.96,1.13-1.62l1.76,1.06c-0.45,0.98-1.08,1.74-1.9,2.29C108.4,224.38,107.41,224.65,106.23,224.65z">
        </path>
        <polygon class="st5"
          points="113.43,224.42 113.43,210.91 115.62,210.91 115.62,222.49 121.12,222.49 121.12,224.42   "></polygon>
        <path class="st5"
          d="M132.15,224.42l-1.22-3.66h-5.05l-1.18,3.66h-2.23l4.61-13.51h2.75l4.61,13.51H132.15L132.15,224.42z     M128.45,212.93h-0.1l-1.95,5.96h3.99L128.45,212.93z">
        </path>
        <path class="st5"
          d="M140.57,224.65c-1.14,0-2.1-0.21-2.89-0.62c-0.79-0.41-1.47-0.97-2.04-1.66l1.51-1.41    c0.48,0.58,1,1.02,1.58,1.32c0.57,0.3,1.23,0.45,1.96,0.45c0.86,0,1.52-0.19,1.95-0.58c0.44-0.39,0.66-0.91,0.66-1.57    c0-0.53-0.15-0.95-0.46-1.26c-0.31-0.31-0.86-0.54-1.64-0.7l-1.2-0.21c-1.32-0.25-2.3-0.68-2.96-1.3    c-0.66-0.62-0.99-1.47-0.99-2.55c0-0.59,0.11-1.13,0.34-1.62c0.23-0.48,0.54-0.89,0.95-1.22c0.41-0.33,0.9-0.58,1.48-0.76    c0.58-0.18,1.23-0.27,1.95-0.27c1.02,0,1.9,0.18,2.65,0.53c0.75,0.35,1.39,0.87,1.92,1.54l-1.53,1.35    c-0.35-0.45-0.77-0.81-1.28-1.08c-0.5-0.27-1.13-0.41-1.88-0.41c-0.77,0-1.37,0.15-1.8,0.46c-0.43,0.31-0.64,0.76-0.64,1.35    c0,0.57,0.17,0.99,0.52,1.27c0.35,0.28,0.89,0.49,1.63,0.63l1.2,0.25c1.35,0.26,2.35,0.7,2.97,1.32c0.63,0.62,0.94,1.47,0.94,2.55    c0,0.63-0.11,1.21-0.33,1.72c-0.22,0.52-0.54,0.96-0.96,1.33c-0.42,0.37-0.93,0.65-1.54,0.85    C142.03,224.55,141.34,224.65,140.57,224.65z">
        </path>
        <path class="st5"
          d="M151.91,224.65c-1.14,0-2.1-0.21-2.89-0.62c-0.79-0.41-1.47-0.97-2.04-1.66l1.51-1.41    c0.48,0.58,1,1.02,1.58,1.32c0.57,0.3,1.23,0.45,1.96,0.45c0.86,0,1.52-0.19,1.95-0.58c0.44-0.39,0.66-0.91,0.66-1.57    c0-0.53-0.15-0.95-0.46-1.26c-0.31-0.31-0.86-0.54-1.64-0.7l-1.2-0.21c-1.32-0.25-2.3-0.68-2.96-1.3    c-0.66-0.62-0.99-1.47-0.99-2.55c0-0.59,0.11-1.13,0.34-1.62c0.23-0.48,0.54-0.89,0.95-1.22c0.41-0.33,0.9-0.58,1.48-0.76    c0.58-0.18,1.23-0.27,1.95-0.27c1.02,0,1.9,0.18,2.65,0.53c0.75,0.35,1.39,0.87,1.92,1.54l-1.53,1.35    c-0.35-0.45-0.77-0.81-1.28-1.08c-0.5-0.27-1.13-0.41-1.88-0.41c-0.77,0-1.37,0.15-1.8,0.46c-0.43,0.31-0.64,0.76-0.64,1.35    c0,0.57,0.17,0.99,0.52,1.27c0.35,0.28,0.89,0.49,1.63,0.63l1.2,0.25c1.35,0.26,2.35,0.7,2.97,1.32c0.63,0.62,0.94,1.47,0.94,2.55    c0,0.63-0.11,1.21-0.33,1.72c-0.22,0.52-0.54,0.96-0.96,1.33c-0.42,0.37-0.93,0.65-1.54,0.85    C153.37,224.55,152.68,224.65,151.91,224.65z">
        </path>
        <path class="st5"
          d="M161.62,224.42h-2.19v-13.51h5.83c1.21,0,2.17,0.36,2.86,1.09c0.7,0.73,1.05,1.72,1.05,2.97    c0,0.97-0.22,1.77-0.67,2.41c-0.45,0.64-1.1,1.09-1.96,1.35l2.92,5.69h-2.44l-2.71-5.46h-2.69V224.42L161.62,224.42z     M165.11,217.13c0.55,0,0.99-0.15,1.3-0.43c0.31-0.29,0.46-0.7,0.46-1.25v-0.92c0-0.54-0.15-0.96-0.46-1.25    c-0.31-0.29-0.74-0.43-1.3-0.43h-3.48v4.28H165.11z">
        </path>
        <path class="st5"
          d="M177.15,224.65c-0.88,0-1.67-0.15-2.39-0.45c-0.72-0.3-1.33-0.75-1.84-1.34c-0.51-0.59-0.9-1.32-1.18-2.19    c-0.28-0.87-0.42-1.87-0.42-3.01c0-1.14,0.14-2.14,0.42-3.01c0.28-0.87,0.67-1.6,1.18-2.19c0.51-0.59,1.12-1.03,1.84-1.34    c0.72-0.3,1.51-0.45,2.39-0.45c0.88,0,1.67,0.15,2.39,0.45c0.72,0.3,1.33,0.75,1.84,1.34c0.51,0.59,0.9,1.32,1.18,2.19    c0.28,0.87,0.42,1.87,0.42,3.01c0,1.14-0.14,2.14-0.42,3.01c-0.28,0.87-0.67,1.6-1.18,2.19c-0.51,0.59-1.12,1.03-1.84,1.34    C178.82,224.5,178.02,224.65,177.15,224.65L177.15,224.65z M177.15,222.72c0.52,0,0.99-0.09,1.42-0.27    c0.43-0.18,0.8-0.45,1.1-0.79c0.3-0.35,0.54-0.76,0.71-1.25c0.17-0.49,0.25-1.05,0.25-1.67v-2.14c0-0.62-0.08-1.18-0.25-1.67    c-0.17-0.49-0.4-0.91-0.71-1.25c-0.3-0.34-0.67-0.6-1.1-0.79c-0.43-0.18-0.91-0.27-1.42-0.27c-0.53,0-1.01,0.09-1.43,0.27    c-0.43,0.18-0.79,0.44-1.09,0.79c-0.3,0.35-0.54,0.76-0.71,1.25c-0.17,0.49-0.25,1.05-0.25,1.67v2.14c0,0.62,0.08,1.18,0.25,1.67    c0.17,0.49,0.4,0.91,0.71,1.25c0.3,0.34,0.67,0.6,1.09,0.79C176.14,222.63,176.62,222.72,177.15,222.72z">
        </path>
        <path class="st5"
          d="M190.93,224.65c-0.88,0-1.67-0.15-2.39-0.45c-0.72-0.3-1.33-0.75-1.84-1.34c-0.51-0.59-0.9-1.32-1.18-2.19    c-0.28-0.87-0.42-1.87-0.42-3.01c0-1.14,0.14-2.14,0.42-3.01c0.28-0.87,0.67-1.6,1.18-2.19c0.51-0.59,1.12-1.03,1.84-1.34    c0.72-0.3,1.51-0.45,2.39-0.45c0.88,0,1.67,0.15,2.39,0.45c0.72,0.3,1.33,0.75,1.84,1.34c0.51,0.59,0.9,1.32,1.18,2.19    c0.28,0.87,0.42,1.87,0.42,3.01c0,1.14-0.14,2.14-0.42,3.01c-0.28,0.87-0.67,1.6-1.18,2.19c-0.51,0.59-1.12,1.03-1.84,1.34    C192.6,224.5,191.8,224.65,190.93,224.65L190.93,224.65z M190.93,222.72c0.52,0,0.99-0.09,1.42-0.27c0.43-0.18,0.8-0.45,1.1-0.79    c0.3-0.35,0.54-0.76,0.71-1.25c0.17-0.49,0.25-1.05,0.25-1.67v-2.14c0-0.62-0.08-1.18-0.25-1.67c-0.17-0.49-0.4-0.91-0.71-1.25    c-0.3-0.34-0.67-0.6-1.1-0.79c-0.43-0.18-0.91-0.27-1.42-0.27c-0.53,0-1.01,0.09-1.43,0.27c-0.43,0.18-0.79,0.44-1.09,0.79    c-0.3,0.35-0.54,0.76-0.71,1.25c-0.17,0.49-0.25,1.05-0.25,1.67v2.14c0,0.62,0.08,1.18,0.25,1.67c0.17,0.49,0.4,0.91,0.71,1.25    c0.3,0.34,0.67,0.6,1.09,0.79C189.92,222.63,190.4,222.72,190.93,222.72z">
        </path>
        <polygon class="st5"
          points="209.82,214.09 209.72,214.09 208.65,216.27 205.69,221.67 202.73,216.27 201.67,214.09     201.57,214.09 201.57,224.42 199.48,224.42 199.48,210.91 202.07,210.91 205.69,217.78 205.81,217.78 209.43,210.91     211.91,210.91 211.91,224.42 209.82,224.42   ">
        </polygon>
        <path class="st5"
          d="M146.06,249.58v-2.63h-6.27v-1.88l5.48-9h2.86v9.15h1.84v1.72h-1.84v2.63H146.06L146.06,249.58z     M141.65,245.23h4.41v-7.16h-0.14L141.65,245.23z">
        </path>
        <polygon class="st5"
          points="152.43,249.58 152.43,247.76 156.22,247.76 156.22,237.66 156.07,237.66 152.93,241.01 151.6,239.81     155.04,236.07 158.37,236.07 158.37,247.76 161.66,247.76 161.66,249.58   ">
        </polygon>
        <polygon class="st5"
          points="164.04,249.58 164.04,247.76 167.84,247.76 167.84,237.66 167.68,237.66 164.55,241.01     163.21,239.81 166.66,236.07 169.98,236.07 169.98,247.76 173.27,247.76 173.27,249.58   ">
        </polygon>
      </g>
      <path class="st2"
        d="M331.96,258.61h113.11c15.66,0,28.48-12.81,28.48-28.48l0,0c0-15.66-12.81-28.48-28.48-28.48H331.96   c-15.66,0-28.48,12.81-28.48,28.48l0,0C303.49,245.79,316.3,258.61,331.96,258.61z">
      </path>
      <g>
        <path class="st5"
          d="M338.52,224.65c-1.77,0-3.15-0.6-4.16-1.79c-1.01-1.19-1.51-2.93-1.51-5.2c0-1.14,0.13-2.14,0.39-3    c0.26-0.86,0.63-1.59,1.12-2.19c0.49-0.59,1.09-1.04,1.79-1.35c0.7-0.3,1.49-0.45,2.37-0.45c1.17,0,2.16,0.25,2.95,0.77    c0.79,0.51,1.42,1.27,1.87,2.27l-1.84,1.01c-0.23-0.65-0.59-1.16-1.07-1.54c-0.48-0.38-1.12-0.57-1.91-0.57    c-1.05,0-1.86,0.35-2.46,1.07c-0.59,0.71-0.89,1.7-0.89,2.95v2.06c0,1.26,0.3,2.24,0.89,2.95c0.59,0.71,1.41,1.07,2.46,1.07    c0.81,0,1.47-0.21,1.98-0.63c0.51-0.42,0.89-0.96,1.13-1.62l1.76,1.06c-0.45,0.98-1.08,1.74-1.9,2.29    C340.69,224.38,339.69,224.65,338.52,224.65z">
        </path>
        <polygon class="st5"
          points="345.72,224.42 345.72,210.91 347.91,210.91 347.91,222.49 353.4,222.49 353.4,224.42   "></polygon>
        <path class="st5"
          d="M364.43,224.42l-1.22-3.66h-5.05l-1.18,3.66h-2.23l4.61-13.51h2.75l4.61,13.51H364.43L364.43,224.42z     M360.74,212.93h-0.1l-1.95,5.96h3.99L360.74,212.93z">
        </path>
        <path class="st5"
          d="M372.85,224.65c-1.14,0-2.1-0.21-2.89-0.62c-0.79-0.41-1.47-0.97-2.04-1.66l1.51-1.41    c0.48,0.58,1,1.02,1.58,1.32c0.57,0.3,1.23,0.45,1.96,0.45c0.86,0,1.52-0.19,1.95-0.58c0.44-0.39,0.66-0.91,0.66-1.57    c0-0.53-0.15-0.95-0.46-1.26c-0.31-0.31-0.86-0.54-1.64-0.7l-1.2-0.21c-1.32-0.25-2.3-0.68-2.96-1.3s-0.99-1.47-0.99-2.55    c0-0.59,0.11-1.13,0.34-1.62c0.23-0.48,0.54-0.89,0.95-1.22c0.41-0.33,0.9-0.58,1.48-0.76c0.58-0.18,1.23-0.27,1.95-0.27    c1.02,0,1.9,0.18,2.65,0.53c0.75,0.35,1.39,0.87,1.92,1.54l-1.53,1.35c-0.35-0.45-0.77-0.81-1.28-1.08    c-0.5-0.27-1.13-0.41-1.88-0.41c-0.77,0-1.37,0.15-1.8,0.46c-0.43,0.31-0.64,0.76-0.64,1.35c0,0.57,0.17,0.99,0.52,1.27    c0.35,0.28,0.89,0.49,1.63,0.63l1.2,0.25c1.35,0.26,2.35,0.7,2.97,1.32c0.63,0.62,0.94,1.47,0.94,2.55c0,0.63-0.11,1.21-0.33,1.72    c-0.22,0.52-0.54,0.96-0.96,1.33c-0.42,0.37-0.93,0.65-1.54,0.85C374.32,224.55,373.63,224.65,372.85,224.65z">
        </path>
        <path class="st5"
          d="M384.2,224.65c-1.14,0-2.1-0.21-2.89-0.62c-0.79-0.41-1.47-0.97-2.04-1.66l1.51-1.41    c0.48,0.58,1,1.02,1.58,1.32c0.57,0.3,1.23,0.45,1.96,0.45c0.86,0,1.52-0.19,1.95-0.58c0.44-0.39,0.66-0.91,0.66-1.57    c0-0.53-0.15-0.95-0.46-1.26c-0.31-0.31-0.86-0.54-1.64-0.7l-1.2-0.21c-1.32-0.25-2.3-0.68-2.96-1.3s-0.99-1.47-0.99-2.55    c0-0.59,0.11-1.13,0.34-1.62c0.23-0.48,0.54-0.89,0.95-1.22c0.41-0.33,0.9-0.58,1.48-0.76c0.58-0.18,1.23-0.27,1.95-0.27    c1.02,0,1.9,0.18,2.65,0.53c0.75,0.35,1.39,0.87,1.92,1.54l-1.53,1.35c-0.35-0.45-0.77-0.81-1.28-1.08    c-0.5-0.27-1.13-0.41-1.88-0.41c-0.77,0-1.37,0.15-1.8,0.46c-0.43,0.31-0.64,0.76-0.64,1.35c0,0.57,0.17,0.99,0.52,1.27    c0.35,0.28,0.89,0.49,1.63,0.63l1.2,0.25c1.35,0.26,2.35,0.7,2.97,1.32c0.63,0.62,0.94,1.47,0.94,2.55c0,0.63-0.11,1.21-0.33,1.72    c-0.22,0.52-0.54,0.96-0.96,1.33c-0.42,0.37-0.93,0.65-1.54,0.85C385.66,224.55,384.97,224.65,384.2,224.65z">
        </path>
        <path class="st5"
          d="M393.91,224.42h-2.19v-13.51h5.83c1.21,0,2.17,0.36,2.86,1.09c0.7,0.73,1.05,1.72,1.05,2.97    c0,0.97-0.22,1.77-0.67,2.41c-0.45,0.64-1.1,1.09-1.96,1.35l2.92,5.69h-2.44l-2.71-5.46h-2.69V224.42L393.91,224.42z     M397.39,217.13c0.55,0,0.99-0.15,1.3-0.43c0.31-0.29,0.46-0.7,0.46-1.25v-0.92c0-0.54-0.15-0.96-0.46-1.25    c-0.31-0.29-0.74-0.43-1.3-0.43h-3.48v4.28H397.39z">
        </path>
        <path class="st5"
          d="M409.43,224.65c-0.88,0-1.67-0.15-2.39-0.45c-0.72-0.3-1.33-0.75-1.84-1.34c-0.51-0.59-0.9-1.32-1.18-2.19    c-0.28-0.87-0.42-1.87-0.42-3.01c0-1.14,0.14-2.14,0.42-3.01c0.28-0.87,0.67-1.6,1.18-2.19c0.51-0.59,1.12-1.03,1.84-1.34    c0.72-0.3,1.51-0.45,2.39-0.45c0.88,0,1.67,0.15,2.39,0.45c0.72,0.3,1.33,0.75,1.84,1.34c0.51,0.59,0.9,1.32,1.18,2.19    c0.28,0.87,0.42,1.87,0.42,3.01c0,1.14-0.14,2.14-0.42,3.01c-0.28,0.87-0.67,1.6-1.18,2.19c-0.51,0.59-1.12,1.03-1.84,1.34    C411.11,224.5,410.31,224.65,409.43,224.65L409.43,224.65z M409.43,222.72c0.52,0,0.99-0.09,1.42-0.27    c0.43-0.18,0.8-0.45,1.1-0.79c0.3-0.35,0.54-0.76,0.71-1.25c0.17-0.49,0.25-1.05,0.25-1.67v-2.14c0-0.62-0.08-1.18-0.25-1.67    c-0.17-0.49-0.4-0.91-0.71-1.25c-0.3-0.34-0.67-0.6-1.1-0.79c-0.43-0.18-0.91-0.27-1.42-0.27c-0.53,0-1.01,0.09-1.43,0.27    c-0.43,0.18-0.79,0.44-1.09,0.79c-0.3,0.35-0.54,0.76-0.71,1.25c-0.17,0.49-0.25,1.05-0.25,1.67v2.14c0,0.62,0.08,1.18,0.25,1.67    c0.17,0.49,0.4,0.91,0.71,1.25c0.3,0.34,0.67,0.6,1.09,0.79C408.43,222.63,408.9,222.72,409.43,222.72z">
        </path>
        <path class="st5"
          d="M423.21,224.65c-0.88,0-1.67-0.15-2.39-0.45c-0.72-0.3-1.33-0.75-1.84-1.34c-0.51-0.59-0.9-1.32-1.18-2.19    c-0.28-0.87-0.42-1.87-0.42-3.01c0-1.14,0.14-2.14,0.42-3.01c0.28-0.87,0.67-1.6,1.18-2.19c0.51-0.59,1.12-1.03,1.84-1.34    c0.72-0.3,1.51-0.45,2.39-0.45c0.88,0,1.67,0.15,2.39,0.45c0.72,0.3,1.33,0.75,1.84,1.34c0.51,0.59,0.9,1.32,1.18,2.19    c0.28,0.87,0.42,1.87,0.42,3.01c0,1.14-0.14,2.14-0.42,3.01c-0.28,0.87-0.67,1.6-1.18,2.19c-0.51,0.59-1.12,1.03-1.84,1.34    C424.89,224.5,424.09,224.65,423.21,224.65L423.21,224.65z M423.21,222.72c0.52,0,0.99-0.09,1.42-0.27    c0.43-0.18,0.8-0.45,1.1-0.79c0.3-0.35,0.54-0.76,0.71-1.25c0.17-0.49,0.25-1.05,0.25-1.67v-2.14c0-0.62-0.08-1.18-0.25-1.67    c-0.17-0.49-0.4-0.91-0.71-1.25c-0.3-0.34-0.67-0.6-1.1-0.79c-0.43-0.18-0.91-0.27-1.42-0.27c-0.53,0-1.01,0.09-1.43,0.27    c-0.43,0.18-0.79,0.44-1.09,0.79c-0.3,0.35-0.54,0.76-0.71,1.25c-0.17,0.49-0.25,1.05-0.25,1.67v2.14c0,0.62,0.08,1.18,0.25,1.67    c0.17,0.49,0.4,0.91,0.71,1.25c0.3,0.34,0.67,0.6,1.09,0.79C422.21,222.63,422.68,222.72,423.21,222.72z">
        </path>
        <polygon class="st5"
          points="442.1,214.09 442.01,214.09 440.94,216.27 437.98,221.67 435.02,216.27 433.95,214.09 433.86,214.09     433.86,224.42 431.77,224.42 431.77,210.91 434.36,210.91 437.98,217.78 438.1,217.78 441.72,210.91 444.19,210.91 444.19,224.42     442.1,224.42   ">
        </polygon>
        <path class="st5"
          d="M378.35,249.58v-2.63h-6.27v-1.88l5.48-9h2.86v9.15h1.84v1.72h-1.84v2.63H378.35L378.35,249.58z     M373.94,245.23h4.41v-7.16h-0.14L373.94,245.23z">
        </path>
        <polygon class="st5"
          points="384.72,249.58 384.72,247.76 388.51,247.76 388.51,237.66 388.36,237.66 385.22,241.01     383.89,239.81 387.33,236.07 390.66,236.07 390.66,247.76 393.95,247.76 393.95,249.58   ">
        </polygon>
        <path class="st5"
          d="M405.1,249.58h-9.17v-2.09l4.32-3.85c0.68-0.62,1.21-1.21,1.58-1.77c0.37-0.56,0.55-1.15,0.55-1.77v-0.25    c0-0.66-0.2-1.17-0.59-1.55c-0.39-0.37-0.93-0.56-1.6-0.56c-0.37,0-0.7,0.06-0.98,0.16c-0.28,0.11-0.52,0.26-0.73,0.45    c-0.21,0.19-0.38,0.42-0.51,0.68c-0.14,0.26-0.24,0.54-0.32,0.83l-1.92-0.74c0.14-0.43,0.34-0.84,0.58-1.23    c0.25-0.39,0.55-0.75,0.93-1.05c0.37-0.31,0.82-0.56,1.33-0.74c0.51-0.18,1.11-0.27,1.79-0.27c0.68,0,1.3,0.1,1.84,0.3    c0.54,0.2,1,0.48,1.36,0.83c0.37,0.35,0.65,0.78,0.84,1.27c0.19,0.49,0.29,1.03,0.29,1.61c0,0.54-0.08,1.05-0.25,1.51    c-0.17,0.46-0.4,0.9-0.7,1.32c-0.3,0.41-0.64,0.81-1.04,1.18c-0.39,0.37-0.81,0.75-1.25,1.14l-3.17,2.73h6.81V249.58z">
        </path>
      </g>
      <path class="st6"
        d="M553.84,180.62c9.69,0,17.55,7.86,17.55,17.55s-7.86,17.55-17.55,17.55s-17.55-7.86-17.55-17.55   S544.15,180.62,553.84,180.62L553.84,180.62z M557.57,194.12h-7.46c-1.65,0-2.73,2.24-1.99,4.15l4.21,10.86   c0.57,1.47,2.45,1.47,3.02,0l4.21-10.86C560.3,196.36,559.22,194.12,557.57,194.12L557.57,194.12z M553.84,192.72   c1.83,0,3.31-1.48,3.31-3.31c0-1.83-1.48-3.31-3.31-3.31c-1.83,0-3.31,1.48-3.31,3.31C550.53,191.24,552.01,192.72,553.84,192.72z">
      </path>
      <path class="st6"
        d="M650.04,180.62c9.69,0,17.55,7.86,17.55,17.55c0,9.69-7.86,17.55-17.55,17.55c-9.69,0-17.55-7.86-17.55-17.55   C632.49,188.47,640.34,180.62,650.04,180.62L650.04,180.62z M650.04,192.91c1.77,0,3.2-1.43,3.2-3.2c0-1.77-1.43-3.2-3.2-3.2   c-1.76,0-3.2,1.43-3.2,3.2C646.84,191.48,648.27,192.91,650.04,192.91L650.04,192.91z M645.52,209.81h9.03   c1.59,0,2.63-1.98,1.92-3.66l-4.77-11.07c-0.22-0.63-0.81-1.05-1.47-1.05h-0.33c-0.66,0-1.24,0.42-1.46,1.04l-4.84,11.08   C642.89,207.83,643.92,209.81,645.52,209.81z">
      </path>
      <path class="st2"
        d="M1123.96,263.25h113.11c15.66,0,28.48-12.81,28.48-28.48l0,0c0-15.66-12.81-28.48-28.48-28.48h-113.11   c-15.66,0-28.48,12.81-28.48,28.48l0,0C1095.48,250.44,1108.3,263.25,1123.96,263.25z">
      </path>
      <g>
        <path class="st5"
          d="M1130.51,229.3c-1.77,0-3.15-0.6-4.16-1.79c-1.01-1.19-1.51-2.93-1.51-5.2c0-1.14,0.13-2.14,0.39-3    c0.26-0.86,0.63-1.59,1.12-2.19c0.49-0.59,1.09-1.04,1.79-1.35c0.7-0.3,1.49-0.45,2.37-0.45c1.17,0,2.16,0.25,2.95,0.77    c0.79,0.51,1.42,1.27,1.87,2.27l-1.84,1.01c-0.23-0.65-0.59-1.16-1.07-1.54c-0.48-0.38-1.12-0.57-1.91-0.57    c-1.05,0-1.86,0.35-2.46,1.07c-0.59,0.71-0.89,1.7-0.89,2.95v2.06c0,1.26,0.3,2.24,0.89,2.95c0.59,0.71,1.41,1.07,2.46,1.07    c0.81,0,1.47-0.21,1.98-0.63c0.51-0.42,0.89-0.96,1.13-1.62l1.76,1.06c-0.45,0.98-1.08,1.74-1.9,2.29    C1132.68,229.02,1131.69,229.3,1130.51,229.3z">
        </path>
        <polygon class="st5"
          points="1137.71,229.06 1137.71,215.56 1139.9,215.56 1139.9,227.13 1145.4,227.13 1145.4,229.06   "></polygon>
        <path class="st5"
          d="M1156.43,229.06l-1.22-3.66h-5.05l-1.18,3.66h-2.23l4.61-13.51h2.75l4.61,13.51H1156.43L1156.43,229.06z     M1152.73,217.57h-0.1l-1.95,5.96h3.99L1152.73,217.57z">
        </path>
        <path class="st5"
          d="M1164.85,229.3c-1.14,0-2.1-0.21-2.89-0.62c-0.79-0.41-1.47-0.97-2.04-1.66l1.51-1.41    c0.48,0.58,1,1.02,1.58,1.32c0.57,0.3,1.23,0.45,1.96,0.45c0.86,0,1.52-0.19,1.95-0.58c0.44-0.39,0.66-0.91,0.66-1.57    c0-0.53-0.15-0.95-0.46-1.26c-0.31-0.31-0.86-0.54-1.65-0.7l-1.2-0.21c-1.32-0.25-2.3-0.68-2.96-1.3    c-0.66-0.62-0.99-1.47-0.99-2.55c0-0.59,0.11-1.13,0.34-1.62c0.23-0.48,0.54-0.89,0.95-1.22c0.41-0.33,0.9-0.58,1.48-0.76    c0.58-0.18,1.23-0.27,1.95-0.27c1.02,0,1.9,0.18,2.65,0.53c0.75,0.35,1.39,0.87,1.92,1.54l-1.53,1.35    c-0.35-0.45-0.77-0.81-1.28-1.08c-0.5-0.27-1.13-0.41-1.88-0.41c-0.77,0-1.37,0.15-1.8,0.46c-0.43,0.31-0.64,0.76-0.64,1.35    c0,0.57,0.17,0.99,0.52,1.27c0.35,0.28,0.89,0.49,1.63,0.63l1.2,0.25c1.35,0.26,2.35,0.7,2.97,1.32c0.63,0.62,0.94,1.47,0.94,2.55    c0,0.63-0.11,1.21-0.33,1.72c-0.22,0.52-0.54,0.96-0.96,1.33c-0.42,0.37-0.93,0.65-1.54,0.85    C1166.31,229.2,1165.62,229.3,1164.85,229.3z">
        </path>
        <path class="st5"
          d="M1176.19,229.3c-1.14,0-2.1-0.21-2.89-0.62c-0.79-0.41-1.47-0.97-2.04-1.66l1.51-1.41    c0.48,0.58,1,1.02,1.58,1.32c0.57,0.3,1.23,0.45,1.96,0.45c0.86,0,1.52-0.19,1.95-0.58c0.44-0.39,0.66-0.91,0.66-1.57    c0-0.53-0.15-0.95-0.46-1.26c-0.31-0.31-0.86-0.54-1.64-0.7l-1.2-0.21c-1.32-0.25-2.3-0.68-2.96-1.3    c-0.66-0.62-0.99-1.47-0.99-2.55c0-0.59,0.11-1.13,0.34-1.62c0.23-0.48,0.54-0.89,0.95-1.22c0.41-0.33,0.9-0.58,1.48-0.76    c0.58-0.18,1.23-0.27,1.95-0.27c1.02,0,1.9,0.18,2.65,0.53c0.75,0.35,1.39,0.87,1.92,1.54l-1.53,1.35    c-0.35-0.45-0.77-0.81-1.28-1.08c-0.5-0.27-1.13-0.41-1.88-0.41c-0.77,0-1.37,0.15-1.8,0.46c-0.43,0.31-0.64,0.76-0.64,1.35    c0,0.57,0.17,0.99,0.52,1.27c0.35,0.28,0.89,0.49,1.63,0.63l1.2,0.25c1.35,0.26,2.35,0.7,2.97,1.32c0.63,0.62,0.94,1.47,0.94,2.55    c0,0.63-0.11,1.21-0.33,1.72c-0.22,0.52-0.54,0.96-0.96,1.33c-0.42,0.37-0.93,0.65-1.54,0.85    C1177.66,229.2,1176.96,229.3,1176.19,229.3z">
        </path>
        <path class="st5"
          d="M1185.91,229.06h-2.19v-13.51h5.83c1.21,0,2.17,0.36,2.86,1.09c0.7,0.73,1.05,1.72,1.05,2.97    c0,0.97-0.22,1.77-0.67,2.41c-0.45,0.64-1.1,1.09-1.96,1.35l2.92,5.69h-2.44l-2.71-5.46h-2.69V229.06L1185.91,229.06z     M1189.39,221.77c0.55,0,0.99-0.15,1.3-0.43c0.31-0.29,0.46-0.7,0.46-1.25v-0.92c0-0.54-0.15-0.96-0.46-1.25    c-0.31-0.29-0.74-0.43-1.3-0.43h-3.48v4.28H1189.39z">
        </path>
        <path class="st5"
          d="M1201.43,229.3c-0.88,0-1.67-0.15-2.39-0.45c-0.72-0.3-1.33-0.75-1.84-1.34c-0.51-0.59-0.9-1.32-1.18-2.19    c-0.28-0.87-0.42-1.87-0.42-3.01c0-1.14,0.14-2.14,0.42-3.01c0.28-0.87,0.67-1.6,1.18-2.19c0.51-0.59,1.12-1.03,1.84-1.34    c0.72-0.3,1.51-0.45,2.39-0.45c0.88,0,1.67,0.15,2.39,0.45s1.33,0.75,1.84,1.34c0.51,0.59,0.9,1.32,1.18,2.19    c0.28,0.87,0.42,1.87,0.42,3.01c0,1.14-0.14,2.14-0.42,3.01c-0.28,0.87-0.67,1.6-1.18,2.19c-0.51,0.59-1.12,1.03-1.84,1.34    C1203.1,229.15,1202.31,229.3,1201.43,229.3L1201.43,229.3z M1201.43,227.36c0.52,0,0.99-0.09,1.42-0.27    c0.43-0.18,0.8-0.45,1.1-0.79c0.3-0.35,0.54-0.76,0.71-1.25c0.17-0.49,0.25-1.05,0.25-1.67v-2.14c0-0.62-0.08-1.18-0.25-1.67    c-0.17-0.49-0.4-0.91-0.71-1.25c-0.3-0.34-0.67-0.6-1.1-0.79c-0.43-0.18-0.91-0.27-1.42-0.27c-0.53,0-1.01,0.09-1.43,0.27    c-0.43,0.18-0.79,0.44-1.09,0.79c-0.3,0.35-0.54,0.76-0.71,1.25c-0.17,0.49-0.25,1.05-0.25,1.67v2.14c0,0.62,0.08,1.18,0.25,1.67    c0.17,0.49,0.4,0.91,0.71,1.25c0.3,0.34,0.67,0.6,1.09,0.79C1200.42,227.27,1200.9,227.36,1201.43,227.36z">
        </path>
        <path class="st5"
          d="M1215.21,229.3c-0.88,0-1.67-0.15-2.39-0.45c-0.72-0.3-1.33-0.75-1.84-1.34c-0.51-0.59-0.9-1.32-1.18-2.19    c-0.28-0.87-0.42-1.87-0.42-3.01c0-1.14,0.14-2.14,0.42-3.01c0.28-0.87,0.67-1.6,1.18-2.19c0.51-0.59,1.12-1.03,1.84-1.34    c0.72-0.3,1.51-0.45,2.39-0.45c0.88,0,1.67,0.15,2.39,0.45c0.72,0.3,1.33,0.75,1.84,1.34c0.51,0.59,0.9,1.32,1.18,2.19    c0.28,0.87,0.42,1.87,0.42,3.01c0,1.14-0.14,2.14-0.42,3.01c-0.28,0.87-0.67,1.6-1.18,2.19c-0.51,0.59-1.12,1.03-1.84,1.34    C1216.88,229.15,1216.09,229.3,1215.21,229.3L1215.21,229.3z M1215.21,227.36c0.52,0,0.99-0.09,1.42-0.27    c0.43-0.18,0.8-0.45,1.1-0.79c0.3-0.35,0.54-0.76,0.71-1.25c0.17-0.49,0.25-1.05,0.25-1.67v-2.14c0-0.62-0.08-1.18-0.25-1.67    c-0.17-0.49-0.4-0.91-0.71-1.25c-0.3-0.34-0.67-0.6-1.1-0.79c-0.43-0.18-0.91-0.27-1.42-0.27c-0.53,0-1.01,0.09-1.43,0.27    c-0.43,0.18-0.79,0.44-1.09,0.79c-0.3,0.35-0.54,0.76-0.71,1.25c-0.17,0.49-0.25,1.05-0.25,1.67v2.14c0,0.62,0.08,1.18,0.25,1.67    c0.17,0.49,0.4,0.91,0.71,1.25c0.3,0.34,0.67,0.6,1.09,0.79C1214.2,227.27,1214.68,227.36,1215.21,227.36z">
        </path>
        <polygon class="st5"
          points="1234.1,218.73 1234,218.73 1232.94,220.92 1229.98,226.32 1227.01,220.92 1225.95,218.73     1225.85,218.73 1225.85,229.06 1223.76,229.06 1223.76,215.56 1226.36,215.56 1229.98,222.43 1230.09,222.43 1233.71,215.56     1236.19,215.56 1236.19,229.06 1234.1,229.06   ">
        </polygon>
        <path class="st5"
          d="M1149.05,254.23v-2.63h-6.27v-1.88l5.48-9h2.86v9.15h1.84v1.72h-1.84v2.63H1149.05L1149.05,254.23z     M1144.63,249.87h4.41v-7.16h-0.14L1144.63,249.87z">
        </path>
        <path class="st5"
          d="M1159.52,254.46c-0.84,0-1.57-0.16-2.19-0.47c-0.62-0.32-1.13-0.77-1.53-1.36c-0.4-0.59-0.7-1.32-0.89-2.19    c-0.19-0.86-0.29-1.85-0.29-2.96c0-1.1,0.1-2.08,0.29-2.95c0.19-0.87,0.49-1.6,0.89-2.2c0.4-0.59,0.91-1.05,1.53-1.36    c0.62-0.32,1.35-0.47,2.19-0.47c1.68,0,2.91,0.61,3.71,1.84c0.79,1.23,1.19,2.94,1.19,5.15c0,2.21-0.4,3.92-1.19,5.15    C1162.43,253.84,1161.19,254.46,1159.52,254.46L1159.52,254.46z M1159.52,252.6c0.46,0,0.86-0.09,1.19-0.28    c0.33-0.19,0.6-0.45,0.8-0.8c0.21-0.35,0.35-0.76,0.45-1.25s0.14-1.02,0.14-1.62v-2.36c0-0.59-0.05-1.13-0.14-1.62    c-0.09-0.48-0.24-0.9-0.45-1.25c-0.21-0.35-0.47-0.62-0.8-0.8c-0.33-0.19-0.73-0.28-1.19-0.28s-0.86,0.09-1.19,0.28    c-0.33,0.19-0.6,0.45-0.8,0.8c-0.21,0.35-0.35,0.76-0.45,1.25c-0.09,0.48-0.14,1.02-0.14,1.62v2.36c0,0.59,0.05,1.13,0.14,1.62    c0.09,0.48,0.24,0.9,0.45,1.25c0.21,0.35,0.47,0.62,0.8,0.8C1158.66,252.51,1159.05,252.6,1159.52,252.6z">
        </path>
        <polygon class="st5"
          points="1167.03,254.23 1167.03,252.41 1170.82,252.41 1170.82,242.3 1170.66,242.3 1167.53,245.65     1166.19,244.45 1169.64,240.72 1172.97,240.72 1172.97,252.41 1176.26,252.41 1176.26,254.23   ">
        </polygon>
        <rect x="1178.14" y="247.26" class="st5" width="5.36" height="2.15"></rect>
        <path class="st5"
          d="M1191.64,254.23v-2.63h-6.27v-1.88l5.48-9h2.86v9.15h1.84v1.72h-1.84v2.63H1191.64L1191.64,254.23z     M1187.23,249.87h4.41v-7.16h-0.14L1187.23,249.87z">
        </path>
        <path class="st5"
          d="M1202.12,254.46c-0.84,0-1.57-0.16-2.19-0.47c-0.62-0.32-1.13-0.77-1.53-1.36c-0.4-0.59-0.7-1.32-0.89-2.19    c-0.19-0.86-0.29-1.85-0.29-2.96c0-1.1,0.1-2.08,0.29-2.95c0.19-0.87,0.49-1.6,0.89-2.2c0.4-0.59,0.91-1.05,1.53-1.36    c0.62-0.32,1.35-0.47,2.19-0.47c1.68,0,2.91,0.61,3.71,1.84c0.79,1.23,1.19,2.94,1.19,5.15c0,2.21-0.4,3.92-1.19,5.15    C1205.03,253.84,1203.79,254.46,1202.12,254.46L1202.12,254.46z M1202.12,252.6c0.46,0,0.86-0.09,1.19-0.28    c0.33-0.19,0.6-0.45,0.8-0.8c0.21-0.35,0.35-0.76,0.45-1.25c0.09-0.48,0.14-1.02,0.14-1.62v-2.36c0-0.59-0.05-1.13-0.14-1.62    c-0.09-0.48-0.24-0.9-0.45-1.25c-0.21-0.35-0.47-0.62-0.8-0.8c-0.33-0.19-0.73-0.28-1.19-0.28s-0.86,0.09-1.19,0.28    c-0.33,0.19-0.6,0.45-0.8,0.8c-0.21,0.35-0.35,0.76-0.45,1.25c-0.09,0.48-0.14,1.02-0.14,1.62v2.36c0,0.59,0.05,1.13,0.14,1.62    c0.09,0.48,0.24,0.9,0.45,1.25c0.21,0.35,0.47,0.62,0.8,0.8C1201.25,252.51,1201.65,252.6,1202.12,252.6z">
        </path>
        <path class="st5"
          d="M1218.39,254.23h-9.17v-2.09l4.32-3.85c0.68-0.62,1.21-1.21,1.58-1.77c0.37-0.56,0.55-1.15,0.55-1.77v-0.25    c0-0.66-0.2-1.17-0.59-1.55c-0.39-0.37-0.93-0.56-1.6-0.56c-0.37,0-0.7,0.06-0.98,0.16c-0.28,0.11-0.52,0.26-0.73,0.45    c-0.21,0.19-0.38,0.42-0.51,0.68c-0.14,0.26-0.24,0.54-0.32,0.83l-1.92-0.74c0.14-0.43,0.34-0.84,0.58-1.23    c0.25-0.39,0.55-0.75,0.93-1.05c0.37-0.31,0.82-0.56,1.33-0.74c0.51-0.18,1.11-0.27,1.79-0.27s1.3,0.1,1.84,0.3    c0.54,0.2,1,0.48,1.36,0.83c0.37,0.35,0.65,0.78,0.84,1.27c0.19,0.49,0.29,1.03,0.29,1.61c0,0.54-0.08,1.05-0.25,1.51    c-0.17,0.46-0.4,0.9-0.7,1.32c-0.3,0.41-0.64,0.81-1.04,1.18c-0.39,0.37-0.81,0.75-1.25,1.14l-3.17,2.73h6.81V254.23z">
        </path>
      </g>
      <path class="st2"
        d="M384.72,587.99h124.84c15.66,0,28.48-12.81,28.48-28.48l0,0c0-15.66-12.81-28.48-28.48-28.48H384.72   c-15.66,0-28.48,12.81-28.48,28.48l0,0C356.25,575.17,369.06,587.99,384.72,587.99z">
      </path>
      <g>
        <path class="st5"
          d="M436.97,553.8v-2.63h-6.27v-1.88l5.48-9h2.86v9.15h1.84v1.72h-1.84v2.63H436.97L436.97,553.8z M432.56,549.45    h4.41v-7.16h-0.14L432.56,549.45z">
        </path>
        <polygon class="st5"
          points="443.34,553.8 443.34,551.98 447.13,551.98 447.13,541.88 446.98,541.88 443.84,545.23 442.5,544.03     445.95,540.29 449.28,540.29 449.28,551.98 452.57,551.98 452.57,553.8   ">
        </polygon>
        <path class="st5"
          d="M458.32,545.85c0.84,0,1.46-0.18,1.86-0.53c0.4-0.35,0.6-0.81,0.6-1.36v-0.14c0-0.62-0.19-1.09-0.58-1.42    c-0.39-0.33-0.91-0.49-1.57-0.49c-0.65,0-1.19,0.15-1.65,0.44c-0.45,0.29-0.83,0.69-1.14,1.21l-1.45-1.26    c0.21-0.3,0.44-0.58,0.7-0.85c0.26-0.27,0.56-0.51,0.91-0.71c0.35-0.2,0.74-0.36,1.18-0.48c0.44-0.12,0.94-0.18,1.51-0.18    c0.63,0,1.22,0.08,1.76,0.23c0.54,0.15,1.01,0.38,1.39,0.69c0.39,0.3,0.69,0.67,0.91,1.1c0.22,0.43,0.33,0.92,0.33,1.46    c0,0.43-0.07,0.81-0.2,1.16c-0.14,0.35-0.32,0.65-0.56,0.92c-0.24,0.26-0.52,0.48-0.83,0.65c-0.32,0.17-0.65,0.29-1,0.37v0.1    c0.39,0.08,0.75,0.2,1.09,0.38c0.34,0.17,0.64,0.4,0.9,0.68c0.26,0.28,0.46,0.61,0.61,0.99c0.15,0.38,0.22,0.82,0.22,1.31    c0,0.59-0.12,1.13-0.35,1.62c-0.23,0.48-0.56,0.9-0.98,1.25c-0.42,0.35-0.93,0.62-1.52,0.8c-0.59,0.19-1.25,0.28-1.97,0.28    c-0.63,0-1.19-0.07-1.66-0.2c-0.48-0.14-0.9-0.32-1.27-0.54c-0.37-0.23-0.69-0.48-0.97-0.77c-0.28-0.29-0.52-0.59-0.73-0.9    l1.61-1.26c0.17,0.27,0.35,0.52,0.53,0.74c0.19,0.23,0.4,0.42,0.64,0.58c0.24,0.16,0.51,0.29,0.81,0.38    c0.3,0.09,0.65,0.14,1.04,0.14c0.83,0,1.46-0.2,1.9-0.59c0.44-0.39,0.66-0.94,0.66-1.64v-0.14c0-0.7-0.23-1.23-0.7-1.59    c-0.46-0.36-1.12-0.54-1.97-0.54h-1.43v-1.86H458.32z">
        </path>
        <path class="st5"
          d="M391.86,579.19c-1.77,0-3.15-0.6-4.16-1.79c-1.01-1.19-1.51-2.93-1.51-5.2c0-1.14,0.13-2.14,0.39-3    c0.26-0.86,0.63-1.59,1.12-2.19c0.49-0.59,1.09-1.04,1.79-1.34c0.7-0.3,1.49-0.46,2.37-0.46c1.17,0,2.16,0.25,2.95,0.77    c0.79,0.51,1.42,1.27,1.87,2.27l-1.84,1.01c-0.23-0.65-0.59-1.16-1.07-1.54c-0.48-0.38-1.12-0.57-1.91-0.57    c-1.05,0-1.86,0.35-2.46,1.07c-0.59,0.71-0.89,1.7-0.89,2.95v2.06c0,1.26,0.3,2.24,0.89,2.95s1.41,1.07,2.46,1.07    c0.81,0,1.47-0.21,1.98-0.63c0.51-0.42,0.89-0.96,1.13-1.62l1.76,1.06c-0.45,0.98-1.08,1.74-1.9,2.29    C394.03,578.92,393.04,579.19,391.86,579.19z">
        </path>
        <path class="st5"
          d="M401.25,578.96h-2.19v-13.51h5.83c1.21,0,2.17,0.36,2.86,1.09c0.7,0.73,1.05,1.72,1.05,2.97    c0,0.97-0.22,1.77-0.67,2.41c-0.45,0.64-1.1,1.09-1.96,1.35l2.92,5.69h-2.44l-2.71-5.46h-2.69V578.96L401.25,578.96z     M404.74,571.66c0.55,0,0.99-0.15,1.3-0.43c0.31-0.29,0.46-0.7,0.46-1.25v-0.92c0-0.54-0.15-0.96-0.46-1.25    c-0.31-0.29-0.74-0.43-1.3-0.43h-3.48v4.28H404.74z">
        </path>
        <polygon class="st5"
          points="411.16,578.96 411.16,577.18 413,577.18 413,567.23 411.16,567.23 411.16,565.45 417.04,565.45     417.04,567.23 415.19,567.23 415.19,577.18 417.04,577.18 417.04,578.96   ">
        </polygon>
        <polygon class="st5"
          points="424.69,567.39 424.69,578.96 422.5,578.96 422.5,567.39 418.48,567.39 418.48,565.45 428.72,565.45     428.72,567.39   ">
        </polygon>
        <polygon class="st5"
          points="430.15,578.96 430.15,577.18 431.99,577.18 431.99,567.23 430.15,567.23 430.15,565.45     436.03,565.45 436.03,567.23 434.17,567.23 434.17,577.18 436.03,577.18 436.03,578.96   ">
        </polygon>
        <path class="st5"
          d="M443.85,579.19c-1.77,0-3.15-0.6-4.16-1.79c-1.01-1.19-1.51-2.93-1.51-5.2c0-1.14,0.13-2.14,0.39-3    c0.26-0.86,0.63-1.59,1.12-2.19c0.49-0.59,1.09-1.04,1.79-1.34c0.7-0.3,1.49-0.46,2.37-0.46c1.17,0,2.16,0.25,2.95,0.77    c0.79,0.51,1.42,1.27,1.87,2.27l-1.84,1.01c-0.23-0.65-0.59-1.16-1.07-1.54c-0.48-0.38-1.12-0.57-1.91-0.57    c-1.05,0-1.86,0.35-2.46,1.07c-0.59,0.71-0.89,1.7-0.89,2.95v2.06c0,1.26,0.3,2.24,0.89,2.95c0.59,0.71,1.41,1.07,2.46,1.07    c0.81,0,1.47-0.21,1.98-0.63c0.51-0.42,0.89-0.96,1.13-1.62l1.76,1.06c-0.45,0.98-1.08,1.74-1.9,2.29    C446.02,578.92,445.02,579.19,443.85,579.19z">
        </path>
        <path class="st5"
          d="M457.8,578.96h-2.19v-13.51h5.83c1.21,0,2.17,0.36,2.86,1.09c0.7,0.73,1.05,1.72,1.05,2.97    c0,0.97-0.22,1.77-0.67,2.41c-0.45,0.64-1.1,1.09-1.96,1.35l2.92,5.69h-2.44l-2.71-5.46h-2.69V578.96L457.8,578.96z     M461.29,571.66c0.55,0,0.99-0.15,1.3-0.43c0.31-0.29,0.46-0.7,0.46-1.25v-0.92c0-0.54-0.15-0.96-0.46-1.25    c-0.31-0.29-0.74-0.43-1.3-0.43h-3.48v4.28H461.29z">
        </path>
        <path class="st5"
          d="M473.33,579.19c-0.88,0-1.67-0.15-2.39-0.45c-0.72-0.3-1.33-0.75-1.84-1.34c-0.51-0.59-0.9-1.32-1.18-2.19    c-0.28-0.87-0.42-1.87-0.42-3.01c0-1.14,0.14-2.14,0.42-3.01c0.28-0.87,0.67-1.6,1.18-2.19c0.51-0.59,1.12-1.03,1.84-1.34    c0.72-0.3,1.51-0.46,2.39-0.46c0.88,0,1.67,0.15,2.39,0.46c0.72,0.3,1.33,0.75,1.84,1.34s0.9,1.32,1.18,2.19    c0.28,0.87,0.42,1.87,0.42,3.01c0,1.14-0.14,2.14-0.42,3.01c-0.28,0.87-0.67,1.6-1.18,2.19c-0.51,0.59-1.12,1.03-1.84,1.34    C475,579.04,474.2,579.19,473.33,579.19L473.33,579.19z M473.33,577.26c0.52,0,0.99-0.09,1.42-0.27c0.43-0.18,0.8-0.45,1.1-0.79    c0.3-0.34,0.54-0.76,0.71-1.25c0.17-0.49,0.25-1.05,0.25-1.67v-2.14c0-0.62-0.08-1.18-0.25-1.67c-0.17-0.49-0.4-0.91-0.71-1.25    c-0.3-0.34-0.67-0.6-1.1-0.79c-0.43-0.18-0.91-0.27-1.42-0.27c-0.53,0-1.01,0.09-1.43,0.27c-0.43,0.18-0.79,0.45-1.09,0.79    c-0.3,0.34-0.54,0.76-0.71,1.25c-0.17,0.49-0.25,1.05-0.25,1.67v2.14c0,0.62,0.08,1.18,0.25,1.67c0.17,0.49,0.4,0.91,0.71,1.25    c0.3,0.34,0.67,0.6,1.09,0.79C472.32,577.17,472.8,577.26,473.33,577.26z">
        </path>
        <path class="st5"
          d="M487.11,579.19c-0.88,0-1.67-0.15-2.39-0.45c-0.72-0.3-1.33-0.75-1.84-1.34c-0.51-0.59-0.9-1.32-1.18-2.19    c-0.28-0.87-0.42-1.87-0.42-3.01c0-1.14,0.14-2.14,0.42-3.01c0.28-0.87,0.67-1.6,1.18-2.19c0.51-0.59,1.12-1.03,1.84-1.34    c0.72-0.3,1.51-0.46,2.39-0.46c0.88,0,1.67,0.15,2.39,0.46c0.72,0.3,1.33,0.75,1.84,1.34c0.51,0.59,0.9,1.32,1.18,2.19    c0.28,0.87,0.42,1.87,0.42,3.01c0,1.14-0.14,2.14-0.42,3.01c-0.28,0.87-0.67,1.6-1.18,2.19c-0.51,0.59-1.12,1.03-1.84,1.34    C488.78,579.04,487.98,579.19,487.11,579.19L487.11,579.19z M487.11,577.26c0.52,0,0.99-0.09,1.42-0.27    c0.43-0.18,0.8-0.45,1.1-0.79c0.3-0.34,0.54-0.76,0.71-1.25c0.17-0.49,0.25-1.05,0.25-1.67v-2.14c0-0.62-0.08-1.18-0.25-1.67    c-0.17-0.49-0.4-0.91-0.71-1.25c-0.3-0.34-0.67-0.6-1.1-0.79c-0.43-0.18-0.91-0.27-1.42-0.27c-0.53,0-1.01,0.09-1.43,0.27    c-0.43,0.18-0.79,0.45-1.09,0.79c-0.3,0.34-0.54,0.76-0.71,1.25c-0.17,0.49-0.25,1.05-0.25,1.67v2.14c0,0.62,0.08,1.18,0.25,1.67    c0.17,0.49,0.4,0.91,0.71,1.25c0.3,0.34,0.67,0.6,1.09,0.79C486.1,577.17,486.58,577.26,487.11,577.26z">
        </path>
        <polygon class="st5"
          points="506,568.63 505.9,568.63 504.83,570.81 501.87,576.21 498.91,570.81 497.85,568.63 497.75,568.63     497.75,578.96 495.66,578.96 495.66,565.45 498.25,565.45 501.87,572.32 501.99,572.32 505.61,565.45 508.09,565.45     508.09,578.96 506,578.96   ">
        </polygon>
      </g>
      <path class="st2"
        d="M1389.85,986.8h113.11c15.66,0,28.48-12.81,28.48-28.48l0,0c0-15.66-12.81-28.48-28.48-28.48h-113.11   c-15.66,0-28.48,12.81-28.48,28.48l0,0C1361.37,973.99,1374.19,986.8,1389.85,986.8z">
      </path>
      <g>
        <path class="st5"
          d="M1396.41,952.85c-1.77,0-3.15-0.6-4.16-1.79c-1.01-1.19-1.51-2.93-1.51-5.2c0-1.14,0.13-2.14,0.39-3    c0.26-0.86,0.63-1.59,1.12-2.19c0.49-0.59,1.09-1.04,1.79-1.35c0.7-0.3,1.49-0.45,2.37-0.45c1.17,0,2.16,0.25,2.95,0.77    c0.79,0.51,1.42,1.27,1.87,2.27l-1.84,1.01c-0.23-0.65-0.59-1.16-1.07-1.54c-0.48-0.38-1.12-0.57-1.91-0.57    c-1.05,0-1.86,0.35-2.46,1.07c-0.59,0.71-0.89,1.7-0.89,2.95v2.06c0,1.26,0.3,2.24,0.89,2.95c0.59,0.71,1.41,1.07,2.46,1.07    c0.81,0,1.47-0.21,1.98-0.63c0.51-0.42,0.89-0.96,1.13-1.62l1.76,1.06c-0.45,0.98-1.08,1.74-1.9,2.29    C1398.57,952.57,1397.58,952.85,1396.41,952.85z">
        </path>
        <polygon class="st5"
          points="1403.61,952.61 1403.61,939.1 1405.79,939.1 1405.79,950.68 1411.29,950.68 1411.29,952.61   "></polygon>
        <path class="st5"
          d="M1422.32,952.61l-1.22-3.66h-5.05l-1.18,3.66h-2.23l4.61-13.51h2.75l4.61,13.51H1422.32L1422.32,952.61z     M1418.62,941.12h-0.1l-1.95,5.96h3.99L1418.62,941.12z">
        </path>
        <path class="st5"
          d="M1430.74,952.85c-1.14,0-2.1-0.21-2.89-0.62c-0.79-0.41-1.47-0.97-2.04-1.66l1.51-1.41    c0.48,0.58,1,1.02,1.58,1.32c0.57,0.3,1.23,0.45,1.96,0.45c0.86,0,1.52-0.19,1.95-0.58c0.44-0.39,0.66-0.91,0.66-1.57    c0-0.53-0.15-0.95-0.46-1.26c-0.31-0.31-0.86-0.54-1.64-0.7l-1.2-0.21c-1.32-0.25-2.3-0.68-2.96-1.3    c-0.66-0.62-0.99-1.47-0.99-2.55c0-0.59,0.11-1.13,0.34-1.62c0.23-0.48,0.54-0.89,0.95-1.22c0.41-0.33,0.9-0.58,1.48-0.76    c0.58-0.18,1.23-0.27,1.95-0.27c1.02,0,1.9,0.18,2.65,0.53c0.75,0.35,1.39,0.87,1.92,1.54l-1.53,1.35    c-0.35-0.45-0.77-0.81-1.28-1.08c-0.5-0.27-1.13-0.41-1.88-0.41c-0.77,0-1.37,0.15-1.8,0.46c-0.43,0.31-0.64,0.76-0.64,1.35    c0,0.57,0.17,0.99,0.52,1.27c0.35,0.28,0.89,0.49,1.63,0.63l1.2,0.25c1.35,0.26,2.35,0.7,2.97,1.32c0.63,0.62,0.94,1.47,0.94,2.55    c0,0.63-0.11,1.21-0.33,1.72c-0.22,0.52-0.54,0.96-0.96,1.33c-0.42,0.37-0.93,0.65-1.54,0.85    C1432.2,952.75,1431.51,952.85,1430.74,952.85z">
        </path>
        <path class="st5"
          d="M1442.08,952.85c-1.14,0-2.1-0.21-2.89-0.62c-0.79-0.41-1.47-0.97-2.04-1.66l1.51-1.41    c0.48,0.58,1,1.02,1.58,1.32c0.57,0.3,1.23,0.45,1.96,0.45c0.86,0,1.52-0.19,1.95-0.58c0.44-0.39,0.66-0.91,0.66-1.57    c0-0.53-0.15-0.95-0.46-1.26c-0.31-0.31-0.86-0.54-1.64-0.7l-1.2-0.21c-1.32-0.25-2.3-0.68-2.96-1.3    c-0.66-0.62-0.99-1.47-0.99-2.55c0-0.59,0.11-1.13,0.34-1.62c0.23-0.48,0.54-0.89,0.95-1.22c0.41-0.33,0.9-0.58,1.48-0.76    c0.58-0.18,1.23-0.27,1.95-0.27c1.02,0,1.9,0.18,2.65,0.53c0.75,0.35,1.39,0.87,1.92,1.54l-1.53,1.35    c-0.35-0.45-0.77-0.81-1.28-1.08c-0.5-0.27-1.13-0.41-1.88-0.41c-0.77,0-1.37,0.15-1.8,0.46c-0.43,0.31-0.64,0.76-0.64,1.35    c0,0.57,0.17,0.99,0.52,1.27c0.35,0.28,0.89,0.49,1.63,0.63l1.2,0.25c1.35,0.26,2.35,0.7,2.97,1.32c0.63,0.62,0.94,1.47,0.94,2.55    c0,0.63-0.11,1.21-0.33,1.72c-0.22,0.52-0.54,0.96-0.96,1.33c-0.42,0.37-0.93,0.65-1.54,0.85    C1443.55,952.75,1442.86,952.85,1442.08,952.85z">
        </path>
        <path class="st5"
          d="M1451.8,952.61h-2.19V939.1h5.83c1.21,0,2.17,0.36,2.86,1.09c0.7,0.73,1.05,1.72,1.05,2.97    c0,0.97-0.22,1.77-0.67,2.41c-0.45,0.64-1.1,1.09-1.96,1.35l2.92,5.69h-2.44l-2.71-5.46h-2.69V952.61L1451.8,952.61z     M1455.28,945.32c0.55,0,0.99-0.15,1.3-0.43c0.31-0.29,0.46-0.7,0.46-1.25v-0.92c0-0.54-0.15-0.95-0.46-1.25    c-0.31-0.29-0.74-0.43-1.3-0.43h-3.48v4.28H1455.28z">
        </path>
        <path class="st5"
          d="M1467.32,952.85c-0.88,0-1.67-0.15-2.39-0.45c-0.72-0.3-1.33-0.75-1.84-1.34c-0.51-0.59-0.9-1.32-1.18-2.19    c-0.28-0.87-0.42-1.87-0.42-3.01c0-1.14,0.14-2.14,0.42-3.01c0.28-0.87,0.67-1.6,1.18-2.19c0.51-0.59,1.12-1.03,1.84-1.34    c0.72-0.3,1.51-0.45,2.39-0.45c0.88,0,1.67,0.15,2.39,0.45c0.72,0.3,1.33,0.75,1.84,1.34c0.51,0.59,0.9,1.32,1.18,2.19    c0.28,0.87,0.42,1.87,0.42,3.01c0,1.14-0.14,2.14-0.42,3.01c-0.28,0.87-0.67,1.6-1.18,2.19c-0.51,0.59-1.12,1.03-1.84,1.34    C1468.99,952.69,1468.2,952.85,1467.32,952.85L1467.32,952.85z M1467.32,950.91c0.52,0,0.99-0.09,1.42-0.27    c0.43-0.18,0.8-0.45,1.1-0.79c0.3-0.34,0.54-0.76,0.71-1.25c0.17-0.49,0.25-1.05,0.25-1.67v-2.14c0-0.62-0.08-1.18-0.25-1.67    c-0.17-0.49-0.4-0.91-0.71-1.25c-0.3-0.34-0.67-0.6-1.1-0.79c-0.43-0.18-0.91-0.27-1.42-0.27c-0.53,0-1.01,0.09-1.43,0.27    c-0.43,0.18-0.79,0.45-1.09,0.79c-0.3,0.34-0.54,0.76-0.71,1.25c-0.17,0.49-0.25,1.05-0.25,1.67v2.14c0,0.62,0.08,1.18,0.25,1.67    c0.17,0.49,0.4,0.91,0.71,1.25c0.3,0.34,0.67,0.6,1.09,0.79C1466.31,950.82,1466.79,950.91,1467.32,950.91z">
        </path>
        <path class="st5"
          d="M1481.1,952.85c-0.88,0-1.67-0.15-2.39-0.45c-0.72-0.3-1.33-0.75-1.84-1.34c-0.51-0.59-0.9-1.32-1.18-2.19    c-0.28-0.87-0.42-1.87-0.42-3.01c0-1.14,0.14-2.14,0.42-3.01c0.28-0.87,0.67-1.6,1.18-2.19c0.51-0.59,1.12-1.03,1.84-1.34    c0.72-0.3,1.51-0.45,2.39-0.45c0.88,0,1.67,0.15,2.39,0.45c0.72,0.3,1.33,0.75,1.84,1.34c0.51,0.59,0.9,1.32,1.18,2.19    c0.28,0.87,0.42,1.87,0.42,3.01c0,1.14-0.14,2.14-0.42,3.01c-0.28,0.87-0.67,1.6-1.18,2.19c-0.51,0.59-1.12,1.03-1.84,1.34    C1482.77,952.69,1481.98,952.85,1481.1,952.85L1481.1,952.85z M1481.1,950.91c0.52,0,0.99-0.09,1.42-0.27    c0.43-0.18,0.8-0.45,1.1-0.79c0.3-0.34,0.54-0.76,0.71-1.25c0.17-0.49,0.25-1.05,0.25-1.67v-2.14c0-0.62-0.08-1.18-0.25-1.67    c-0.17-0.49-0.4-0.91-0.71-1.25c-0.3-0.34-0.67-0.6-1.1-0.79c-0.43-0.18-0.91-0.27-1.42-0.27c-0.53,0-1.01,0.09-1.43,0.27    c-0.43,0.18-0.79,0.45-1.09,0.79c-0.3,0.34-0.54,0.76-0.71,1.25c-0.17,0.49-0.25,1.05-0.25,1.67v2.14c0,0.62,0.08,1.18,0.25,1.67    c0.17,0.49,0.4,0.91,0.71,1.25c0.3,0.34,0.67,0.6,1.09,0.79C1480.09,950.82,1480.57,950.91,1481.1,950.91z">
        </path>
        <polygon class="st5"
          points="1499.99,942.28 1499.89,942.28 1498.83,944.47 1495.87,949.87 1492.9,944.47 1491.84,942.28     1491.74,942.28 1491.74,952.61 1489.65,952.61 1489.65,939.1 1492.25,939.1 1495.87,945.98 1495.98,945.98 1499.6,939.1     1502.08,939.1 1502.08,952.61 1499.99,952.61   ">
        </polygon>
        <path class="st5"
          d="M1436.24,977.77v-2.63h-6.27v-1.88l5.48-9h2.86v9.15h1.84v1.72h-1.84v2.63H1436.24L1436.24,977.77z     M1431.82,973.42h4.41v-7.16h-0.14L1431.82,973.42z">
        </path>
        <path class="st5"
          d="M1446.71,978.01c-0.84,0-1.57-0.16-2.19-0.47c-0.62-0.32-1.13-0.77-1.53-1.36c-0.4-0.59-0.7-1.32-0.89-2.19    c-0.19-0.86-0.29-1.85-0.29-2.96c0-1.1,0.1-2.08,0.29-2.95c0.19-0.87,0.49-1.6,0.89-2.2c0.4-0.59,0.91-1.05,1.53-1.36    c0.62-0.32,1.35-0.47,2.19-0.47c1.68,0,2.91,0.61,3.71,1.84c0.79,1.23,1.19,2.94,1.19,5.15c0,2.21-0.4,3.92-1.19,5.15    C1449.62,977.39,1448.38,978.01,1446.71,978.01L1446.71,978.01z M1446.71,976.15c0.46,0,0.86-0.09,1.19-0.28    c0.33-0.19,0.6-0.46,0.8-0.8c0.21-0.35,0.35-0.76,0.45-1.25c0.09-0.48,0.14-1.02,0.14-1.62v-2.36c0-0.59-0.05-1.13-0.14-1.62    c-0.09-0.48-0.24-0.9-0.45-1.25c-0.21-0.35-0.47-0.62-0.8-0.8c-0.33-0.19-0.73-0.28-1.19-0.28s-0.86,0.09-1.19,0.28    c-0.33,0.19-0.6,0.45-0.8,0.8c-0.21,0.35-0.35,0.76-0.45,1.25c-0.09,0.48-0.14,1.02-0.14,1.62v2.36c0,0.59,0.05,1.13,0.14,1.62    c0.09,0.48,0.24,0.9,0.45,1.25c0.21,0.35,0.47,0.62,0.8,0.8C1445.85,976.05,1446.24,976.15,1446.71,976.15z">
        </path>
        <path class="st5"
          d="M1462.34,966.16h-6l-0.35,4.78h0.14c0.15-0.27,0.32-0.51,0.48-0.73c0.17-0.21,0.36-0.4,0.58-0.55    c0.22-0.15,0.47-0.27,0.75-0.36c0.28-0.08,0.62-0.13,1.01-0.13c0.58,0,1.12,0.1,1.62,0.29c0.5,0.19,0.93,0.47,1.3,0.83    c0.37,0.36,0.65,0.8,0.86,1.33c0.21,0.52,0.31,1.11,0.31,1.77c0,0.67-0.11,1.29-0.32,1.86c-0.21,0.57-0.53,1.05-0.94,1.46    c-0.41,0.41-0.92,0.72-1.52,0.95c-0.6,0.23-1.28,0.34-2.04,0.34c-0.61,0-1.14-0.07-1.61-0.2c-0.46-0.14-0.87-0.32-1.23-0.54    c-0.35-0.23-0.66-0.48-0.93-0.77c-0.26-0.29-0.5-0.59-0.71-0.9l1.59-1.26c0.17,0.27,0.34,0.52,0.52,0.74    c0.18,0.22,0.39,0.41,0.62,0.58c0.23,0.17,0.49,0.3,0.78,0.39s0.62,0.14,1,0.14c0.8,0,1.42-0.22,1.85-0.66    c0.43-0.44,0.65-1.05,0.65-1.82v-0.23c0-0.77-0.22-1.38-0.65-1.82c-0.43-0.44-1.05-0.66-1.85-0.66c-0.58,0-1.05,0.11-1.39,0.33    c-0.35,0.22-0.65,0.46-0.89,0.74l-1.8-0.25l0.5-7.53h7.66V966.16z">
        </path>
      </g>
      <path class="st2"
        d="M1153.09,970.21h113.11c15.66,0,28.48-12.81,28.48-28.48l0,0c0-15.66-12.81-28.48-28.48-28.48h-113.11   c-15.66,0-28.48,12.81-28.48,28.48l0,0C1124.62,957.4,1137.43,970.21,1153.09,970.21z">
      </path>
      <g>
        <path class="st5"
          d="M1159.65,936.26c-1.77,0-3.15-0.6-4.16-1.79c-1.01-1.19-1.51-2.93-1.51-5.2c0-1.14,0.13-2.14,0.39-3    c0.26-0.86,0.63-1.59,1.12-2.19c0.49-0.59,1.09-1.04,1.79-1.35c0.7-0.3,1.49-0.45,2.37-0.45c1.17,0,2.16,0.25,2.95,0.77    c0.79,0.51,1.42,1.27,1.87,2.27l-1.84,1.01c-0.23-0.65-0.59-1.16-1.07-1.54c-0.48-0.38-1.12-0.57-1.91-0.57    c-1.05,0-1.86,0.35-2.46,1.07c-0.59,0.71-0.89,1.7-0.89,2.95v2.06c0,1.26,0.3,2.24,0.89,2.95c0.59,0.71,1.41,1.07,2.46,1.07    c0.81,0,1.47-0.21,1.98-0.63c0.51-0.42,0.89-0.96,1.13-1.62l1.76,1.06c-0.45,0.98-1.08,1.74-1.9,2.29    C1161.81,935.99,1160.82,936.26,1159.65,936.26z">
        </path>
        <polygon class="st5"
          points="1166.85,936.03 1166.85,922.52 1169.03,922.52 1169.03,934.09 1174.53,934.09 1174.53,936.03   ">
        </polygon>
        <path class="st5"
          d="M1185.56,936.03l-1.22-3.66h-5.05l-1.18,3.66h-2.23l4.61-13.51h2.75l4.61,13.51H1185.56L1185.56,936.03z     M1181.87,924.53h-0.1l-1.95,5.96h3.99L1181.87,924.53z">
        </path>
        <path class="st5"
          d="M1193.98,936.26c-1.14,0-2.1-0.21-2.89-0.62c-0.79-0.41-1.47-0.97-2.04-1.66l1.51-1.41    c0.48,0.58,1,1.02,1.58,1.32c0.57,0.3,1.23,0.45,1.96,0.45c0.86,0,1.52-0.19,1.95-0.58c0.44-0.39,0.66-0.91,0.66-1.57    c0-0.53-0.15-0.95-0.46-1.26c-0.31-0.31-0.86-0.54-1.65-0.7l-1.2-0.21c-1.32-0.25-2.3-0.68-2.96-1.3    c-0.66-0.62-0.99-1.47-0.99-2.55c0-0.59,0.11-1.13,0.34-1.62c0.23-0.48,0.54-0.89,0.95-1.22c0.41-0.33,0.9-0.58,1.48-0.76    c0.58-0.18,1.23-0.27,1.95-0.27c1.02,0,1.9,0.18,2.65,0.53c0.75,0.35,1.39,0.87,1.92,1.54l-1.53,1.35    c-0.35-0.45-0.77-0.81-1.28-1.08c-0.5-0.27-1.13-0.41-1.88-0.41c-0.77,0-1.37,0.15-1.8,0.46c-0.43,0.31-0.64,0.76-0.64,1.35    c0,0.57,0.17,0.99,0.52,1.27c0.35,0.28,0.89,0.49,1.63,0.63l1.2,0.25c1.35,0.26,2.35,0.7,2.97,1.32c0.63,0.62,0.94,1.47,0.94,2.55    c0,0.63-0.11,1.21-0.33,1.72c-0.22,0.52-0.54,0.96-0.96,1.33c-0.42,0.37-0.93,0.65-1.54,0.85    C1195.45,936.16,1194.76,936.26,1193.98,936.26z">
        </path>
        <path class="st5"
          d="M1205.32,936.26c-1.14,0-2.1-0.21-2.89-0.62c-0.79-0.41-1.47-0.97-2.04-1.66l1.51-1.41    c0.48,0.58,1,1.02,1.58,1.32c0.57,0.3,1.23,0.45,1.96,0.45c0.86,0,1.52-0.19,1.95-0.58c0.44-0.39,0.66-0.91,0.66-1.57    c0-0.53-0.15-0.95-0.46-1.26c-0.31-0.31-0.86-0.54-1.64-0.7l-1.2-0.21c-1.32-0.25-2.3-0.68-2.96-1.3    c-0.66-0.62-0.99-1.47-0.99-2.55c0-0.59,0.11-1.13,0.34-1.62c0.23-0.48,0.54-0.89,0.95-1.22c0.41-0.33,0.9-0.58,1.48-0.76    c0.58-0.18,1.23-0.27,1.95-0.27c1.02,0,1.9,0.18,2.65,0.53c0.75,0.35,1.39,0.87,1.92,1.54l-1.53,1.35    c-0.35-0.45-0.77-0.81-1.28-1.08c-0.5-0.27-1.13-0.41-1.88-0.41c-0.77,0-1.37,0.15-1.8,0.46c-0.43,0.31-0.64,0.76-0.64,1.35    c0,0.57,0.17,0.99,0.52,1.27c0.35,0.28,0.89,0.49,1.63,0.63l1.2,0.25c1.35,0.26,2.35,0.7,2.97,1.32c0.63,0.62,0.94,1.47,0.94,2.55    c0,0.63-0.11,1.21-0.33,1.72c-0.22,0.52-0.54,0.96-0.96,1.33c-0.42,0.37-0.93,0.65-1.54,0.85    C1206.79,936.16,1206.1,936.26,1205.32,936.26z">
        </path>
        <path class="st5"
          d="M1215.04,936.03h-2.19v-13.51h5.83c1.21,0,2.17,0.36,2.86,1.09c0.7,0.73,1.05,1.72,1.05,2.97    c0,0.97-0.22,1.77-0.67,2.41c-0.45,0.64-1.1,1.09-1.96,1.35l2.92,5.69h-2.44l-2.71-5.46h-2.69V936.03L1215.04,936.03z     M1218.52,928.73c0.55,0,0.99-0.15,1.3-0.43c0.31-0.29,0.46-0.7,0.46-1.25v-0.92c0-0.54-0.15-0.95-0.46-1.25    c-0.31-0.29-0.74-0.43-1.3-0.43h-3.48v4.28H1218.52z">
        </path>
        <path class="st5"
          d="M1230.56,936.26c-0.88,0-1.67-0.15-2.39-0.45c-0.72-0.3-1.33-0.75-1.84-1.34c-0.51-0.59-0.9-1.32-1.18-2.19    c-0.28-0.87-0.42-1.87-0.42-3.01c0-1.14,0.14-2.14,0.42-3.01c0.28-0.87,0.67-1.6,1.18-2.19c0.51-0.59,1.12-1.03,1.84-1.34    c0.72-0.3,1.51-0.45,2.39-0.45c0.88,0,1.67,0.15,2.39,0.45c0.72,0.3,1.33,0.75,1.84,1.34c0.51,0.59,0.9,1.32,1.18,2.19    c0.28,0.87,0.42,1.87,0.42,3.01c0,1.14-0.14,2.14-0.42,3.01c-0.28,0.87-0.67,1.6-1.18,2.19c-0.51,0.59-1.12,1.03-1.84,1.34    C1232.24,936.11,1231.44,936.26,1230.56,936.26L1230.56,936.26z M1230.56,934.33c0.52,0,0.99-0.09,1.42-0.27    c0.43-0.18,0.8-0.45,1.1-0.79c0.3-0.34,0.54-0.76,0.71-1.25c0.17-0.49,0.25-1.05,0.25-1.67v-2.14c0-0.62-0.08-1.18-0.25-1.67    c-0.17-0.49-0.4-0.91-0.71-1.25c-0.3-0.34-0.67-0.6-1.1-0.79c-0.43-0.18-0.91-0.27-1.42-0.27c-0.53,0-1.01,0.09-1.43,0.27    c-0.43,0.18-0.79,0.45-1.09,0.79c-0.3,0.34-0.54,0.76-0.71,1.25c-0.17,0.49-0.25,1.05-0.25,1.67v2.14c0,0.62,0.08,1.18,0.25,1.67    c0.17,0.49,0.4,0.91,0.71,1.25c0.3,0.34,0.67,0.6,1.09,0.79C1229.55,934.23,1230.03,934.33,1230.56,934.33z">
        </path>
        <path class="st5"
          d="M1244.34,936.26c-0.88,0-1.67-0.15-2.39-0.45c-0.72-0.3-1.33-0.75-1.84-1.34c-0.51-0.59-0.9-1.32-1.18-2.19    c-0.28-0.87-0.42-1.87-0.42-3.01c0-1.14,0.14-2.14,0.42-3.01c0.28-0.87,0.67-1.6,1.18-2.19c0.51-0.59,1.12-1.03,1.84-1.34    c0.72-0.3,1.51-0.45,2.39-0.45c0.88,0,1.67,0.15,2.39,0.45c0.72,0.3,1.33,0.75,1.84,1.34c0.51,0.59,0.9,1.32,1.18,2.19    c0.28,0.87,0.42,1.87,0.42,3.01c0,1.14-0.14,2.14-0.42,3.01c-0.28,0.87-0.67,1.6-1.18,2.19c-0.51,0.59-1.12,1.03-1.84,1.34    C1246.02,936.11,1245.22,936.26,1244.34,936.26L1244.34,936.26z M1244.34,934.33c0.52,0,0.99-0.09,1.42-0.27    c0.43-0.18,0.8-0.45,1.1-0.79c0.3-0.34,0.54-0.76,0.71-1.25c0.17-0.49,0.25-1.05,0.25-1.67v-2.14c0-0.62-0.08-1.18-0.25-1.67    c-0.17-0.49-0.4-0.91-0.71-1.25c-0.3-0.34-0.67-0.6-1.1-0.79c-0.43-0.18-0.91-0.27-1.42-0.27c-0.53,0-1.01,0.09-1.43,0.27    c-0.43,0.18-0.79,0.45-1.09,0.79c-0.3,0.34-0.54,0.76-0.71,1.25c-0.17,0.49-0.25,1.05-0.25,1.67v2.14c0,0.62,0.08,1.18,0.25,1.67    c0.17,0.49,0.4,0.91,0.71,1.25c0.3,0.34,0.67,0.6,1.09,0.79C1243.33,934.23,1243.81,934.33,1244.34,934.33z">
        </path>
        <polygon class="st5"
          points="1263.23,925.69 1263.13,925.69 1262.07,927.88 1259.11,933.28 1256.15,927.88 1255.08,925.69     1254.99,925.69 1254.99,936.03 1252.9,936.03 1252.9,922.52 1255.49,922.52 1259.11,929.39 1259.22,929.39 1262.84,922.52     1265.32,922.52 1265.32,936.03 1263.23,936.03   ">
        </polygon>
        <path class="st5"
          d="M1199.48,961.19v-2.63h-6.27v-1.88l5.48-9h2.86v9.15h1.84v1.72h-1.84v2.63H1199.48L1199.48,961.19z     M1195.07,956.83h4.41v-7.16h-0.14L1195.07,956.83z">
        </path>
        <path class="st5"
          d="M1209.95,961.42c-0.84,0-1.57-0.16-2.19-0.47c-0.62-0.32-1.13-0.77-1.53-1.36c-0.4-0.59-0.7-1.32-0.89-2.19    c-0.19-0.86-0.29-1.85-0.29-2.96c0-1.1,0.1-2.08,0.29-2.95c0.19-0.87,0.49-1.6,0.89-2.2c0.4-0.59,0.91-1.05,1.53-1.36    c0.62-0.32,1.35-0.47,2.19-0.47c1.68,0,2.91,0.61,3.71,1.84c0.79,1.23,1.19,2.94,1.19,5.15c0,2.21-0.4,3.92-1.19,5.15    C1212.86,960.81,1211.63,961.42,1209.95,961.42L1209.95,961.42z M1209.95,959.56c0.46,0,0.86-0.09,1.19-0.28    c0.33-0.19,0.6-0.46,0.8-0.8c0.21-0.35,0.35-0.76,0.45-1.25c0.09-0.48,0.14-1.02,0.14-1.62v-2.36c0-0.59-0.05-1.13-0.14-1.62    c-0.09-0.48-0.24-0.9-0.45-1.25c-0.21-0.35-0.47-0.62-0.8-0.8c-0.33-0.19-0.73-0.28-1.19-0.28s-0.86,0.09-1.19,0.28    c-0.33,0.19-0.6,0.45-0.8,0.8c-0.21,0.35-0.35,0.76-0.45,1.25c-0.09,0.48-0.14,1.02-0.14,1.62v2.36c0,0.59,0.05,1.13,0.14,1.62    c0.09,0.48,0.24,0.9,0.45,1.25c0.21,0.35,0.47,0.62,0.8,0.8C1209.09,959.47,1209.48,959.56,1209.95,959.56z">
        </path>
        <path class="st5"
          d="M1221.6,961.42c-0.75,0-1.42-0.12-2-0.37c-0.59-0.25-1.08-0.6-1.49-1.05c-0.41-0.46-0.72-1.01-0.94-1.65    c-0.22-0.65-0.33-1.37-0.33-2.19c0-0.98,0.15-1.9,0.45-2.77c0.3-0.86,0.68-1.66,1.14-2.38c0.46-0.72,0.98-1.36,1.56-1.93    c0.57-0.56,1.14-1.03,1.69-1.4h2.9c-0.76,0.55-1.45,1.09-2.05,1.61c-0.61,0.52-1.14,1.05-1.59,1.59    c-0.45,0.54-0.83,1.12-1.13,1.72c-0.3,0.61-0.54,1.27-0.71,1.99l0.14,0.04c0.14-0.27,0.31-0.53,0.49-0.76    c0.19-0.24,0.41-0.45,0.66-0.63c0.25-0.18,0.54-0.32,0.86-0.43c0.32-0.1,0.7-0.15,1.12-0.15c0.57,0,1.09,0.1,1.58,0.29    c0.48,0.19,0.9,0.47,1.26,0.84c0.35,0.37,0.63,0.81,0.83,1.33c0.2,0.52,0.3,1.09,0.3,1.72c0,0.68-0.11,1.31-0.34,1.87    c-0.23,0.56-0.55,1.04-0.96,1.44c-0.41,0.4-0.91,0.71-1.5,0.94C1222.96,961.31,1222.31,961.42,1221.6,961.42L1221.6,961.42z     M1221.6,959.64c0.79,0,1.4-0.21,1.84-0.63c0.44-0.42,0.66-1.04,0.66-1.85v-0.27c0-0.81-0.22-1.43-0.66-1.85    c-0.44-0.42-1.05-0.63-1.84-0.63c-0.79,0-1.4,0.21-1.84,0.63c-0.44,0.42-0.66,1.04-0.66,1.85v0.27c0,0.81,0.22,1.43,0.66,1.85    C1220.2,959.43,1220.81,959.64,1221.6,959.64z">
        </path>
      </g>
      <path class="st2"
        d="M902.94,950.01h113.11c15.66,0,28.48-12.81,28.48-28.48l0,0c0-15.66-12.81-28.48-28.48-28.48H902.94   c-15.66,0-28.48,12.81-28.48,28.48l0,0C874.46,937.2,887.27,950.01,902.94,950.01z">
      </path>
      <g>
        <path class="st5"
          d="M909.49,916.06c-1.77,0-3.15-0.6-4.16-1.79c-1.01-1.19-1.51-2.93-1.51-5.2c0-1.14,0.13-2.14,0.39-3    c0.26-0.86,0.63-1.59,1.12-2.19c0.49-0.59,1.09-1.04,1.79-1.34c0.7-0.3,1.49-0.46,2.37-0.46c1.17,0,2.16,0.25,2.95,0.77    c0.79,0.51,1.42,1.27,1.87,2.27l-1.84,1.01c-0.23-0.65-0.59-1.16-1.07-1.54c-0.48-0.38-1.12-0.57-1.91-0.57    c-1.05,0-1.86,0.35-2.46,1.07c-0.59,0.71-0.89,1.7-0.89,2.95v2.06c0,1.26,0.3,2.24,0.89,2.95c0.59,0.71,1.41,1.07,2.46,1.07    c0.81,0,1.47-0.21,1.98-0.63c0.51-0.42,0.89-0.96,1.13-1.62l1.76,1.06c-0.45,0.98-1.08,1.74-1.9,2.29    C911.66,915.79,910.67,916.06,909.49,916.06z">
        </path>
        <polygon class="st5"
          points="916.69,915.83 916.69,902.32 918.88,902.32 918.88,913.89 924.37,913.89 924.37,915.83   "></polygon>
        <path class="st5"
          d="M935.41,915.83l-1.22-3.66h-5.05l-1.18,3.66h-2.23l4.61-13.51h2.75l4.61,13.51H935.41L935.41,915.83z     M931.71,904.33h-0.1l-1.95,5.96h3.99L931.71,904.33z">
        </path>
        <path class="st5"
          d="M943.83,916.06c-1.14,0-2.1-0.21-2.89-0.62c-0.79-0.41-1.47-0.97-2.04-1.66l1.51-1.41    c0.48,0.58,1,1.02,1.58,1.32c0.57,0.3,1.23,0.45,1.96,0.45c0.86,0,1.52-0.19,1.95-0.58c0.44-0.39,0.66-0.91,0.66-1.57    c0-0.53-0.15-0.95-0.46-1.26c-0.31-0.31-0.86-0.54-1.64-0.7l-1.2-0.21c-1.32-0.25-2.3-0.68-2.96-1.3s-0.99-1.47-0.99-2.55    c0-0.59,0.11-1.13,0.34-1.62c0.23-0.48,0.54-0.89,0.95-1.22c0.41-0.33,0.9-0.58,1.48-0.76c0.58-0.18,1.23-0.27,1.95-0.27    c1.02,0,1.9,0.18,2.65,0.53c0.75,0.35,1.39,0.87,1.92,1.54l-1.53,1.35c-0.35-0.45-0.77-0.81-1.28-1.08    c-0.5-0.27-1.13-0.41-1.88-0.41c-0.77,0-1.37,0.15-1.8,0.46c-0.43,0.31-0.64,0.76-0.64,1.35c0,0.57,0.17,0.99,0.52,1.27    c0.35,0.28,0.89,0.49,1.63,0.63l1.2,0.25c1.35,0.26,2.35,0.7,2.97,1.32c0.63,0.62,0.94,1.47,0.94,2.55c0,0.63-0.11,1.21-0.33,1.72    c-0.22,0.52-0.54,0.96-0.96,1.33c-0.42,0.37-0.93,0.65-1.54,0.85C945.29,915.96,944.6,916.06,943.83,916.06z">
        </path>
        <path class="st5"
          d="M955.17,916.06c-1.14,0-2.1-0.21-2.89-0.62c-0.79-0.41-1.47-0.97-2.04-1.66l1.51-1.41    c0.48,0.58,1,1.02,1.58,1.32c0.57,0.3,1.23,0.45,1.96,0.45c0.86,0,1.52-0.19,1.95-0.58c0.44-0.39,0.66-0.91,0.66-1.57    c0-0.53-0.15-0.95-0.46-1.26c-0.31-0.31-0.86-0.54-1.64-0.7l-1.2-0.21c-1.32-0.25-2.3-0.68-2.96-1.3    c-0.66-0.62-0.99-1.47-0.99-2.55c0-0.59,0.11-1.13,0.34-1.62c0.23-0.48,0.54-0.89,0.95-1.22c0.41-0.33,0.9-0.58,1.48-0.76    c0.58-0.18,1.23-0.27,1.95-0.27c1.02,0,1.9,0.18,2.65,0.53c0.75,0.35,1.39,0.87,1.92,1.54l-1.53,1.35    c-0.35-0.45-0.77-0.81-1.28-1.08c-0.5-0.27-1.13-0.41-1.88-0.41c-0.77,0-1.37,0.15-1.8,0.46c-0.43,0.31-0.64,0.76-0.64,1.35    c0,0.57,0.17,0.99,0.52,1.27c0.35,0.28,0.89,0.49,1.63,0.63l1.2,0.25c1.35,0.26,2.35,0.7,2.97,1.32c0.63,0.62,0.94,1.47,0.94,2.55    c0,0.63-0.11,1.21-0.33,1.72c-0.22,0.52-0.54,0.96-0.96,1.33c-0.42,0.37-0.93,0.65-1.54,0.85    C956.63,915.96,955.94,916.06,955.17,916.06z">
        </path>
        <path class="st5"
          d="M964.88,915.83h-2.19v-13.51h5.83c1.21,0,2.17,0.36,2.86,1.09c0.7,0.73,1.05,1.72,1.05,2.97    c0,0.97-0.22,1.77-0.67,2.41c-0.45,0.64-1.1,1.09-1.96,1.35l2.92,5.69h-2.44l-2.71-5.46h-2.69V915.83L964.88,915.83z     M968.37,908.53c0.55,0,0.99-0.15,1.3-0.43c0.31-0.29,0.46-0.7,0.46-1.25v-0.92c0-0.54-0.15-0.96-0.46-1.25    c-0.31-0.29-0.74-0.43-1.3-0.43h-3.48v4.28H968.37z">
        </path>
        <path class="st5"
          d="M980.4,916.06c-0.88,0-1.67-0.15-2.39-0.45c-0.72-0.3-1.33-0.75-1.84-1.34c-0.51-0.59-0.9-1.32-1.18-2.19    c-0.28-0.87-0.42-1.87-0.42-3.01c0-1.14,0.14-2.14,0.42-3.01c0.28-0.87,0.67-1.6,1.18-2.19s1.12-1.03,1.84-1.34    c0.72-0.3,1.51-0.46,2.39-0.46c0.88,0,1.67,0.15,2.39,0.46c0.72,0.3,1.33,0.75,1.84,1.34c0.51,0.59,0.9,1.32,1.18,2.19    c0.28,0.87,0.42,1.87,0.42,3.01c0,1.14-0.14,2.14-0.42,3.01c-0.28,0.87-0.67,1.6-1.18,2.19c-0.51,0.59-1.12,1.03-1.84,1.34    C982.08,915.91,981.28,916.06,980.4,916.06L980.4,916.06z M980.4,914.13c0.52,0,0.99-0.09,1.42-0.27c0.43-0.18,0.8-0.45,1.1-0.79    c0.3-0.34,0.54-0.76,0.71-1.25c0.17-0.49,0.25-1.05,0.25-1.67v-2.14c0-0.62-0.08-1.18-0.25-1.67c-0.17-0.49-0.4-0.91-0.71-1.25    c-0.3-0.34-0.67-0.6-1.1-0.79c-0.43-0.18-0.91-0.27-1.42-0.27c-0.53,0-1.01,0.09-1.43,0.27c-0.43,0.18-0.79,0.45-1.09,0.79    c-0.3,0.34-0.54,0.76-0.71,1.25c-0.17,0.49-0.25,1.05-0.25,1.67v2.14c0,0.62,0.08,1.18,0.25,1.67c0.17,0.49,0.4,0.91,0.71,1.25    c0.3,0.34,0.67,0.6,1.09,0.79C979.4,914.04,979.88,914.13,980.4,914.13z">
        </path>
        <path class="st5"
          d="M994.19,916.06c-0.88,0-1.67-0.15-2.39-0.45c-0.72-0.3-1.33-0.75-1.84-1.34c-0.51-0.59-0.9-1.32-1.18-2.19    c-0.28-0.87-0.42-1.87-0.42-3.01c0-1.14,0.14-2.14,0.42-3.01c0.28-0.87,0.67-1.6,1.18-2.19c0.51-0.59,1.12-1.03,1.84-1.34    c0.72-0.3,1.51-0.46,2.39-0.46c0.88,0,1.67,0.15,2.39,0.46c0.72,0.3,1.33,0.75,1.84,1.34s0.9,1.32,1.18,2.19    c0.28,0.87,0.42,1.87,0.42,3.01c0,1.14-0.14,2.14-0.42,3.01c-0.28,0.87-0.67,1.6-1.18,2.19c-0.51,0.59-1.12,1.03-1.84,1.34    C995.86,915.91,995.06,916.06,994.19,916.06L994.19,916.06z M994.19,914.13c0.52,0,0.99-0.09,1.42-0.27    c0.43-0.18,0.8-0.45,1.1-0.79c0.3-0.34,0.54-0.76,0.71-1.25c0.17-0.49,0.25-1.05,0.25-1.67v-2.14c0-0.62-0.08-1.18-0.25-1.67    c-0.17-0.49-0.4-0.91-0.71-1.25c-0.3-0.34-0.67-0.6-1.1-0.79c-0.43-0.18-0.91-0.27-1.42-0.27c-0.53,0-1.01,0.09-1.43,0.27    c-0.43,0.18-0.79,0.45-1.09,0.79c-0.3,0.34-0.54,0.76-0.71,1.25c-0.17,0.49-0.25,1.05-0.25,1.67v2.14c0,0.62,0.08,1.18,0.25,1.67    c0.17,0.49,0.4,0.91,0.71,1.25c0.3,0.34,0.67,0.6,1.09,0.79C993.18,914.04,993.66,914.13,994.19,914.13z">
        </path>
        <polygon class="st5"
          points="1013.07,905.49 1012.98,905.49 1011.91,907.68 1008.95,913.08 1005.99,907.68 1004.93,905.49     1004.83,905.49 1004.83,915.83 1002.74,915.83 1002.74,902.32 1005.33,902.32 1008.95,909.19 1009.07,909.19 1012.69,902.32     1015.16,902.32 1015.16,915.83 1013.07,915.83   ">
        </polygon>
        <path class="st5"
          d="M949.32,940.99v-2.63h-6.27v-1.88l5.48-9h2.86v9.15h1.84v1.72h-1.84v2.63H949.32L949.32,940.99z     M944.91,936.63h4.41v-7.16h-0.14L944.91,936.63z">
        </path>
        <path class="st5"
          d="M959.79,941.22c-0.84,0-1.57-0.16-2.19-0.47c-0.62-0.32-1.13-0.77-1.53-1.36c-0.4-0.59-0.7-1.32-0.89-2.19    c-0.19-0.86-0.29-1.85-0.29-2.96c0-1.1,0.1-2.08,0.29-2.95c0.19-0.87,0.49-1.6,0.89-2.2c0.4-0.59,0.91-1.05,1.53-1.36    c0.62-0.32,1.35-0.47,2.19-0.47c1.68,0,2.91,0.61,3.71,1.84c0.79,1.23,1.19,2.94,1.19,5.15c0,2.21-0.4,3.92-1.19,5.15    C962.71,940.61,961.47,941.22,959.79,941.22L959.79,941.22z M959.79,939.36c0.46,0,0.86-0.09,1.19-0.28    c0.33-0.19,0.6-0.46,0.8-0.8c0.21-0.35,0.35-0.76,0.45-1.25c0.09-0.48,0.14-1.02,0.14-1.62v-2.36c0-0.59-0.05-1.13-0.14-1.62    c-0.09-0.48-0.24-0.9-0.45-1.25c-0.21-0.35-0.47-0.62-0.8-0.8c-0.33-0.19-0.73-0.28-1.19-0.28s-0.86,0.09-1.19,0.28    c-0.33,0.19-0.6,0.45-0.8,0.8c-0.21,0.35-0.35,0.76-0.45,1.25c-0.09,0.48-0.14,1.02-0.14,1.62v2.36c0,0.59,0.05,1.13,0.14,1.62    c0.09,0.48,0.24,0.9,0.45,1.25c0.21,0.35,0.47,0.62,0.8,0.8C958.93,939.27,959.33,939.36,959.79,939.36z">
        </path>
        <polygon class="st5"
          points="968.91,940.99 973.8,929.28 968.7,929.28 968.7,931.78 966.82,931.78 966.82,927.48 975.97,927.48     975.97,929.38 971.21,940.99   ">
        </polygon>
      </g>
      <path class="st2"
        d="M657.44,945.35h113.11c15.66,0,28.48-12.81,28.48-28.48l0,0c0-15.66-12.81-28.48-28.48-28.48H657.44   c-15.66,0-28.48,12.81-28.48,28.48l0,0C628.97,932.54,641.78,945.35,657.44,945.35z">
      </path>
      <g>
        <path class="st5"
          d="M664,911.4c-1.77,0-3.15-0.6-4.16-1.79c-1.01-1.19-1.51-2.93-1.51-5.2c0-1.14,0.13-2.14,0.39-3    c0.26-0.86,0.63-1.59,1.12-2.19c0.49-0.59,1.09-1.04,1.79-1.34c0.7-0.3,1.49-0.46,2.37-0.46c1.17,0,2.16,0.25,2.95,0.77    c0.79,0.51,1.42,1.27,1.87,2.27l-1.84,1.01c-0.23-0.65-0.59-1.16-1.07-1.54c-0.48-0.38-1.12-0.57-1.91-0.57    c-1.05,0-1.86,0.35-2.46,1.07c-0.59,0.71-0.89,1.7-0.89,2.95v2.06c0,1.26,0.3,2.24,0.89,2.95c0.59,0.71,1.41,1.07,2.46,1.07    c0.81,0,1.47-0.21,1.98-0.63c0.51-0.42,0.89-0.96,1.13-1.62l1.76,1.06c-0.45,0.98-1.08,1.74-1.9,2.29    C666.16,911.13,665.17,911.4,664,911.4z">
        </path>
        <polygon class="st5"
          points="671.2,911.17 671.2,897.66 673.38,897.66 673.38,909.23 678.88,909.23 678.88,911.17   "></polygon>
        <path class="st5"
          d="M689.91,911.17l-1.22-3.66h-5.05l-1.18,3.66h-2.23l4.61-13.51h2.75l4.61,13.51H689.91L689.91,911.17z     M686.22,899.67h-0.1l-1.95,5.96h3.99L686.22,899.67z">
        </path>
        <path class="st5"
          d="M698.33,911.4c-1.14,0-2.1-0.21-2.89-0.62c-0.79-0.41-1.47-0.97-2.04-1.66l1.51-1.41    c0.48,0.58,1,1.02,1.58,1.32c0.57,0.3,1.23,0.45,1.96,0.45c0.86,0,1.52-0.19,1.95-0.58c0.44-0.39,0.66-0.91,0.66-1.57    c0-0.53-0.15-0.95-0.46-1.26c-0.31-0.31-0.86-0.54-1.64-0.7l-1.2-0.21c-1.32-0.25-2.3-0.68-2.96-1.3    c-0.66-0.62-0.99-1.47-0.99-2.55c0-0.59,0.11-1.13,0.34-1.62c0.23-0.48,0.54-0.89,0.95-1.22c0.41-0.33,0.9-0.58,1.48-0.76    c0.58-0.18,1.23-0.27,1.95-0.27c1.02,0,1.9,0.18,2.65,0.53c0.75,0.35,1.39,0.87,1.92,1.54l-1.53,1.35    c-0.35-0.45-0.77-0.81-1.28-1.08c-0.5-0.27-1.13-0.41-1.88-0.41c-0.77,0-1.37,0.15-1.8,0.46c-0.43,0.31-0.64,0.76-0.64,1.35    c0,0.57,0.17,0.99,0.52,1.27c0.35,0.28,0.89,0.49,1.63,0.63l1.2,0.25c1.35,0.26,2.35,0.7,2.97,1.32c0.63,0.62,0.94,1.47,0.94,2.55    c0,0.63-0.11,1.21-0.33,1.72c-0.22,0.52-0.54,0.96-0.96,1.33c-0.42,0.37-0.93,0.65-1.54,0.85    C699.8,911.3,699.11,911.4,698.33,911.4z">
        </path>
        <path class="st5"
          d="M709.67,911.4c-1.14,0-2.1-0.21-2.89-0.62c-0.79-0.41-1.47-0.97-2.04-1.66l1.51-1.41    c0.48,0.58,1,1.02,1.58,1.32c0.57,0.3,1.23,0.45,1.96,0.45c0.86,0,1.52-0.19,1.95-0.58c0.44-0.39,0.66-0.91,0.66-1.57    c0-0.53-0.15-0.95-0.46-1.26c-0.31-0.31-0.86-0.54-1.65-0.7l-1.2-0.21c-1.32-0.25-2.3-0.68-2.96-1.3    c-0.66-0.62-0.99-1.47-0.99-2.55c0-0.59,0.11-1.13,0.34-1.62c0.23-0.48,0.54-0.89,0.95-1.22c0.41-0.33,0.9-0.58,1.48-0.76    c0.58-0.18,1.23-0.27,1.95-0.27c1.02,0,1.9,0.18,2.65,0.53c0.75,0.35,1.39,0.87,1.92,1.54l-1.53,1.35    c-0.35-0.45-0.77-0.81-1.28-1.08c-0.5-0.27-1.13-0.41-1.88-0.41c-0.77,0-1.37,0.15-1.8,0.46c-0.43,0.31-0.64,0.76-0.64,1.35    c0,0.57,0.17,0.99,0.52,1.27c0.35,0.28,0.89,0.49,1.63,0.63l1.2,0.25c1.35,0.26,2.35,0.7,2.97,1.32c0.63,0.62,0.94,1.47,0.94,2.55    c0,0.63-0.11,1.21-0.33,1.72c-0.22,0.52-0.54,0.96-0.96,1.33c-0.42,0.37-0.93,0.65-1.54,0.85    C711.14,911.3,710.45,911.4,709.67,911.4z">
        </path>
        <path class="st5"
          d="M719.39,911.17h-2.19v-13.51h5.83c1.21,0,2.17,0.36,2.86,1.09c0.7,0.73,1.05,1.72,1.05,2.97    c0,0.97-0.22,1.77-0.67,2.41c-0.45,0.64-1.1,1.09-1.96,1.35l2.92,5.69h-2.44l-2.71-5.46h-2.69V911.17L719.39,911.17z     M722.87,903.87c0.55,0,0.99-0.15,1.3-0.43c0.31-0.29,0.46-0.7,0.46-1.25v-0.92c0-0.54-0.15-0.96-0.46-1.25    c-0.31-0.29-0.74-0.43-1.3-0.43h-3.48v4.28H722.87z">
        </path>
        <path class="st5"
          d="M734.91,911.4c-0.88,0-1.67-0.15-2.39-0.45c-0.72-0.3-1.33-0.75-1.84-1.34c-0.51-0.59-0.9-1.32-1.18-2.19    c-0.28-0.87-0.42-1.87-0.42-3.01c0-1.14,0.14-2.14,0.42-3.01c0.28-0.87,0.67-1.6,1.18-2.19s1.12-1.03,1.84-1.34    c0.72-0.3,1.51-0.46,2.39-0.46c0.88,0,1.67,0.15,2.39,0.46s1.33,0.75,1.84,1.34c0.51,0.59,0.9,1.32,1.18,2.19    c0.28,0.87,0.42,1.87,0.42,3.01c0,1.14-0.14,2.14-0.42,3.01c-0.28,0.87-0.67,1.6-1.18,2.19c-0.51,0.59-1.12,1.03-1.84,1.34    C736.58,911.25,735.79,911.4,734.91,911.4L734.91,911.4z M734.91,909.46c0.52,0,0.99-0.09,1.42-0.27c0.43-0.18,0.8-0.45,1.1-0.79    c0.3-0.34,0.54-0.76,0.71-1.25c0.17-0.49,0.25-1.05,0.25-1.67v-2.14c0-0.62-0.08-1.18-0.25-1.67c-0.17-0.49-0.4-0.91-0.71-1.25    c-0.3-0.34-0.67-0.6-1.1-0.79c-0.43-0.18-0.91-0.27-1.42-0.27c-0.53,0-1.01,0.09-1.43,0.27c-0.43,0.18-0.79,0.45-1.09,0.79    c-0.3,0.34-0.54,0.76-0.71,1.25c-0.17,0.49-0.25,1.05-0.25,1.67v2.14c0,0.62,0.08,1.18,0.25,1.67c0.17,0.49,0.4,0.91,0.71,1.25    c0.3,0.34,0.67,0.6,1.09,0.79C733.9,909.37,734.38,909.46,734.91,909.46z">
        </path>
        <path class="st5"
          d="M748.69,911.4c-0.88,0-1.67-0.15-2.39-0.45c-0.72-0.3-1.33-0.75-1.84-1.34c-0.51-0.59-0.9-1.32-1.18-2.19    c-0.28-0.87-0.42-1.87-0.42-3.01c0-1.14,0.14-2.14,0.42-3.01c0.28-0.87,0.67-1.6,1.18-2.19c0.51-0.59,1.12-1.03,1.84-1.34    c0.72-0.3,1.51-0.46,2.39-0.46c0.88,0,1.67,0.15,2.39,0.46c0.72,0.3,1.33,0.75,1.84,1.34c0.51,0.59,0.9,1.32,1.18,2.19    c0.28,0.87,0.42,1.87,0.42,3.01c0,1.14-0.14,2.14-0.42,3.01c-0.28,0.87-0.67,1.6-1.18,2.19c-0.51,0.59-1.12,1.03-1.84,1.34    C750.36,911.25,749.57,911.4,748.69,911.4L748.69,911.4z M748.69,909.46c0.52,0,0.99-0.09,1.42-0.27c0.43-0.18,0.8-0.45,1.1-0.79    c0.3-0.34,0.54-0.76,0.71-1.25c0.17-0.49,0.25-1.05,0.25-1.67v-2.14c0-0.62-0.08-1.18-0.25-1.67c-0.17-0.49-0.4-0.91-0.71-1.25    c-0.3-0.34-0.67-0.6-1.1-0.79c-0.43-0.18-0.91-0.27-1.42-0.27c-0.53,0-1.01,0.09-1.43,0.27c-0.43,0.18-0.79,0.45-1.09,0.79    c-0.3,0.34-0.54,0.76-0.71,1.25c-0.17,0.49-0.25,1.05-0.25,1.67v2.14c0,0.62,0.08,1.18,0.25,1.67c0.17,0.49,0.4,0.91,0.71,1.25    c0.3,0.34,0.67,0.6,1.09,0.79C747.68,909.37,748.16,909.46,748.69,909.46z">
        </path>
        <polygon class="st5"
          points="767.58,900.83 767.48,900.83 766.42,903.02 763.46,908.42 760.5,903.02 759.43,900.83 759.34,900.83     759.34,911.17 757.24,911.17 757.24,897.66 759.84,897.66 763.46,904.53 763.57,904.53 767.19,897.66 769.67,897.66     769.67,911.17 767.58,911.17   ">
        </polygon>
        <path class="st5"
          d="M703.83,936.33v-2.63h-6.27v-1.88l5.48-9h2.86v9.15h1.84v1.72h-1.84v2.63H703.83L703.83,936.33z     M699.41,931.97h4.41v-7.16h-0.14L699.41,931.97z">
        </path>
        <path class="st5"
          d="M714.3,936.56c-0.84,0-1.57-0.16-2.19-0.47c-0.62-0.32-1.13-0.77-1.53-1.36c-0.4-0.59-0.7-1.32-0.89-2.19    c-0.19-0.86-0.29-1.85-0.29-2.96c0-1.1,0.1-2.08,0.29-2.95c0.19-0.87,0.49-1.6,0.89-2.2c0.4-0.59,0.91-1.05,1.53-1.36    c0.62-0.32,1.35-0.47,2.19-0.47c1.68,0,2.91,0.61,3.71,1.84c0.79,1.23,1.19,2.94,1.19,5.15c0,2.21-0.4,3.92-1.19,5.15    C717.21,935.95,715.98,936.56,714.3,936.56L714.3,936.56z M714.3,934.7c0.46,0,0.86-0.09,1.19-0.28c0.33-0.19,0.6-0.46,0.8-0.8    c0.21-0.35,0.35-0.76,0.45-1.25c0.09-0.48,0.14-1.02,0.14-1.62v-2.36c0-0.59-0.05-1.13-0.14-1.62c-0.09-0.48-0.24-0.9-0.45-1.25    c-0.21-0.35-0.47-0.62-0.8-0.8c-0.33-0.19-0.73-0.28-1.19-0.28s-0.86,0.09-1.19,0.28c-0.33,0.19-0.6,0.45-0.8,0.8    c-0.21,0.35-0.35,0.76-0.45,1.25c-0.09,0.48-0.14,1.02-0.14,1.62v2.36c0,0.59,0.05,1.13,0.14,1.62c0.09,0.48,0.24,0.9,0.45,1.25    c0.21,0.35,0.47,0.62,0.8,0.8C713.44,934.61,713.83,934.7,714.3,934.7z">
        </path>
        <path class="st5"
          d="M725.91,936.56c-0.79,0-1.48-0.1-2.08-0.3c-0.6-0.2-1.1-0.47-1.51-0.82c-0.41-0.35-0.72-0.76-0.93-1.24    c-0.21-0.48-0.32-0.99-0.32-1.55c0-0.9,0.25-1.63,0.75-2.18c0.5-0.55,1.15-0.93,1.96-1.15v-0.15c-0.7-0.25-1.25-0.63-1.67-1.16    c-0.42-0.53-0.63-1.18-0.63-1.95c0-0.52,0.1-0.99,0.3-1.41c0.2-0.43,0.49-0.79,0.86-1.09c0.37-0.3,0.84-0.54,1.39-0.71    c0.56-0.17,1.18-0.25,1.88-0.25c0.7,0,1.32,0.08,1.88,0.25c0.55,0.17,1.02,0.4,1.39,0.71c0.37,0.3,0.66,0.67,0.86,1.09    c0.2,0.43,0.3,0.9,0.3,1.41c0,0.77-0.21,1.43-0.63,1.95c-0.42,0.53-0.98,0.92-1.67,1.16v0.15c0.81,0.22,1.47,0.6,1.96,1.15    c0.5,0.55,0.74,1.27,0.74,2.18c0,0.56-0.11,1.07-0.32,1.55c-0.21,0.48-0.52,0.89-0.93,1.24c-0.41,0.35-0.91,0.62-1.51,0.82    C727.39,936.46,726.7,936.56,725.91,936.56L725.91,936.56z M725.91,934.8c0.81,0,1.44-0.19,1.89-0.56    c0.45-0.37,0.67-0.9,0.67-1.57v-0.39c0-0.67-0.22-1.19-0.67-1.57c-0.45-0.37-1.07-0.56-1.89-0.56c-0.81,0-1.44,0.19-1.89,0.56    c-0.45,0.37-0.67,0.9-0.67,1.57v0.39c0,0.67,0.22,1.19,0.67,1.57C724.47,934.61,725.1,934.8,725.91,934.8L725.91,934.8z     M725.91,928.47c0.75,0,1.32-0.16,1.71-0.48c0.39-0.32,0.59-0.79,0.59-1.41v-0.33c0-0.62-0.2-1.09-0.59-1.41    c-0.39-0.32-0.96-0.48-1.71-0.48c-0.75,0-1.32,0.16-1.71,0.48c-0.39,0.32-0.59,0.79-0.59,1.41v0.33c0,0.62,0.2,1.09,0.59,1.41    C724.59,928.31,725.16,928.47,725.91,928.47z">
        </path>
      </g>
      <path class="st2"
        d="M425.93,934.48h113.11c15.66,0,28.48-12.81,28.48-28.48l0,0c0-15.66-12.81-28.48-28.48-28.48H425.93   c-15.66,0-28.48,12.81-28.48,28.48l0,0C397.45,921.66,410.27,934.48,425.93,934.48z">
      </path>
      <g>
        <path class="st5"
          d="M432.49,900.52c-1.77,0-3.15-0.6-4.16-1.79c-1.01-1.19-1.51-2.93-1.51-5.2c0-1.14,0.13-2.14,0.39-3    c0.26-0.86,0.63-1.59,1.12-2.19c0.49-0.59,1.09-1.04,1.79-1.35c0.7-0.3,1.49-0.45,2.37-0.45c1.17,0,2.16,0.25,2.95,0.77    c0.79,0.51,1.42,1.27,1.87,2.27l-1.84,1.01c-0.23-0.65-0.59-1.16-1.07-1.54c-0.48-0.38-1.12-0.57-1.91-0.57    c-1.05,0-1.86,0.35-2.46,1.07s-0.89,1.7-0.89,2.95v2.06c0,1.26,0.3,2.24,0.89,2.95c0.59,0.71,1.41,1.07,2.46,1.07    c0.81,0,1.47-0.21,1.98-0.63c0.51-0.42,0.89-0.96,1.13-1.62l1.76,1.06c-0.45,0.98-1.08,1.74-1.9,2.29    C434.65,900.25,433.66,900.52,432.49,900.52z">
        </path>
        <polygon class="st5"
          points="439.69,900.29 439.69,886.78 441.87,886.78 441.87,898.36 447.37,898.36 447.37,900.29   "></polygon>
        <path class="st5"
          d="M458.4,900.29l-1.22-3.66h-5.05l-1.18,3.66h-2.23l4.61-13.51h2.75l4.61,13.51H458.4L458.4,900.29z     M454.7,888.79h-0.1l-1.95,5.96h3.99L454.7,888.79z">
        </path>
        <path class="st5"
          d="M466.82,900.52c-1.14,0-2.1-0.21-2.89-0.62c-0.79-0.41-1.47-0.97-2.04-1.66l1.51-1.41    c0.48,0.58,1,1.02,1.58,1.32c0.57,0.3,1.23,0.45,1.96,0.45c0.86,0,1.52-0.19,1.95-0.58c0.44-0.39,0.66-0.91,0.66-1.57    c0-0.53-0.15-0.95-0.46-1.26c-0.31-0.31-0.86-0.54-1.64-0.7l-1.2-0.21c-1.32-0.25-2.3-0.68-2.96-1.3    c-0.66-0.62-0.99-1.47-0.99-2.55c0-0.59,0.11-1.13,0.34-1.62c0.23-0.48,0.54-0.89,0.95-1.22c0.41-0.33,0.9-0.58,1.48-0.76    c0.58-0.18,1.23-0.27,1.95-0.27c1.02,0,1.9,0.18,2.65,0.53c0.75,0.35,1.39,0.87,1.92,1.54l-1.53,1.35    c-0.35-0.45-0.77-0.81-1.28-1.08c-0.5-0.27-1.13-0.41-1.88-0.41c-0.77,0-1.37,0.15-1.8,0.46c-0.43,0.31-0.64,0.76-0.64,1.35    c0,0.57,0.17,0.99,0.52,1.27c0.35,0.28,0.89,0.49,1.63,0.63l1.2,0.25c1.35,0.26,2.35,0.7,2.97,1.32c0.63,0.62,0.94,1.47,0.94,2.55    c0,0.63-0.11,1.21-0.33,1.72c-0.22,0.52-0.54,0.96-0.96,1.33c-0.42,0.37-0.93,0.65-1.54,0.85    C468.28,900.42,467.59,900.52,466.82,900.52z">
        </path>
        <path class="st5"
          d="M478.16,900.52c-1.14,0-2.1-0.21-2.89-0.62c-0.79-0.41-1.47-0.97-2.04-1.66l1.51-1.41    c0.48,0.58,1,1.02,1.58,1.32c0.57,0.3,1.23,0.45,1.96,0.45c0.86,0,1.52-0.19,1.95-0.58c0.44-0.39,0.66-0.91,0.66-1.57    c0-0.53-0.15-0.95-0.46-1.26c-0.31-0.31-0.86-0.54-1.64-0.7l-1.2-0.21c-1.32-0.25-2.3-0.68-2.96-1.3    c-0.66-0.62-0.99-1.47-0.99-2.55c0-0.59,0.11-1.13,0.34-1.62c0.23-0.48,0.54-0.89,0.95-1.22c0.41-0.33,0.9-0.58,1.48-0.76    c0.58-0.18,1.23-0.27,1.95-0.27c1.02,0,1.9,0.18,2.65,0.53c0.75,0.35,1.39,0.87,1.92,1.54l-1.53,1.35    c-0.35-0.45-0.77-0.81-1.28-1.08c-0.5-0.27-1.13-0.41-1.88-0.41c-0.77,0-1.37,0.15-1.8,0.46c-0.43,0.31-0.64,0.76-0.64,1.35    c0,0.57,0.17,0.99,0.52,1.27c0.35,0.28,0.89,0.49,1.63,0.63l1.2,0.25c1.35,0.26,2.35,0.7,2.97,1.32c0.63,0.62,0.94,1.47,0.94,2.55    c0,0.63-0.11,1.21-0.33,1.72c-0.22,0.52-0.54,0.96-0.96,1.33c-0.42,0.37-0.93,0.65-1.54,0.85    C479.63,900.42,478.94,900.52,478.16,900.52z">
        </path>
        <path class="st5"
          d="M487.88,900.29h-2.19v-13.51h5.83c1.21,0,2.17,0.36,2.86,1.09c0.7,0.73,1.05,1.72,1.05,2.97    c0,0.97-0.22,1.77-0.67,2.41c-0.45,0.64-1.1,1.09-1.96,1.35l2.92,5.69h-2.44l-2.71-5.46h-2.69V900.29L487.88,900.29z     M491.36,892.99c0.55,0,0.99-0.15,1.3-0.43c0.31-0.29,0.46-0.7,0.46-1.25v-0.92c0-0.54-0.15-0.95-0.46-1.25    c-0.31-0.29-0.74-0.43-1.3-0.43h-3.48v4.28H491.36z">
        </path>
        <path class="st5"
          d="M503.4,900.52c-0.88,0-1.67-0.15-2.39-0.45c-0.72-0.3-1.33-0.75-1.84-1.34c-0.51-0.59-0.9-1.32-1.18-2.19    c-0.28-0.87-0.42-1.87-0.42-3.01c0-1.14,0.14-2.14,0.42-3.01c0.28-0.87,0.67-1.6,1.18-2.19c0.51-0.59,1.12-1.03,1.84-1.34    c0.72-0.3,1.51-0.45,2.39-0.45c0.88,0,1.67,0.15,2.39,0.45c0.72,0.3,1.33,0.75,1.84,1.34c0.51,0.59,0.9,1.32,1.18,2.19    c0.28,0.87,0.42,1.87,0.42,3.01c0,1.14-0.14,2.14-0.42,3.01c-0.28,0.87-0.67,1.6-1.18,2.19c-0.51,0.59-1.12,1.03-1.84,1.34    C505.07,900.37,504.28,900.52,503.4,900.52L503.4,900.52z M503.4,898.59c0.52,0,0.99-0.09,1.42-0.27c0.43-0.18,0.8-0.45,1.1-0.79    c0.3-0.35,0.54-0.76,0.71-1.25c0.17-0.49,0.25-1.05,0.25-1.67v-2.14c0-0.62-0.08-1.18-0.25-1.67c-0.17-0.49-0.4-0.91-0.71-1.25    c-0.3-0.34-0.67-0.6-1.1-0.79c-0.43-0.18-0.91-0.27-1.42-0.27c-0.53,0-1.01,0.09-1.43,0.27c-0.43,0.18-0.79,0.45-1.09,0.79    c-0.3,0.35-0.54,0.76-0.71,1.25c-0.17,0.49-0.25,1.05-0.25,1.67v2.14c0,0.62,0.08,1.18,0.25,1.67c0.17,0.49,0.4,0.91,0.71,1.25    c0.3,0.34,0.67,0.6,1.09,0.79C502.39,898.5,502.87,898.59,503.4,898.59z">
        </path>
        <path class="st5"
          d="M517.18,900.52c-0.88,0-1.67-0.15-2.39-0.45c-0.72-0.3-1.33-0.75-1.84-1.34c-0.51-0.59-0.9-1.32-1.18-2.19    c-0.28-0.87-0.42-1.87-0.42-3.01c0-1.14,0.14-2.14,0.42-3.01c0.28-0.87,0.67-1.6,1.18-2.19c0.51-0.59,1.12-1.03,1.84-1.34    c0.72-0.3,1.51-0.45,2.39-0.45c0.88,0,1.67,0.15,2.39,0.45c0.72,0.3,1.33,0.75,1.84,1.34c0.51,0.59,0.9,1.32,1.18,2.19    c0.28,0.87,0.42,1.87,0.42,3.01c0,1.14-0.14,2.14-0.42,3.01c-0.28,0.87-0.67,1.6-1.18,2.19s-1.12,1.03-1.84,1.34    C518.85,900.37,518.06,900.52,517.18,900.52L517.18,900.52z M517.18,898.59c0.52,0,0.99-0.09,1.42-0.27    c0.43-0.18,0.8-0.45,1.1-0.79c0.3-0.35,0.54-0.76,0.71-1.25c0.17-0.49,0.25-1.05,0.25-1.67v-2.14c0-0.62-0.08-1.18-0.25-1.67    c-0.17-0.49-0.4-0.91-0.71-1.25c-0.3-0.34-0.67-0.6-1.1-0.79c-0.43-0.18-0.91-0.27-1.42-0.27c-0.53,0-1.01,0.09-1.43,0.27    c-0.43,0.18-0.79,0.45-1.09,0.79c-0.3,0.35-0.54,0.76-0.71,1.25c-0.17,0.49-0.25,1.05-0.25,1.67v2.14c0,0.62,0.08,1.18,0.25,1.67    c0.17,0.49,0.4,0.91,0.71,1.25c0.3,0.34,0.67,0.6,1.09,0.79C516.17,898.5,516.65,898.59,517.18,898.59z">
        </path>
        <polygon class="st5"
          points="536.07,889.96 535.97,889.96 534.91,892.14 531.95,897.54 528.99,892.14 527.92,889.96     527.82,889.96 527.82,900.29 525.73,900.29 525.73,886.78 528.33,886.78 531.95,893.65 532.06,893.65 535.68,886.78     538.16,886.78 538.16,900.29 536.07,900.29   ">
        </polygon>
        <path class="st5"
          d="M472.32,925.45v-2.63h-6.27v-1.88l5.48-9h2.86v9.15h1.84v1.72h-1.84v2.63H472.32L472.32,925.45z M467.9,921.1    h4.41v-7.16h-0.14L467.9,921.1z">
        </path>
        <path class="st5"
          d="M482.79,925.68c-0.84,0-1.57-0.16-2.19-0.47c-0.62-0.32-1.13-0.77-1.53-1.36c-0.4-0.59-0.7-1.32-0.89-2.19    c-0.19-0.86-0.29-1.85-0.29-2.96c0-1.1,0.1-2.08,0.29-2.95c0.19-0.87,0.49-1.6,0.89-2.2c0.4-0.59,0.91-1.05,1.53-1.36    c0.62-0.32,1.35-0.47,2.19-0.47c1.68,0,2.91,0.61,3.71,1.84c0.79,1.23,1.19,2.94,1.19,5.15c0,2.21-0.4,3.92-1.19,5.15    C485.7,925.07,484.46,925.68,482.79,925.68L482.79,925.68z M482.79,923.83c0.46,0,0.86-0.09,1.19-0.28c0.33-0.19,0.6-0.45,0.8-0.8    c0.21-0.35,0.35-0.76,0.44-1.25c0.09-0.48,0.14-1.02,0.14-1.62v-2.36c0-0.59-0.05-1.13-0.14-1.62c-0.09-0.48-0.24-0.9-0.44-1.25    c-0.21-0.35-0.47-0.62-0.8-0.8c-0.33-0.19-0.73-0.28-1.19-0.28s-0.86,0.09-1.19,0.28c-0.33,0.19-0.6,0.45-0.8,0.8    c-0.21,0.35-0.35,0.76-0.45,1.25c-0.09,0.48-0.14,1.02-0.14,1.62v2.36c0,0.59,0.05,1.13,0.14,1.62c0.09,0.48,0.24,0.9,0.45,1.25    c0.21,0.35,0.47,0.62,0.8,0.8C481.93,923.73,482.32,923.83,482.79,923.83z">
        </path>
        <path class="st5"
          d="M499.12,916.97c0,0.98-0.15,1.9-0.45,2.77c-0.3,0.86-0.68,1.66-1.14,2.38c-0.46,0.72-0.98,1.37-1.56,1.94    c-0.57,0.57-1.14,1.03-1.69,1.39h-2.9c0.76-0.55,1.45-1.09,2.05-1.61c0.61-0.52,1.14-1.05,1.59-1.59    c0.45-0.54,0.83-1.12,1.13-1.72c0.3-0.61,0.54-1.27,0.71-1.99l-0.14-0.04c-0.14,0.27-0.31,0.53-0.49,0.76    c-0.19,0.24-0.41,0.45-0.66,0.63c-0.25,0.18-0.54,0.32-0.86,0.43c-0.32,0.1-0.7,0.15-1.12,0.15c-0.57,0-1.09-0.1-1.58-0.29    c-0.48-0.19-0.9-0.47-1.26-0.84c-0.35-0.37-0.63-0.81-0.83-1.32c-0.2-0.51-0.3-1.09-0.3-1.73c0-0.67,0.11-1.29,0.34-1.86    c0.23-0.57,0.55-1.05,0.96-1.45c0.41-0.4,0.91-0.71,1.49-0.94c0.58-0.23,1.23-0.34,1.95-0.34c0.75,0,1.42,0.12,2,0.37    c0.59,0.24,1.08,0.6,1.49,1.05c0.41,0.46,0.72,1.01,0.94,1.65C499.01,915.43,499.12,916.16,499.12,916.97L499.12,916.97z     M494.36,918.72c0.79,0,1.4-0.21,1.84-0.63c0.44-0.42,0.66-1.04,0.66-1.85v-0.27c0-0.81-0.22-1.43-0.66-1.85    c-0.44-0.42-1.05-0.63-1.84-0.63c-0.79,0-1.4,0.21-1.84,0.63c-0.44,0.42-0.66,1.04-0.66,1.85v0.27c0,0.81,0.22,1.43,0.66,1.85    C492.96,918.51,493.57,918.72,494.36,918.72z">
        </path>
      </g>
      <path class="st2"
        d="M195.97,920.49h113.11c15.66,0,28.48-12.81,28.48-28.48l0,0c0-15.66-12.81-28.48-28.48-28.48H195.97   c-15.66,0-28.48,12.81-28.48,28.48l0,0C167.5,907.68,180.31,920.49,195.97,920.49z">
      </path>
      <g>
        <path class="st5"
          d="M202.53,886.54c-1.77,0-3.15-0.6-4.16-1.79c-1.01-1.19-1.51-2.93-1.51-5.2c0-1.14,0.13-2.14,0.39-3    c0.26-0.86,0.63-1.59,1.12-2.19c0.49-0.59,1.09-1.04,1.79-1.35c0.7-0.3,1.49-0.46,2.37-0.46c1.17,0,2.16,0.25,2.95,0.77    c0.79,0.51,1.42,1.27,1.87,2.27l-1.84,1.01c-0.23-0.65-0.59-1.16-1.07-1.54c-0.48-0.38-1.12-0.57-1.91-0.57    c-1.05,0-1.86,0.35-2.46,1.07c-0.59,0.71-0.89,1.7-0.89,2.95v2.06c0,1.26,0.3,2.24,0.89,2.95c0.59,0.71,1.41,1.07,2.46,1.07    c0.81,0,1.47-0.21,1.98-0.63c0.51-0.42,0.89-0.96,1.13-1.62l1.76,1.06c-0.45,0.98-1.08,1.74-1.9,2.29    C204.7,886.27,203.7,886.54,202.53,886.54z">
        </path>
        <polygon class="st5"
          points="209.73,886.31 209.73,872.8 211.92,872.8 211.92,884.37 217.41,884.37 217.41,886.31   "></polygon>
        <path class="st5"
          d="M228.45,886.31l-1.22-3.66h-5.05l-1.18,3.66h-2.23l4.61-13.51h2.75l4.61,13.51H228.45L228.45,886.31z     M224.75,874.81h-0.1l-1.95,5.96h3.99L224.75,874.81z">
        </path>
        <path class="st5"
          d="M236.86,886.54c-1.14,0-2.1-0.21-2.89-0.62c-0.79-0.41-1.47-0.97-2.04-1.66l1.51-1.41    c0.48,0.58,1,1.02,1.58,1.32c0.57,0.3,1.23,0.45,1.96,0.45c0.86,0,1.52-0.19,1.95-0.58c0.44-0.39,0.66-0.91,0.66-1.57    c0-0.53-0.15-0.95-0.46-1.26c-0.31-0.31-0.86-0.54-1.64-0.7l-1.2-0.21c-1.32-0.25-2.3-0.68-2.96-1.3    c-0.66-0.62-0.99-1.47-0.99-2.55c0-0.59,0.11-1.13,0.34-1.62c0.23-0.48,0.54-0.89,0.95-1.22c0.41-0.33,0.9-0.58,1.48-0.76    c0.58-0.18,1.23-0.27,1.95-0.27c1.02,0,1.9,0.18,2.65,0.53c0.75,0.35,1.39,0.87,1.92,1.54l-1.53,1.35    c-0.35-0.45-0.77-0.81-1.28-1.08c-0.5-0.27-1.13-0.41-1.88-0.41c-0.77,0-1.37,0.15-1.8,0.46c-0.43,0.31-0.64,0.76-0.64,1.35    c0,0.57,0.17,0.99,0.52,1.27c0.35,0.28,0.89,0.49,1.63,0.63l1.2,0.25c1.35,0.26,2.35,0.7,2.97,1.32c0.63,0.62,0.94,1.47,0.94,2.55    c0,0.63-0.11,1.21-0.33,1.72s-0.54,0.96-0.96,1.33c-0.42,0.37-0.93,0.65-1.54,0.85C238.33,886.44,237.64,886.54,236.86,886.54z">
        </path>
        <path class="st5"
          d="M248.21,886.54c-1.14,0-2.1-0.21-2.89-0.62c-0.79-0.41-1.47-0.97-2.04-1.66l1.51-1.41    c0.48,0.58,1,1.02,1.58,1.32c0.57,0.3,1.23,0.45,1.96,0.45c0.86,0,1.52-0.19,1.95-0.58c0.44-0.39,0.66-0.91,0.66-1.57    c0-0.53-0.15-0.95-0.46-1.26c-0.31-0.31-0.86-0.54-1.65-0.7l-1.2-0.21c-1.32-0.25-2.3-0.68-2.96-1.3    c-0.66-0.62-0.99-1.47-0.99-2.55c0-0.59,0.11-1.13,0.34-1.62c0.23-0.48,0.54-0.89,0.95-1.22c0.41-0.33,0.9-0.58,1.48-0.76    c0.58-0.18,1.23-0.27,1.95-0.27c1.02,0,1.9,0.18,2.65,0.53c0.75,0.35,1.39,0.87,1.92,1.54l-1.53,1.35    c-0.35-0.45-0.77-0.81-1.28-1.08c-0.5-0.27-1.13-0.41-1.88-0.41c-0.77,0-1.37,0.15-1.8,0.46c-0.43,0.31-0.64,0.76-0.64,1.35    c0,0.57,0.17,0.99,0.52,1.27c0.35,0.28,0.89,0.49,1.63,0.63l1.2,0.25c1.35,0.26,2.35,0.7,2.97,1.32c0.63,0.62,0.94,1.47,0.94,2.55    c0,0.63-0.11,1.21-0.33,1.72s-0.54,0.96-0.96,1.33c-0.42,0.37-0.93,0.65-1.54,0.85C249.67,886.44,248.98,886.54,248.21,886.54z">
        </path>
        <path class="st5"
          d="M257.92,886.31h-2.19V872.8h5.83c1.21,0,2.17,0.36,2.86,1.09c0.7,0.73,1.05,1.72,1.05,2.97    c0,0.97-0.22,1.77-0.67,2.41c-0.45,0.64-1.1,1.09-1.96,1.35l2.92,5.69h-2.44l-2.71-5.46h-2.69V886.31L257.92,886.31z     M261.41,879.01c0.55,0,0.99-0.15,1.3-0.43c0.31-0.29,0.46-0.7,0.46-1.25v-0.92c0-0.54-0.15-0.96-0.46-1.25    c-0.31-0.29-0.74-0.43-1.3-0.43h-3.48v4.28H261.41z">
        </path>
        <path class="st5"
          d="M273.44,886.54c-0.88,0-1.67-0.15-2.39-0.45c-0.72-0.3-1.33-0.75-1.84-1.34c-0.51-0.59-0.9-1.32-1.18-2.19    c-0.28-0.87-0.42-1.87-0.42-3.01c0-1.14,0.14-2.14,0.42-3.01c0.28-0.87,0.67-1.6,1.18-2.19c0.51-0.59,1.12-1.03,1.84-1.34    c0.72-0.3,1.51-0.46,2.39-0.46c0.88,0,1.67,0.15,2.39,0.46c0.72,0.3,1.33,0.75,1.84,1.34c0.51,0.59,0.9,1.32,1.18,2.19    c0.28,0.87,0.42,1.87,0.42,3.01c0,1.14-0.14,2.14-0.42,3.01c-0.28,0.87-0.67,1.6-1.18,2.19c-0.51,0.59-1.12,1.03-1.84,1.34    C275.12,886.39,274.32,886.54,273.44,886.54L273.44,886.54z M273.44,884.6c0.52,0,0.99-0.09,1.42-0.27    c0.43-0.18,0.8-0.45,1.1-0.79c0.3-0.35,0.54-0.76,0.71-1.25c0.17-0.49,0.25-1.05,0.25-1.67v-2.14c0-0.62-0.08-1.18-0.25-1.67    c-0.17-0.49-0.4-0.91-0.71-1.25c-0.3-0.34-0.67-0.6-1.1-0.79c-0.43-0.18-0.91-0.27-1.42-0.27c-0.53,0-1.01,0.09-1.43,0.27    c-0.43,0.18-0.79,0.45-1.09,0.79c-0.3,0.35-0.54,0.76-0.71,1.25c-0.17,0.49-0.25,1.05-0.25,1.67v2.14c0,0.62,0.08,1.18,0.25,1.67    c0.17,0.49,0.4,0.91,0.71,1.25c0.3,0.34,0.67,0.6,1.09,0.79C272.44,884.51,272.91,884.6,273.44,884.6z">
        </path>
        <path class="st5"
          d="M287.22,886.54c-0.88,0-1.67-0.15-2.39-0.45c-0.72-0.3-1.33-0.75-1.84-1.34c-0.51-0.59-0.9-1.32-1.18-2.19    c-0.28-0.87-0.42-1.87-0.42-3.01c0-1.14,0.14-2.14,0.42-3.01c0.28-0.87,0.67-1.6,1.18-2.19c0.51-0.59,1.12-1.03,1.84-1.34    c0.72-0.3,1.51-0.46,2.39-0.46c0.88,0,1.67,0.15,2.39,0.46c0.72,0.3,1.33,0.75,1.84,1.34c0.51,0.59,0.9,1.32,1.18,2.19    c0.28,0.87,0.42,1.87,0.42,3.01c0,1.14-0.14,2.14-0.42,3.01c-0.28,0.87-0.67,1.6-1.18,2.19c-0.51,0.59-1.12,1.03-1.84,1.34    C288.9,886.39,288.1,886.54,287.22,886.54L287.22,886.54z M287.22,884.6c0.52,0,0.99-0.09,1.42-0.27c0.43-0.18,0.8-0.45,1.1-0.79    c0.3-0.35,0.54-0.76,0.71-1.25c0.17-0.49,0.25-1.05,0.25-1.67v-2.14c0-0.62-0.08-1.18-0.25-1.67c-0.17-0.49-0.4-0.91-0.71-1.25    c-0.3-0.34-0.67-0.6-1.1-0.79c-0.43-0.18-0.91-0.27-1.42-0.27c-0.53,0-1.01,0.09-1.43,0.27c-0.43,0.18-0.79,0.45-1.09,0.79    c-0.3,0.35-0.54,0.76-0.71,1.25c-0.17,0.49-0.25,1.05-0.25,1.67v2.14c0,0.62,0.08,1.18,0.25,1.67c0.17,0.49,0.4,0.91,0.71,1.25    c0.3,0.34,0.67,0.6,1.09,0.79C286.22,884.51,286.69,884.6,287.22,884.6z">
        </path>
        <polygon class="st5"
          points="306.11,875.97 306.02,875.97 304.95,878.16 301.99,883.56 299.03,878.16 297.96,875.97     297.87,875.97 297.87,886.31 295.78,886.31 295.78,872.8 298.37,872.8 301.99,879.67 302.11,879.67 305.73,872.8 308.2,872.8     308.2,886.31 306.11,886.31   ">
        </polygon>
        <path class="st5"
          d="M242.36,911.47v-2.63h-6.27v-1.88l5.48-9h2.86v9.15h1.84v1.72h-1.84v2.63H242.36L242.36,911.47z     M237.95,907.11h4.41v-7.16h-0.14L237.95,907.11z">
        </path>
        <polygon class="st5"
          points="248.73,911.47 248.73,909.65 252.52,909.65 252.52,899.55 252.37,899.55 249.23,902.89 247.9,901.69     251.34,897.96 254.67,897.96 254.67,909.65 257.96,909.65 257.96,911.47   ">
        </polygon>
        <path class="st5"
          d="M264.44,911.7c-0.84,0-1.57-0.16-2.19-0.47c-0.62-0.32-1.13-0.77-1.53-1.36c-0.4-0.59-0.7-1.32-0.89-2.19    c-0.19-0.86-0.29-1.85-0.29-2.96c0-1.1,0.1-2.08,0.29-2.95c0.19-0.87,0.49-1.6,0.89-2.2c0.4-0.59,0.91-1.05,1.53-1.36    c0.62-0.32,1.35-0.47,2.19-0.47c1.68,0,2.91,0.61,3.71,1.84c0.79,1.23,1.19,2.94,1.19,5.15c0,2.21-0.4,3.92-1.19,5.15    C267.36,911.09,266.12,911.7,264.44,911.7L264.44,911.7z M264.44,909.84c0.46,0,0.86-0.09,1.19-0.28c0.33-0.19,0.6-0.45,0.8-0.8    c0.21-0.35,0.35-0.76,0.45-1.25c0.09-0.48,0.14-1.02,0.14-1.62v-2.36c0-0.59-0.05-1.13-0.14-1.62c-0.09-0.48-0.24-0.9-0.45-1.25    c-0.21-0.35-0.47-0.62-0.8-0.8c-0.33-0.19-0.73-0.28-1.19-0.28s-0.86,0.09-1.19,0.28c-0.33,0.19-0.6,0.45-0.8,0.8    c-0.21,0.35-0.35,0.76-0.45,1.25c-0.09,0.48-0.14,1.02-0.14,1.62v2.36c0,0.59,0.05,1.13,0.14,1.62c0.09,0.48,0.24,0.9,0.45,1.25    c0.21,0.35,0.47,0.62,0.8,0.8C263.58,909.75,263.98,909.84,264.44,909.84z">
        </path>
      </g>
    </g>

    <!---->

    <defs>
      <filter id="dropShadow794918">
        <feDropShadow dx="0" dy="0" stdDeviation="2" flood-opacity="0.2"></feDropShadow>
      </filter>
    </defs>

    

    <!---->
    

    <!---->
    <!---->
    <!---->
    <rect role="button" x="951.4984130859375" y="80.95993041992188" width="509.5712890625" height="300.0279846191406"
      opacity="0" class="cursor-pointer"></rect>



    <defs>
      <filter id="dropShadow794967">
        <feDropShadow dx="0" dy="0" stdDeviation="2" flood-opacity="0.2"></feDropShadow>
      </filter>
    </defs>

    

    <!---->
    

    <!---->
    <!---->
    <!---->
    <rect role="button" x="1337.2486572265625" y="811.9805297851562" width="214.3056640625" height="288.12213134765625"
      opacity="0" class="cursor-pointer"></rect>



    <defs>
      <filter id="dropShadow794966">
        <feDropShadow dx="0" dy="0" stdDeviation="2" flood-opacity="0.2"></feDropShadow>
      </filter>
    </defs>

    

    <!---->
    

    <!---->
    <!---->
    <!---->
    <rect role="button" x="1103.8935546875" y="795.312255859375" width="209.5433349609375" height="288.1221923828125"
      opacity="0" class="cursor-pointer"></rect>



    <defs>
      <filter id="dropShadow794945">
        <feDropShadow dx="0" dy="0" stdDeviation="2" flood-opacity="0.2"></feDropShadow>
      </filter>
    </defs>

    

    <!---->
    

    <!---->
    <!---->
    <!---->
    <rect role="button" x="841.96435546875" y="781.0252685546875" width="245.260986328125" height="283.3597412109375"
      opacity="0" class="cursor-pointer"></rect>



    <defs>
      <filter id="dropShadow794946">
        <feDropShadow dx="0" dy="0" stdDeviation="2" flood-opacity="0.2"></feDropShadow>
      </filter>
    </defs>

    

    <!---->
    

    <!---->
    <!---->
    <!---->
    <rect role="button" x="615.7528076171875" y="773.8817138671875" width="211.92449951171875"
      height="276.2161865234375" opacity="0" class="cursor-pointer"></rect>



    <defs>
      <filter id="dropShadow794947">
        <feDropShadow dx="0" dy="0" stdDeviation="2" flood-opacity="0.2"></feDropShadow>
      </filter>
    </defs>

    

    <!---->
    

    <!---->
    <!---->
    <!---->
    <rect role="button" x="384.77886962890625" y="754.8323364257812" width="207.16217041015625"
      height="288.12213134765625" opacity="0" class="cursor-pointer"></rect>



    <defs>
      <filter id="dropShadow794948">
        <feDropShadow dx="0" dy="0" stdDeviation="2" flood-opacity="0.2"></feDropShadow>
      </filter>
    </defs>

    

    <!---->
    

    <!---->
    <!---->
    <!---->
    <rect role="button" x="144.2802276611328" y="745.3076171875" width="219.0680694580078" height="280.9786376953125"
      opacity="0" class="cursor-pointer"></rect>



    <defs>
      <filter id="dropShadow794949">
        <feDropShadow dx="0" dy="0" stdDeviation="2" flood-opacity="0.2"></feDropShadow>
      </filter>
    </defs>

    

    <!---->
    

    <!---->
    <!---->
    <!---->
    <rect role="button" x="32.36503219604492" y="83.34111022949219" width="233.3550910949707" height="280.9785919189453"
      opacity="0" class="cursor-pointer"></rect>



    <defs>
      <filter id="dropShadow794950">
        <feDropShadow dx="0" dy="0" stdDeviation="2" flood-opacity="0.2"></feDropShadow>
      </filter>
    </defs>

    

    <!---->
    

    <!---->
    <!---->
    <!---->
    <rect role="button" x="280.0071716308594" y="83.34111022949219" width="216.6868896484375" height="288.1221160888672"
      opacity="0" class="cursor-pointer"></rect>



    <defs>
      <filter id="dropShadow794963">
        <feDropShadow dx="0" dy="0" stdDeviation="2" flood-opacity="0.2"></feDropShadow>
      </filter>
    </defs>

    

    <!---->
    

    <!---->
    <!---->
    <!---->
    <rect role="button" x="263.3389587402344" y="461.9478454589844" width="366.7008972167969"
      height="202.39987182617188" opacity="0" class="cursor-pointer"></rect>


  </g>
</svg>