<svg viewBox="-490.18371323529414 0 2664.1474264705885 1190.55" xmlns="http://www.w3.org/2000/svg">

  <defs>
    <style type="text/css">
      .st0 {
        fill-rule: evenodd;
        clip-rule: evenodd;
        fill: #F0F5FB;
        stroke: #87A3B8;
        stroke-width: 9.6001;
        stroke-linecap: round;
        stroke-linejoin: round;
        stroke-miterlimit: 2.6131;
      }

      .st1 {
        fill-rule: evenodd;
        clip-rule: evenodd;
        fill: none;
        stroke: #87A3B8;
        stroke-width: 1.9199;
        stroke-linecap: round;
        stroke-linejoin: round;
        stroke-miterlimit: 2.6131;
        stroke-dasharray: 1.9199, 3.8398;
      }

      .st2 {
        fill-rule: evenodd;
        clip-rule: evenodd;
        fill: #D6E5EF;
      }

      .st3 {
        fill-rule: evenodd;
        clip-rule: evenodd;
        fill: #A9C2CC;
      }

      .st4 {
        fill-rule: evenodd;
        clip-rule: evenodd;
        fill: #F0F5FB;
      }

      .st5 {
        fill-rule: evenodd;
        clip-rule: evenodd;
        fill: #010005;
      }

      .st6 {
        fill-rule: evenodd;
        clip-rule: evenodd;
        fill: #87A3B8;
      }
    </style>
  </defs>

  <g transform="rotate(0)">

    <g>
      <path class="st0"
        d="M27.04,79.59h1533.56h45.06c10.03,0,19.6,4.2,26.39,11.58c6.79,7.38,10.18,17.27,9.35,27.26v60.6l15.27,4.09   v928.16l-1534.85-82.35l1.55-40.4l-96.33-3.11L51.9,637.39l138.28,9.32V460.26H27.04V79.59z">
      </path>
      <path class="st1"
        d="M27.04,367.04h26.41 M87.64,367.04H226.7 M260.88,367.04h17.09 M312.16,367.04H455.1 M489.29,367.04h11.65   V79.59 M379.65,751.27l-15.59,290.67 M608.24,764.49l-15.54,289.71 M840.55,777.94l-15.49,288.73v0 M1100.7,792.99l-15.43,287.64h0    M1333.75,806.47l-15.38,286.66h0 M1566.82,819.96l6.02-90.95l83.84,3.49 M123.38,988.54l20.2-250.93l18.65,1.08 M196.4,740.67   l141.52,8.19 M372.1,750.83l20.85,1.21 M427.14,754.02l138.14,7.99 M599.46,763.99l19.56,1.13 M653.21,767.1l137.51,7.96    M824.9,777.03l25.75,1.49 M884.84,780.5l169.24,9.79 M1088.26,792.27l32.83,1.9 M1155.28,796.15l134.98,7.81 M1324.44,805.93   l24.08,1.39 M1382.7,809.31l137.49,7.96 M1554.38,819.24l12.44,0.72l-15.33,285.69h0 M631.46,459.49v218.19l-0.03,0.64    M1641.4,179.03h-71.47 M1569.93,79.59v382.23h86.75 M1273.16,383.35V79.59 M1078.16,383.35V79.59 M949.2,79.59v303.76h4.66    M988.05,383.35h177.13 M1233.54,383.35h178.68 M1446.41,383.35h14.76V79.59 M702.15,381.02h83.13 M702.15,311.88v69.14h-62.93   v-69.14 M702.15,301h81.57 M783.73,215.54V331.3 M702.15,215.54h116.53 M601.55,311.88V79.59 M500.94,311.88h201.21V79.59    M272.54,367.04V79.59 M584.94,459.49h907.3v265.69l-907.3-49.38 M550.76,673.93l-285.99-15.57V459.49h285.99">
      </path>
      <path class="st2"
        d="M1507.55,196.03v8.39h-8.39v8.39h-8.39v8.39h-8.39v10.43c23.73,0,47.47,0,71.2,0v-71.2h-10.43v8.39h-8.39v8.39   h-8.39v8.39h-8.39v10.43H1507.55L1507.55,196.03z M1483.4,211.92l-2.88-2.88l7.37-7.37H1484v-4.07h10.84v10.84h-4.07v-3.88   L1483.4,211.92z">
      </path>
      <path class="st2"
        d="M768.99,145.54v8.39h8.39v8.39h8.39v8.39h8.39v10.43c-23.73,0-47.47,0-71.2,0v-71.2h10.43v8.39h8.39v8.39h8.39   v8.39h8.39v10.43H768.99L768.99,145.54z M793.14,161.42l2.88-2.88l-7.37-7.37h3.88v-4.07H781.7v10.84h4.07v-3.88L793.14,161.42z">
      </path>
      <path class="st2"
        d="M74.06,831.52v8.39h-8.39v8.39h-8.39v8.39h-8.39v10.43c23.73,0,47.47,0,71.2,0v-71.2h-10.43v8.39h-8.39v8.39   h-8.39v8.39h-8.39v10.43H74.06L74.06,831.52z M49.91,847.41l-2.88-2.88l7.37-7.37h-3.88v-4.07h10.83v10.84h-4.07v-3.88   L49.91,847.41z">
      </path>
      <g>
        <path class="st3"
          d="M760.06,289.38h-35.65c-4.02,0-7.3-3.29-7.3-7.3v-50.99c0-4.02,3.28-7.3,7.3-7.3h35.65    c4.02,0,7.3,3.29,7.3,7.3v50.99C767.36,286.09,764.07,289.38,760.06,289.38z">
        </path>
        <path class="st4"
          d="M743.52,251.31h-2.67v-6.82l-1.8,1.8l-1.89-1.89l5.02-5.02l5.02,5.02l-1.89,1.89l-1.8-1.8V251.31    L743.52,251.31z M743.61,261.85h-2.67v6.82l-1.8-1.8l-1.89,1.89l5.02,5.02l5.02-5.02l-1.89-1.89l-1.8,1.8V261.85z">
        </path>
      </g>
      <path class="st2"
        d="M97.18,257.04h113.11c15.66,0,28.48-12.81,28.48-28.48l0,0c0-15.66-12.81-28.48-28.48-28.48H97.18   c-15.66,0-28.48,12.81-28.48,28.48l0,0C68.7,244.23,81.51,257.04,97.18,257.04z">
      </path>
      <g>
        <path class="st5"
          d="M103.73,223.09c-1.77,0-3.15-0.6-4.16-1.79c-1.01-1.19-1.51-2.93-1.51-5.2c0-1.14,0.13-2.14,0.39-3    c0.26-0.86,0.63-1.59,1.12-2.19c0.49-0.59,1.09-1.04,1.79-1.35c0.7-0.3,1.49-0.45,2.37-0.45c1.17,0,2.16,0.25,2.95,0.77    c0.79,0.51,1.42,1.27,1.87,2.27l-1.84,1.01c-0.23-0.65-0.59-1.16-1.07-1.54c-0.48-0.38-1.12-0.57-1.91-0.57    c-1.05,0-1.86,0.35-2.46,1.07c-0.59,0.71-0.89,1.7-0.89,2.95v2.06c0,1.26,0.3,2.24,0.89,2.95c0.59,0.71,1.41,1.07,2.46,1.07    c0.81,0,1.47-0.21,1.98-0.63c0.51-0.42,0.89-0.96,1.13-1.62l1.76,1.06c-0.45,0.98-1.08,1.74-1.9,2.29    C105.9,222.82,104.9,223.09,103.73,223.09z">
        </path>
        <polygon class="st5"
          points="110.93,222.86 110.93,209.35 113.12,209.35 113.12,220.92 118.61,220.92 118.61,222.86   "></polygon>
        <path class="st5"
          d="M129.65,222.86l-1.22-3.66h-5.05l-1.18,3.66h-2.23l4.61-13.51h2.75l4.61,13.51H129.65L129.65,222.86z     M125.95,211.36h-0.1l-1.95,5.96h3.99L125.95,211.36z">
        </path>
        <path class="st5"
          d="M138.06,223.09c-1.14,0-2.1-0.21-2.89-0.62c-0.79-0.41-1.47-0.97-2.04-1.66l1.51-1.41    c0.48,0.58,1,1.02,1.58,1.32c0.57,0.3,1.23,0.45,1.96,0.45c0.86,0,1.52-0.19,1.95-0.58c0.44-0.39,0.66-0.91,0.66-1.57    c0-0.53-0.15-0.95-0.46-1.26c-0.31-0.31-0.86-0.54-1.65-0.7l-1.2-0.21c-1.32-0.25-2.3-0.68-2.96-1.3    c-0.66-0.62-0.99-1.47-0.99-2.55c0-0.59,0.11-1.13,0.34-1.62c0.23-0.48,0.54-0.89,0.95-1.22c0.41-0.33,0.9-0.58,1.48-0.76    c0.58-0.18,1.23-0.27,1.95-0.27c1.02,0,1.9,0.18,2.65,0.53c0.75,0.35,1.39,0.87,1.92,1.54l-1.53,1.35    c-0.35-0.45-0.77-0.81-1.28-1.08c-0.5-0.27-1.13-0.41-1.88-0.41c-0.77,0-1.37,0.15-1.8,0.46c-0.43,0.31-0.64,0.76-0.64,1.35    c0,0.57,0.17,0.99,0.52,1.27c0.35,0.28,0.89,0.49,1.63,0.63l1.2,0.25c1.35,0.26,2.35,0.7,2.97,1.32c0.63,0.62,0.94,1.47,0.94,2.55    c0,0.63-0.11,1.21-0.33,1.72c-0.22,0.52-0.54,0.96-0.96,1.33c-0.42,0.37-0.93,0.65-1.54,0.85    C139.53,222.99,138.84,223.09,138.06,223.09z">
        </path>
        <path class="st5"
          d="M149.41,223.09c-1.14,0-2.1-0.21-2.89-0.62c-0.79-0.41-1.47-0.97-2.04-1.66l1.51-1.41    c0.48,0.58,1,1.02,1.58,1.32c0.57,0.3,1.23,0.45,1.96,0.45c0.86,0,1.52-0.19,1.95-0.58c0.44-0.39,0.66-0.91,0.66-1.57    c0-0.53-0.15-0.95-0.46-1.26c-0.31-0.31-0.86-0.54-1.65-0.7l-1.2-0.21c-1.32-0.25-2.3-0.68-2.96-1.3    c-0.66-0.62-0.99-1.47-0.99-2.55c0-0.59,0.11-1.13,0.34-1.62c0.23-0.48,0.54-0.89,0.95-1.22c0.41-0.33,0.9-0.58,1.48-0.76    c0.58-0.18,1.23-0.27,1.95-0.27c1.02,0,1.9,0.18,2.65,0.53c0.75,0.35,1.39,0.87,1.92,1.54l-1.53,1.35    c-0.35-0.45-0.77-0.81-1.28-1.08c-0.5-0.27-1.13-0.41-1.88-0.41c-0.77,0-1.37,0.15-1.8,0.46c-0.43,0.31-0.64,0.76-0.64,1.35    c0,0.57,0.17,0.99,0.52,1.27c0.35,0.28,0.89,0.49,1.63,0.63l1.2,0.25c1.35,0.26,2.35,0.7,2.97,1.32c0.63,0.62,0.94,1.47,0.94,2.55    c0,0.63-0.11,1.21-0.33,1.72c-0.22,0.52-0.54,0.96-0.96,1.33c-0.42,0.37-0.93,0.65-1.54,0.85    C150.87,222.99,150.18,223.09,149.41,223.09z">
        </path>
        <path class="st5"
          d="M159.12,222.86h-2.19v-13.51h5.83c1.21,0,2.17,0.36,2.86,1.09c0.7,0.73,1.05,1.72,1.05,2.97    c0,0.97-0.22,1.77-0.67,2.41c-0.45,0.64-1.1,1.09-1.96,1.35l2.92,5.69h-2.44l-2.71-5.46h-2.69V222.86L159.12,222.86z     M162.61,215.56c0.55,0,0.99-0.15,1.3-0.43c0.31-0.29,0.46-0.7,0.46-1.25v-0.92c0-0.54-0.15-0.96-0.46-1.25    c-0.31-0.29-0.74-0.43-1.3-0.43h-3.48v4.28H162.61z">
        </path>
        <path class="st5"
          d="M174.64,223.09c-0.88,0-1.67-0.15-2.39-0.45c-0.72-0.3-1.33-0.75-1.84-1.34c-0.51-0.59-0.9-1.32-1.18-2.19    c-0.28-0.87-0.42-1.87-0.42-3.01c0-1.14,0.14-2.14,0.42-3.01c0.28-0.87,0.67-1.6,1.18-2.19c0.51-0.59,1.12-1.03,1.84-1.34    c0.72-0.3,1.51-0.45,2.39-0.45c0.88,0,1.67,0.15,2.39,0.45c0.72,0.3,1.33,0.75,1.84,1.34c0.51,0.59,0.9,1.32,1.18,2.19    c0.28,0.87,0.42,1.87,0.42,3.01c0,1.14-0.14,2.14-0.42,3.01c-0.28,0.87-0.67,1.6-1.18,2.19c-0.51,0.59-1.12,1.03-1.84,1.34    C176.32,222.94,175.52,223.09,174.64,223.09L174.64,223.09z M174.64,221.15c0.52,0,0.99-0.09,1.42-0.27    c0.43-0.18,0.8-0.45,1.1-0.79c0.3-0.34,0.54-0.76,0.71-1.25c0.17-0.49,0.25-1.05,0.25-1.67v-2.14c0-0.62-0.08-1.18-0.25-1.67    c-0.17-0.49-0.4-0.91-0.71-1.25c-0.3-0.34-0.67-0.6-1.1-0.79c-0.43-0.18-0.91-0.27-1.42-0.27c-0.53,0-1.01,0.09-1.43,0.27    c-0.43,0.18-0.79,0.44-1.09,0.79c-0.3,0.35-0.54,0.76-0.71,1.25c-0.17,0.49-0.25,1.05-0.25,1.67v2.14c0,0.62,0.08,1.18,0.25,1.67    c0.17,0.49,0.4,0.91,0.71,1.25c0.3,0.34,0.67,0.6,1.09,0.79C173.64,221.06,174.11,221.15,174.64,221.15z">
        </path>
        <path class="st5"
          d="M188.42,223.09c-0.88,0-1.67-0.15-2.39-0.45c-0.72-0.3-1.33-0.75-1.84-1.34c-0.51-0.59-0.9-1.32-1.18-2.19    c-0.28-0.87-0.42-1.87-0.42-3.01c0-1.14,0.14-2.14,0.42-3.01c0.28-0.87,0.67-1.6,1.18-2.19c0.51-0.59,1.12-1.03,1.84-1.34    c0.72-0.3,1.51-0.45,2.39-0.45c0.88,0,1.67,0.15,2.39,0.45c0.72,0.3,1.33,0.75,1.84,1.34c0.51,0.59,0.9,1.32,1.18,2.19    c0.28,0.87,0.42,1.87,0.42,3.01c0,1.14-0.14,2.14-0.42,3.01c-0.28,0.87-0.67,1.6-1.18,2.19c-0.51,0.59-1.12,1.03-1.84,1.34    C190.1,222.94,189.3,223.09,188.42,223.09L188.42,223.09z M188.42,221.15c0.52,0,0.99-0.09,1.42-0.27c0.43-0.18,0.8-0.45,1.1-0.79    c0.3-0.34,0.54-0.76,0.71-1.25c0.17-0.49,0.25-1.05,0.25-1.67v-2.14c0-0.62-0.08-1.18-0.25-1.67c-0.17-0.49-0.4-0.91-0.71-1.25    c-0.3-0.34-0.67-0.6-1.1-0.79c-0.43-0.18-0.91-0.27-1.42-0.27c-0.53,0-1.01,0.09-1.43,0.27c-0.43,0.18-0.79,0.44-1.09,0.79    c-0.3,0.35-0.54,0.76-0.71,1.25c-0.17,0.49-0.25,1.05-0.25,1.67v2.14c0,0.62,0.08,1.18,0.25,1.67c0.17,0.49,0.4,0.91,0.71,1.25    c0.3,0.34,0.67,0.6,1.09,0.79C187.42,221.06,187.89,221.15,188.42,221.15z">
        </path>
        <polygon class="st5"
          points="207.31,212.52 207.22,212.52 206.15,214.71 203.19,220.11 200.23,214.71 199.16,212.52     199.07,212.52 199.07,222.86 196.98,222.86 196.98,209.35 199.57,209.35 203.19,216.22 203.31,216.22 206.93,209.35 209.4,209.35     209.4,222.86 207.31,222.86   ">
        </polygon>
        <path class="st5"
          d="M146.44,236.41h-6l-0.35,4.78h0.14c0.15-0.27,0.32-0.51,0.48-0.73c0.17-0.21,0.36-0.4,0.58-0.55    c0.22-0.15,0.47-0.27,0.75-0.36c0.28-0.08,0.62-0.13,1.01-0.13c0.58,0,1.12,0.1,1.62,0.29c0.5,0.19,0.93,0.47,1.3,0.83    c0.37,0.36,0.65,0.8,0.86,1.33c0.21,0.52,0.31,1.11,0.31,1.77c0,0.67-0.11,1.29-0.32,1.86c-0.21,0.57-0.53,1.05-0.94,1.46    c-0.41,0.41-0.92,0.72-1.52,0.95c-0.6,0.23-1.28,0.34-2.04,0.34c-0.61,0-1.14-0.07-1.61-0.2c-0.46-0.14-0.87-0.32-1.23-0.54    c-0.35-0.23-0.66-0.48-0.93-0.77c-0.26-0.29-0.5-0.59-0.71-0.9l1.59-1.26c0.17,0.27,0.34,0.52,0.52,0.74    c0.18,0.22,0.39,0.41,0.62,0.58c0.23,0.17,0.49,0.3,0.78,0.39c0.29,0.09,0.62,0.14,1,0.14c0.8,0,1.42-0.22,1.85-0.66    c0.43-0.44,0.65-1.05,0.65-1.82v-0.23c0-0.77-0.22-1.38-0.65-1.82c-0.43-0.44-1.05-0.66-1.85-0.66c-0.58,0-1.05,0.11-1.39,0.33    c-0.35,0.22-0.65,0.46-0.89,0.74l-1.8-0.25l0.5-7.53h7.66V236.41z">
        </path>
        <polygon class="st5"
          points="149.93,248.02 149.93,246.2 153.72,246.2 153.72,236.1 153.57,236.1 150.43,239.44 149.1,238.24     152.54,234.51 155.87,234.51 155.87,246.2 159.16,246.2 159.16,248.02   ">
        </polygon>
        <polygon class="st5"
          points="161.54,248.02 161.54,246.2 165.33,246.2 165.33,236.1 165.18,236.1 162.04,239.44 160.71,238.24     164.15,234.51 167.48,234.51 167.48,246.2 170.77,246.2 170.77,248.02   ">
        </polygon>
      </g>
      <path class="st2"
        d="M329.46,257.04h113.11c15.66,0,28.48-12.81,28.48-28.48l0,0c0-15.66-12.81-28.48-28.48-28.48H329.46   c-15.66,0-28.48,12.81-28.48,28.48l0,0C300.99,244.23,313.8,257.04,329.46,257.04z">
      </path>
      <g>
        <path class="st5"
          d="M336.02,223.09c-1.77,0-3.15-0.6-4.16-1.79c-1.01-1.19-1.51-2.93-1.51-5.2c0-1.14,0.13-2.14,0.39-3    c0.26-0.86,0.63-1.59,1.12-2.19c0.49-0.59,1.09-1.04,1.79-1.35c0.7-0.3,1.49-0.45,2.37-0.45c1.17,0,2.16,0.25,2.95,0.77    c0.79,0.51,1.42,1.27,1.87,2.27l-1.84,1.01c-0.23-0.65-0.59-1.16-1.07-1.54c-0.48-0.38-1.12-0.57-1.91-0.57    c-1.05,0-1.86,0.35-2.46,1.07s-0.89,1.7-0.89,2.95v2.06c0,1.26,0.3,2.24,0.89,2.95s1.41,1.07,2.46,1.07    c0.81,0,1.47-0.21,1.98-0.63c0.51-0.42,0.89-0.96,1.13-1.62l1.76,1.06c-0.45,0.98-1.08,1.74-1.9,2.29    C338.18,222.82,337.19,223.09,336.02,223.09z">
        </path>
        <polygon class="st5"
          points="343.22,222.86 343.22,209.35 345.4,209.35 345.4,220.92 350.9,220.92 350.9,222.86   "></polygon>
        <path class="st5"
          d="M361.93,222.86l-1.22-3.66h-5.05l-1.18,3.66h-2.23l4.61-13.51h2.75l4.61,13.51H361.93L361.93,222.86z     M358.24,211.36h-0.1l-1.95,5.96h3.99L358.24,211.36z">
        </path>
        <path class="st5"
          d="M370.35,223.09c-1.14,0-2.1-0.21-2.89-0.62c-0.79-0.41-1.47-0.97-2.04-1.66l1.51-1.41    c0.48,0.58,1,1.02,1.58,1.32c0.57,0.3,1.23,0.45,1.96,0.45c0.86,0,1.52-0.19,1.95-0.58c0.44-0.39,0.66-0.91,0.66-1.57    c0-0.53-0.15-0.95-0.46-1.26c-0.31-0.31-0.86-0.54-1.65-0.7l-1.2-0.21c-1.32-0.25-2.3-0.68-2.96-1.3    c-0.66-0.62-0.99-1.47-0.99-2.55c0-0.59,0.11-1.13,0.34-1.62c0.23-0.48,0.54-0.89,0.95-1.22c0.41-0.33,0.9-0.58,1.48-0.76    c0.58-0.18,1.23-0.27,1.95-0.27c1.02,0,1.9,0.18,2.65,0.53c0.75,0.35,1.39,0.87,1.92,1.54l-1.53,1.35    c-0.35-0.45-0.77-0.81-1.28-1.08c-0.5-0.27-1.13-0.41-1.88-0.41c-0.77,0-1.37,0.15-1.8,0.46c-0.43,0.31-0.64,0.76-0.64,1.35    c0,0.57,0.17,0.99,0.52,1.27c0.35,0.28,0.89,0.49,1.63,0.63l1.2,0.25c1.35,0.26,2.35,0.7,2.97,1.32c0.63,0.62,0.94,1.47,0.94,2.55    c0,0.63-0.11,1.21-0.33,1.72c-0.22,0.52-0.54,0.96-0.96,1.33c-0.42,0.37-0.93,0.65-1.54,0.85    C371.82,222.99,371.13,223.09,370.35,223.09z">
        </path>
        <path class="st5"
          d="M381.69,223.09c-1.14,0-2.1-0.21-2.89-0.62c-0.79-0.41-1.47-0.97-2.04-1.66l1.51-1.41    c0.48,0.58,1,1.02,1.58,1.32c0.57,0.3,1.23,0.45,1.96,0.45c0.86,0,1.52-0.19,1.95-0.58c0.44-0.39,0.66-0.91,0.66-1.57    c0-0.53-0.15-0.95-0.46-1.26c-0.31-0.31-0.86-0.54-1.64-0.7l-1.2-0.21c-1.32-0.25-2.3-0.68-2.96-1.3    c-0.66-0.62-0.99-1.47-0.99-2.55c0-0.59,0.11-1.13,0.34-1.62c0.23-0.48,0.54-0.89,0.95-1.22c0.41-0.33,0.9-0.58,1.48-0.76    c0.58-0.18,1.23-0.27,1.95-0.27c1.02,0,1.9,0.18,2.65,0.53c0.75,0.35,1.39,0.87,1.92,1.54l-1.53,1.35    c-0.35-0.45-0.77-0.81-1.28-1.08c-0.5-0.27-1.13-0.41-1.88-0.41c-0.77,0-1.37,0.15-1.8,0.46c-0.43,0.31-0.64,0.76-0.64,1.35    c0,0.57,0.17,0.99,0.52,1.27c0.35,0.28,0.89,0.49,1.63,0.63l1.2,0.25c1.35,0.26,2.35,0.7,2.97,1.32c0.63,0.62,0.94,1.47,0.94,2.55    c0,0.63-0.11,1.21-0.33,1.72c-0.22,0.52-0.54,0.96-0.96,1.33c-0.42,0.37-0.93,0.65-1.54,0.85    C383.16,222.99,382.47,223.09,381.69,223.09z">
        </path>
        <path class="st5"
          d="M391.41,222.86h-2.19v-13.51h5.83c1.21,0,2.17,0.36,2.86,1.09c0.7,0.73,1.05,1.72,1.05,2.97    c0,0.97-0.22,1.77-0.67,2.41c-0.45,0.64-1.1,1.09-1.96,1.35l2.92,5.69h-2.44l-2.71-5.46h-2.69V222.86L391.41,222.86z     M394.89,215.56c0.55,0,0.99-0.15,1.3-0.43c0.31-0.29,0.46-0.7,0.46-1.25v-0.92c0-0.54-0.15-0.96-0.46-1.25    c-0.31-0.29-0.74-0.43-1.3-0.43h-3.48v4.28H394.89z">
        </path>
        <path class="st5"
          d="M406.93,223.09c-0.88,0-1.67-0.15-2.39-0.45c-0.72-0.3-1.33-0.75-1.84-1.34c-0.51-0.59-0.9-1.32-1.18-2.19    c-0.28-0.87-0.42-1.87-0.42-3.01c0-1.14,0.14-2.14,0.42-3.01c0.28-0.87,0.67-1.6,1.18-2.19c0.51-0.59,1.12-1.03,1.84-1.34    c0.72-0.3,1.51-0.45,2.39-0.45c0.88,0,1.67,0.15,2.39,0.45c0.72,0.3,1.33,0.75,1.84,1.34c0.51,0.59,0.9,1.32,1.18,2.19    c0.28,0.87,0.42,1.87,0.42,3.01c0,1.14-0.14,2.14-0.42,3.01c-0.28,0.87-0.67,1.6-1.18,2.19c-0.51,0.59-1.12,1.03-1.84,1.34    C408.61,222.94,407.81,223.09,406.93,223.09L406.93,223.09z M406.93,221.15c0.52,0,0.99-0.09,1.42-0.27    c0.43-0.18,0.8-0.45,1.1-0.79c0.3-0.34,0.54-0.76,0.71-1.25c0.17-0.49,0.25-1.05,0.25-1.67v-2.14c0-0.62-0.08-1.18-0.25-1.67    c-0.17-0.49-0.4-0.91-0.71-1.25c-0.3-0.34-0.67-0.6-1.1-0.79c-0.43-0.18-0.91-0.27-1.42-0.27c-0.53,0-1.01,0.09-1.43,0.27    c-0.43,0.18-0.79,0.44-1.09,0.79c-0.3,0.35-0.54,0.76-0.71,1.25c-0.17,0.49-0.25,1.05-0.25,1.67v2.14c0,0.62,0.08,1.18,0.25,1.67    c0.17,0.49,0.4,0.91,0.71,1.25c0.3,0.34,0.67,0.6,1.09,0.79C405.92,221.06,406.4,221.15,406.93,221.15z">
        </path>
        <path class="st5"
          d="M420.71,223.09c-0.88,0-1.67-0.15-2.39-0.45c-0.72-0.3-1.33-0.75-1.84-1.34c-0.51-0.59-0.9-1.32-1.18-2.19    c-0.28-0.87-0.42-1.87-0.42-3.01c0-1.14,0.14-2.14,0.42-3.01c0.28-0.87,0.67-1.6,1.18-2.19c0.51-0.59,1.12-1.03,1.84-1.34    c0.72-0.3,1.51-0.45,2.39-0.45c0.88,0,1.67,0.15,2.39,0.45s1.33,0.75,1.84,1.34c0.51,0.59,0.9,1.32,1.18,2.19    c0.28,0.87,0.42,1.87,0.42,3.01c0,1.14-0.14,2.14-0.42,3.01c-0.28,0.87-0.67,1.6-1.18,2.19c-0.51,0.59-1.12,1.03-1.84,1.34    C422.39,222.94,421.59,223.09,420.71,223.09L420.71,223.09z M420.71,221.15c0.52,0,0.99-0.09,1.42-0.27    c0.43-0.18,0.8-0.45,1.1-0.79c0.3-0.34,0.54-0.76,0.71-1.25c0.17-0.49,0.25-1.05,0.25-1.67v-2.14c0-0.62-0.08-1.18-0.25-1.67    c-0.17-0.49-0.4-0.91-0.71-1.25c-0.3-0.34-0.67-0.6-1.1-0.79c-0.43-0.18-0.91-0.27-1.42-0.27c-0.53,0-1.01,0.09-1.43,0.27    c-0.43,0.18-0.79,0.44-1.09,0.79c-0.3,0.35-0.54,0.76-0.71,1.25c-0.17,0.49-0.25,1.05-0.25,1.67v2.14c0,0.62,0.08,1.18,0.25,1.67    c0.17,0.49,0.4,0.91,0.71,1.25c0.3,0.34,0.67,0.6,1.09,0.79C419.7,221.06,420.18,221.15,420.71,221.15z">
        </path>
        <polygon class="st5"
          points="439.6,212.52 439.5,212.52 438.44,214.71 435.48,220.11 432.52,214.71 431.45,212.52 431.36,212.52     431.36,222.86 429.27,222.86 429.27,209.35 431.86,209.35 435.48,216.22 435.59,216.22 439.21,209.35 441.69,209.35     441.69,222.86 439.6,222.86   ">
        </polygon>
        <path class="st5"
          d="M378.73,236.41h-6l-0.35,4.78h0.14c0.15-0.27,0.32-0.51,0.48-0.73c0.17-0.21,0.36-0.4,0.58-0.55    c0.22-0.15,0.47-0.27,0.75-0.36c0.28-0.08,0.62-0.13,1.01-0.13c0.58,0,1.12,0.1,1.62,0.29c0.5,0.19,0.93,0.47,1.3,0.83    c0.37,0.36,0.65,0.8,0.86,1.33c0.21,0.52,0.31,1.11,0.31,1.77c0,0.67-0.11,1.29-0.32,1.86c-0.21,0.57-0.53,1.05-0.94,1.46    c-0.41,0.41-0.92,0.72-1.52,0.95c-0.6,0.23-1.28,0.34-2.04,0.34c-0.61,0-1.14-0.07-1.61-0.2c-0.46-0.14-0.87-0.32-1.23-0.54    c-0.35-0.23-0.66-0.48-0.93-0.77c-0.26-0.29-0.5-0.59-0.71-0.9l1.59-1.26c0.17,0.27,0.34,0.52,0.52,0.74    c0.18,0.22,0.39,0.41,0.62,0.58c0.23,0.17,0.49,0.3,0.78,0.39c0.29,0.09,0.62,0.14,1,0.14c0.8,0,1.42-0.22,1.85-0.66    c0.43-0.44,0.65-1.05,0.65-1.82v-0.23c0-0.77-0.22-1.38-0.65-1.82c-0.43-0.44-1.05-0.66-1.85-0.66c-0.58,0-1.05,0.11-1.39,0.33    c-0.35,0.22-0.65,0.46-0.89,0.74l-1.8-0.25l0.5-7.53h7.66V236.41z">
        </path>
        <polygon class="st5"
          points="382.22,248.02 382.22,246.2 386.01,246.2 386.01,236.1 385.85,236.1 382.72,239.44 381.38,238.24     384.83,234.51 388.16,234.51 388.16,246.2 391.45,246.2 391.45,248.02   ">
        </polygon>
        <path class="st5"
          d="M402.6,248.02h-9.17v-2.09l4.32-3.85c0.68-0.62,1.21-1.21,1.58-1.77c0.37-0.56,0.55-1.15,0.55-1.77v-0.25    c0-0.66-0.2-1.17-0.59-1.55c-0.39-0.37-0.93-0.56-1.6-0.56c-0.37,0-0.7,0.05-0.98,0.16c-0.28,0.11-0.52,0.26-0.73,0.45    c-0.21,0.19-0.38,0.42-0.51,0.68c-0.14,0.26-0.24,0.54-0.32,0.83l-1.92-0.74c0.14-0.43,0.34-0.84,0.58-1.23    c0.25-0.39,0.55-0.75,0.93-1.05c0.37-0.31,0.82-0.56,1.33-0.74c0.51-0.18,1.11-0.27,1.79-0.27c0.68,0,1.3,0.1,1.84,0.3    c0.54,0.2,1,0.48,1.36,0.83c0.37,0.35,0.65,0.78,0.84,1.27c0.19,0.49,0.29,1.03,0.29,1.61c0,0.54-0.08,1.05-0.25,1.51    c-0.17,0.46-0.4,0.9-0.7,1.32c-0.3,0.41-0.64,0.81-1.04,1.18c-0.39,0.37-0.81,0.75-1.25,1.14l-3.17,2.73h6.81V248.02z">
        </path>
      </g>
      <path class="st6"
        d="M551.34,179.05c9.69,0,17.55,7.86,17.55,17.55s-7.86,17.55-17.55,17.55s-17.55-7.86-17.55-17.55   S541.65,179.05,551.34,179.05L551.34,179.05z M555.07,192.55h-7.46c-1.65,0-2.73,2.24-1.99,4.15l4.21,10.86   c0.57,1.47,2.45,1.47,3.02,0l4.21-10.86C557.8,194.8,556.72,192.55,555.07,192.55L555.07,192.55z M551.34,191.16   c1.83,0,3.31-1.48,3.31-3.31c0-1.83-1.48-3.31-3.31-3.31c-1.83,0-3.31,1.48-3.31,3.31C548.03,189.67,549.51,191.16,551.34,191.16z">
      </path>
      <path class="st6"
        d="M647.53,179.05c9.69,0,17.55,7.86,17.55,17.55c0,9.69-7.86,17.55-17.55,17.55c-9.69,0-17.55-7.86-17.55-17.55   C629.99,186.91,637.84,179.05,647.53,179.05L647.53,179.05z M647.53,191.35c1.77,0,3.2-1.43,3.2-3.2c0-1.77-1.43-3.2-3.2-3.2   c-1.76,0-3.2,1.43-3.2,3.2C644.34,189.92,645.77,191.35,647.53,191.35L647.53,191.35z M643.02,208.24h9.03   c1.59,0,2.63-1.98,1.92-3.66l-4.77-11.07c-0.22-0.63-0.81-1.05-1.47-1.05h-0.33c-0.66,0-1.24,0.42-1.46,1.04l-4.84,11.08   C640.39,206.26,641.42,208.24,643.02,208.24z">
      </path>
      <path class="st2"
        d="M1119.19,261.69h113.11c15.66,0,28.48-12.81,28.48-28.48l0,0c0-15.66-12.81-28.48-28.48-28.48h-113.11   c-15.66,0-28.48,12.81-28.48,28.48l0,0C1090.71,248.87,1103.53,261.69,1119.19,261.69z">
      </path>
      <g>
        <path class="st5"
          d="M1125.74,227.73c-1.77,0-3.15-0.6-4.16-1.79c-1.01-1.19-1.51-2.93-1.51-5.2c0-1.14,0.13-2.14,0.39-3    c0.26-0.86,0.63-1.59,1.12-2.19s1.09-1.04,1.79-1.35c0.7-0.3,1.49-0.46,2.37-0.46c1.17,0,2.16,0.25,2.95,0.77    c0.79,0.51,1.42,1.27,1.87,2.27l-1.84,1.01c-0.23-0.65-0.59-1.16-1.07-1.54c-0.48-0.38-1.12-0.57-1.91-0.57    c-1.05,0-1.86,0.35-2.46,1.07c-0.59,0.71-0.89,1.7-0.89,2.95v2.06c0,1.26,0.3,2.24,0.89,2.95c0.59,0.71,1.41,1.07,2.46,1.07    c0.81,0,1.47-0.21,1.98-0.63c0.51-0.42,0.89-0.96,1.13-1.62l1.76,1.06c-0.45,0.98-1.08,1.74-1.9,2.29    C1127.91,227.46,1126.92,227.73,1125.74,227.73z">
        </path>
        <polygon class="st5"
          points="1132.94,227.5 1132.94,213.99 1135.13,213.99 1135.13,225.57 1140.63,225.57 1140.63,227.5   "></polygon>
        <path class="st5"
          d="M1151.66,227.5l-1.22-3.66h-5.05l-1.18,3.66h-2.23l4.61-13.51h2.75l4.61,13.51H1151.66L1151.66,227.5z     M1147.96,216h-0.1l-1.95,5.96h3.99L1147.96,216z">
        </path>
        <path class="st5"
          d="M1160.08,227.73c-1.14,0-2.1-0.21-2.89-0.62c-0.79-0.41-1.47-0.97-2.04-1.66l1.51-1.41    c0.48,0.58,1,1.02,1.58,1.32c0.57,0.3,1.23,0.45,1.96,0.45c0.86,0,1.52-0.19,1.95-0.58c0.44-0.39,0.66-0.91,0.66-1.57    c0-0.53-0.15-0.95-0.46-1.26c-0.31-0.31-0.86-0.54-1.64-0.7l-1.2-0.21c-1.32-0.25-2.3-0.68-2.96-1.3    c-0.66-0.62-0.99-1.47-0.99-2.55c0-0.59,0.11-1.13,0.34-1.62c0.23-0.48,0.54-0.89,0.95-1.22c0.41-0.33,0.9-0.58,1.48-0.76    c0.58-0.18,1.23-0.27,1.95-0.27c1.02,0,1.9,0.18,2.65,0.53c0.75,0.35,1.39,0.87,1.92,1.54l-1.53,1.35    c-0.35-0.45-0.77-0.81-1.28-1.08c-0.5-0.27-1.13-0.41-1.88-0.41c-0.77,0-1.37,0.15-1.8,0.46c-0.43,0.31-0.64,0.76-0.64,1.35    c0,0.57,0.17,0.99,0.52,1.27c0.35,0.28,0.89,0.49,1.63,0.63l1.2,0.25c1.35,0.26,2.35,0.7,2.97,1.32c0.63,0.62,0.94,1.47,0.94,2.55    c0,0.63-0.11,1.21-0.33,1.72c-0.22,0.52-0.54,0.96-0.96,1.33c-0.42,0.37-0.93,0.65-1.54,0.85    C1161.54,227.63,1160.85,227.73,1160.08,227.73z">
        </path>
        <path class="st5"
          d="M1171.42,227.73c-1.14,0-2.1-0.21-2.89-0.62c-0.79-0.41-1.47-0.97-2.04-1.66l1.51-1.41    c0.48,0.58,1,1.02,1.58,1.32c0.57,0.3,1.23,0.45,1.96,0.45c0.86,0,1.52-0.19,1.95-0.58c0.44-0.39,0.66-0.91,0.66-1.57    c0-0.53-0.15-0.95-0.46-1.26c-0.31-0.31-0.86-0.54-1.65-0.7l-1.2-0.21c-1.32-0.25-2.3-0.68-2.96-1.3    c-0.66-0.62-0.99-1.47-0.99-2.55c0-0.59,0.11-1.13,0.34-1.62c0.23-0.48,0.54-0.89,0.95-1.22c0.41-0.33,0.9-0.58,1.48-0.76    c0.58-0.18,1.23-0.27,1.95-0.27c1.02,0,1.9,0.18,2.65,0.53c0.75,0.35,1.39,0.87,1.92,1.54l-1.53,1.35    c-0.35-0.45-0.77-0.81-1.28-1.08c-0.5-0.27-1.13-0.41-1.88-0.41c-0.77,0-1.37,0.15-1.8,0.46c-0.43,0.31-0.64,0.76-0.64,1.35    c0,0.57,0.17,0.99,0.52,1.27c0.35,0.28,0.89,0.49,1.63,0.63l1.2,0.25c1.35,0.26,2.35,0.7,2.97,1.32c0.63,0.62,0.94,1.47,0.94,2.55    c0,0.63-0.11,1.21-0.33,1.72c-0.22,0.52-0.54,0.96-0.96,1.33c-0.42,0.37-0.93,0.65-1.54,0.85    C1172.89,227.63,1172.19,227.73,1171.42,227.73z">
        </path>
        <path class="st5"
          d="M1181.14,227.5h-2.19v-13.51h5.83c1.21,0,2.17,0.36,2.86,1.09c0.7,0.73,1.05,1.72,1.05,2.97    c0,0.97-0.22,1.77-0.67,2.41c-0.45,0.64-1.1,1.09-1.96,1.35l2.92,5.69h-2.44l-2.71-5.46h-2.69V227.5L1181.14,227.5z     M1184.62,220.2c0.55,0,0.99-0.15,1.3-0.43c0.31-0.29,0.46-0.7,0.46-1.25v-0.92c0-0.54-0.15-0.96-0.46-1.25    c-0.31-0.29-0.74-0.43-1.3-0.43h-3.48v4.28H1184.62z">
        </path>
        <path class="st5"
          d="M1196.66,227.73c-0.88,0-1.67-0.15-2.39-0.45c-0.72-0.3-1.33-0.75-1.84-1.34c-0.51-0.59-0.9-1.32-1.18-2.19    c-0.28-0.87-0.42-1.87-0.42-3.01c0-1.14,0.14-2.14,0.42-3.01c0.28-0.87,0.67-1.6,1.18-2.19c0.51-0.59,1.12-1.03,1.84-1.34    c0.72-0.3,1.51-0.46,2.39-0.46c0.88,0,1.67,0.15,2.39,0.46c0.72,0.3,1.33,0.75,1.84,1.34c0.51,0.59,0.9,1.32,1.18,2.19    c0.28,0.87,0.42,1.87,0.42,3.01c0,1.14-0.14,2.14-0.42,3.01c-0.28,0.87-0.67,1.6-1.18,2.19c-0.51,0.59-1.12,1.03-1.84,1.34    C1198.33,227.58,1197.54,227.73,1196.66,227.73L1196.66,227.73z M1196.66,225.8c0.52,0,0.99-0.09,1.42-0.27    c0.43-0.18,0.8-0.45,1.1-0.79c0.3-0.35,0.54-0.76,0.71-1.25c0.17-0.49,0.25-1.05,0.25-1.67v-2.14c0-0.62-0.08-1.18-0.25-1.67    c-0.17-0.49-0.4-0.91-0.71-1.25c-0.3-0.34-0.67-0.6-1.1-0.79c-0.43-0.18-0.91-0.27-1.42-0.27c-0.53,0-1.01,0.09-1.43,0.27    c-0.43,0.18-0.79,0.45-1.09,0.79c-0.3,0.35-0.54,0.76-0.71,1.25c-0.17,0.49-0.25,1.05-0.25,1.67v2.14c0,0.62,0.08,1.18,0.25,1.67    c0.17,0.49,0.4,0.91,0.71,1.25c0.3,0.34,0.67,0.6,1.09,0.79C1195.65,225.71,1196.13,225.8,1196.66,225.8z">
        </path>
        <path class="st5"
          d="M1210.44,227.73c-0.88,0-1.67-0.15-2.39-0.45c-0.72-0.3-1.33-0.75-1.84-1.34c-0.51-0.59-0.9-1.32-1.18-2.19    c-0.28-0.87-0.42-1.87-0.42-3.01c0-1.14,0.14-2.14,0.42-3.01c0.28-0.87,0.67-1.6,1.18-2.19c0.51-0.59,1.12-1.03,1.84-1.34    c0.72-0.3,1.51-0.46,2.39-0.46c0.88,0,1.67,0.15,2.39,0.46c0.72,0.3,1.33,0.75,1.84,1.34c0.51,0.59,0.9,1.32,1.18,2.19    c0.28,0.87,0.42,1.87,0.42,3.01c0,1.14-0.14,2.14-0.42,3.01c-0.28,0.87-0.67,1.6-1.18,2.19c-0.51,0.59-1.12,1.03-1.84,1.34    C1212.11,227.58,1211.32,227.73,1210.44,227.73L1210.44,227.73z M1210.44,225.8c0.52,0,0.99-0.09,1.42-0.27    c0.43-0.18,0.8-0.45,1.1-0.79c0.3-0.35,0.54-0.76,0.71-1.25c0.17-0.49,0.25-1.05,0.25-1.67v-2.14c0-0.62-0.08-1.18-0.25-1.67    c-0.17-0.49-0.4-0.91-0.71-1.25c-0.3-0.34-0.67-0.6-1.1-0.79c-0.43-0.18-0.91-0.27-1.42-0.27c-0.53,0-1.01,0.09-1.43,0.27    c-0.43,0.18-0.79,0.45-1.09,0.79c-0.3,0.35-0.54,0.76-0.71,1.25c-0.17,0.49-0.25,1.05-0.25,1.67v2.14c0,0.62,0.08,1.18,0.25,1.67    c0.17,0.49,0.4,0.91,0.71,1.25c0.3,0.34,0.67,0.6,1.09,0.79C1209.43,225.71,1209.91,225.8,1210.44,225.8z">
        </path>
        <polygon class="st5"
          points="1229.33,217.17 1229.23,217.17 1228.17,219.35 1225.21,224.75 1222.24,219.35 1221.18,217.17     1221.08,217.17 1221.08,227.5 1218.99,227.5 1218.99,213.99 1221.59,213.99 1225.21,220.86 1225.32,220.86 1228.94,213.99     1231.42,213.99 1231.42,227.5 1229.33,227.5   ">
        </polygon>
        <path class="st5"
          d="M1147.16,241.05h-6l-0.35,4.78h0.14c0.15-0.27,0.32-0.51,0.48-0.73c0.17-0.21,0.36-0.4,0.58-0.55    s0.47-0.27,0.75-0.36c0.28-0.08,0.62-0.13,1.01-0.13c0.58,0,1.12,0.1,1.62,0.29c0.5,0.19,0.93,0.47,1.3,0.83    c0.37,0.36,0.65,0.8,0.86,1.33c0.21,0.52,0.31,1.11,0.31,1.77c0,0.67-0.11,1.29-0.32,1.86c-0.21,0.57-0.53,1.05-0.94,1.46    c-0.41,0.41-0.92,0.72-1.52,0.95c-0.6,0.23-1.28,0.34-2.04,0.34c-0.61,0-1.14-0.07-1.61-0.2c-0.46-0.14-0.87-0.32-1.23-0.54    c-0.35-0.23-0.66-0.48-0.93-0.77c-0.26-0.29-0.5-0.59-0.71-0.9l1.59-1.26c0.17,0.27,0.34,0.52,0.52,0.74s0.39,0.41,0.62,0.58    c0.23,0.17,0.49,0.3,0.78,0.39c0.29,0.09,0.62,0.14,1,0.14c0.8,0,1.42-0.22,1.85-0.66c0.43-0.44,0.65-1.05,0.65-1.82v-0.23    c0-0.77-0.22-1.38-0.65-1.82c-0.43-0.44-1.05-0.66-1.85-0.66c-0.58,0-1.05,0.11-1.39,0.33c-0.35,0.22-0.65,0.46-0.89,0.74    l-1.8-0.25l0.5-7.53h7.66V241.05z">
        </path>
        <path class="st5"
          d="M1154.75,252.89c-0.84,0-1.57-0.16-2.19-0.47c-0.62-0.32-1.13-0.77-1.53-1.36c-0.4-0.59-0.7-1.32-0.89-2.19    c-0.19-0.86-0.29-1.85-0.29-2.96c0-1.1,0.1-2.08,0.29-2.95c0.19-0.87,0.49-1.6,0.89-2.2c0.4-0.59,0.91-1.05,1.53-1.36    c0.62-0.32,1.35-0.47,2.19-0.47c1.68,0,2.91,0.61,3.71,1.84c0.79,1.23,1.19,2.94,1.19,5.15c0,2.21-0.4,3.92-1.19,5.15    C1157.66,252.28,1156.42,252.89,1154.75,252.89L1154.75,252.89z M1154.75,251.04c0.46,0,0.86-0.09,1.19-0.28    c0.33-0.19,0.6-0.45,0.8-0.8c0.21-0.35,0.35-0.76,0.44-1.25c0.09-0.48,0.14-1.02,0.14-1.62v-2.36c0-0.59-0.05-1.13-0.14-1.62    c-0.09-0.48-0.24-0.9-0.44-1.25c-0.21-0.35-0.47-0.62-0.8-0.8s-0.73-0.28-1.19-0.28s-0.86,0.09-1.19,0.28s-0.6,0.45-0.8,0.8    c-0.21,0.35-0.35,0.76-0.45,1.25c-0.09,0.48-0.14,1.02-0.14,1.62v2.36c0,0.59,0.05,1.13,0.14,1.62c0.09,0.48,0.24,0.9,0.45,1.25    c0.21,0.35,0.47,0.62,0.8,0.8C1153.89,250.94,1154.28,251.04,1154.75,251.04z">
        </path>
        <polygon class="st5"
          points="1162.26,252.66 1162.26,250.84 1166.05,250.84 1166.05,240.74 1165.89,240.74 1162.76,244.09     1161.42,242.89 1164.87,239.15 1168.2,239.15 1168.2,250.84 1171.49,250.84 1171.49,252.66   ">
        </polygon>
        <rect x="1173.37" y="245.69" class="st5" width="5.36" height="2.15"></rect>
        <path class="st5"
          d="M1189.76,241.05h-6l-0.35,4.78h0.14c0.15-0.27,0.32-0.51,0.48-0.73c0.17-0.21,0.36-0.4,0.58-0.55    c0.22-0.15,0.47-0.27,0.75-0.36c0.28-0.08,0.62-0.13,1.01-0.13c0.58,0,1.12,0.1,1.62,0.29c0.5,0.19,0.93,0.47,1.3,0.83    c0.37,0.36,0.65,0.8,0.86,1.33c0.21,0.52,0.31,1.11,0.31,1.77c0,0.67-0.11,1.29-0.32,1.86c-0.21,0.57-0.53,1.05-0.94,1.46    c-0.41,0.41-0.92,0.72-1.52,0.95c-0.6,0.23-1.28,0.34-2.04,0.34c-0.61,0-1.14-0.07-1.61-0.2c-0.46-0.14-0.87-0.32-1.23-0.54    c-0.35-0.23-0.66-0.48-0.93-0.77c-0.26-0.29-0.5-0.59-0.71-0.9l1.59-1.26c0.17,0.27,0.34,0.52,0.52,0.74s0.39,0.41,0.62,0.58    c0.23,0.17,0.49,0.3,0.78,0.39c0.29,0.09,0.62,0.14,1,0.14c0.8,0,1.42-0.22,1.85-0.66c0.43-0.44,0.65-1.05,0.65-1.82v-0.23    c0-0.77-0.22-1.38-0.65-1.82c-0.43-0.44-1.05-0.66-1.85-0.66c-0.58,0-1.05,0.11-1.39,0.33c-0.35,0.22-0.65,0.46-0.89,0.74    l-1.8-0.25l0.5-7.53h7.66V241.05z">
        </path>
        <path class="st5"
          d="M1197.35,252.89c-0.84,0-1.57-0.16-2.19-0.47c-0.62-0.32-1.13-0.77-1.53-1.36c-0.4-0.59-0.7-1.32-0.89-2.19    c-0.19-0.86-0.29-1.85-0.29-2.96c0-1.1,0.1-2.08,0.29-2.95c0.19-0.87,0.49-1.6,0.89-2.2c0.4-0.59,0.91-1.05,1.53-1.36    c0.62-0.32,1.35-0.47,2.19-0.47c1.68,0,2.91,0.61,3.71,1.84c0.79,1.23,1.19,2.94,1.19,5.15c0,2.21-0.4,3.92-1.19,5.15    C1200.26,252.28,1199.02,252.89,1197.35,252.89L1197.35,252.89z M1197.35,251.04c0.46,0,0.86-0.09,1.19-0.28    c0.33-0.19,0.6-0.45,0.8-0.8c0.21-0.35,0.35-0.76,0.45-1.25c0.09-0.48,0.14-1.02,0.14-1.62v-2.36c0-0.59-0.05-1.13-0.14-1.62    c-0.09-0.48-0.24-0.9-0.45-1.25c-0.21-0.35-0.47-0.62-0.8-0.8s-0.73-0.28-1.19-0.28s-0.86,0.09-1.19,0.28s-0.6,0.45-0.8,0.8    c-0.21,0.35-0.35,0.76-0.45,1.25c-0.09,0.48-0.14,1.02-0.14,1.62v2.36c0,0.59,0.05,1.13,0.14,1.62c0.09,0.48,0.24,0.9,0.45,1.25    c0.21,0.35,0.47,0.62,0.8,0.8C1196.48,250.94,1196.88,251.04,1197.35,251.04z">
        </path>
        <path class="st5"
          d="M1213.62,252.66h-9.17v-2.09l4.32-3.85c0.68-0.62,1.21-1.21,1.58-1.77c0.37-0.56,0.55-1.15,0.55-1.77v-0.25    c0-0.66-0.2-1.17-0.59-1.55c-0.39-0.37-0.93-0.56-1.6-0.56c-0.37,0-0.7,0.06-0.98,0.16c-0.28,0.11-0.52,0.26-0.73,0.45    c-0.21,0.19-0.38,0.42-0.51,0.68c-0.14,0.26-0.24,0.54-0.32,0.83l-1.92-0.74c0.14-0.43,0.34-0.84,0.58-1.23    c0.25-0.39,0.55-0.75,0.93-1.05c0.37-0.31,0.82-0.56,1.33-0.74c0.51-0.18,1.11-0.27,1.79-0.27c0.68,0,1.3,0.1,1.84,0.3    c0.54,0.2,1,0.48,1.36,0.83c0.37,0.35,0.65,0.78,0.84,1.27c0.19,0.49,0.29,1.03,0.29,1.61c0,0.54-0.08,1.05-0.25,1.51    c-0.17,0.46-0.4,0.9-0.7,1.32c-0.3,0.41-0.64,0.81-1.04,1.18c-0.39,0.37-0.81,0.75-1.25,1.14l-3.17,2.73h6.81V252.66z">
        </path>
      </g>
      <path class="st2"
        d="M382.22,586.42h124.84c15.66,0,28.48-12.81,28.48-28.48l0,0c0-15.66-12.81-28.48-28.48-28.48H382.22   c-15.66,0-28.48,12.81-28.48,28.48l0,0C353.74,573.61,366.56,586.42,382.22,586.42z">
      </path>
      <g>
        <path class="st5"
          d="M437.35,540.62h-6L431,545.4h0.14c0.15-0.27,0.32-0.51,0.48-0.73c0.17-0.21,0.36-0.4,0.58-0.55    c0.22-0.15,0.47-0.27,0.75-0.36c0.28-0.08,0.62-0.13,1.01-0.13c0.58,0,1.12,0.1,1.62,0.29c0.5,0.19,0.93,0.47,1.3,0.83    c0.37,0.36,0.65,0.8,0.86,1.33c0.21,0.52,0.31,1.11,0.31,1.77c0,0.67-0.11,1.29-0.32,1.86c-0.21,0.57-0.53,1.05-0.94,1.46    c-0.41,0.41-0.92,0.72-1.52,0.95c-0.6,0.23-1.28,0.34-2.04,0.34c-0.61,0-1.14-0.07-1.61-0.2c-0.46-0.14-0.87-0.32-1.23-0.54    c-0.35-0.23-0.66-0.48-0.93-0.77c-0.26-0.29-0.5-0.59-0.71-0.9l1.59-1.26c0.17,0.27,0.34,0.52,0.52,0.74    c0.18,0.22,0.39,0.41,0.62,0.58c0.23,0.17,0.49,0.3,0.78,0.39c0.29,0.09,0.62,0.14,1,0.14c0.8,0,1.42-0.22,1.85-0.66    c0.43-0.44,0.65-1.05,0.65-1.82v-0.23c0-0.77-0.22-1.38-0.65-1.82c-0.43-0.44-1.05-0.66-1.85-0.66c-0.58,0-1.05,0.11-1.39,0.33    c-0.35,0.22-0.65,0.46-0.89,0.74l-1.8-0.25l0.5-7.53h7.66V540.62z">
        </path>
        <polygon class="st5"
          points="440.83,552.24 440.83,550.42 444.63,550.42 444.63,540.31 444.47,540.31 441.34,543.66 440,542.46     443.45,538.73 446.78,538.73 446.78,550.42 450.07,550.42 450.07,552.24   ">
        </polygon>
        <path class="st5"
          d="M455.82,544.28c0.84,0,1.46-0.18,1.86-0.53c0.4-0.35,0.6-0.81,0.6-1.36v-0.14c0-0.62-0.19-1.09-0.58-1.42    c-0.39-0.33-0.91-0.49-1.57-0.49c-0.65,0-1.19,0.15-1.65,0.44c-0.45,0.29-0.83,0.69-1.14,1.21l-1.45-1.26    c0.21-0.3,0.44-0.58,0.7-0.85c0.26-0.27,0.56-0.51,0.91-0.71c0.35-0.2,0.74-0.36,1.18-0.48c0.44-0.12,0.94-0.18,1.51-0.18    c0.63,0,1.22,0.08,1.76,0.23c0.54,0.15,1.01,0.38,1.39,0.69c0.39,0.3,0.69,0.67,0.91,1.1s0.33,0.92,0.33,1.46    c0,0.43-0.07,0.81-0.2,1.16s-0.32,0.65-0.56,0.92c-0.24,0.26-0.52,0.48-0.83,0.65c-0.32,0.17-0.65,0.29-1,0.37v0.1    c0.39,0.08,0.75,0.2,1.09,0.38c0.34,0.17,0.64,0.4,0.9,0.68c0.26,0.28,0.46,0.61,0.61,0.99c0.15,0.38,0.22,0.82,0.22,1.31    c0,0.59-0.12,1.13-0.35,1.62c-0.23,0.48-0.56,0.9-0.98,1.25c-0.42,0.35-0.93,0.62-1.52,0.8c-0.59,0.19-1.25,0.28-1.97,0.28    c-0.63,0-1.19-0.07-1.66-0.2c-0.48-0.14-0.9-0.32-1.27-0.54c-0.37-0.23-0.69-0.48-0.97-0.77c-0.28-0.29-0.52-0.59-0.73-0.9    l1.61-1.26c0.17,0.27,0.35,0.52,0.53,0.75c0.19,0.23,0.4,0.42,0.64,0.58c0.24,0.16,0.51,0.29,0.81,0.38    c0.3,0.09,0.65,0.14,1.04,0.14c0.83,0,1.46-0.2,1.9-0.59c0.44-0.39,0.66-0.94,0.66-1.64v-0.14c0-0.7-0.23-1.23-0.7-1.59    c-0.46-0.36-1.12-0.54-1.97-0.54h-1.43v-1.86H455.82z">
        </path>
        <path class="st5"
          d="M389.36,577.63c-1.77,0-3.15-0.6-4.16-1.79c-1.01-1.19-1.51-2.93-1.51-5.2c0-1.14,0.13-2.14,0.39-3    c0.26-0.86,0.63-1.59,1.12-2.19c0.49-0.59,1.09-1.04,1.79-1.35c0.7-0.3,1.49-0.45,2.37-0.45c1.17,0,2.16,0.25,2.95,0.77    c0.79,0.51,1.42,1.27,1.87,2.27l-1.84,1.01c-0.23-0.65-0.59-1.16-1.07-1.54c-0.48-0.38-1.12-0.57-1.91-0.57    c-1.05,0-1.86,0.35-2.46,1.07c-0.59,0.71-0.89,1.7-0.89,2.95v2.06c0,1.26,0.3,2.24,0.89,2.95c0.59,0.71,1.41,1.07,2.46,1.07    c0.81,0,1.47-0.21,1.98-0.63c0.51-0.42,0.89-0.96,1.13-1.62l1.76,1.06c-0.45,0.98-1.08,1.74-1.9,2.29    C391.53,577.36,390.54,577.63,389.36,577.63z">
        </path>
        <path class="st5"
          d="M398.75,577.4h-2.19v-13.51h5.83c1.21,0,2.17,0.36,2.86,1.09c0.7,0.73,1.05,1.72,1.05,2.97    c0,0.97-0.22,1.77-0.67,2.41c-0.45,0.64-1.1,1.09-1.96,1.35l2.92,5.69h-2.44l-2.71-5.46h-2.69V577.4L398.75,577.4z M402.23,570.1    c0.55,0,0.99-0.15,1.3-0.43c0.31-0.29,0.46-0.7,0.46-1.25v-0.92c0-0.54-0.15-0.96-0.46-1.25c-0.31-0.29-0.74-0.43-1.3-0.43h-3.48    v4.28H402.23z">
        </path>
        <polygon class="st5"
          points="408.66,577.4 408.66,575.62 410.5,575.62 410.5,565.67 408.66,565.67 408.66,563.89 414.54,563.89     414.54,565.67 412.68,565.67 412.68,575.62 414.54,575.62 414.54,577.4   ">
        </polygon>
        <polygon class="st5"
          points="422.19,565.82 422.19,577.4 420,577.4 420,565.82 415.97,565.82 415.97,563.89 426.21,563.89     426.21,565.82   ">
        </polygon>
        <polygon class="st5"
          points="427.65,577.4 427.65,575.62 429.48,575.62 429.48,565.67 427.65,565.67 427.65,563.89 433.53,563.89     433.53,565.67 431.67,565.67 431.67,575.62 433.53,575.62 433.53,577.4   ">
        </polygon>
        <path class="st5"
          d="M441.35,577.63c-1.77,0-3.15-0.6-4.16-1.79c-1.01-1.19-1.51-2.93-1.51-5.2c0-1.14,0.13-2.14,0.39-3    c0.26-0.86,0.63-1.59,1.12-2.19c0.49-0.59,1.09-1.04,1.79-1.35c0.7-0.3,1.49-0.45,2.37-0.45c1.17,0,2.16,0.25,2.95,0.77    c0.79,0.51,1.42,1.27,1.87,2.27l-1.84,1.01c-0.23-0.65-0.59-1.16-1.07-1.54c-0.48-0.38-1.12-0.57-1.91-0.57    c-1.05,0-1.86,0.35-2.46,1.07s-0.89,1.7-0.89,2.95v2.06c0,1.26,0.3,2.24,0.89,2.95s1.41,1.07,2.46,1.07    c0.81,0,1.47-0.21,1.98-0.63c0.51-0.42,0.89-0.96,1.13-1.62l1.76,1.06c-0.45,0.98-1.08,1.74-1.9,2.29    C443.52,577.36,442.52,577.63,441.35,577.63z">
        </path>
        <path class="st5"
          d="M455.3,577.4h-2.19v-13.51h5.83c1.21,0,2.17,0.36,2.86,1.09c0.7,0.73,1.05,1.72,1.05,2.97    c0,0.97-0.22,1.77-0.67,2.41c-0.45,0.64-1.1,1.09-1.96,1.35l2.92,5.69h-2.44l-2.71-5.46h-2.69V577.4L455.3,577.4z M458.79,570.1    c0.55,0,0.99-0.15,1.3-0.43c0.31-0.29,0.46-0.7,0.46-1.25v-0.92c0-0.54-0.15-0.96-0.46-1.25c-0.31-0.29-0.74-0.43-1.3-0.43h-3.48    v4.28H458.79z">
        </path>
        <path class="st5"
          d="M470.82,577.63c-0.88,0-1.67-0.15-2.39-0.45c-0.72-0.3-1.33-0.75-1.84-1.34c-0.51-0.59-0.9-1.32-1.18-2.19    c-0.28-0.87-0.42-1.87-0.42-3.01c0-1.14,0.14-2.14,0.42-3.01c0.28-0.87,0.67-1.6,1.18-2.19c0.51-0.59,1.12-1.03,1.84-1.34    c0.72-0.3,1.51-0.45,2.39-0.45c0.88,0,1.67,0.15,2.39,0.45c0.72,0.3,1.33,0.75,1.84,1.34c0.51,0.59,0.9,1.32,1.18,2.19    c0.28,0.87,0.42,1.87,0.42,3.01c0,1.14-0.14,2.14-0.42,3.01c-0.28,0.87-0.67,1.6-1.18,2.19c-0.51,0.59-1.12,1.03-1.84,1.34    C472.5,577.48,471.7,577.63,470.82,577.63L470.82,577.63z M470.82,575.69c0.52,0,0.99-0.09,1.42-0.27c0.43-0.18,0.8-0.45,1.1-0.79    c0.3-0.34,0.54-0.76,0.71-1.25c0.17-0.49,0.25-1.05,0.25-1.67v-2.14c0-0.62-0.08-1.18-0.25-1.67c-0.17-0.49-0.4-0.91-0.71-1.25    c-0.3-0.34-0.67-0.6-1.1-0.79c-0.43-0.18-0.91-0.27-1.42-0.27c-0.53,0-1.01,0.09-1.43,0.27c-0.43,0.18-0.79,0.45-1.09,0.79    c-0.3,0.34-0.54,0.76-0.71,1.25c-0.17,0.49-0.25,1.05-0.25,1.67v2.14c0,0.62,0.08,1.18,0.25,1.67c0.17,0.49,0.4,0.91,0.71,1.25    c0.3,0.34,0.67,0.6,1.09,0.79C469.82,575.6,470.3,575.69,470.82,575.69z">
        </path>
        <path class="st5"
          d="M484.6,577.63c-0.88,0-1.67-0.15-2.39-0.45c-0.72-0.3-1.33-0.75-1.84-1.34c-0.51-0.59-0.9-1.32-1.18-2.19    c-0.28-0.87-0.42-1.87-0.42-3.01c0-1.14,0.14-2.14,0.42-3.01c0.28-0.87,0.67-1.6,1.18-2.19c0.51-0.59,1.12-1.03,1.84-1.34    c0.72-0.3,1.51-0.45,2.39-0.45c0.88,0,1.67,0.15,2.39,0.45c0.72,0.3,1.33,0.75,1.84,1.34c0.51,0.59,0.9,1.32,1.18,2.19    c0.28,0.87,0.42,1.87,0.42,3.01c0,1.14-0.14,2.14-0.42,3.01c-0.28,0.87-0.67,1.6-1.18,2.19c-0.51,0.59-1.12,1.03-1.84,1.34    C486.28,577.48,485.48,577.63,484.6,577.63L484.6,577.63z M484.6,575.69c0.52,0,0.99-0.09,1.42-0.27c0.43-0.18,0.8-0.45,1.1-0.79    c0.3-0.34,0.54-0.76,0.71-1.25c0.17-0.49,0.25-1.05,0.25-1.67v-2.14c0-0.62-0.08-1.18-0.25-1.67c-0.17-0.49-0.4-0.91-0.71-1.25    c-0.3-0.34-0.67-0.6-1.1-0.79c-0.43-0.18-0.91-0.27-1.42-0.27c-0.53,0-1.01,0.09-1.43,0.27c-0.43,0.18-0.79,0.45-1.09,0.79    c-0.3,0.34-0.54,0.76-0.71,1.25c-0.17,0.49-0.25,1.05-0.25,1.67v2.14c0,0.62,0.08,1.18,0.25,1.67c0.17,0.49,0.4,0.91,0.71,1.25    c0.3,0.34,0.67,0.6,1.09,0.79C483.6,575.6,484.08,575.69,484.6,575.69z">
        </path>
        <polygon class="st5"
          points="503.49,567.06 503.4,567.06 502.33,569.25 499.37,574.65 496.41,569.25 495.35,567.06 495.25,567.06     495.25,577.4 493.16,577.4 493.16,563.89 495.75,563.89 499.37,570.76 499.49,570.76 503.11,563.89 505.58,563.89 505.58,577.4     503.49,577.4   ">
        </polygon>
      </g>
      <path class="st2"
        d="M1387.35,985.24h113.11c15.66,0,28.48-12.81,28.48-28.48l0,0c0-15.66-12.81-28.48-28.48-28.48h-113.11   c-15.66,0-28.48,12.81-28.48,28.48l0,0C1358.87,972.42,1371.69,985.24,1387.35,985.24z">
      </path>
      <g>
        <path class="st5"
          d="M1393.9,951.28c-1.77,0-3.15-0.6-4.16-1.79c-1.01-1.19-1.51-2.93-1.51-5.2c0-1.14,0.13-2.14,0.39-3    c0.26-0.86,0.63-1.59,1.12-2.19c0.49-0.59,1.09-1.04,1.79-1.35c0.7-0.3,1.49-0.45,2.37-0.45c1.17,0,2.16,0.25,2.95,0.77    c0.79,0.51,1.42,1.27,1.87,2.27l-1.84,1.01c-0.23-0.65-0.59-1.16-1.07-1.54c-0.48-0.38-1.12-0.57-1.91-0.57    c-1.05,0-1.86,0.35-2.46,1.07c-0.59,0.71-0.89,1.7-0.89,2.95v2.06c0,1.26,0.3,2.24,0.89,2.95c0.59,0.71,1.41,1.07,2.46,1.07    c0.81,0,1.47-0.21,1.98-0.63c0.51-0.42,0.89-0.96,1.13-1.62l1.76,1.06c-0.45,0.98-1.08,1.74-1.9,2.29    C1396.07,951.01,1395.08,951.28,1393.9,951.28z">
        </path>
        <polygon class="st5"
          points="1401.1,951.05 1401.1,937.54 1403.29,937.54 1403.29,949.11 1408.79,949.11 1408.79,951.05   "></polygon>
        <path class="st5"
          d="M1419.82,951.05l-1.22-3.66h-5.05l-1.18,3.66h-2.23l4.61-13.51h2.75l4.61,13.51H1419.82L1419.82,951.05z     M1416.12,939.55h-0.1l-1.95,5.96h3.99L1416.12,939.55z">
        </path>
        <path class="st5"
          d="M1428.24,951.28c-1.14,0-2.1-0.21-2.89-0.62c-0.79-0.41-1.47-0.97-2.04-1.66l1.51-1.41    c0.48,0.58,1,1.02,1.58,1.32c0.57,0.3,1.23,0.45,1.96,0.45c0.86,0,1.52-0.19,1.95-0.58c0.44-0.39,0.66-0.91,0.66-1.57    c0-0.53-0.15-0.95-0.46-1.26c-0.31-0.31-0.86-0.54-1.65-0.7l-1.2-0.21c-1.32-0.25-2.3-0.68-2.96-1.3    c-0.66-0.62-0.99-1.47-0.99-2.55c0-0.59,0.11-1.13,0.34-1.62c0.23-0.48,0.54-0.89,0.95-1.22c0.41-0.33,0.9-0.58,1.48-0.76    c0.58-0.18,1.23-0.27,1.95-0.27c1.02,0,1.9,0.18,2.65,0.53c0.75,0.35,1.39,0.87,1.92,1.54l-1.53,1.35    c-0.35-0.45-0.77-0.81-1.28-1.08c-0.5-0.27-1.13-0.41-1.88-0.41c-0.77,0-1.37,0.15-1.8,0.46c-0.43,0.31-0.64,0.76-0.64,1.35    c0,0.57,0.17,0.99,0.52,1.27c0.35,0.28,0.89,0.49,1.63,0.63l1.2,0.25c1.35,0.26,2.35,0.7,2.97,1.32c0.63,0.62,0.94,1.47,0.94,2.55    c0,0.63-0.11,1.21-0.33,1.72c-0.22,0.52-0.54,0.96-0.96,1.33c-0.42,0.37-0.93,0.65-1.54,0.85    C1429.7,951.18,1429.01,951.28,1428.24,951.28z">
        </path>
        <path class="st5"
          d="M1439.58,951.28c-1.14,0-2.1-0.21-2.89-0.62c-0.79-0.41-1.47-0.97-2.04-1.66l1.51-1.41    c0.48,0.58,1,1.02,1.58,1.32c0.57,0.3,1.23,0.45,1.96,0.45c0.86,0,1.52-0.19,1.95-0.58c0.44-0.39,0.66-0.91,0.66-1.57    c0-0.53-0.15-0.95-0.46-1.26c-0.31-0.31-0.86-0.54-1.65-0.7l-1.2-0.21c-1.32-0.25-2.3-0.68-2.96-1.3    c-0.66-0.62-0.99-1.47-0.99-2.55c0-0.59,0.11-1.13,0.34-1.62c0.23-0.48,0.54-0.89,0.95-1.22c0.41-0.33,0.9-0.58,1.48-0.76    c0.58-0.18,1.23-0.27,1.95-0.27c1.02,0,1.9,0.18,2.65,0.53c0.75,0.35,1.39,0.87,1.92,1.54l-1.53,1.35    c-0.35-0.45-0.77-0.81-1.28-1.08s-1.13-0.41-1.88-0.41c-0.77,0-1.37,0.15-1.8,0.46c-0.43,0.31-0.64,0.76-0.64,1.35    c0,0.57,0.17,0.99,0.52,1.27c0.35,0.28,0.89,0.49,1.63,0.63l1.2,0.25c1.35,0.26,2.35,0.7,2.97,1.32c0.63,0.62,0.94,1.47,0.94,2.55    c0,0.63-0.11,1.21-0.33,1.72c-0.22,0.52-0.54,0.96-0.96,1.33c-0.42,0.37-0.93,0.65-1.54,0.85    C1441.04,951.18,1440.35,951.28,1439.58,951.28z">
        </path>
        <path class="st5"
          d="M1449.29,951.05h-2.19v-13.51h5.83c1.21,0,2.17,0.36,2.86,1.09c0.7,0.73,1.05,1.72,1.05,2.97    c0,0.97-0.22,1.77-0.67,2.41c-0.45,0.64-1.1,1.09-1.96,1.35l2.92,5.69h-2.44l-2.71-5.46h-2.69V951.05L1449.29,951.05z     M1452.78,943.75c0.55,0,0.99-0.15,1.3-0.43c0.31-0.29,0.46-0.7,0.46-1.25v-0.92c0-0.54-0.15-0.95-0.46-1.25    c-0.31-0.29-0.74-0.43-1.3-0.43h-3.48v4.28H1452.78z">
        </path>
        <path class="st5"
          d="M1464.82,951.28c-0.88,0-1.67-0.15-2.39-0.45c-0.72-0.3-1.33-0.75-1.84-1.34c-0.51-0.59-0.9-1.32-1.18-2.19    c-0.28-0.87-0.42-1.87-0.42-3.01c0-1.14,0.14-2.14,0.42-3.01c0.28-0.87,0.67-1.6,1.18-2.19c0.51-0.59,1.12-1.03,1.84-1.34    c0.72-0.3,1.51-0.45,2.39-0.45c0.88,0,1.67,0.15,2.39,0.45c0.72,0.3,1.33,0.75,1.84,1.34c0.51,0.59,0.9,1.32,1.18,2.19    c0.28,0.87,0.42,1.87,0.42,3.01c0,1.14-0.14,2.14-0.42,3.01c-0.28,0.87-0.67,1.6-1.18,2.19c-0.51,0.59-1.12,1.03-1.84,1.34    C1466.49,951.13,1465.69,951.28,1464.82,951.28L1464.82,951.28z M1464.82,949.35c0.52,0,0.99-0.09,1.42-0.27    c0.43-0.18,0.8-0.45,1.1-0.79c0.3-0.35,0.54-0.76,0.71-1.25c0.17-0.49,0.25-1.05,0.25-1.67v-2.14c0-0.62-0.08-1.18-0.25-1.67    c-0.17-0.49-0.4-0.91-0.71-1.25c-0.3-0.34-0.67-0.6-1.1-0.79c-0.43-0.18-0.91-0.27-1.42-0.27c-0.53,0-1.01,0.09-1.43,0.27    c-0.43,0.18-0.79,0.45-1.09,0.79c-0.3,0.35-0.54,0.76-0.71,1.25c-0.17,0.49-0.25,1.05-0.25,1.67v2.14c0,0.62,0.08,1.18,0.25,1.67    c0.17,0.49,0.4,0.91,0.71,1.25c0.3,0.34,0.67,0.6,1.09,0.79C1463.81,949.26,1464.29,949.35,1464.82,949.35z">
        </path>
        <path class="st5"
          d="M1478.6,951.28c-0.88,0-1.67-0.15-2.39-0.45c-0.72-0.3-1.33-0.75-1.84-1.34s-0.9-1.32-1.18-2.19    c-0.28-0.87-0.42-1.87-0.42-3.01c0-1.14,0.14-2.14,0.42-3.01c0.28-0.87,0.67-1.6,1.18-2.19c0.51-0.59,1.12-1.03,1.84-1.34    c0.72-0.3,1.51-0.45,2.39-0.45c0.88,0,1.67,0.15,2.39,0.45c0.72,0.3,1.33,0.75,1.84,1.34c0.51,0.59,0.9,1.32,1.18,2.19    c0.28,0.87,0.42,1.87,0.42,3.01c0,1.14-0.14,2.14-0.42,3.01c-0.28,0.87-0.67,1.6-1.18,2.19c-0.51,0.59-1.12,1.03-1.84,1.34    C1480.27,951.13,1479.47,951.28,1478.6,951.28L1478.6,951.28z M1478.6,949.35c0.52,0,0.99-0.09,1.42-0.27    c0.43-0.18,0.8-0.45,1.1-0.79c0.3-0.35,0.54-0.76,0.71-1.25c0.17-0.49,0.25-1.05,0.25-1.67v-2.14c0-0.62-0.08-1.18-0.25-1.67    c-0.17-0.49-0.4-0.91-0.71-1.25c-0.3-0.34-0.67-0.6-1.1-0.79c-0.43-0.18-0.91-0.27-1.42-0.27c-0.53,0-1.01,0.09-1.43,0.27    c-0.43,0.18-0.79,0.45-1.09,0.79c-0.3,0.35-0.54,0.76-0.71,1.25c-0.17,0.49-0.25,1.05-0.25,1.67v2.14c0,0.62,0.08,1.18,0.25,1.67    c0.17,0.49,0.4,0.91,0.71,1.25c0.3,0.34,0.67,0.6,1.09,0.79C1477.59,949.26,1478.07,949.35,1478.6,949.35z">
        </path>
        <polygon class="st5"
          points="1497.49,940.71 1497.39,940.71 1496.32,942.9 1493.36,948.3 1490.4,942.9 1489.34,940.71     1489.24,940.71 1489.24,951.05 1487.15,951.05 1487.15,937.54 1489.74,937.54 1493.36,944.41 1493.48,944.41 1497.1,937.54     1499.58,937.54 1499.58,951.05 1497.49,951.05   ">
        </polygon>
        <path class="st5"
          d="M1436.62,964.6h-6l-0.35,4.78h0.14c0.15-0.27,0.32-0.51,0.48-0.73c0.17-0.21,0.36-0.4,0.58-0.55    c0.22-0.15,0.47-0.27,0.75-0.36c0.28-0.08,0.62-0.13,1.01-0.13c0.58,0,1.12,0.1,1.62,0.29c0.5,0.19,0.93,0.47,1.3,0.83    c0.37,0.36,0.65,0.8,0.86,1.33c0.21,0.52,0.31,1.11,0.31,1.77c0,0.67-0.11,1.29-0.32,1.86c-0.21,0.57-0.53,1.05-0.94,1.46    c-0.41,0.41-0.92,0.72-1.52,0.95c-0.6,0.23-1.28,0.34-2.04,0.34c-0.61,0-1.14-0.07-1.61-0.2c-0.46-0.14-0.87-0.32-1.23-0.54    c-0.35-0.23-0.66-0.48-0.93-0.77c-0.26-0.29-0.5-0.59-0.71-0.9l1.59-1.26c0.17,0.27,0.34,0.52,0.52,0.74    c0.18,0.22,0.39,0.41,0.62,0.58c0.23,0.17,0.49,0.3,0.78,0.39c0.29,0.09,0.62,0.14,1,0.14c0.8,0,1.42-0.22,1.85-0.66    c0.43-0.44,0.65-1.05,0.65-1.82v-0.23c0-0.77-0.22-1.38-0.65-1.82c-0.43-0.44-1.05-0.66-1.85-0.66c-0.58,0-1.05,0.11-1.39,0.33    c-0.35,0.22-0.65,0.46-0.89,0.74l-1.8-0.25l0.5-7.53h7.66V964.6z">
        </path>
        <path class="st5"
          d="M1444.2,976.44c-0.84,0-1.57-0.16-2.19-0.47c-0.62-0.32-1.13-0.77-1.53-1.36c-0.4-0.59-0.7-1.32-0.89-2.19    c-0.19-0.86-0.29-1.85-0.29-2.96c0-1.1,0.1-2.08,0.29-2.95c0.19-0.87,0.49-1.6,0.89-2.2c0.4-0.59,0.91-1.05,1.53-1.36    c0.62-0.32,1.35-0.47,2.19-0.47c1.68,0,2.91,0.61,3.71,1.84c0.79,1.23,1.19,2.94,1.19,5.15c0,2.21-0.4,3.92-1.19,5.15    C1447.12,975.83,1445.88,976.44,1444.2,976.44L1444.2,976.44z M1444.2,974.58c0.46,0,0.86-0.09,1.19-0.28    c0.33-0.19,0.6-0.45,0.8-0.8c0.21-0.35,0.35-0.76,0.44-1.25c0.09-0.48,0.14-1.02,0.14-1.62v-2.36c0-0.59-0.05-1.13-0.14-1.62    c-0.09-0.48-0.24-0.9-0.44-1.25c-0.21-0.35-0.47-0.62-0.8-0.8c-0.33-0.19-0.73-0.28-1.19-0.28s-0.86,0.09-1.19,0.28    c-0.33,0.19-0.6,0.45-0.8,0.8c-0.21,0.35-0.35,0.76-0.45,1.25c-0.09,0.48-0.14,1.02-0.14,1.62v2.36c0,0.59,0.05,1.13,0.14,1.62    c0.09,0.48,0.24,0.9,0.45,1.25c0.21,0.35,0.47,0.62,0.8,0.8C1443.34,974.49,1443.74,974.58,1444.2,974.58z">
        </path>
        <path class="st5"
          d="M1459.84,964.6h-6l-0.35,4.78h0.14c0.15-0.27,0.32-0.51,0.48-0.73c0.17-0.21,0.36-0.4,0.58-0.55    c0.22-0.15,0.47-0.27,0.75-0.36c0.28-0.08,0.62-0.13,1.01-0.13c0.58,0,1.12,0.1,1.62,0.29c0.5,0.19,0.93,0.47,1.3,0.83    c0.37,0.36,0.65,0.8,0.86,1.33c0.21,0.52,0.31,1.11,0.31,1.77c0,0.67-0.11,1.29-0.32,1.86c-0.21,0.57-0.53,1.05-0.94,1.46    c-0.41,0.41-0.92,0.72-1.52,0.95c-0.6,0.23-1.28,0.34-2.04,0.34c-0.61,0-1.14-0.07-1.61-0.2c-0.46-0.14-0.87-0.32-1.23-0.54    c-0.35-0.23-0.66-0.48-0.93-0.77c-0.26-0.29-0.5-0.59-0.71-0.9l1.59-1.26c0.17,0.27,0.34,0.52,0.52,0.74    c0.18,0.22,0.39,0.41,0.62,0.58c0.23,0.17,0.49,0.3,0.78,0.39c0.29,0.09,0.62,0.14,1,0.14c0.8,0,1.42-0.22,1.85-0.66    c0.43-0.44,0.65-1.05,0.65-1.82v-0.23c0-0.77-0.22-1.38-0.65-1.82c-0.43-0.44-1.05-0.66-1.85-0.66c-0.58,0-1.05,0.11-1.39,0.33    c-0.35,0.22-0.65,0.46-0.89,0.74l-1.8-0.25l0.5-7.53h7.66V964.6z">
        </path>
      </g>
      <path class="st2"
        d="M1150.59,968.65h113.11c15.66,0,28.48-12.81,28.48-28.48l0,0c0-15.66-12.81-28.48-28.48-28.48h-113.11   c-15.66,0-28.48,12.81-28.48,28.48l0,0C1122.11,955.84,1134.93,968.65,1150.59,968.65z">
      </path>
      <g>
        <path class="st5"
          d="M1157.15,934.7c-1.77,0-3.15-0.6-4.16-1.79c-1.01-1.19-1.51-2.93-1.51-5.2c0-1.14,0.13-2.14,0.39-3    c0.26-0.86,0.63-1.59,1.12-2.19c0.49-0.59,1.09-1.04,1.79-1.34c0.7-0.3,1.49-0.46,2.37-0.46c1.17,0,2.16,0.25,2.95,0.77    c0.79,0.51,1.42,1.27,1.87,2.27l-1.84,1.01c-0.23-0.65-0.59-1.16-1.07-1.54c-0.48-0.38-1.12-0.57-1.91-0.57    c-1.05,0-1.86,0.35-2.46,1.07s-0.89,1.7-0.89,2.95v2.06c0,1.26,0.3,2.24,0.89,2.95c0.59,0.71,1.41,1.07,2.46,1.07    c0.81,0,1.47-0.21,1.98-0.63c0.51-0.42,0.89-0.96,1.13-1.62l1.76,1.06c-0.45,0.98-1.08,1.74-1.9,2.29    C1159.31,934.42,1158.32,934.7,1157.15,934.7z">
        </path>
        <polygon class="st5"
          points="1164.35,934.46 1164.35,920.95 1166.53,920.95 1166.53,932.53 1172.03,932.53 1172.03,934.46   ">
        </polygon>
        <path class="st5"
          d="M1183.06,934.46l-1.22-3.66h-5.05l-1.18,3.66h-2.23l4.61-13.51h2.75l4.61,13.51H1183.06L1183.06,934.46z     M1179.36,922.97h-0.1l-1.95,5.96h3.99L1179.36,922.97z">
        </path>
        <path class="st5"
          d="M1191.48,934.7c-1.14,0-2.1-0.21-2.89-0.62c-0.79-0.41-1.47-0.97-2.04-1.66l1.51-1.41    c0.48,0.58,1,1.02,1.58,1.32c0.57,0.3,1.23,0.45,1.96,0.45c0.86,0,1.52-0.19,1.95-0.58c0.44-0.39,0.66-0.91,0.66-1.57    c0-0.53-0.15-0.95-0.46-1.26c-0.31-0.31-0.86-0.54-1.64-0.7l-1.2-0.21c-1.32-0.25-2.3-0.68-2.96-1.3    c-0.66-0.62-0.99-1.47-0.99-2.55c0-0.59,0.11-1.13,0.34-1.62c0.23-0.48,0.54-0.89,0.95-1.22c0.41-0.33,0.9-0.58,1.48-0.76    c0.58-0.18,1.23-0.27,1.95-0.27c1.02,0,1.9,0.18,2.65,0.53c0.75,0.35,1.39,0.87,1.92,1.54l-1.53,1.35    c-0.35-0.45-0.77-0.81-1.28-1.08c-0.5-0.27-1.13-0.41-1.88-0.41c-0.77,0-1.37,0.15-1.8,0.46c-0.43,0.31-0.64,0.76-0.64,1.35    c0,0.57,0.17,0.99,0.52,1.27c0.35,0.28,0.89,0.49,1.63,0.63l1.2,0.25c1.35,0.26,2.35,0.7,2.97,1.32c0.63,0.62,0.94,1.47,0.94,2.55    c0,0.63-0.11,1.21-0.33,1.72c-0.22,0.52-0.54,0.96-0.96,1.33c-0.42,0.37-0.93,0.65-1.54,0.85    C1192.94,934.6,1192.25,934.7,1191.48,934.7z">
        </path>
        <path class="st5"
          d="M1202.82,934.7c-1.14,0-2.1-0.21-2.89-0.62c-0.79-0.41-1.47-0.97-2.04-1.66l1.51-1.41    c0.48,0.58,1,1.02,1.58,1.32c0.57,0.3,1.23,0.45,1.96,0.45c0.86,0,1.52-0.19,1.95-0.58c0.44-0.39,0.66-0.91,0.66-1.57    c0-0.53-0.15-0.95-0.46-1.26c-0.31-0.31-0.86-0.54-1.65-0.7l-1.2-0.21c-1.32-0.25-2.3-0.68-2.96-1.3    c-0.66-0.62-0.99-1.47-0.99-2.55c0-0.59,0.11-1.13,0.34-1.62c0.23-0.48,0.54-0.89,0.95-1.22c0.41-0.33,0.9-0.58,1.48-0.76    c0.58-0.18,1.23-0.27,1.95-0.27c1.02,0,1.9,0.18,2.65,0.53c0.75,0.35,1.39,0.87,1.92,1.54l-1.53,1.35    c-0.35-0.45-0.77-0.81-1.28-1.08c-0.5-0.27-1.13-0.41-1.88-0.41c-0.77,0-1.37,0.15-1.8,0.46c-0.43,0.31-0.64,0.76-0.64,1.35    c0,0.57,0.17,0.99,0.52,1.27c0.35,0.28,0.89,0.49,1.63,0.63l1.2,0.25c1.35,0.26,2.35,0.7,2.97,1.32c0.63,0.62,0.94,1.47,0.94,2.55    c0,0.63-0.11,1.21-0.33,1.72c-0.22,0.52-0.54,0.96-0.96,1.33c-0.42,0.37-0.93,0.65-1.54,0.85    C1204.29,934.6,1203.6,934.7,1202.82,934.7z">
        </path>
        <path class="st5"
          d="M1212.54,934.46h-2.19v-13.51h5.83c1.21,0,2.17,0.36,2.86,1.09c0.7,0.73,1.05,1.72,1.05,2.97    c0,0.97-0.22,1.77-0.67,2.41c-0.45,0.64-1.1,1.09-1.96,1.35l2.92,5.69h-2.44l-2.71-5.46h-2.69V934.46L1212.54,934.46z     M1216.02,927.17c0.55,0,0.99-0.15,1.3-0.43c0.31-0.29,0.46-0.7,0.46-1.25v-0.92c0-0.54-0.15-0.96-0.46-1.25    c-0.31-0.29-0.74-0.43-1.3-0.43h-3.48v4.28H1216.02z">
        </path>
        <path class="st5"
          d="M1228.06,934.7c-0.88,0-1.67-0.15-2.39-0.45c-0.72-0.3-1.33-0.75-1.84-1.34c-0.51-0.59-0.9-1.32-1.18-2.19    c-0.28-0.87-0.42-1.87-0.42-3.01c0-1.14,0.14-2.14,0.42-3.01c0.28-0.87,0.67-1.6,1.18-2.19c0.51-0.59,1.12-1.03,1.84-1.34    c0.72-0.3,1.51-0.46,2.39-0.46c0.88,0,1.67,0.15,2.39,0.46c0.72,0.3,1.33,0.75,1.84,1.34c0.51,0.59,0.9,1.32,1.18,2.19    c0.28,0.87,0.42,1.87,0.42,3.01c0,1.14-0.14,2.14-0.42,3.01c-0.28,0.87-0.67,1.6-1.18,2.19c-0.51,0.59-1.12,1.03-1.84,1.34    C1229.73,934.54,1228.94,934.7,1228.06,934.7L1228.06,934.7z M1228.06,932.76c0.52,0,0.99-0.09,1.42-0.27    c0.43-0.18,0.8-0.45,1.1-0.79c0.3-0.34,0.54-0.76,0.71-1.25c0.17-0.49,0.25-1.05,0.25-1.67v-2.14c0-0.62-0.08-1.18-0.25-1.67    c-0.17-0.49-0.4-0.91-0.71-1.25c-0.3-0.34-0.67-0.6-1.1-0.79c-0.43-0.18-0.91-0.27-1.42-0.27c-0.53,0-1.01,0.09-1.43,0.27    c-0.43,0.18-0.79,0.45-1.09,0.79c-0.3,0.34-0.54,0.76-0.71,1.25c-0.17,0.49-0.25,1.05-0.25,1.67v2.14c0,0.62,0.08,1.18,0.25,1.67    c0.17,0.49,0.4,0.91,0.71,1.25c0.3,0.34,0.67,0.6,1.09,0.79C1227.05,932.67,1227.53,932.76,1228.06,932.76z">
        </path>
        <path class="st5"
          d="M1241.84,934.7c-0.88,0-1.67-0.15-2.39-0.45c-0.72-0.3-1.33-0.75-1.84-1.34c-0.51-0.59-0.9-1.32-1.18-2.19    c-0.28-0.87-0.42-1.87-0.42-3.01c0-1.14,0.14-2.14,0.42-3.01c0.28-0.87,0.67-1.6,1.18-2.19c0.51-0.59,1.12-1.03,1.84-1.34    c0.72-0.3,1.51-0.46,2.39-0.46c0.88,0,1.67,0.15,2.39,0.46c0.72,0.3,1.33,0.75,1.84,1.34c0.51,0.59,0.9,1.32,1.18,2.19    c0.28,0.87,0.42,1.87,0.42,3.01c0,1.14-0.14,2.14-0.42,3.01c-0.28,0.87-0.67,1.6-1.18,2.19c-0.51,0.59-1.12,1.03-1.84,1.34    C1243.51,934.54,1242.72,934.7,1241.84,934.7L1241.84,934.7z M1241.84,932.76c0.52,0,0.99-0.09,1.42-0.27    c0.43-0.18,0.8-0.45,1.1-0.79c0.3-0.34,0.54-0.76,0.71-1.25c0.17-0.49,0.25-1.05,0.25-1.67v-2.14c0-0.62-0.08-1.18-0.25-1.67    c-0.17-0.49-0.4-0.91-0.71-1.25c-0.3-0.34-0.67-0.6-1.1-0.79c-0.43-0.18-0.91-0.27-1.42-0.27c-0.53,0-1.01,0.09-1.43,0.27    c-0.43,0.18-0.79,0.45-1.09,0.79c-0.3,0.34-0.54,0.76-0.71,1.25c-0.17,0.49-0.25,1.05-0.25,1.67v2.14c0,0.62,0.08,1.18,0.25,1.67    c0.17,0.49,0.4,0.91,0.71,1.25c0.3,0.34,0.67,0.6,1.09,0.79C1240.83,932.67,1241.31,932.76,1241.84,932.76z">
        </path>
        <polygon class="st5"
          points="1260.73,924.13 1260.63,924.13 1259.57,926.32 1256.61,931.72 1253.64,926.32 1252.58,924.13     1252.48,924.13 1252.48,934.46 1250.39,934.46 1250.39,920.95 1252.99,920.95 1256.61,927.83 1256.72,927.83 1260.34,920.95     1262.82,920.95 1262.82,934.46 1260.73,934.46   ">
        </polygon>
        <path class="st5"
          d="M1199.86,948.01h-6l-0.35,4.78h0.14c0.15-0.27,0.32-0.51,0.48-0.73c0.17-0.21,0.36-0.4,0.58-0.55    c0.22-0.15,0.47-0.27,0.76-0.36c0.28-0.08,0.62-0.13,1.01-0.13c0.58,0,1.12,0.1,1.62,0.29c0.5,0.19,0.93,0.47,1.3,0.83    c0.37,0.36,0.65,0.8,0.86,1.33c0.21,0.52,0.31,1.11,0.31,1.77c0,0.67-0.11,1.29-0.32,1.86c-0.21,0.57-0.53,1.05-0.94,1.46    c-0.41,0.41-0.92,0.72-1.52,0.95c-0.6,0.23-1.28,0.34-2.04,0.34c-0.61,0-1.14-0.07-1.61-0.2c-0.46-0.14-0.87-0.32-1.23-0.54    c-0.35-0.23-0.66-0.48-0.93-0.77c-0.26-0.29-0.5-0.59-0.71-0.9l1.59-1.26c0.17,0.27,0.34,0.52,0.52,0.74    c0.18,0.22,0.39,0.41,0.62,0.58c0.23,0.17,0.49,0.3,0.78,0.39c0.29,0.09,0.62,0.14,1,0.14c0.8,0,1.42-0.22,1.85-0.66    c0.43-0.44,0.65-1.05,0.65-1.82v-0.23c0-0.77-0.22-1.38-0.65-1.82c-0.43-0.44-1.05-0.66-1.85-0.66c-0.58,0-1.05,0.11-1.39,0.33    c-0.35,0.22-0.65,0.46-0.89,0.74l-1.8-0.25l0.5-7.53h7.66V948.01z">
        </path>
        <path class="st5"
          d="M1207.45,959.86c-0.84,0-1.57-0.16-2.19-0.47c-0.62-0.32-1.13-0.77-1.53-1.36c-0.4-0.59-0.7-1.32-0.89-2.19    c-0.19-0.86-0.29-1.85-0.29-2.96c0-1.1,0.1-2.08,0.29-2.95c0.19-0.87,0.49-1.6,0.89-2.2c0.4-0.59,0.91-1.05,1.53-1.36    c0.62-0.32,1.35-0.47,2.19-0.47c1.68,0,2.91,0.61,3.71,1.84c0.79,1.23,1.19,2.94,1.19,5.15c0,2.21-0.4,3.92-1.19,5.15    C1210.36,959.24,1209.12,959.86,1207.45,959.86L1207.45,959.86z M1207.45,958c0.46,0,0.86-0.09,1.19-0.28    c0.33-0.19,0.6-0.45,0.8-0.8c0.21-0.35,0.35-0.76,0.45-1.25c0.09-0.48,0.14-1.02,0.14-1.62v-2.36c0-0.59-0.05-1.13-0.14-1.62    c-0.09-0.48-0.24-0.9-0.45-1.25c-0.21-0.35-0.47-0.62-0.8-0.8c-0.33-0.19-0.73-0.28-1.19-0.28s-0.86,0.09-1.19,0.28    c-0.33,0.19-0.6,0.45-0.8,0.8c-0.21,0.35-0.35,0.76-0.45,1.25c-0.09,0.48-0.14,1.02-0.14,1.62v2.36c0,0.59,0.05,1.13,0.14,1.62    c0.09,0.48,0.24,0.9,0.45,1.25c0.21,0.35,0.47,0.62,0.8,0.8C1206.59,957.91,1206.98,958,1207.45,958z">
        </path>
        <path class="st5"
          d="M1219.1,959.86c-0.75,0-1.42-0.12-2-0.37c-0.59-0.25-1.08-0.6-1.49-1.05c-0.41-0.46-0.72-1.01-0.94-1.65    c-0.22-0.65-0.33-1.37-0.33-2.19c0-0.98,0.15-1.9,0.45-2.77c0.3-0.86,0.68-1.66,1.14-2.38c0.46-0.72,0.98-1.36,1.56-1.93    c0.57-0.56,1.14-1.03,1.69-1.4h2.9c-0.76,0.55-1.45,1.09-2.05,1.61c-0.61,0.52-1.14,1.05-1.59,1.59    c-0.45,0.54-0.83,1.12-1.13,1.72c-0.3,0.61-0.54,1.27-0.71,1.99l0.14,0.04c0.14-0.27,0.31-0.53,0.49-0.76    c0.19-0.24,0.41-0.45,0.66-0.63c0.25-0.18,0.54-0.32,0.86-0.43s0.7-0.15,1.12-0.15c0.57,0,1.09,0.1,1.58,0.29s0.9,0.47,1.26,0.84    c0.35,0.37,0.63,0.81,0.83,1.33c0.2,0.52,0.3,1.09,0.3,1.72c0,0.68-0.11,1.31-0.34,1.87c-0.23,0.56-0.55,1.04-0.96,1.44    s-0.91,0.71-1.5,0.94C1220.46,959.74,1219.81,959.86,1219.1,959.86L1219.1,959.86z M1219.1,958.08c0.79,0,1.4-0.21,1.84-0.63    c0.44-0.42,0.66-1.04,0.66-1.85v-0.27c0-0.81-0.22-1.43-0.66-1.85c-0.44-0.42-1.05-0.63-1.84-0.63c-0.79,0-1.4,0.21-1.84,0.63    c-0.44,0.42-0.66,1.04-0.66,1.85v0.27c0,0.81,0.22,1.43,0.66,1.85C1217.7,957.87,1218.31,958.08,1219.1,958.08z">
        </path>
      </g>
      <path class="st2"
        d="M900.43,948.45h113.11c15.66,0,28.48-12.81,28.48-28.48l0,0c0-15.66-12.81-28.48-28.48-28.48H900.43   c-15.66,0-28.48,12.81-28.48,28.48l0,0C871.96,935.64,884.77,948.45,900.43,948.45z">
      </path>
      <g>
        <path class="st5"
          d="M906.99,914.5c-1.77,0-3.15-0.6-4.16-1.79c-1.01-1.19-1.51-2.93-1.51-5.2c0-1.14,0.13-2.14,0.39-3    c0.26-0.86,0.63-1.59,1.12-2.19c0.49-0.59,1.09-1.04,1.79-1.35c0.7-0.3,1.49-0.45,2.37-0.45c1.17,0,2.16,0.25,2.95,0.77    c0.79,0.51,1.42,1.27,1.87,2.27l-1.84,1.01c-0.23-0.65-0.59-1.16-1.07-1.54c-0.48-0.38-1.12-0.57-1.91-0.57    c-1.05,0-1.86,0.35-2.46,1.07c-0.59,0.71-0.89,1.7-0.89,2.95v2.06c0,1.26,0.3,2.24,0.89,2.95c0.59,0.71,1.41,1.07,2.46,1.07    c0.81,0,1.47-0.21,1.98-0.63c0.51-0.42,0.89-0.96,1.13-1.62l1.76,1.06c-0.45,0.98-1.08,1.74-1.9,2.29    C909.16,914.22,908.16,914.5,906.99,914.5z">
        </path>
        <polygon class="st5"
          points="914.19,914.26 914.19,900.76 916.38,900.76 916.38,912.33 921.87,912.33 921.87,914.26   "></polygon>
        <path class="st5"
          d="M932.9,914.26l-1.22-3.66h-5.05l-1.18,3.66h-2.23l4.61-13.51h2.75l4.61,13.51H932.9L932.9,914.26z     M929.21,902.77h-0.1l-1.95,5.96h3.99L929.21,902.77z">
        </path>
        <path class="st5"
          d="M941.32,914.5c-1.14,0-2.1-0.21-2.89-0.62c-0.79-0.41-1.47-0.97-2.04-1.66l1.51-1.41    c0.48,0.58,1,1.02,1.58,1.32c0.57,0.3,1.23,0.45,1.96,0.45c0.86,0,1.52-0.19,1.95-0.58c0.44-0.39,0.66-0.91,0.66-1.57    c0-0.53-0.15-0.95-0.46-1.26c-0.31-0.31-0.86-0.54-1.65-0.7l-1.2-0.21c-1.32-0.25-2.3-0.68-2.96-1.3    c-0.66-0.62-0.99-1.47-0.99-2.55c0-0.59,0.11-1.13,0.34-1.62c0.23-0.48,0.54-0.89,0.95-1.22c0.41-0.33,0.9-0.58,1.48-0.76    c0.58-0.18,1.23-0.27,1.95-0.27c1.02,0,1.9,0.18,2.65,0.53c0.75,0.35,1.39,0.87,1.92,1.54l-1.53,1.35    c-0.35-0.45-0.77-0.81-1.28-1.08c-0.5-0.27-1.13-0.41-1.88-0.41c-0.77,0-1.37,0.15-1.8,0.46c-0.43,0.31-0.64,0.76-0.64,1.35    c0,0.57,0.17,0.99,0.52,1.27c0.35,0.28,0.89,0.49,1.63,0.63l1.2,0.25c1.35,0.26,2.35,0.7,2.97,1.32c0.63,0.62,0.94,1.47,0.94,2.55    c0,0.63-0.11,1.21-0.33,1.72c-0.22,0.52-0.54,0.96-0.96,1.33c-0.42,0.37-0.93,0.65-1.54,0.85    C942.79,914.4,942.1,914.5,941.32,914.5z">
        </path>
        <path class="st5"
          d="M952.66,914.5c-1.14,0-2.1-0.21-2.89-0.62c-0.79-0.41-1.47-0.97-2.04-1.66l1.51-1.41    c0.48,0.58,1,1.02,1.58,1.32c0.57,0.3,1.23,0.45,1.96,0.45c0.86,0,1.52-0.19,1.95-0.58c0.44-0.39,0.66-0.91,0.66-1.57    c0-0.53-0.15-0.95-0.46-1.26c-0.31-0.31-0.86-0.54-1.64-0.7l-1.2-0.21c-1.32-0.25-2.3-0.68-2.96-1.3    c-0.66-0.62-0.99-1.47-0.99-2.55c0-0.59,0.11-1.13,0.34-1.62c0.23-0.48,0.54-0.89,0.95-1.22c0.41-0.33,0.9-0.58,1.48-0.76    c0.58-0.18,1.23-0.27,1.95-0.27c1.02,0,1.9,0.18,2.65,0.53s1.39,0.87,1.92,1.54l-1.53,1.35c-0.35-0.45-0.77-0.81-1.28-1.08    c-0.5-0.27-1.13-0.41-1.88-0.41c-0.77,0-1.37,0.15-1.8,0.46c-0.43,0.31-0.64,0.76-0.64,1.35c0,0.57,0.17,0.99,0.52,1.27    c0.35,0.28,0.89,0.49,1.63,0.63l1.2,0.25c1.35,0.26,2.35,0.7,2.97,1.32c0.63,0.62,0.94,1.47,0.94,2.55c0,0.63-0.11,1.21-0.33,1.72    c-0.22,0.52-0.54,0.96-0.96,1.33c-0.42,0.37-0.93,0.65-1.54,0.85C954.13,914.4,953.44,914.5,952.66,914.5z">
        </path>
        <path class="st5"
          d="M962.38,914.26h-2.19v-13.51h5.83c1.21,0,2.17,0.36,2.86,1.09c0.7,0.73,1.05,1.72,1.05,2.97    c0,0.97-0.22,1.77-0.67,2.41c-0.45,0.64-1.1,1.09-1.96,1.35l2.92,5.69h-2.44l-2.71-5.46h-2.69V914.26L962.38,914.26z     M965.86,906.97c0.55,0,0.99-0.15,1.3-0.43c0.31-0.29,0.46-0.7,0.46-1.25v-0.92c0-0.54-0.15-0.96-0.46-1.25    c-0.31-0.29-0.74-0.43-1.3-0.43h-3.48v4.28H965.86z">
        </path>
        <path class="st5"
          d="M977.9,914.5c-0.88,0-1.67-0.15-2.39-0.45c-0.72-0.3-1.33-0.75-1.84-1.34c-0.51-0.59-0.9-1.32-1.18-2.19    c-0.28-0.87-0.42-1.87-0.42-3.01c0-1.14,0.14-2.14,0.42-3.01c0.28-0.87,0.67-1.6,1.18-2.19c0.51-0.59,1.12-1.03,1.84-1.34    c0.72-0.3,1.51-0.45,2.39-0.45c0.88,0,1.67,0.15,2.39,0.45c0.72,0.3,1.33,0.75,1.84,1.34c0.51,0.59,0.9,1.32,1.18,2.19    c0.28,0.87,0.42,1.87,0.42,3.01c0,1.14-0.14,2.14-0.42,3.01c-0.28,0.87-0.67,1.6-1.18,2.19c-0.51,0.59-1.12,1.03-1.84,1.34    C979.58,914.35,978.78,914.5,977.9,914.5L977.9,914.5z M977.9,912.56c0.52,0,0.99-0.09,1.42-0.27c0.43-0.18,0.8-0.45,1.1-0.79    c0.3-0.34,0.54-0.76,0.71-1.25c0.17-0.49,0.25-1.05,0.25-1.67v-2.14c0-0.62-0.08-1.18-0.25-1.67c-0.17-0.49-0.4-0.91-0.71-1.25    c-0.3-0.34-0.67-0.6-1.1-0.79c-0.43-0.18-0.91-0.27-1.42-0.27c-0.53,0-1.01,0.09-1.43,0.27c-0.43,0.18-0.79,0.45-1.09,0.79    c-0.3,0.34-0.54,0.76-0.71,1.25c-0.17,0.49-0.25,1.05-0.25,1.67v2.14c0,0.62,0.08,1.18,0.25,1.67c0.17,0.49,0.4,0.91,0.71,1.25    c0.3,0.34,0.67,0.6,1.09,0.79C976.9,912.47,977.37,912.56,977.9,912.56z">
        </path>
        <path class="st5"
          d="M991.68,914.5c-0.88,0-1.67-0.15-2.39-0.45c-0.72-0.3-1.33-0.75-1.84-1.34c-0.51-0.59-0.9-1.32-1.18-2.19    c-0.28-0.87-0.42-1.87-0.42-3.01c0-1.14,0.14-2.14,0.42-3.01c0.28-0.87,0.67-1.6,1.18-2.19c0.51-0.59,1.12-1.03,1.84-1.34    c0.72-0.3,1.51-0.45,2.39-0.45c0.88,0,1.67,0.15,2.39,0.45s1.33,0.75,1.84,1.34c0.51,0.59,0.9,1.32,1.18,2.19    c0.28,0.87,0.42,1.87,0.42,3.01c0,1.14-0.14,2.14-0.42,3.01c-0.28,0.87-0.67,1.6-1.18,2.19c-0.51,0.59-1.12,1.03-1.84,1.34    C993.36,914.35,992.56,914.5,991.68,914.5L991.68,914.5z M991.68,912.56c0.52,0,0.99-0.09,1.42-0.27c0.43-0.18,0.8-0.45,1.1-0.79    c0.3-0.34,0.54-0.76,0.71-1.25c0.17-0.49,0.25-1.05,0.25-1.67v-2.14c0-0.62-0.08-1.18-0.25-1.67c-0.17-0.49-0.4-0.91-0.71-1.25    c-0.3-0.34-0.67-0.6-1.1-0.79c-0.43-0.18-0.91-0.27-1.42-0.27c-0.53,0-1.01,0.09-1.43,0.27c-0.43,0.18-0.79,0.45-1.09,0.79    c-0.3,0.34-0.54,0.76-0.71,1.25c-0.17,0.49-0.25,1.05-0.25,1.67v2.14c0,0.62,0.08,1.18,0.25,1.67c0.17,0.49,0.4,0.91,0.71,1.25    c0.3,0.34,0.67,0.6,1.09,0.79C990.68,912.47,991.15,912.56,991.68,912.56z">
        </path>
        <polygon class="st5"
          points="1010.57,903.93 1010.48,903.93 1009.41,906.12 1006.45,911.52 1003.49,906.12 1002.42,903.93     1002.33,903.93 1002.33,914.26 1000.24,914.26 1000.24,900.76 1002.83,900.76 1006.45,907.63 1006.57,907.63 1010.19,900.76     1012.66,900.76 1012.66,914.26 1010.57,914.26   ">
        </polygon>
        <path class="st5"
          d="M949.7,927.81h-6l-0.35,4.78h0.14c0.15-0.27,0.32-0.51,0.48-0.73c0.17-0.21,0.36-0.4,0.58-0.55    c0.22-0.15,0.47-0.27,0.75-0.36c0.28-0.08,0.62-0.13,1.01-0.13c0.58,0,1.12,0.1,1.62,0.29c0.5,0.19,0.93,0.47,1.3,0.83    c0.37,0.36,0.65,0.8,0.86,1.33c0.21,0.52,0.31,1.11,0.31,1.77c0,0.67-0.11,1.29-0.32,1.86c-0.21,0.57-0.53,1.05-0.94,1.46    c-0.41,0.41-0.92,0.72-1.52,0.95c-0.6,0.23-1.28,0.34-2.04,0.34c-0.61,0-1.14-0.07-1.61-0.2c-0.46-0.14-0.87-0.32-1.23-0.54    c-0.35-0.23-0.66-0.48-0.93-0.77c-0.26-0.29-0.5-0.59-0.71-0.9l1.59-1.26c0.17,0.27,0.34,0.52,0.52,0.74    c0.18,0.22,0.39,0.41,0.62,0.58c0.23,0.17,0.49,0.3,0.78,0.39c0.29,0.09,0.62,0.14,1,0.14c0.8,0,1.42-0.22,1.85-0.66    c0.43-0.44,0.65-1.05,0.65-1.82v-0.23c0-0.77-0.22-1.38-0.65-1.82c-0.43-0.44-1.05-0.66-1.85-0.66c-0.58,0-1.05,0.11-1.39,0.33    c-0.35,0.22-0.65,0.46-0.89,0.74l-1.8-0.25l0.5-7.53h7.66V927.81z">
        </path>
        <path class="st5"
          d="M957.29,939.66c-0.84,0-1.57-0.16-2.19-0.47c-0.62-0.32-1.13-0.77-1.53-1.36c-0.4-0.59-0.7-1.32-0.89-2.19    c-0.19-0.86-0.29-1.85-0.29-2.96c0-1.1,0.1-2.08,0.29-2.95c0.19-0.87,0.49-1.6,0.89-2.2c0.4-0.59,0.91-1.05,1.53-1.36    c0.62-0.32,1.35-0.47,2.19-0.47c1.68,0,2.91,0.61,3.71,1.84c0.79,1.23,1.19,2.94,1.19,5.15c0,2.21-0.4,3.92-1.19,5.15    C960.2,939.04,958.97,939.66,957.29,939.66L957.29,939.66z M957.29,937.8c0.46,0,0.86-0.09,1.19-0.28s0.6-0.46,0.8-0.8    c0.21-0.35,0.35-0.76,0.45-1.25s0.14-1.02,0.14-1.62v-2.36c0-0.59-0.05-1.13-0.14-1.62c-0.09-0.48-0.24-0.9-0.45-1.25    c-0.21-0.35-0.47-0.62-0.8-0.8c-0.33-0.19-0.73-0.28-1.19-0.28s-0.86,0.09-1.19,0.28c-0.33,0.19-0.6,0.45-0.8,0.8    c-0.21,0.35-0.35,0.76-0.45,1.25c-0.09,0.48-0.14,1.02-0.14,1.62v2.36c0,0.59,0.05,1.13,0.14,1.62c0.09,0.48,0.24,0.9,0.45,1.25    c0.21,0.35,0.47,0.62,0.8,0.8S956.83,937.8,957.29,937.8z">
        </path>
        <polygon class="st5"
          points="966.41,939.43 971.3,927.72 966.19,927.72 966.19,930.21 964.32,930.21 964.32,925.92 973.47,925.92     973.47,927.81 968.71,939.43   ">
        </polygon>
      </g>
      <path class="st2"
        d="M654.94,943.79h113.11c15.66,0,28.48-12.81,28.48-28.48l0,0c0-15.66-12.81-28.48-28.48-28.48H654.94   c-15.66,0-28.48,12.81-28.48,28.48l0,0C626.46,930.98,639.28,943.79,654.94,943.79z">
      </path>
      <g>
        <path class="st5"
          d="M661.49,909.84c-1.77,0-3.15-0.6-4.16-1.79c-1.01-1.19-1.51-2.93-1.51-5.2c0-1.14,0.13-2.14,0.39-3    c0.26-0.86,0.63-1.59,1.12-2.19c0.49-0.59,1.09-1.04,1.79-1.35c0.7-0.3,1.49-0.45,2.37-0.45c1.17,0,2.16,0.25,2.95,0.77    c0.79,0.51,1.42,1.27,1.87,2.27l-1.84,1.01c-0.23-0.65-0.59-1.16-1.07-1.54c-0.48-0.38-1.12-0.57-1.91-0.57    c-1.05,0-1.86,0.35-2.46,1.07s-0.89,1.7-0.89,2.95v2.06c0,1.26,0.3,2.24,0.89,2.95s1.41,1.07,2.46,1.07    c0.81,0,1.47-0.21,1.98-0.63c0.51-0.42,0.89-0.96,1.13-1.62l1.76,1.06c-0.45,0.98-1.08,1.74-1.9,2.29    C663.66,909.56,662.67,909.84,661.49,909.84z">
        </path>
        <polygon class="st5"
          points="668.69,909.6 668.69,896.09 670.88,896.09 670.88,907.67 676.38,907.67 676.38,909.6   "></polygon>
        <path class="st5"
          d="M687.41,909.6l-1.22-3.66h-5.05l-1.18,3.66h-2.23l4.61-13.51h2.75l4.61,13.51H687.41L687.41,909.6z     M683.71,898.11h-0.1l-1.95,5.96h3.99L683.71,898.11z">
        </path>
        <path class="st5"
          d="M695.83,909.84c-1.14,0-2.1-0.21-2.89-0.62c-0.79-0.41-1.47-0.97-2.04-1.66l1.51-1.41    c0.48,0.58,1,1.02,1.58,1.32c0.57,0.3,1.23,0.45,1.96,0.45c0.86,0,1.52-0.19,1.95-0.58c0.44-0.39,0.66-0.91,0.66-1.57    c0-0.53-0.15-0.95-0.46-1.26c-0.31-0.31-0.86-0.54-1.64-0.7l-1.2-0.21c-1.32-0.25-2.3-0.68-2.96-1.3    c-0.66-0.62-0.99-1.47-0.99-2.55c0-0.59,0.11-1.13,0.34-1.62c0.23-0.48,0.54-0.89,0.95-1.22c0.41-0.33,0.9-0.58,1.48-0.76    c0.58-0.18,1.23-0.27,1.95-0.27c1.02,0,1.9,0.18,2.65,0.53c0.75,0.35,1.39,0.87,1.92,1.54l-1.53,1.35    c-0.35-0.45-0.77-0.81-1.28-1.08c-0.5-0.27-1.13-0.41-1.88-0.41c-0.77,0-1.37,0.15-1.8,0.46c-0.43,0.31-0.64,0.76-0.64,1.35    c0,0.57,0.17,0.99,0.52,1.27c0.35,0.28,0.89,0.49,1.63,0.63l1.2,0.25c1.35,0.26,2.35,0.7,2.97,1.32c0.63,0.62,0.94,1.47,0.94,2.55    c0,0.63-0.11,1.21-0.33,1.72c-0.22,0.52-0.54,0.96-0.96,1.33c-0.42,0.37-0.93,0.65-1.54,0.85    C697.29,909.74,696.6,909.84,695.83,909.84z">
        </path>
        <path class="st5"
          d="M707.17,909.84c-1.14,0-2.1-0.21-2.89-0.62c-0.79-0.41-1.47-0.97-2.04-1.66l1.51-1.41    c0.48,0.58,1,1.02,1.58,1.32c0.57,0.3,1.23,0.45,1.96,0.45c0.86,0,1.52-0.19,1.95-0.58c0.44-0.39,0.66-0.91,0.66-1.57    c0-0.53-0.15-0.95-0.46-1.26c-0.31-0.31-0.86-0.54-1.64-0.7l-1.2-0.21c-1.32-0.25-2.3-0.68-2.96-1.3    c-0.66-0.62-0.99-1.47-0.99-2.55c0-0.59,0.11-1.13,0.34-1.62c0.23-0.48,0.54-0.89,0.95-1.22c0.41-0.33,0.9-0.58,1.48-0.76    c0.58-0.18,1.23-0.27,1.95-0.27c1.02,0,1.9,0.18,2.65,0.53c0.75,0.35,1.39,0.87,1.92,1.54l-1.53,1.35    c-0.35-0.45-0.77-0.81-1.28-1.08c-0.5-0.27-1.13-0.41-1.88-0.41c-0.77,0-1.37,0.15-1.8,0.46c-0.43,0.31-0.64,0.76-0.64,1.35    c0,0.57,0.17,0.99,0.52,1.27c0.35,0.28,0.89,0.49,1.63,0.63l1.2,0.25c1.35,0.26,2.35,0.7,2.97,1.32c0.63,0.62,0.94,1.47,0.94,2.55    c0,0.63-0.11,1.21-0.33,1.72c-0.22,0.52-0.54,0.96-0.96,1.33c-0.42,0.37-0.93,0.65-1.54,0.85    C708.63,909.74,707.94,909.84,707.17,909.84z">
        </path>
        <path class="st5"
          d="M716.89,909.6h-2.19v-13.51h5.83c1.21,0,2.17,0.36,2.86,1.09c0.7,0.73,1.05,1.72,1.05,2.97    c0,0.97-0.22,1.77-0.67,2.41c-0.45,0.64-1.1,1.09-1.96,1.35l2.92,5.69h-2.44l-2.71-5.46h-2.69V909.6L716.89,909.6z M720.37,902.31    c0.55,0,0.99-0.15,1.3-0.43c0.31-0.29,0.46-0.7,0.46-1.25v-0.92c0-0.54-0.15-0.96-0.46-1.25c-0.31-0.29-0.74-0.43-1.3-0.43h-3.48    v4.28H720.37z">
        </path>
        <path class="st5"
          d="M732.41,909.84c-0.88,0-1.67-0.15-2.39-0.45c-0.72-0.3-1.33-0.75-1.84-1.34c-0.51-0.59-0.9-1.32-1.18-2.19    c-0.28-0.87-0.42-1.87-0.42-3.01c0-1.14,0.14-2.14,0.42-3.01c0.28-0.87,0.67-1.6,1.18-2.19c0.51-0.59,1.12-1.03,1.84-1.34    c0.72-0.3,1.51-0.45,2.39-0.45c0.88,0,1.67,0.15,2.39,0.45c0.72,0.3,1.33,0.75,1.84,1.34c0.51,0.59,0.9,1.32,1.18,2.19    c0.28,0.87,0.42,1.87,0.42,3.01c0,1.14-0.14,2.14-0.42,3.01c-0.28,0.87-0.67,1.6-1.18,2.19c-0.51,0.59-1.12,1.03-1.84,1.34    C734.08,909.68,733.29,909.84,732.41,909.84L732.41,909.84z M732.41,907.9c0.52,0,0.99-0.09,1.42-0.27    c0.43-0.18,0.8-0.45,1.1-0.79c0.3-0.34,0.54-0.76,0.71-1.25c0.17-0.49,0.25-1.05,0.25-1.67v-2.14c0-0.62-0.08-1.18-0.25-1.67    c-0.17-0.49-0.4-0.91-0.71-1.25c-0.3-0.34-0.67-0.6-1.1-0.79c-0.43-0.18-0.91-0.27-1.42-0.27c-0.53,0-1.01,0.09-1.43,0.27    c-0.43,0.18-0.79,0.45-1.09,0.79c-0.3,0.34-0.54,0.76-0.71,1.25c-0.17,0.49-0.25,1.05-0.25,1.67v2.14c0,0.62,0.08,1.18,0.25,1.67    c0.17,0.49,0.4,0.91,0.71,1.25c0.3,0.34,0.67,0.6,1.09,0.79C731.4,907.81,731.88,907.9,732.41,907.9z">
        </path>
        <path class="st5"
          d="M746.19,909.84c-0.88,0-1.67-0.15-2.39-0.45c-0.72-0.3-1.33-0.75-1.84-1.34c-0.51-0.59-0.9-1.32-1.18-2.19    c-0.28-0.87-0.42-1.87-0.42-3.01c0-1.14,0.14-2.14,0.42-3.01c0.28-0.87,0.67-1.6,1.18-2.19c0.51-0.59,1.12-1.03,1.84-1.34    c0.72-0.3,1.51-0.45,2.39-0.45c0.88,0,1.67,0.15,2.39,0.45c0.72,0.3,1.33,0.75,1.84,1.34c0.51,0.59,0.9,1.32,1.18,2.19    c0.28,0.87,0.42,1.87,0.42,3.01c0,1.14-0.14,2.14-0.42,3.01c-0.28,0.87-0.67,1.6-1.18,2.19c-0.51,0.59-1.12,1.03-1.84,1.34    C747.86,909.68,747.07,909.84,746.19,909.84L746.19,909.84z M746.19,907.9c0.52,0,0.99-0.09,1.42-0.27    c0.43-0.18,0.8-0.45,1.1-0.79c0.3-0.34,0.54-0.76,0.71-1.25c0.17-0.49,0.25-1.05,0.25-1.67v-2.14c0-0.62-0.08-1.18-0.25-1.67    c-0.17-0.49-0.4-0.91-0.71-1.25c-0.3-0.34-0.67-0.6-1.1-0.79c-0.43-0.18-0.91-0.27-1.42-0.27c-0.53,0-1.01,0.09-1.43,0.27    c-0.43,0.18-0.79,0.45-1.09,0.79c-0.3,0.34-0.54,0.76-0.71,1.25c-0.17,0.49-0.25,1.05-0.25,1.67v2.14c0,0.62,0.08,1.18,0.25,1.67    c0.17,0.49,0.4,0.91,0.71,1.25c0.3,0.34,0.67,0.6,1.09,0.79C745.18,907.81,745.66,907.9,746.19,907.9z">
        </path>
        <polygon class="st5"
          points="765.08,899.27 764.98,899.27 763.92,901.46 760.96,906.86 757.99,901.46 756.93,899.27     756.83,899.27 756.83,909.6 754.74,909.6 754.74,896.09 757.34,896.09 760.96,902.97 761.07,902.97 764.69,896.09 767.17,896.09     767.17,909.6 765.08,909.6   ">
        </polygon>
        <path class="st5"
          d="M704.21,923.15h-6l-0.35,4.78H698c0.15-0.27,0.32-0.51,0.48-0.73c0.17-0.21,0.36-0.4,0.58-0.55    c0.22-0.15,0.47-0.27,0.75-0.36c0.28-0.08,0.62-0.13,1.01-0.13c0.58,0,1.12,0.1,1.62,0.29c0.5,0.19,0.93,0.47,1.3,0.83    c0.37,0.36,0.65,0.8,0.86,1.33c0.21,0.52,0.31,1.11,0.31,1.77c0,0.67-0.11,1.29-0.32,1.86c-0.21,0.57-0.53,1.05-0.94,1.46    c-0.41,0.41-0.92,0.72-1.52,0.95c-0.6,0.23-1.28,0.34-2.04,0.34c-0.61,0-1.14-0.07-1.61-0.2c-0.46-0.14-0.87-0.32-1.23-0.54    c-0.35-0.23-0.66-0.48-0.93-0.77c-0.26-0.29-0.5-0.59-0.71-0.9l1.59-1.26c0.17,0.27,0.34,0.52,0.52,0.74    c0.18,0.22,0.39,0.41,0.62,0.58c0.23,0.17,0.49,0.3,0.78,0.39s0.62,0.14,1,0.14c0.8,0,1.42-0.22,1.85-0.66    c0.43-0.44,0.65-1.05,0.65-1.82v-0.23c0-0.77-0.22-1.38-0.65-1.82c-0.43-0.44-1.05-0.66-1.85-0.66c-0.58,0-1.05,0.11-1.39,0.33    c-0.35,0.22-0.65,0.46-0.89,0.74l-1.8-0.25l0.5-7.53h7.66V923.15z">
        </path>
        <path class="st5"
          d="M711.8,935c-0.84,0-1.57-0.16-2.19-0.47c-0.62-0.32-1.13-0.77-1.53-1.36c-0.4-0.59-0.7-1.32-0.89-2.19    c-0.19-0.86-0.29-1.85-0.29-2.96c0-1.1,0.1-2.08,0.29-2.95c0.19-0.87,0.49-1.6,0.89-2.2c0.4-0.59,0.91-1.05,1.53-1.36    c0.62-0.32,1.35-0.47,2.19-0.47c1.68,0,2.91,0.61,3.71,1.84c0.79,1.23,1.19,2.94,1.19,5.15c0,2.21-0.4,3.92-1.19,5.15    C714.71,934.38,713.47,935,711.8,935L711.8,935z M711.8,933.14c0.46,0,0.86-0.09,1.19-0.28c0.33-0.19,0.6-0.45,0.8-0.8    c0.21-0.35,0.35-0.76,0.44-1.25c0.09-0.48,0.14-1.02,0.14-1.62v-2.36c0-0.59-0.05-1.13-0.14-1.62c-0.09-0.48-0.24-0.9-0.44-1.25    c-0.21-0.35-0.47-0.62-0.8-0.8c-0.33-0.19-0.73-0.28-1.19-0.28s-0.86,0.09-1.19,0.28c-0.33,0.19-0.6,0.45-0.8,0.8    c-0.21,0.35-0.35,0.76-0.45,1.25c-0.09,0.48-0.14,1.02-0.14,1.62v2.36c0,0.59,0.05,1.13,0.14,1.62c0.09,0.48,0.24,0.9,0.45,1.25    c0.21,0.35,0.47,0.62,0.8,0.8C710.93,933.04,711.33,933.14,711.8,933.14z">
        </path>
        <path class="st5"
          d="M723.41,935c-0.79,0-1.48-0.1-2.08-0.3c-0.6-0.2-1.1-0.47-1.51-0.82c-0.41-0.35-0.72-0.76-0.93-1.24    c-0.21-0.48-0.32-0.99-0.32-1.55c0-0.9,0.25-1.63,0.75-2.18c0.5-0.55,1.15-0.93,1.96-1.15v-0.15c-0.7-0.25-1.25-0.63-1.67-1.16    c-0.42-0.53-0.63-1.18-0.63-1.95c0-0.52,0.1-0.99,0.3-1.41c0.2-0.43,0.49-0.79,0.86-1.09c0.37-0.3,0.84-0.54,1.39-0.71    c0.55-0.17,1.18-0.25,1.88-0.25c0.7,0,1.32,0.08,1.88,0.25c0.55,0.17,1.02,0.4,1.39,0.71c0.37,0.3,0.66,0.67,0.86,1.09    c0.2,0.43,0.3,0.9,0.3,1.41c0,0.77-0.21,1.43-0.63,1.95c-0.42,0.53-0.98,0.92-1.67,1.16v0.15c0.81,0.22,1.47,0.6,1.96,1.15    c0.5,0.55,0.74,1.27,0.74,2.18c0,0.55-0.11,1.07-0.32,1.55c-0.21,0.48-0.52,0.89-0.93,1.24c-0.41,0.35-0.91,0.62-1.51,0.82    C724.89,934.9,724.2,935,723.41,935L723.41,935z M723.41,933.23c0.81,0,1.44-0.19,1.89-0.56c0.44-0.37,0.67-0.9,0.67-1.57v-0.39    c0-0.67-0.22-1.19-0.67-1.57c-0.45-0.37-1.07-0.56-1.89-0.56s-1.44,0.19-1.89,0.56c-0.45,0.37-0.67,0.9-0.67,1.57v0.39    c0,0.67,0.22,1.19,0.67,1.57C721.97,933.05,722.6,933.23,723.41,933.23L723.41,933.23z M723.41,926.91c0.75,0,1.32-0.16,1.71-0.48    c0.39-0.32,0.59-0.79,0.59-1.41v-0.33c0-0.62-0.2-1.09-0.59-1.41c-0.39-0.32-0.96-0.48-1.71-0.48c-0.75,0-1.32,0.16-1.71,0.48    c-0.39,0.32-0.59,0.79-0.59,1.41v0.33c0,0.62,0.2,1.09,0.59,1.41C722.09,926.74,722.66,926.91,723.41,926.91z">
        </path>
      </g>
      <path class="st2"
        d="M423.43,932.91h113.11c15.66,0,28.48-12.81,28.48-28.48l0,0c0-15.66-12.81-28.48-28.48-28.48H423.43   c-15.66,0-28.48,12.81-28.48,28.48l0,0C394.95,920.1,407.77,932.91,423.43,932.91z">
      </path>
      <g>
        <path class="st5"
          d="M429.98,898.96c-1.77,0-3.15-0.6-4.16-1.79c-1.01-1.19-1.51-2.93-1.51-5.2c0-1.14,0.13-2.14,0.39-3    c0.26-0.86,0.63-1.59,1.12-2.19c0.49-0.59,1.09-1.04,1.79-1.34c0.7-0.3,1.49-0.46,2.37-0.46c1.17,0,2.16,0.25,2.95,0.77    c0.79,0.51,1.42,1.27,1.87,2.27l-1.84,1.01c-0.23-0.65-0.59-1.16-1.07-1.54c-0.48-0.38-1.12-0.57-1.91-0.57    c-1.05,0-1.86,0.35-2.46,1.07s-0.89,1.7-0.89,2.95V893c0,1.26,0.3,2.24,0.89,2.95s1.41,1.07,2.46,1.07c0.81,0,1.47-0.21,1.98-0.63    c0.51-0.42,0.89-0.96,1.13-1.62l1.76,1.06c-0.45,0.98-1.08,1.74-1.9,2.29C432.15,898.68,431.16,898.96,429.98,898.96z">
        </path>
        <polygon class="st5"
          points="437.18,898.73 437.18,885.22 439.37,885.22 439.37,896.79 444.87,896.79 444.87,898.73   "></polygon>
        <path class="st5"
          d="M455.9,898.73l-1.22-3.66h-5.05l-1.18,3.66h-2.23l4.61-13.51h2.75l4.61,13.51H455.9L455.9,898.73z     M452.2,887.23h-0.1l-1.95,5.96h3.99L452.2,887.23z">
        </path>
        <path class="st5"
          d="M464.32,898.96c-1.14,0-2.1-0.21-2.89-0.62c-0.79-0.41-1.47-0.97-2.04-1.66l1.51-1.41    c0.48,0.58,1,1.02,1.58,1.32c0.57,0.3,1.23,0.45,1.96,0.45c0.86,0,1.52-0.19,1.95-0.58c0.44-0.39,0.66-0.91,0.66-1.57    c0-0.53-0.15-0.95-0.46-1.26c-0.31-0.31-0.86-0.54-1.65-0.7l-1.2-0.21c-1.32-0.25-2.3-0.68-2.96-1.3    c-0.66-0.62-0.99-1.47-0.99-2.55c0-0.59,0.11-1.13,0.34-1.62c0.23-0.48,0.54-0.89,0.95-1.22c0.41-0.33,0.9-0.58,1.48-0.76    c0.58-0.18,1.23-0.27,1.95-0.27c1.02,0,1.9,0.18,2.65,0.53c0.75,0.35,1.39,0.87,1.92,1.54l-1.53,1.35    c-0.35-0.45-0.77-0.81-1.28-1.08c-0.5-0.27-1.13-0.41-1.88-0.41c-0.77,0-1.37,0.15-1.8,0.46c-0.43,0.31-0.64,0.76-0.64,1.35    c0,0.57,0.17,0.99,0.52,1.27c0.35,0.28,0.89,0.49,1.63,0.63l1.2,0.25c1.35,0.26,2.35,0.7,2.97,1.32c0.63,0.62,0.94,1.47,0.94,2.55    c0,0.63-0.11,1.21-0.33,1.72c-0.22,0.52-0.54,0.96-0.96,1.33c-0.42,0.37-0.93,0.65-1.54,0.85    C465.78,898.86,465.09,898.96,464.32,898.96z">
        </path>
        <path class="st5"
          d="M475.66,898.96c-1.14,0-2.1-0.21-2.89-0.62c-0.79-0.41-1.47-0.97-2.04-1.66l1.51-1.41    c0.48,0.58,1,1.02,1.58,1.32c0.57,0.3,1.23,0.45,1.96,0.45c0.86,0,1.52-0.19,1.95-0.58c0.44-0.39,0.66-0.91,0.66-1.57    c0-0.53-0.15-0.95-0.46-1.26c-0.31-0.31-0.86-0.54-1.65-0.7l-1.2-0.21c-1.32-0.25-2.3-0.68-2.96-1.3    c-0.66-0.62-0.99-1.47-0.99-2.55c0-0.59,0.11-1.13,0.34-1.62c0.23-0.48,0.54-0.89,0.95-1.22c0.41-0.33,0.9-0.58,1.48-0.76    c0.58-0.18,1.23-0.27,1.95-0.27c1.02,0,1.9,0.18,2.65,0.53c0.75,0.35,1.39,0.87,1.92,1.54l-1.53,1.35    c-0.35-0.45-0.77-0.81-1.28-1.08c-0.5-0.27-1.13-0.41-1.88-0.41c-0.77,0-1.37,0.15-1.8,0.46c-0.43,0.31-0.64,0.76-0.64,1.35    c0,0.57,0.17,0.99,0.52,1.27c0.35,0.28,0.89,0.49,1.63,0.63l1.2,0.25c1.35,0.26,2.35,0.7,2.97,1.32c0.63,0.62,0.94,1.47,0.94,2.55    c0,0.63-0.11,1.21-0.33,1.72c-0.22,0.52-0.54,0.96-0.96,1.33c-0.42,0.37-0.93,0.65-1.54,0.85    C477.12,898.86,476.43,898.96,475.66,898.96z">
        </path>
        <path class="st5"
          d="M485.38,898.73h-2.19v-13.51h5.83c1.21,0,2.17,0.36,2.86,1.09c0.7,0.73,1.05,1.72,1.05,2.97    c0,0.97-0.22,1.77-0.67,2.41c-0.45,0.64-1.1,1.09-1.96,1.35l2.92,5.69h-2.44l-2.71-5.46h-2.69V898.73L485.38,898.73z     M488.86,891.43c0.55,0,0.99-0.15,1.3-0.43c0.31-0.29,0.46-0.7,0.46-1.25v-0.92c0-0.54-0.15-0.95-0.46-1.25    c-0.31-0.29-0.74-0.43-1.3-0.43h-3.48v4.28H488.86z">
        </path>
        <path class="st5"
          d="M500.9,898.96c-0.88,0-1.67-0.15-2.39-0.45c-0.72-0.3-1.33-0.75-1.84-1.34c-0.51-0.59-0.9-1.32-1.18-2.19    c-0.28-0.87-0.42-1.87-0.42-3.01c0-1.14,0.14-2.14,0.42-3.01c0.28-0.87,0.67-1.6,1.18-2.19c0.51-0.59,1.12-1.03,1.84-1.34    c0.72-0.3,1.51-0.46,2.39-0.46c0.88,0,1.67,0.15,2.39,0.46c0.72,0.3,1.33,0.75,1.84,1.34c0.51,0.59,0.9,1.32,1.18,2.19    c0.28,0.87,0.42,1.87,0.42,3.01c0,1.14-0.14,2.14-0.42,3.01c-0.28,0.87-0.67,1.6-1.18,2.19c-0.51,0.59-1.12,1.03-1.84,1.34    C502.57,898.81,501.78,898.96,500.9,898.96L500.9,898.96z M500.9,897.02c0.52,0,0.99-0.09,1.42-0.27c0.43-0.18,0.8-0.45,1.1-0.79    c0.3-0.34,0.54-0.76,0.71-1.25c0.17-0.49,0.25-1.05,0.25-1.67v-2.14c0-0.62-0.08-1.18-0.25-1.67c-0.17-0.49-0.4-0.91-0.71-1.25    c-0.3-0.34-0.67-0.6-1.1-0.79c-0.43-0.18-0.91-0.27-1.42-0.27c-0.53,0-1.01,0.09-1.43,0.27c-0.43,0.18-0.79,0.45-1.09,0.79    c-0.3,0.34-0.54,0.76-0.71,1.25c-0.17,0.49-0.25,1.05-0.25,1.67v2.14c0,0.62,0.08,1.18,0.25,1.67c0.17,0.49,0.4,0.91,0.71,1.25    c0.3,0.34,0.67,0.6,1.09,0.79C499.89,896.93,500.37,897.02,500.9,897.02z">
        </path>
        <path class="st5"
          d="M514.68,898.96c-0.88,0-1.67-0.15-2.39-0.45c-0.72-0.3-1.33-0.75-1.84-1.34c-0.51-0.59-0.9-1.32-1.18-2.19    c-0.28-0.87-0.42-1.87-0.42-3.01c0-1.14,0.14-2.14,0.42-3.01c0.28-0.87,0.67-1.6,1.18-2.19c0.51-0.59,1.12-1.03,1.84-1.34    c0.72-0.3,1.51-0.46,2.39-0.46c0.88,0,1.67,0.15,2.39,0.46c0.72,0.3,1.33,0.75,1.84,1.34c0.51,0.59,0.9,1.32,1.18,2.19    c0.28,0.87,0.42,1.87,0.42,3.01c0,1.14-0.14,2.14-0.42,3.01c-0.28,0.87-0.67,1.6-1.18,2.19c-0.51,0.59-1.12,1.03-1.84,1.34    C516.35,898.81,515.56,898.96,514.68,898.96L514.68,898.96z M514.68,897.02c0.52,0,0.99-0.09,1.42-0.27    c0.43-0.18,0.8-0.45,1.1-0.79c0.3-0.34,0.54-0.76,0.71-1.25c0.17-0.49,0.25-1.05,0.25-1.67v-2.14c0-0.62-0.08-1.18-0.25-1.67    c-0.17-0.49-0.4-0.91-0.71-1.25c-0.3-0.34-0.67-0.6-1.1-0.79c-0.43-0.18-0.91-0.27-1.42-0.27c-0.53,0-1.01,0.09-1.43,0.27    c-0.43,0.18-0.79,0.45-1.09,0.79c-0.3,0.34-0.54,0.76-0.71,1.25c-0.17,0.49-0.25,1.05-0.25,1.67v2.14c0,0.62,0.08,1.18,0.25,1.67    c0.17,0.49,0.4,0.91,0.71,1.25c0.3,0.34,0.67,0.6,1.09,0.79C513.67,896.93,514.15,897.02,514.68,897.02z">
        </path>
        <polygon class="st5"
          points="533.57,888.39 533.47,888.39 532.41,890.58 529.44,895.98 526.48,890.58 525.42,888.39     525.32,888.39 525.32,898.73 523.23,898.73 523.23,885.22 525.83,885.22 529.44,892.09 529.56,892.09 533.18,885.22     535.66,885.22 535.66,898.73 533.57,898.73   ">
        </polygon>
        <path class="st5"
          d="M472.7,912.27h-6l-0.35,4.78h0.14c0.15-0.27,0.32-0.51,0.48-0.73c0.17-0.21,0.36-0.4,0.58-0.55    s0.47-0.27,0.75-0.36c0.28-0.08,0.62-0.13,1.01-0.13c0.58,0,1.12,0.1,1.62,0.29c0.5,0.19,0.93,0.47,1.3,0.83    c0.37,0.36,0.65,0.8,0.86,1.33c0.21,0.52,0.31,1.11,0.31,1.77c0,0.67-0.11,1.29-0.32,1.86c-0.21,0.57-0.53,1.05-0.94,1.46    c-0.41,0.41-0.92,0.72-1.52,0.95c-0.6,0.23-1.28,0.34-2.04,0.34c-0.61,0-1.14-0.07-1.61-0.2c-0.46-0.14-0.87-0.32-1.23-0.54    c-0.35-0.23-0.66-0.48-0.93-0.77c-0.26-0.29-0.5-0.59-0.71-0.9l1.59-1.26c0.17,0.27,0.34,0.52,0.52,0.74    c0.18,0.22,0.39,0.41,0.62,0.58c0.23,0.17,0.49,0.3,0.78,0.39c0.29,0.09,0.62,0.14,1,0.14c0.8,0,1.42-0.22,1.85-0.66    c0.43-0.44,0.65-1.05,0.65-1.82v-0.23c0-0.77-0.22-1.38-0.65-1.82c-0.43-0.44-1.05-0.66-1.85-0.66c-0.58,0-1.05,0.11-1.39,0.33    c-0.35,0.22-0.65,0.46-0.89,0.74l-1.8-0.25l0.5-7.53h7.66V912.27z">
        </path>
        <path class="st5"
          d="M480.29,924.12c-0.84,0-1.57-0.16-2.19-0.47c-0.62-0.32-1.13-0.77-1.53-1.36c-0.4-0.59-0.7-1.32-0.89-2.19    c-0.19-0.86-0.29-1.85-0.29-2.96c0-1.1,0.1-2.08,0.29-2.95c0.19-0.87,0.49-1.6,0.89-2.2c0.4-0.59,0.91-1.05,1.53-1.36    c0.62-0.32,1.35-0.47,2.19-0.47c1.68,0,2.91,0.61,3.71,1.84c0.79,1.23,1.19,2.94,1.19,5.15c0,2.21-0.4,3.92-1.19,5.15    C483.2,923.51,481.96,924.12,480.29,924.12L480.29,924.12z M480.29,922.26c0.46,0,0.86-0.09,1.19-0.28c0.33-0.19,0.6-0.46,0.8-0.8    c0.21-0.35,0.35-0.76,0.45-1.25c0.09-0.48,0.14-1.02,0.14-1.62v-2.36c0-0.59-0.05-1.13-0.14-1.62c-0.09-0.48-0.24-0.9-0.45-1.25    c-0.21-0.35-0.47-0.62-0.8-0.8c-0.33-0.19-0.73-0.28-1.19-0.28s-0.86,0.09-1.19,0.28c-0.33,0.19-0.6,0.45-0.8,0.8    c-0.21,0.35-0.35,0.76-0.45,1.25c-0.09,0.48-0.14,1.02-0.14,1.62v2.36c0,0.59,0.05,1.13,0.14,1.62c0.09,0.48,0.24,0.9,0.45,1.25    c0.21,0.35,0.47,0.62,0.8,0.8C479.42,922.17,479.82,922.26,480.29,922.26z">
        </path>
        <path class="st5"
          d="M496.62,915.41c0,0.98-0.15,1.9-0.45,2.77c-0.3,0.86-0.68,1.66-1.14,2.38c-0.46,0.72-0.98,1.37-1.56,1.94    c-0.57,0.57-1.14,1.03-1.69,1.39h-2.9c0.76-0.55,1.45-1.09,2.05-1.61c0.61-0.52,1.14-1.05,1.59-1.59    c0.45-0.54,0.83-1.12,1.13-1.72c0.3-0.61,0.54-1.27,0.71-1.99l-0.14-0.04c-0.14,0.27-0.31,0.53-0.49,0.76    c-0.19,0.24-0.41,0.45-0.66,0.63c-0.25,0.18-0.54,0.32-0.86,0.43c-0.32,0.1-0.7,0.15-1.12,0.15c-0.57,0-1.09-0.1-1.58-0.29    c-0.48-0.19-0.9-0.47-1.26-0.84c-0.35-0.37-0.63-0.81-0.83-1.32s-0.3-1.09-0.3-1.73c0-0.67,0.11-1.29,0.34-1.86    c0.23-0.57,0.55-1.05,0.96-1.45c0.41-0.4,0.91-0.71,1.49-0.94c0.58-0.23,1.23-0.34,1.95-0.34c0.75,0,1.42,0.12,2,0.37    c0.59,0.24,1.08,0.6,1.49,1.05c0.41,0.46,0.72,1.01,0.94,1.65C496.51,913.87,496.62,914.6,496.62,915.41L496.62,915.41z     M491.86,917.15c0.79,0,1.4-0.21,1.84-0.63c0.44-0.42,0.66-1.04,0.66-1.85v-0.27c0-0.81-0.22-1.43-0.66-1.85    c-0.44-0.42-1.05-0.63-1.84-0.63c-0.79,0-1.4,0.21-1.84,0.63c-0.44,0.42-0.66,1.04-0.66,1.85v0.27c0,0.81,0.22,1.43,0.66,1.85    C490.46,916.94,491.07,917.15,491.86,917.15z">
        </path>
      </g>
      <path class="st2"
        d="M193.47,918.93h113.11c15.66,0,28.48-12.81,28.48-28.48l0,0c0-15.66-12.81-28.48-28.48-28.48H193.47   c-15.66,0-28.48,12.81-28.48,28.48l0,0C165,906.11,177.81,918.93,193.47,918.93z">
      </path>
      <g>
        <path class="st5"
          d="M200.03,884.98c-1.77,0-3.15-0.6-4.16-1.79c-1.01-1.19-1.51-2.93-1.51-5.2c0-1.14,0.13-2.14,0.39-3    c0.26-0.86,0.63-1.59,1.12-2.19c0.49-0.59,1.09-1.04,1.79-1.35c0.7-0.3,1.49-0.45,2.37-0.45c1.17,0,2.16,0.25,2.95,0.77    c0.79,0.51,1.42,1.27,1.87,2.27l-1.84,1.01c-0.23-0.65-0.59-1.16-1.07-1.54c-0.48-0.38-1.12-0.57-1.91-0.57    c-1.05,0-1.86,0.35-2.46,1.07c-0.59,0.71-0.89,1.7-0.89,2.95v2.06c0,1.26,0.3,2.24,0.89,2.95c0.59,0.71,1.41,1.07,2.46,1.07    c0.81,0,1.47-0.21,1.98-0.63c0.51-0.42,0.89-0.96,1.13-1.62l1.76,1.06c-0.45,0.98-1.08,1.74-1.9,2.29    C202.2,884.7,201.2,884.98,200.03,884.98z">
        </path>
        <polygon class="st5"
          points="207.23,884.74 207.23,871.23 209.41,871.23 209.41,882.81 214.91,882.81 214.91,884.74   "></polygon>
        <path class="st5"
          d="M225.94,884.74l-1.22-3.66h-5.05l-1.18,3.66h-2.23l4.61-13.51h2.75l4.61,13.51H225.94L225.94,884.74z     M222.25,873.25h-0.1l-1.95,5.96h3.99L222.25,873.25z">
        </path>
        <path class="st5"
          d="M234.36,884.98c-1.14,0-2.1-0.21-2.89-0.62c-0.79-0.41-1.47-0.97-2.04-1.66l1.51-1.41    c0.48,0.58,1,1.02,1.58,1.32c0.57,0.3,1.23,0.45,1.96,0.45c0.86,0,1.52-0.19,1.95-0.58c0.44-0.39,0.66-0.91,0.66-1.57    c0-0.53-0.15-0.95-0.46-1.26c-0.31-0.31-0.86-0.54-1.64-0.7l-1.2-0.21c-1.32-0.25-2.3-0.68-2.96-1.3    c-0.66-0.62-0.99-1.47-0.99-2.55c0-0.59,0.11-1.13,0.34-1.62c0.23-0.48,0.54-0.89,0.95-1.22c0.41-0.33,0.9-0.58,1.48-0.76    c0.58-0.18,1.23-0.27,1.95-0.27c1.02,0,1.9,0.18,2.65,0.53c0.75,0.35,1.39,0.87,1.92,1.54l-1.53,1.35    c-0.35-0.45-0.77-0.81-1.28-1.08c-0.5-0.27-1.13-0.41-1.88-0.41c-0.77,0-1.37,0.15-1.8,0.46c-0.43,0.31-0.64,0.76-0.64,1.35    c0,0.57,0.17,0.99,0.52,1.27c0.35,0.28,0.89,0.49,1.63,0.63l1.2,0.25c1.35,0.26,2.35,0.7,2.97,1.32c0.63,0.62,0.94,1.47,0.94,2.55    c0,0.63-0.11,1.21-0.33,1.72c-0.22,0.52-0.54,0.96-0.96,1.33c-0.42,0.37-0.93,0.65-1.54,0.85    C235.83,884.88,235.14,884.98,234.36,884.98z">
        </path>
        <path class="st5"
          d="M245.7,884.98c-1.14,0-2.1-0.21-2.89-0.62c-0.79-0.41-1.47-0.97-2.04-1.66l1.51-1.41    c0.48,0.58,1,1.02,1.58,1.32c0.57,0.3,1.23,0.45,1.96,0.45c0.86,0,1.52-0.19,1.95-0.58c0.44-0.39,0.66-0.91,0.66-1.57    c0-0.53-0.15-0.95-0.46-1.26c-0.31-0.31-0.86-0.54-1.64-0.7l-1.2-0.21c-1.32-0.25-2.3-0.68-2.96-1.3    c-0.66-0.62-0.99-1.47-0.99-2.55c0-0.59,0.11-1.13,0.34-1.62c0.23-0.48,0.54-0.89,0.95-1.22c0.41-0.33,0.9-0.58,1.48-0.76    c0.58-0.18,1.23-0.27,1.95-0.27c1.02,0,1.9,0.18,2.65,0.53c0.75,0.35,1.39,0.87,1.92,1.54l-1.53,1.35    c-0.35-0.45-0.77-0.81-1.28-1.08c-0.5-0.27-1.13-0.41-1.88-0.41c-0.77,0-1.37,0.15-1.8,0.46c-0.43,0.31-0.64,0.76-0.64,1.35    c0,0.57,0.17,0.99,0.52,1.27c0.35,0.28,0.89,0.49,1.63,0.63l1.2,0.25c1.35,0.26,2.35,0.7,2.97,1.32c0.63,0.62,0.94,1.47,0.94,2.55    c0,0.63-0.11,1.21-0.33,1.72c-0.22,0.52-0.54,0.96-0.96,1.33c-0.42,0.37-0.93,0.65-1.54,0.85    C247.17,884.88,246.48,884.98,245.7,884.98z">
        </path>
        <path class="st5"
          d="M255.42,884.74h-2.19v-13.51h5.83c1.21,0,2.17,0.36,2.86,1.09c0.7,0.73,1.05,1.72,1.05,2.97    c0,0.97-0.22,1.77-0.67,2.41c-0.45,0.64-1.1,1.09-1.96,1.35l2.92,5.69h-2.44l-2.71-5.46h-2.69V884.74L255.42,884.74z     M258.9,877.45c0.55,0,0.99-0.15,1.3-0.43c0.31-0.29,0.46-0.7,0.46-1.25v-0.92c0-0.54-0.15-0.96-0.46-1.25    c-0.31-0.29-0.74-0.43-1.3-0.43h-3.48v4.28H258.9z">
        </path>
        <path class="st5"
          d="M270.94,884.98c-0.88,0-1.67-0.15-2.39-0.45c-0.72-0.3-1.33-0.75-1.84-1.34c-0.51-0.59-0.9-1.32-1.18-2.19    c-0.28-0.87-0.42-1.87-0.42-3.01c0-1.14,0.14-2.14,0.42-3.01c0.28-0.87,0.67-1.6,1.18-2.19c0.51-0.59,1.12-1.03,1.84-1.34    c0.72-0.3,1.51-0.45,2.39-0.45c0.88,0,1.67,0.15,2.39,0.45c0.72,0.3,1.33,0.75,1.84,1.34c0.51,0.59,0.9,1.32,1.18,2.19    c0.28,0.87,0.42,1.87,0.42,3.01c0,1.14-0.14,2.14-0.42,3.01c-0.28,0.87-0.67,1.6-1.18,2.19c-0.51,0.59-1.12,1.03-1.84,1.34    C272.62,884.82,271.82,884.98,270.94,884.98L270.94,884.98z M270.94,883.04c0.52,0,0.99-0.09,1.42-0.27    c0.43-0.18,0.8-0.45,1.1-0.79c0.3-0.34,0.54-0.76,0.71-1.25c0.17-0.49,0.25-1.05,0.25-1.67v-2.14c0-0.62-0.08-1.18-0.25-1.67    c-0.17-0.49-0.4-0.91-0.71-1.25c-0.3-0.34-0.67-0.6-1.1-0.79c-0.43-0.18-0.91-0.27-1.42-0.27c-0.53,0-1.01,0.09-1.43,0.27    c-0.43,0.18-0.79,0.45-1.09,0.79c-0.3,0.35-0.54,0.76-0.71,1.25c-0.17,0.49-0.25,1.05-0.25,1.67v2.14c0,0.62,0.08,1.18,0.25,1.67    c0.17,0.49,0.4,0.91,0.71,1.25c0.3,0.34,0.67,0.6,1.09,0.79C269.93,882.95,270.41,883.04,270.94,883.04z">
        </path>
        <path class="st5"
          d="M284.72,884.98c-0.88,0-1.67-0.15-2.39-0.45c-0.72-0.3-1.33-0.75-1.84-1.34c-0.51-0.59-0.9-1.32-1.18-2.19    c-0.28-0.87-0.42-1.87-0.42-3.01c0-1.14,0.14-2.14,0.42-3.01c0.28-0.87,0.67-1.6,1.18-2.19c0.51-0.59,1.12-1.03,1.84-1.34    c0.72-0.3,1.51-0.45,2.39-0.45c0.88,0,1.67,0.15,2.39,0.45c0.72,0.3,1.33,0.75,1.84,1.34c0.51,0.59,0.9,1.32,1.18,2.19    c0.28,0.87,0.42,1.87,0.42,3.01c0,1.14-0.14,2.14-0.42,3.01c-0.28,0.87-0.67,1.6-1.18,2.19c-0.51,0.59-1.12,1.03-1.84,1.34    C286.4,884.82,285.6,884.98,284.72,884.98L284.72,884.98z M284.72,883.04c0.52,0,0.99-0.09,1.42-0.27c0.43-0.18,0.8-0.45,1.1-0.79    c0.3-0.34,0.54-0.76,0.71-1.25c0.17-0.49,0.25-1.05,0.25-1.67v-2.14c0-0.62-0.08-1.18-0.25-1.67c-0.17-0.49-0.4-0.91-0.71-1.25    c-0.3-0.34-0.67-0.6-1.1-0.79c-0.43-0.18-0.91-0.27-1.42-0.27c-0.53,0-1.01,0.09-1.43,0.27c-0.43,0.18-0.79,0.45-1.09,0.79    c-0.3,0.35-0.54,0.76-0.71,1.25c-0.17,0.49-0.25,1.05-0.25,1.67v2.14c0,0.62,0.08,1.18,0.25,1.67c0.17,0.49,0.4,0.91,0.71,1.25    c0.3,0.34,0.67,0.6,1.09,0.79C283.71,882.95,284.19,883.04,284.72,883.04z">
        </path>
        <polygon class="st5"
          points="303.61,874.41 303.51,874.41 302.45,876.6 299.49,882 296.53,876.6 295.46,874.41 295.37,874.41     295.37,884.74 293.28,884.74 293.28,871.23 295.87,871.23 299.49,878.1 299.6,878.1 303.22,871.23 305.7,871.23 305.7,884.74     303.61,884.74   ">
        </polygon>
        <path class="st5"
          d="M242.74,898.29h-6l-0.35,4.78h0.14c0.15-0.27,0.32-0.51,0.48-0.73c0.17-0.21,0.36-0.4,0.58-0.55    c0.22-0.15,0.47-0.27,0.75-0.36c0.28-0.08,0.62-0.13,1.01-0.13c0.58,0,1.12,0.1,1.62,0.29c0.5,0.19,0.93,0.47,1.3,0.83    c0.37,0.36,0.65,0.8,0.86,1.33c0.21,0.52,0.31,1.11,0.31,1.77c0,0.67-0.11,1.29-0.32,1.86c-0.21,0.57-0.53,1.05-0.94,1.46    c-0.41,0.41-0.92,0.72-1.52,0.95c-0.6,0.23-1.28,0.34-2.04,0.34c-0.61,0-1.14-0.07-1.61-0.2c-0.46-0.14-0.87-0.32-1.23-0.54    c-0.35-0.23-0.66-0.48-0.93-0.77c-0.26-0.29-0.5-0.59-0.71-0.9l1.59-1.26c0.17,0.27,0.34,0.52,0.52,0.74    c0.18,0.22,0.39,0.41,0.62,0.58c0.23,0.17,0.49,0.3,0.78,0.39s0.62,0.14,1,0.14c0.8,0,1.42-0.22,1.85-0.66    c0.43-0.44,0.65-1.05,0.65-1.82v-0.23c0-0.77-0.22-1.38-0.65-1.82c-0.43-0.44-1.05-0.66-1.85-0.66c-0.58,0-1.05,0.11-1.39,0.33    c-0.35,0.22-0.65,0.46-0.89,0.74l-1.8-0.25l0.5-7.53h7.66V898.29z">
        </path>
        <polygon class="st5"
          points="246.23,909.9 246.23,908.08 250.02,908.08 250.02,897.98 249.86,897.98 246.73,901.33 245.39,900.13     248.84,896.39 252.17,896.39 252.17,908.08 255.46,908.08 255.46,909.9   ">
        </polygon>
        <path class="st5"
          d="M261.94,910.14c-0.84,0-1.57-0.16-2.19-0.47c-0.62-0.32-1.13-0.77-1.53-1.36c-0.4-0.59-0.7-1.32-0.89-2.19    c-0.19-0.86-0.29-1.85-0.29-2.96c0-1.1,0.1-2.08,0.29-2.95c0.19-0.87,0.49-1.6,0.89-2.2c0.4-0.59,0.91-1.05,1.53-1.36    c0.62-0.32,1.35-0.47,2.19-0.47c1.68,0,2.91,0.61,3.71,1.84c0.79,1.23,1.19,2.94,1.19,5.15c0,2.21-0.4,3.92-1.19,5.15    C264.85,909.52,263.62,910.14,261.94,910.14L261.94,910.14z M261.94,908.28c0.46,0,0.86-0.09,1.19-0.28    c0.33-0.19,0.6-0.45,0.8-0.8c0.21-0.35,0.35-0.76,0.45-1.25c0.09-0.48,0.14-1.02,0.14-1.62v-2.36c0-0.59-0.05-1.13-0.14-1.62    c-0.09-0.48-0.24-0.9-0.45-1.25c-0.21-0.35-0.47-0.62-0.8-0.8c-0.33-0.19-0.73-0.28-1.19-0.28s-0.86,0.09-1.19,0.28    c-0.33,0.19-0.6,0.45-0.8,0.8c-0.21,0.35-0.35,0.76-0.45,1.25c-0.09,0.48-0.14,1.02-0.14,1.62v2.36c0,0.59,0.05,1.13,0.14,1.62    c0.09,0.48,0.24,0.9,0.45,1.25c0.21,0.35,0.47,0.62,0.8,0.8C261.08,908.18,261.48,908.28,261.94,908.28z">
        </path>
      </g>
    </g>

    <!---->

    <defs>
      <filter id="dropShadow794944">
        <feDropShadow dx="0" dy="0" stdDeviation="2" flood-opacity="0.2"></feDropShadow>
      </filter>
    </defs>

    

    <!---->
    

    <!---->
    <!---->
    <!---->
    <rect role="button" x="949.1172485351562" y="85.72228240966797" width="514.3336791992188"
      height="295.26563262939453" opacity="0" class="cursor-pointer"></rect>



    <defs>
      <filter id="dropShadow794954">
        <feDropShadow dx="0" dy="0" stdDeviation="2" flood-opacity="0.2"></feDropShadow>
      </filter>
    </defs>

    

    <!---->
    

    <!---->
    <!---->
    <!---->
    <rect role="button" x="1337.2486572265625" y="816.7428588867188" width="214.3056640625" height="278.59747314453125"
      opacity="0" class="cursor-pointer"></rect>



    <defs>
      <filter id="dropShadow794955">
        <feDropShadow dx="0" dy="0" stdDeviation="2" flood-opacity="0.2"></feDropShadow>
      </filter>
    </defs>

    

    <!---->
    

    <!---->
    <!---->
    <!---->
    <rect role="button" x="1106.2747802734375" y="795.312255859375" width="211.9244384765625" height="278.597412109375"
      opacity="0" class="cursor-pointer"></rect>



    <defs>
      <filter id="dropShadow794956">
        <feDropShadow dx="0" dy="0" stdDeviation="2" flood-opacity="0.2"></feDropShadow>
      </filter>
    </defs>

    

    <!---->
    

    <!---->
    <!---->
    <!---->
    <rect role="button" x="846.7266845703125" y="773.8817138671875" width="233.3551025390625" height="295.265625"
      opacity="0" class="cursor-pointer"></rect>



    <defs>
      <filter id="dropShadow794957">
        <feDropShadow dx="0" dy="0" stdDeviation="2" flood-opacity="0.2"></feDropShadow>
      </filter>
    </defs>

    

    <!---->
    

    <!---->
    <!---->
    <!---->
    <rect role="button" x="606.2280883789062" y="766.7382202148438" width="219.06805419921875"
      height="285.74090576171875" opacity="0" class="cursor-pointer"></rect>



    <defs>
      <filter id="dropShadow794958">
        <feDropShadow dx="0" dy="0" stdDeviation="2" flood-opacity="0.2"></feDropShadow>
      </filter>
    </defs>

    

    <!---->
    

    <!---->
    <!---->
    <!---->
    <rect role="button" x="372.87298583984375" y="747.6887817382812" width="221.44921875" height="288.12213134765625"
      opacity="0" class="cursor-pointer"></rect>



    <defs>
      <filter id="dropShadow794959">
        <feDropShadow dx="0" dy="0" stdDeviation="2" flood-opacity="0.2"></feDropShadow>
      </filter>
    </defs>

    

    <!---->
    

    <!---->
    <!---->
    <!---->
    <rect role="button" x="144.2802276611328" y="738.1641235351562" width="219.0680694580078"
      height="290.50323486328125" opacity="0" class="cursor-pointer"></rect>



    <defs>
      <filter id="dropShadow794960">
        <feDropShadow dx="0" dy="0" stdDeviation="2" flood-opacity="0.2"></feDropShadow>
      </filter>
    </defs>

    

    <!---->
    

    <!---->
    <!---->
    <!---->
    <rect role="button" x="34.74620819091797" y="78.5787582397461" width="230.97391510009766"
      height="283.35977935791016" opacity="0" class="cursor-pointer"></rect>



    <defs>
      <filter id="dropShadow794961">
        <feDropShadow dx="0" dy="0" stdDeviation="2" flood-opacity="0.2"></feDropShadow>
      </filter>
    </defs>

    

    <!---->
    

    <!---->
    <!---->
    <!---->
    <rect role="button" x="280.0071716308594" y="80.95993041992188" width="219.06805419921875"
      height="283.3597717285156" opacity="0" class="cursor-pointer"></rect>



    <defs>
      <filter id="dropShadow794962">
        <feDropShadow dx="0" dy="0" stdDeviation="2" flood-opacity="0.2"></feDropShadow>
      </filter>
    </defs>

    

    <!---->
    

    <!---->
    <!---->
    <!---->
    <rect role="button" x="268.101318359375" y="461.9478454589844" width="361.93853759765625"
      height="197.63748168945312" opacity="0" class="cursor-pointer"></rect>


  </g>
</svg>