<svg viewBox="-691.9652205882354 0 3767.870441176471 1683.78" xmlns="http://www.w3.org/2000/svg">

  <defs>
    <style type="text/css">
      .st0 {
        fill-rule: evenodd;
        clip-rule: evenodd;
        fill: #F0F5FB;
      }

      .st1 {
        fill-rule: evenodd;
        clip-rule: evenodd;
        fill: none;
        stroke: #87A3B8;
        stroke-width: 11.9999;
        stroke-linecap: round;
        stroke-linejoin: round;
        stroke-miterlimit: 2.6131;
      }

      .st2 {
        fill-rule: evenodd;
        clip-rule: evenodd;
        fill: none;
        stroke: #87A3B8;
        stroke-width: 1.9199;
        stroke-linecap: round;
        stroke-linejoin: round;
        stroke-miterlimit: 2.6131;
        stroke-dasharray: 1.9199, 3.8398;
      }

      .st3 {
        fill-rule: evenodd;
        clip-rule: evenodd;
        fill: #D6E5EF;
      }

      .st4 {
        fill-rule: evenodd;
        clip-rule: evenodd;
        fill: #010005;
      }

      .st5 {
        fill-rule: evenodd;
        clip-rule: evenodd;
        fill: #87A3B8;
      }

      .st6 {
        fill-rule: evenodd;
        clip-rule: evenodd;
        fill: #A9C2CC;
      }
    </style>
  </defs>

  <g transform="rotate(0)">

    <path class="st0"
      d="M109.62,50.11h2178.83v1540.76c0,14.74-7.09,28.58-19.06,37.17c-11.97,8.6-21.53,6.06-41.29,6.19l-2132.4-97.56  L109.62,50.11z">
    </path>
    <path class="st1"
      d="M180.97,1539.88l-85.71-3.92L109.19,50.11h2179.26v176.83 M2288.45,409.58v1180.56  c0,14.73-7.1,28.56-19.06,37.15c-11.97,8.59-21.54,6.06-41.3,6.18l-1839.72-84.11">
    </path>
    <path class="st2"
      d="M399.17,1549.86l-7.15-251.43 M392.31,1308.47h280.46v-150.9l0-0.06 M390.62,1248.9l-2.25-78.98l510.38-22.27   M948.28,1145.49l326.97-14.27h86.68 M390.4,1241.04h81.94v-74.82l0,0.04 M1698.56,651.8l-6.19,174.9 M822.13,668.85H642.98   M1433.15,687.45l-297.59,0 M1110.79,687.45h-5.03 M1447.82,430.47l-23.3,408.24h0 M1039.21,432.02v134.67 M823.62,566.69h282.14  v138.12 M1105.76,754.34v98.67l325.03-14.58 M1480.32,836.21l212.04-9.51l280.15,15.48V668.83l-273.95-17.03l12.38-204.31  l-263.12-17.03l-408.61,1.55v-103.7 M642.98,851.46l176.45,1.55l7.74-527.79l212.04,3.1V50.11 M228.18,897.9l0.38-18.19   M484.48,868.1l0.16,9.4h0 M101.19,904.13l126.99-6.23l-0.23,3.87 M226.46,926.53l-2.93,48.75l87.06-4.41 M360.12,968.37l34.44-1.74   M444.09,964.12l23.99-1.21v-85.13l92.87-1.55v37.15l82.03-4.64V50.11 M1511.28,50.11l-7.74,168.32h784.91 M2172.95,885.52v23.22   M2087.82,808.13v77.39h85.13v-77.39 M2016.62,808.13h271.83 M2288.45,418.09h-271.83v464.33 M2018.06,1224.82l12.59,399.63h0   M2194.62,1575.43l-2.58,56.39h0 M1657.8,1207.15l131.17,6.43 M1838.5,1216.01l385.52,18.91l-3.1,241.45l-94.41-4.64v103.7h161.93   M1549.2,1234.93l-6.19,66.55l-143.94,9.29l-12.99,284.21h0 M1275.24,1131.23l-23.22,112.99l297.17-9.29l1.55-94.41l109.89,4.64  l-21.09,461.41h0 M2017.79,1113.43l1.16,64.23l163.29,18.19l-0.39-81.64L2017.79,1113.43z">
    </path>
    <path class="st3"
      d="M311.8,906.83h71.89c9.39,0,17.07-7.68,17.07-17.07l0,0c0-9.39-7.68-17.07-17.07-17.07H311.8  c-9.39,0-17.07,7.68-17.07,17.07l0,0C294.73,899.15,302.41,906.83,311.8,906.83z">
    </path>
    <g>
      <polygon class="st4"
        points="316.81,897.18 316.81,882.35 319.21,882.35 319.21,895.06 325.24,895.06 325.24,897.18  "></polygon>
      <path class="st4"
        d="M332.72,897.44c-0.96,0-1.84-0.17-2.62-0.5c-0.79-0.33-1.46-0.82-2.02-1.47c-0.56-0.64-0.99-1.44-1.3-2.4   c-0.3-0.96-0.46-2.06-0.46-3.3c0-1.25,0.15-2.35,0.46-3.3c0.3-0.96,0.74-1.76,1.3-2.4s1.23-1.13,2.02-1.47   c0.79-0.33,1.66-0.5,2.62-0.5c0.96,0,1.84,0.17,2.62,0.5c0.79,0.33,1.46,0.82,2.02,1.47s0.99,1.44,1.3,2.4   c0.3,0.96,0.46,2.06,0.46,3.3c0,1.25-0.15,2.35-0.46,3.3c-0.3,0.96-0.74,1.76-1.3,2.4c-0.56,0.64-1.23,1.13-2.02,1.47   C334.55,897.27,333.68,897.44,332.72,897.44L332.72,897.44z M332.72,895.31c0.57,0,1.09-0.1,1.56-0.3c0.47-0.2,0.88-0.49,1.21-0.86   c0.33-0.38,0.59-0.84,0.78-1.38c0.18-0.54,0.28-1.15,0.28-1.83v-2.34c0-0.68-0.09-1.3-0.28-1.83c-0.18-0.54-0.44-1-0.78-1.38   c-0.33-0.38-0.74-0.66-1.21-0.86c-0.47-0.2-0.99-0.3-1.56-0.3c-0.58,0-1.1,0.1-1.57,0.3c-0.47,0.2-0.87,0.49-1.2,0.86   c-0.33,0.38-0.59,0.84-0.78,1.38c-0.18,0.54-0.28,1.15-0.28,1.83v2.34c0,0.68,0.09,1.3,0.28,1.83c0.18,0.54,0.44,1,0.78,1.38   c0.33,0.38,0.73,0.66,1.2,0.86C331.61,895.21,332.14,895.31,332.72,895.31z">
      </path>
      <path class="st4"
        d="M342.11,882.35h6.56c1.23,0,2.2,0.35,2.9,1.04c0.7,0.69,1.05,1.62,1.05,2.78c0,0.55-0.08,1.02-0.23,1.41   c-0.16,0.39-0.35,0.71-0.6,0.96c-0.24,0.25-0.52,0.43-0.83,0.55c-0.31,0.12-0.62,0.19-0.91,0.22v0.13c0.3,0.01,0.63,0.08,0.99,0.21   c0.36,0.13,0.7,0.33,1.01,0.61c0.31,0.28,0.57,0.63,0.79,1.06c0.21,0.43,0.32,0.96,0.32,1.58c0,0.6-0.1,1.15-0.29,1.68   c-0.19,0.52-0.46,0.98-0.8,1.36c-0.34,0.38-0.74,0.68-1.21,0.9c-0.47,0.22-0.98,0.33-1.53,0.33h-7.22V882.35L342.11,882.35z    M344.51,895.12h4.12c0.62,0,1.11-0.16,1.47-0.49c0.35-0.33,0.53-0.79,0.53-1.4v-0.72c0-0.61-0.18-1.08-0.53-1.4   c-0.35-0.33-0.84-0.49-1.47-0.49h-4.12V895.12L344.51,895.12z M344.51,888.62h3.72c0.59,0,1.05-0.15,1.38-0.46   c0.33-0.3,0.49-0.74,0.49-1.31v-0.68c0-0.57-0.16-1-0.49-1.31c-0.33-0.3-0.79-0.46-1.38-0.46h-3.72V888.62z">
      </path>
      <path class="st4"
        d="M356.1,882.35h6.56c1.23,0,2.2,0.35,2.9,1.04c0.7,0.69,1.05,1.62,1.05,2.78c0,0.55-0.08,1.02-0.23,1.41   c-0.16,0.39-0.35,0.71-0.6,0.96c-0.24,0.25-0.52,0.43-0.83,0.55c-0.31,0.12-0.62,0.19-0.91,0.22v0.13c0.3,0.01,0.63,0.08,0.99,0.21   c0.36,0.13,0.7,0.33,1.01,0.61c0.31,0.28,0.57,0.63,0.79,1.06c0.21,0.43,0.32,0.96,0.32,1.58c0,0.6-0.1,1.15-0.29,1.68   c-0.19,0.52-0.46,0.98-0.8,1.36c-0.34,0.38-0.74,0.68-1.21,0.9c-0.47,0.22-0.98,0.33-1.53,0.33h-7.22V882.35L356.1,882.35z    M358.5,895.12h4.12c0.62,0,1.11-0.16,1.47-0.49c0.35-0.33,0.53-0.79,0.53-1.4v-0.72c0-0.61-0.18-1.08-0.53-1.4   c-0.35-0.33-0.84-0.49-1.47-0.49h-4.12V895.12L358.5,895.12z M358.5,888.62h3.72c0.59,0,1.06-0.15,1.38-0.46   c0.33-0.3,0.49-0.74,0.49-1.31v-0.68c0-0.57-0.16-1-0.49-1.31c-0.33-0.3-0.79-0.46-1.38-0.46h-3.72V888.62z">
      </path>
      <polygon class="st4"
        points="372.84,897.18 372.84,891.34 367.74,882.35 370.48,882.35 374.1,888.96 374.16,888.96 377.75,882.35    380.38,882.35 375.24,891.3 375.24,897.18  ">
      </polygon>
    </g>
    <path class="st3"
      d="M310.35,515.79h124.32c16.36,0,29.74-13.38,29.74-29.74l0,0c0-16.36-13.38-29.74-29.74-29.74H310.35  c-16.36,0-29.74,13.38-29.74,29.74l0,0C280.61,502.4,293.99,515.79,310.35,515.79z">
    </path>
    <g>
      <polygon class="st4"
        points="316.31,468.31 316.21,468.31 315.04,470.71 311.79,476.64 308.54,470.71 307.37,468.31 307.26,468.31    307.26,479.65 304.97,479.65 304.97,464.83 307.81,464.83 311.79,472.37 311.91,472.37 315.89,464.83 318.61,464.83 318.61,479.65    316.31,479.65  ">
      </polygon>
      <path class="st4"
        d="M324.53,464.83v9.15c0,1.26,0.24,2.21,0.72,2.85c0.48,0.64,1.3,0.96,2.46,0.96c1.16,0,1.98-0.32,2.46-0.96   c0.48-0.64,0.72-1.59,0.72-2.85v-9.15h2.36v8.75c0,1.09-0.1,2.03-0.3,2.82c-0.2,0.79-0.52,1.45-0.96,1.96   c-0.44,0.52-1.01,0.9-1.71,1.16c-0.7,0.26-1.56,0.38-2.58,0.38c-1.02,0-1.88-0.13-2.58-0.38c-0.7-0.25-1.27-0.64-1.71-1.16   c-0.44-0.52-0.76-1.17-0.96-1.96c-0.2-0.79-0.3-1.73-0.3-2.82v-8.75H324.53z">
      </path>
      <polygon class="st4"
        points="336.83,479.65 336.83,464.83 339.23,464.83 339.23,477.53 345.26,477.53 345.26,479.65  "></polygon>
      <polygon class="st4"
        points="351.7,466.95 351.7,479.65 349.3,479.65 349.3,466.95 344.88,466.95 344.88,464.83 356.12,464.83    356.12,466.95  ">
      </polygon>
      <polygon class="st4"
        points="357.69,479.65 357.69,477.7 359.71,477.7 359.71,466.78 357.69,466.78 357.69,464.83 364.15,464.83    364.15,466.78 362.11,466.78 362.11,477.7 364.15,477.7 364.15,479.65  ">
      </polygon>
      <rect x="366.02" y="472.01" class="st4" width="5.88" height="2.36"></rect>
      <polygon class="st4"
        points="386.39,468.31 386.28,468.31 385.12,470.71 381.87,476.64 378.62,470.71 377.45,468.31 377.34,468.31    377.34,479.65 375.05,479.65 375.05,464.83 377.89,464.83 381.87,472.37 381.99,472.37 385.97,464.83 388.68,464.83 388.68,479.65    386.39,479.65  ">
      </polygon>
      <polygon class="st4"
        points="392.34,479.65 392.34,464.83 401.83,464.83 401.83,466.95 394.74,466.95 394.74,471.07 401.17,471.07    401.17,473.2 394.74,473.2 394.74,477.53 401.83,477.53 401.83,479.65  ">
      </polygon>
      <path class="st4"
        d="M404.93,464.83h5.25c0.95,0,1.81,0.16,2.58,0.47c0.77,0.31,1.43,0.78,1.98,1.39c0.55,0.62,0.97,1.39,1.26,2.32   c0.3,0.93,0.45,2.01,0.45,3.24c0,1.23-0.15,2.31-0.45,3.24c-0.3,0.93-0.72,1.7-1.26,2.32c-0.55,0.62-1.2,1.08-1.98,1.39   c-0.77,0.31-1.63,0.47-2.58,0.47h-5.25V464.83L404.93,464.83z M410.18,477.53c1.1,0,2-0.35,2.68-1.04   c0.68-0.69,1.02-1.71,1.02-3.06v-2.38c0-1.35-0.34-2.36-1.02-3.06c-0.68-0.69-1.57-1.04-2.68-1.04h-2.85v10.58H410.18z">
      </path>
      <polygon class="st4"
        points="418.81,479.65 418.81,477.7 420.82,477.7 420.82,466.78 418.81,466.78 418.81,464.83 425.26,464.83    425.26,466.78 423.22,466.78 423.22,477.7 425.26,477.7 425.26,479.65  ">
      </polygon>
      <path class="st4"
        d="M437.54,479.65l-1.34-4.01h-5.54l-1.3,4.01h-2.44l5.06-14.83h3.02l5.06,14.83H437.54L437.54,479.65z    M433.48,467.04h-0.11l-2.15,6.54h4.38L433.48,467.04z">
      </path>
      <polygon class="st4"
        points="333.42,494.57 333.42,507.27 331.02,507.27 331.02,494.57 326.6,494.57 326.6,492.44 337.84,492.44    337.84,494.57  ">
      </polygon>
      <polygon class="st4"
        points="349.29,500.81 342.58,500.81 342.58,507.27 340.18,507.27 340.18,492.44 342.58,492.44 342.58,498.69    349.29,498.69 349.29,492.44 351.69,492.44 351.69,507.27 349.29,507.27  ">
      </polygon>
      <polygon class="st4"
        points="355.34,507.27 355.34,492.44 364.84,492.44 364.84,494.57 357.75,494.57 357.75,498.69 364.18,498.69    364.18,500.81 357.75,500.81 357.75,505.14 364.84,505.14 364.84,507.27  ">
      </polygon>
      <path class="st4"
        d="M377.2,507.27l-1.34-4.01h-5.54l-1.3,4.01h-2.44l5.06-14.83h3.02l5.06,14.83H377.2L377.2,507.27z    M373.15,494.65h-0.11l-2.15,6.54h4.38L373.15,494.65z">
      </path>
      <polygon class="st4"
        points="386.12,494.57 386.12,507.27 383.72,507.27 383.72,494.57 379.31,494.57 379.31,492.44 390.54,492.44    390.54,494.57  ">
      </polygon>
      <path class="st4"
        d="M395.28,507.27h-2.4v-14.83h6.39c1.33,0,2.38,0.4,3.14,1.2c0.76,0.8,1.15,1.89,1.15,3.26   c0,1.06-0.24,1.94-0.73,2.64c-0.49,0.7-1.21,1.19-2.16,1.48l3.21,6.25h-2.68l-2.97-5.99h-2.95V507.27L395.28,507.27z M399.1,499.26   c0.61,0,1.08-0.16,1.42-0.47c0.34-0.32,0.51-0.77,0.51-1.37v-1.01c0-0.6-0.17-1.05-0.51-1.37c-0.34-0.32-0.81-0.47-1.42-0.47h-3.82   v4.69H399.1z">
      </path>
      <polygon class="st4"
        points="406.79,507.27 406.79,492.44 416.29,492.44 416.29,494.57 409.19,494.57 409.19,498.69 415.63,498.69    415.63,500.81 409.19,500.81 409.19,505.14 416.29,505.14 416.29,507.27  ">
      </polygon>
    </g>
    <path class="st5"
      d="M955.17,430.3c9.66,0,17.48,7.83,17.48,17.48c0,9.65-7.83,17.48-17.48,17.48c-9.65,0-17.48-7.83-17.48-17.48  C937.69,438.13,945.51,430.3,955.17,430.3L955.17,430.3z M958.88,443.75h-7.43c-1.65,0-2.72,2.24-1.98,4.14l4.19,10.82  c0.57,1.47,2.44,1.47,3.01,0l4.19-10.82C961.6,445.99,960.53,443.75,958.88,443.75L958.88,443.75z M955.17,442.36  c1.82,0,3.3-1.48,3.3-3.3c0-1.82-1.48-3.3-3.3-3.3c-1.82,0-3.3,1.48-3.3,3.3C951.87,440.88,953.35,442.36,955.17,442.36z">
    </path>
    <path class="st5"
      d="M911.43,430.3c9.66,0,17.48,7.83,17.48,17.48c0,9.65-7.83,17.48-17.48,17.48s-17.48-7.83-17.48-17.48  C893.95,438.13,901.78,430.3,911.43,430.3L911.43,430.3z M911.43,442.55c1.76,0,3.18-1.43,3.18-3.18c0-1.76-1.43-3.18-3.18-3.18  c-1.76,0-3.18,1.43-3.18,3.18C908.25,441.13,909.67,442.55,911.43,442.55L911.43,442.55z M906.93,459.38h9  c1.59,0,2.62-1.97,1.91-3.65l-4.75-11.02c-0.22-0.63-0.8-1.05-1.46-1.05h-0.33c-0.65,0-1.24,0.42-1.46,1.04l-4.82,11.03  C904.31,457.41,905.34,459.38,906.93,459.38z">
    </path>
    <path class="st3"
      d="M1216.27,792.65h101.11c16.36,0,29.74-13.38,29.74-29.74l0,0c0-16.36-13.38-29.74-29.74-29.74h-101.11  c-16.36,0-29.74,13.38-29.74,29.74l0,0C1186.53,779.27,1199.92,792.65,1216.27,792.65z">
    </path>
    <g>
      <path class="st4"
        d="M1225.98,756.77c-1.94,0-3.46-0.65-4.57-1.97c-1.1-1.31-1.66-3.21-1.66-5.7c0-1.25,0.14-2.34,0.42-3.29   c0.28-0.95,0.69-1.75,1.23-2.4c0.54-0.65,1.19-1.14,1.97-1.48c0.77-0.33,1.64-0.5,2.6-0.5c1.29,0,2.37,0.28,3.24,0.84   c0.87,0.56,1.55,1.39,2.05,2.49l-2.02,1.1c-0.25-0.71-0.65-1.27-1.18-1.69c-0.53-0.42-1.23-0.63-2.09-0.63   c-1.15,0-2.05,0.39-2.7,1.17c-0.65,0.78-0.98,1.86-0.98,3.24v2.26c0,1.38,0.33,2.46,0.98,3.24c0.65,0.78,1.55,1.17,2.7,1.17   c0.89,0,1.62-0.23,2.18-0.69c0.56-0.46,0.97-1.05,1.24-1.77l1.93,1.17c-0.5,1.07-1.19,1.91-2.08,2.52   C1228.36,756.47,1227.26,756.77,1225.98,756.77z">
      </path>
      <path class="st4"
        d="M1239.34,756.77c-0.96,0-1.84-0.17-2.62-0.5c-0.79-0.33-1.46-0.82-2.02-1.47c-0.56-0.64-0.99-1.44-1.3-2.4   c-0.3-0.96-0.46-2.06-0.46-3.3c0-1.25,0.15-2.35,0.46-3.3c0.3-0.96,0.74-1.76,1.3-2.4c0.56-0.64,1.23-1.13,2.02-1.47   c0.79-0.33,1.66-0.5,2.62-0.5s1.84,0.17,2.62,0.5c0.79,0.33,1.46,0.82,2.02,1.47c0.56,0.64,0.99,1.44,1.3,2.4   c0.3,0.96,0.46,2.06,0.46,3.3c0,1.25-0.15,2.35-0.46,3.3c-0.3,0.96-0.74,1.76-1.3,2.4c-0.56,0.64-1.23,1.13-2.02,1.47   C1241.17,756.61,1240.3,756.77,1239.34,756.77L1239.34,756.77z M1239.34,754.65c0.57,0,1.09-0.1,1.56-0.3   c0.47-0.2,0.88-0.49,1.21-0.86c0.33-0.38,0.59-0.84,0.78-1.38c0.18-0.54,0.28-1.15,0.28-1.83v-2.34c0-0.68-0.09-1.3-0.28-1.83   c-0.18-0.54-0.44-1-0.78-1.38c-0.33-0.38-0.74-0.66-1.21-0.86c-0.47-0.2-0.99-0.3-1.56-0.3c-0.58,0-1.1,0.1-1.57,0.3   c-0.47,0.2-0.87,0.49-1.2,0.86c-0.33,0.38-0.59,0.84-0.78,1.38c-0.18,0.54-0.28,1.15-0.28,1.83v2.34c0,0.68,0.09,1.3,0.28,1.83   c0.18,0.54,0.44,1,0.78,1.38c0.33,0.38,0.73,0.66,1.2,0.86C1238.23,754.55,1238.76,754.65,1239.34,754.65z">
      </path>
      <polygon class="st4"
        points="1252.72,748.32 1251.08,745.17 1251.02,745.17 1251.02,756.52 1248.73,756.52 1248.73,741.69    1251.4,741.69 1256.25,749.89 1257.88,753.03 1257.95,753.03 1257.95,741.69 1260.24,741.69 1260.24,756.52 1257.56,756.52  ">
      </polygon>
      <path class="st4"
        d="M1269.46,756.77c-1.94,0-3.46-0.65-4.57-1.97c-1.1-1.31-1.66-3.21-1.66-5.7c0-1.25,0.14-2.34,0.42-3.29   c0.28-0.95,0.69-1.75,1.23-2.4c0.54-0.65,1.19-1.14,1.97-1.48c0.77-0.33,1.64-0.5,2.6-0.5c1.29,0,2.37,0.28,3.24,0.84   c0.87,0.56,1.55,1.39,2.05,2.49l-2.02,1.1c-0.25-0.71-0.65-1.27-1.18-1.69c-0.53-0.42-1.23-0.63-2.09-0.63   c-1.15,0-2.05,0.39-2.7,1.17c-0.65,0.78-0.98,1.86-0.98,3.24v2.26c0,1.38,0.33,2.46,0.98,3.24c0.65,0.78,1.55,1.17,2.7,1.17   c0.89,0,1.62-0.23,2.18-0.69c0.56-0.46,0.97-1.05,1.24-1.77l1.93,1.17c-0.5,1.07-1.19,1.91-2.08,2.52   C1271.84,756.47,1270.75,756.77,1269.46,756.77z">
      </path>
      <polygon class="st4"
        points="1277.36,756.52 1277.36,741.69 1286.86,741.69 1286.86,743.82 1279.76,743.82 1279.76,747.94    1286.2,747.94 1286.2,750.06 1279.76,750.06 1279.76,754.39 1286.86,754.39 1286.86,756.52  ">
      </polygon>
      <path class="st4"
        d="M1289.96,756.52v-14.83h6.37c1.37,0,2.44,0.4,3.19,1.21c0.75,0.81,1.13,1.89,1.13,3.25s-0.38,2.44-1.13,3.25   c-0.75,0.81-1.81,1.21-3.19,1.21h-3.97v5.91H1289.96L1289.96,756.52z M1292.36,748.49h3.82c0.61,0,1.08-0.16,1.42-0.47   c0.34-0.32,0.51-0.77,0.51-1.36v-1.01c0-0.59-0.17-1.04-0.51-1.36c-0.34-0.32-0.81-0.47-1.42-0.47h-3.82V748.49z">
      </path>
      <polygon class="st4"
        points="1308.78,743.82 1308.78,756.52 1306.38,756.52 1306.38,743.82 1301.96,743.82 1301.96,741.69    1313.2,741.69 1313.2,743.82  ">
      </polygon>
      <path class="st4"
        d="M1239.53,784.39c-1.25,0-2.3-0.23-3.18-0.68c-0.87-0.45-1.62-1.06-2.24-1.83l1.66-1.55   c0.52,0.64,1.1,1.12,1.73,1.44c0.63,0.33,1.35,0.49,2.16,0.49c0.95,0,1.66-0.21,2.15-0.64c0.48-0.42,0.72-1,0.72-1.72   c0-0.58-0.17-1.04-0.51-1.38c-0.34-0.34-0.94-0.59-1.81-0.76l-1.32-0.23c-1.44-0.27-2.53-0.74-3.25-1.42   c-0.72-0.68-1.08-1.61-1.08-2.8c0-0.65,0.12-1.24,0.37-1.77c0.25-0.53,0.59-0.98,1.04-1.34c0.45-0.36,0.99-0.64,1.62-0.84   c0.64-0.2,1.35-0.3,2.15-0.3c1.12,0,2.09,0.19,2.91,0.58c0.82,0.39,1.52,0.95,2.1,1.69l-1.68,1.49c-0.38-0.5-0.85-0.89-1.4-1.19   c-0.55-0.3-1.24-0.45-2.06-0.45c-0.85,0-1.51,0.17-1.98,0.51c-0.47,0.34-0.7,0.84-0.7,1.49c0,0.62,0.19,1.09,0.57,1.39   c0.38,0.3,0.98,0.53,1.78,0.69l1.32,0.28c1.49,0.28,2.57,0.76,3.26,1.44c0.69,0.68,1.03,1.61,1.03,2.8c0,0.69-0.12,1.32-0.36,1.89   c-0.24,0.57-0.59,1.05-1.05,1.46c-0.46,0.4-1.02,0.72-1.69,0.93C1241.14,784.28,1240.38,784.39,1239.53,784.39z">
      </path>
      <polygon class="st4"
        points="1252.93,771.43 1252.93,784.13 1250.53,784.13 1250.53,771.43 1246.11,771.43 1246.11,769.31    1257.35,769.31 1257.35,771.43  ">
      </polygon>
      <path class="st4"
        d="M1264.96,784.39c-0.96,0-1.84-0.17-2.62-0.5c-0.79-0.33-1.46-0.82-2.02-1.47c-0.56-0.64-0.99-1.44-1.3-2.4   c-0.3-0.96-0.46-2.06-0.46-3.3c0-1.25,0.15-2.35,0.46-3.3c0.3-0.96,0.74-1.76,1.3-2.4c0.56-0.64,1.23-1.13,2.02-1.47   c0.79-0.33,1.66-0.5,2.62-0.5s1.84,0.17,2.62,0.5c0.79,0.33,1.46,0.82,2.02,1.47c0.56,0.64,0.99,1.44,1.3,2.4   c0.3,0.96,0.46,2.06,0.46,3.3c0,1.25-0.15,2.35-0.46,3.3c-0.3,0.96-0.74,1.76-1.3,2.4c-0.56,0.64-1.23,1.13-2.02,1.47   C1266.79,784.22,1265.92,784.39,1264.96,784.39L1264.96,784.39z M1264.96,782.26c0.57,0,1.09-0.1,1.56-0.3   c0.47-0.2,0.88-0.49,1.21-0.86c0.33-0.38,0.59-0.84,0.78-1.38c0.18-0.54,0.28-1.15,0.28-1.83v-2.34c0-0.68-0.09-1.3-0.28-1.83   c-0.18-0.54-0.44-1-0.78-1.38c-0.33-0.38-0.74-0.66-1.21-0.86c-0.47-0.2-0.99-0.3-1.56-0.3c-0.58,0-1.1,0.1-1.57,0.3   c-0.47,0.2-0.87,0.49-1.2,0.86c-0.33,0.38-0.59,0.84-0.78,1.38c-0.18,0.54-0.28,1.15-0.28,1.83v2.34c0,0.68,0.09,1.3,0.28,1.83   c0.18,0.54,0.44,1,0.78,1.38c0.33,0.38,0.73,0.66,1.2,0.86C1263.85,782.16,1264.38,782.26,1264.96,782.26z">
      </path>
      <path class="st4"
        d="M1276.75,784.13h-2.4v-14.83h6.39c1.33,0,2.38,0.4,3.14,1.2c0.76,0.8,1.15,1.89,1.15,3.26   c0,1.06-0.24,1.94-0.73,2.64c-0.49,0.7-1.21,1.19-2.16,1.48l3.21,6.25h-2.68l-2.97-5.99h-2.95V784.13L1276.75,784.13z    M1280.57,776.12c0.61,0,1.08-0.16,1.42-0.47c0.34-0.32,0.51-0.77,0.51-1.37v-1.01c0-0.59-0.17-1.05-0.51-1.37   c-0.34-0.32-0.81-0.47-1.42-0.47h-3.82v4.69H1280.57z">
      </path>
      <polygon class="st4"
        points="1288.26,784.13 1288.26,769.31 1297.75,769.31 1297.75,771.43 1290.66,771.43 1290.66,775.55    1297.1,775.55 1297.1,777.68 1290.66,777.68 1290.66,782.01 1297.75,782.01 1297.75,784.13  ">
      </polygon>
    </g>
    <path class="st3"
      d="M1208.63,575.19h116.39c16.36,0,29.74-13.38,29.74-29.74l0,0c0-16.36-13.38-29.74-29.74-29.74h-116.39  c-16.36,0-29.74,13.38-29.74,29.74l0,0C1178.89,561.81,1192.27,575.19,1208.63,575.19z">
    </path>
    <g>
      <path class="st4"
        d="M1212.7,539.31c-1.25,0-2.3-0.23-3.18-0.68c-0.87-0.45-1.62-1.06-2.24-1.83l1.66-1.55   c0.52,0.64,1.1,1.12,1.73,1.44c0.63,0.33,1.35,0.49,2.16,0.49c0.95,0,1.66-0.21,2.15-0.64c0.48-0.42,0.72-1,0.72-1.72   c0-0.58-0.17-1.04-0.51-1.38c-0.34-0.34-0.94-0.59-1.81-0.76l-1.32-0.23c-1.44-0.27-2.53-0.74-3.25-1.42   c-0.72-0.68-1.08-1.61-1.08-2.8c0-0.65,0.12-1.24,0.37-1.77c0.25-0.53,0.59-0.98,1.04-1.34c0.45-0.36,0.99-0.64,1.62-0.84   c0.64-0.2,1.35-0.3,2.15-0.3c1.12,0,2.09,0.19,2.91,0.58c0.82,0.39,1.52,0.95,2.1,1.69l-1.68,1.49c-0.38-0.5-0.85-0.89-1.4-1.19   c-0.55-0.3-1.24-0.45-2.06-0.45c-0.85,0-1.51,0.17-1.98,0.51c-0.47,0.34-0.7,0.84-0.7,1.49c0,0.62,0.19,1.09,0.57,1.39   c0.38,0.3,0.98,0.53,1.78,0.69l1.32,0.28c1.49,0.28,2.57,0.76,3.26,1.44c0.69,0.68,1.03,1.61,1.03,2.8c0,0.69-0.12,1.32-0.36,1.89   c-0.24,0.57-0.59,1.05-1.05,1.45c-0.46,0.4-1.02,0.72-1.69,0.93C1214.31,539.2,1213.55,539.31,1212.7,539.31z">
      </path>
      <path class="st4"
        d="M1226.53,539.31c-1.94,0-3.46-0.65-4.57-1.97c-1.1-1.31-1.66-3.21-1.66-5.7c0-1.25,0.14-2.34,0.42-3.29   c0.28-0.95,0.69-1.75,1.23-2.4c0.54-0.65,1.19-1.14,1.96-1.48c0.77-0.33,1.64-0.5,2.6-0.5c1.29,0,2.37,0.28,3.24,0.84   c0.87,0.56,1.55,1.39,2.05,2.49l-2.02,1.1c-0.25-0.71-0.65-1.27-1.18-1.69c-0.53-0.42-1.23-0.63-2.09-0.63   c-1.15,0-2.05,0.39-2.7,1.17c-0.65,0.78-0.98,1.86-0.98,3.24v2.26c0,1.38,0.33,2.46,0.98,3.24c0.65,0.78,1.55,1.17,2.7,1.17   c0.89,0,1.62-0.23,2.18-0.69c0.56-0.46,0.97-1.05,1.24-1.77l1.93,1.17c-0.5,1.07-1.19,1.91-2.08,2.52   C1228.91,539.01,1227.82,539.31,1226.53,539.31z">
      </path>
      <path class="st4"
        d="M1236.83,539.06h-2.4v-14.83h6.39c1.33,0,2.38,0.4,3.14,1.2c0.76,0.8,1.15,1.89,1.15,3.26   c0,1.06-0.24,1.94-0.73,2.64c-0.49,0.7-1.21,1.19-2.16,1.48l3.21,6.25h-2.68l-2.97-5.99h-2.95V539.06L1236.83,539.06z    M1240.65,531.05c0.61,0,1.08-0.16,1.42-0.47c0.34-0.32,0.51-0.77,0.51-1.37v-1.01c0-0.6-0.17-1.05-0.51-1.37   c-0.34-0.32-0.81-0.47-1.42-0.47h-3.82v4.69H1240.65z">
      </path>
      <polygon class="st4"
        points="1248.34,539.06 1248.34,524.23 1257.84,524.23 1257.84,526.35 1250.74,526.35 1250.74,530.47    1257.18,530.47 1257.18,532.6 1250.74,532.6 1250.74,536.93 1257.84,536.93 1257.84,539.06  ">
      </polygon>
      <polygon class="st4"
        points="1260.94,539.06 1260.94,524.23 1270.44,524.23 1270.44,526.35 1263.34,526.35 1263.34,530.47    1269.78,530.47 1269.78,532.6 1263.34,532.6 1263.34,536.93 1270.44,536.93 1270.44,539.06  ">
      </polygon>
      <polygon class="st4"
        points="1277.53,530.86 1275.9,527.71 1275.83,527.71 1275.83,539.06 1273.54,539.06 1273.54,524.23    1276.21,524.23 1281.06,532.43 1282.69,535.57 1282.76,535.57 1282.76,524.23 1285.05,524.23 1285.05,539.06 1282.37,539.06  ">
      </polygon>
      <polygon class="st4"
        points="1288.07,539.06 1288.07,537.1 1290.09,537.1 1290.09,526.18 1288.07,526.18 1288.07,524.23    1294.52,524.23 1294.52,526.18 1292.49,526.18 1292.49,537.1 1294.52,537.1 1294.52,539.06  ">
      </polygon>
      <polygon class="st4"
        points="1301.53,530.86 1299.9,527.71 1299.84,527.71 1299.84,539.06 1297.54,539.06 1297.54,524.23    1300.22,524.23 1305.06,532.43 1306.7,535.57 1306.76,535.57 1306.76,524.23 1309.05,524.23 1309.05,539.06 1306.38,539.06  ">
      </polygon>
      <path class="st4"
        d="M1322.25,536.83h-0.09c-0.16,0.71-0.58,1.31-1.26,1.78c-0.69,0.47-1.6,0.7-2.73,0.7   c-0.88,0-1.69-0.17-2.44-0.5c-0.75-0.33-1.4-0.82-1.94-1.47c-0.55-0.64-0.97-1.44-1.27-2.4c-0.3-0.96-0.46-2.06-0.46-3.3   c0-1.23,0.16-2.33,0.47-3.28c0.31-0.96,0.75-1.76,1.32-2.41c0.57-0.65,1.25-1.14,2.04-1.48c0.79-0.33,1.68-0.5,2.66-0.5   c1.33,0,2.46,0.29,3.38,0.88c0.92,0.59,1.64,1.4,2.15,2.45l-1.95,1.14c-0.28-0.7-0.72-1.26-1.32-1.7   c-0.59-0.44-1.35-0.65-2.25-0.65c-1.18,0-2.12,0.38-2.84,1.13c-0.71,0.75-1.07,1.82-1.07,3.2v2.43c0,1.38,0.36,2.45,1.07,3.2   c0.72,0.75,1.66,1.13,2.84,1.13c0.47,0,0.91-0.06,1.34-0.18c0.42-0.12,0.8-0.3,1.12-0.53c0.32-0.23,0.57-0.53,0.76-0.87   c0.19-0.35,0.29-0.76,0.29-1.23v-1.15h-3.06v-2.06h5.37v7.9h-2.1V536.83z">
      </path>
      <path class="st4"
        d="M1239.75,566.67h-2.4v-14.83h6.39c1.33,0,2.38,0.4,3.14,1.2c0.76,0.8,1.15,1.89,1.15,3.26   c0,1.06-0.24,1.94-0.73,2.64c-0.49,0.7-1.21,1.19-2.16,1.48l3.21,6.25h-2.68l-2.97-5.99h-2.95V566.67L1239.75,566.67z    M1243.58,558.66c0.61,0,1.08-0.16,1.42-0.47c0.34-0.32,0.51-0.77,0.51-1.37v-1.01c0-0.59-0.17-1.05-0.51-1.37   c-0.34-0.32-0.81-0.47-1.42-0.47h-3.82v4.69H1243.58z">
      </path>
      <path class="st4"
        d="M1256.79,566.93c-0.96,0-1.84-0.17-2.62-0.5c-0.79-0.33-1.46-0.82-2.02-1.47c-0.56-0.64-0.99-1.44-1.3-2.4   c-0.3-0.96-0.46-2.06-0.46-3.3c0-1.25,0.15-2.35,0.46-3.3c0.3-0.96,0.74-1.76,1.3-2.4c0.56-0.64,1.23-1.13,2.02-1.47   c0.79-0.33,1.66-0.5,2.62-0.5s1.84,0.17,2.62,0.5c0.79,0.33,1.46,0.82,2.02,1.47c0.56,0.64,0.99,1.44,1.3,2.4   c0.3,0.96,0.46,2.06,0.46,3.3c0,1.25-0.15,2.35-0.46,3.3c-0.3,0.96-0.74,1.76-1.3,2.4c-0.56,0.64-1.23,1.13-2.02,1.47   C1258.63,566.76,1257.75,566.93,1256.79,566.93L1256.79,566.93z M1256.79,564.8c0.57,0,1.09-0.1,1.56-0.3   c0.47-0.2,0.88-0.49,1.21-0.86c0.33-0.38,0.59-0.84,0.78-1.38c0.18-0.54,0.28-1.15,0.28-1.83v-2.34c0-0.68-0.09-1.3-0.28-1.83   c-0.18-0.54-0.44-1-0.78-1.38c-0.33-0.38-0.74-0.66-1.21-0.86c-0.47-0.2-0.99-0.3-1.56-0.3c-0.58,0-1.1,0.1-1.57,0.3   c-0.47,0.2-0.87,0.49-1.2,0.86c-0.33,0.38-0.59,0.84-0.78,1.38c-0.18,0.54-0.28,1.15-0.28,1.83v2.34c0,0.68,0.09,1.3,0.28,1.83   c0.18,0.54,0.44,1,0.78,1.38c0.33,0.38,0.73,0.66,1.2,0.86C1255.68,564.7,1256.21,564.8,1256.79,564.8z">
      </path>
      <path class="st4"
        d="M1271.91,566.93c-0.96,0-1.84-0.17-2.62-0.5c-0.79-0.33-1.46-0.82-2.02-1.47c-0.56-0.64-0.99-1.44-1.3-2.4   c-0.3-0.96-0.46-2.06-0.46-3.3c0-1.25,0.15-2.35,0.46-3.3c0.3-0.96,0.74-1.76,1.3-2.4c0.56-0.64,1.23-1.13,2.02-1.47   c0.79-0.33,1.66-0.5,2.62-0.5c0.96,0,1.84,0.17,2.62,0.5c0.79,0.33,1.46,0.82,2.02,1.47c0.56,0.64,0.99,1.44,1.3,2.4   c0.3,0.96,0.46,2.06,0.46,3.3c0,1.25-0.15,2.35-0.46,3.3c-0.3,0.96-0.74,1.76-1.3,2.4c-0.56,0.64-1.23,1.13-2.02,1.47   C1273.75,566.76,1272.88,566.93,1271.91,566.93L1271.91,566.93z M1271.91,564.8c0.57,0,1.09-0.1,1.56-0.3   c0.47-0.2,0.88-0.49,1.21-0.86c0.33-0.38,0.59-0.84,0.78-1.38c0.18-0.54,0.28-1.15,0.28-1.83v-2.34c0-0.68-0.09-1.3-0.28-1.83   c-0.18-0.54-0.44-1-0.78-1.38c-0.33-0.38-0.74-0.66-1.21-0.86c-0.47-0.2-0.99-0.3-1.56-0.3c-0.58,0-1.1,0.1-1.57,0.3   c-0.47,0.2-0.87,0.49-1.2,0.86c-0.33,0.38-0.59,0.84-0.78,1.38c-0.18,0.54-0.28,1.15-0.28,1.83v2.34c0,0.68,0.09,1.3,0.28,1.83   c0.18,0.54,0.44,1,0.78,1.38c0.33,0.38,0.73,0.66,1.2,0.86C1270.81,564.7,1271.33,564.8,1271.91,564.8z">
      </path>
      <polygon class="st4"
        points="1292.64,555.33 1292.54,555.33 1291.37,557.73 1288.12,563.66 1284.87,557.73 1283.7,555.33    1283.6,555.33 1283.6,566.67 1281.3,566.67 1281.3,551.84 1284.15,551.84 1288.12,559.39 1288.25,559.39 1292.22,551.84    1294.94,551.84 1294.94,566.67 1292.64,566.67  ">
      </polygon>
    </g>
    <path class="st3"
      d="M1798.81,776.53h74.71c16.36,0,29.74-13.38,29.74-29.74l0,0c0-16.36-13.38-29.74-29.74-29.74h-74.71  c-16.36,0-29.74,13.38-29.74,29.74l0,0C1769.07,763.15,1782.45,776.53,1798.81,776.53z">
    </path>
    <g>
      <path class="st4"
        d="M1814.94,740.66c-0.96,0-1.84-0.17-2.62-0.5c-0.79-0.33-1.46-0.82-2.02-1.47c-0.56-0.64-0.99-1.44-1.3-2.4   c-0.3-0.96-0.46-2.06-0.46-3.3c0-1.25,0.15-2.35,0.46-3.3c0.3-0.96,0.74-1.76,1.3-2.4c0.56-0.64,1.23-1.13,2.02-1.47   c0.79-0.33,1.66-0.5,2.62-0.5c0.96,0,1.84,0.17,2.62,0.5c0.79,0.33,1.46,0.82,2.02,1.47c0.56,0.64,0.99,1.44,1.3,2.4   c0.3,0.96,0.46,2.06,0.46,3.3c0,1.25-0.15,2.35-0.46,3.3c-0.3,0.96-0.74,1.76-1.3,2.4c-0.56,0.64-1.23,1.13-2.02,1.47   C1816.78,740.49,1815.9,740.66,1814.94,740.66L1814.94,740.66z M1814.94,738.53c0.57,0,1.09-0.1,1.56-0.3   c0.47-0.2,0.88-0.49,1.21-0.86c0.33-0.38,0.59-0.84,0.78-1.38c0.18-0.54,0.28-1.15,0.28-1.83v-2.34c0-0.68-0.09-1.3-0.28-1.83   c-0.18-0.54-0.44-1-0.78-1.38c-0.33-0.38-0.74-0.66-1.21-0.86c-0.47-0.2-0.99-0.3-1.56-0.3c-0.58,0-1.1,0.1-1.57,0.3   c-0.47,0.2-0.87,0.49-1.2,0.86c-0.33,0.38-0.59,0.84-0.78,1.38c-0.18,0.54-0.28,1.15-0.28,1.83v2.34c0,0.68,0.09,1.3,0.28,1.83   c0.18,0.54,0.44,1,0.78,1.38c0.33,0.38,0.73,0.66,1.2,0.86C1813.84,738.43,1814.36,738.53,1814.94,738.53z">
      </path>
      <path class="st4"
        d="M1824.33,740.4v-14.83h6.37c1.37,0,2.44,0.4,3.19,1.21c0.75,0.81,1.13,1.89,1.13,3.25s-0.38,2.44-1.13,3.25   c-0.75,0.81-1.81,1.21-3.19,1.21h-3.97v5.91H1824.33L1824.33,740.4z M1826.73,732.37h3.82c0.61,0,1.08-0.16,1.42-0.47   c0.34-0.32,0.51-0.77,0.51-1.36v-1.01c0-0.59-0.17-1.04-0.51-1.36c-0.34-0.32-0.81-0.47-1.42-0.47h-3.82V732.37z">
      </path>
      <polygon class="st4"
        points="1837.65,740.4 1837.65,725.57 1847.14,725.57 1847.14,727.7 1840.05,727.7 1840.05,731.82    1846.48,731.82 1846.48,733.94 1840.05,733.94 1840.05,738.28 1847.14,738.28 1847.14,740.4  ">
      </polygon>
      <polygon class="st4"
        points="1854.24,732.2 1852.6,729.06 1852.54,729.06 1852.54,740.4 1850.24,740.4 1850.24,725.57    1852.92,725.57 1857.76,733.77 1859.4,736.92 1859.46,736.92 1859.46,725.57 1861.76,725.57 1861.76,740.4 1859.08,740.4  ">
      </polygon>
      <path class="st4"
        d="M1802.93,768.27c-1.25,0-2.3-0.23-3.18-0.68c-0.87-0.45-1.62-1.06-2.24-1.83l1.66-1.55   c0.52,0.64,1.1,1.12,1.73,1.44c0.63,0.33,1.35,0.49,2.16,0.49c0.95,0,1.66-0.21,2.15-0.64c0.48-0.42,0.72-1,0.72-1.72   c0-0.58-0.17-1.04-0.51-1.38c-0.34-0.34-0.94-0.59-1.81-0.76l-1.32-0.23c-1.44-0.27-2.53-0.74-3.25-1.42   c-0.72-0.68-1.08-1.61-1.08-2.8c0-0.65,0.12-1.24,0.37-1.77c0.25-0.53,0.59-0.98,1.04-1.34c0.45-0.36,0.99-0.64,1.62-0.84   c0.64-0.2,1.35-0.3,2.15-0.3c1.12,0,2.09,0.19,2.91,0.58c0.82,0.39,1.52,0.95,2.1,1.69l-1.68,1.49c-0.38-0.5-0.85-0.89-1.4-1.19   c-0.55-0.3-1.24-0.45-2.06-0.45c-0.85,0-1.51,0.17-1.98,0.51c-0.47,0.34-0.7,0.84-0.7,1.49c0,0.62,0.19,1.09,0.57,1.39   c0.38,0.3,0.98,0.53,1.78,0.69l1.32,0.28c1.49,0.28,2.57,0.76,3.26,1.44c0.69,0.68,1.03,1.61,1.03,2.8c0,0.69-0.12,1.32-0.36,1.89   c-0.24,0.57-0.59,1.05-1.05,1.46c-0.46,0.4-1.02,0.72-1.69,0.93C1804.53,768.16,1803.78,768.27,1802.93,768.27z">
      </path>
      <polygon class="st4"
        points="1816.33,755.31 1816.33,768.02 1813.93,768.02 1813.93,755.31 1809.51,755.31 1809.51,753.19    1820.75,753.19 1820.75,755.31  ">
      </polygon>
      <path class="st4"
        d="M1825.36,753.19v9.15c0,1.26,0.24,2.21,0.72,2.85c0.48,0.64,1.3,0.96,2.46,0.96c1.16,0,1.98-0.32,2.46-0.96   c0.48-0.64,0.72-1.59,0.72-2.85v-9.15h2.36v8.75c0,1.09-0.1,2.03-0.3,2.83c-0.2,0.79-0.52,1.45-0.96,1.96   c-0.44,0.52-1.01,0.9-1.71,1.16c-0.7,0.26-1.56,0.38-2.58,0.38c-1.02,0-1.88-0.13-2.58-0.38c-0.7-0.25-1.27-0.64-1.71-1.16   c-0.44-0.52-0.76-1.17-0.96-1.96c-0.2-0.79-0.3-1.73-0.3-2.83v-8.75H1825.36z">
      </path>
      <path class="st4"
        d="M1837.66,753.19h5.25c0.95,0,1.81,0.16,2.58,0.47c0.77,0.31,1.43,0.78,1.98,1.39   c0.55,0.62,0.97,1.39,1.26,2.32c0.3,0.93,0.45,2.01,0.45,3.24c0,1.23-0.15,2.31-0.45,3.24c-0.3,0.93-0.72,1.7-1.26,2.32   c-0.55,0.62-1.2,1.08-1.98,1.39c-0.77,0.31-1.63,0.47-2.58,0.47h-5.25V753.19L1837.66,753.19z M1842.91,765.89   c1.1,0,2-0.35,2.68-1.04c0.68-0.69,1.02-1.71,1.02-3.06v-2.38c0-1.35-0.34-2.36-1.02-3.06c-0.68-0.69-1.57-1.04-2.68-1.04h-2.85   v10.58H1842.91z">
      </path>
      <polygon class="st4"
        points="1851.53,768.02 1851.53,766.06 1853.55,766.06 1853.55,755.14 1851.53,755.14 1851.53,753.19    1857.99,753.19 1857.99,755.14 1855.95,755.14 1855.95,766.06 1857.99,766.06 1857.99,768.02  ">
      </polygon>
      <path class="st4"
        d="M1866.74,768.27c-0.96,0-1.84-0.17-2.62-0.5c-0.79-0.33-1.46-0.82-2.02-1.47c-0.56-0.64-0.99-1.44-1.3-2.4   c-0.3-0.96-0.46-2.06-0.46-3.3c0-1.25,0.15-2.35,0.46-3.3c0.3-0.96,0.74-1.76,1.3-2.4c0.56-0.64,1.23-1.13,2.02-1.47   c0.79-0.33,1.66-0.5,2.62-0.5c0.96,0,1.84,0.17,2.62,0.5c0.79,0.33,1.46,0.82,2.02,1.47c0.56,0.64,0.99,1.44,1.3,2.4   c0.3,0.96,0.46,2.06,0.46,3.3c0,1.25-0.15,2.35-0.46,3.3c-0.3,0.96-0.74,1.76-1.3,2.4c-0.56,0.64-1.23,1.13-2.02,1.47   C1868.58,768.1,1867.7,768.27,1866.74,768.27L1866.74,768.27z M1866.74,766.15c0.57,0,1.09-0.1,1.56-0.3   c0.47-0.2,0.88-0.49,1.21-0.86c0.33-0.38,0.59-0.84,0.78-1.38c0.18-0.54,0.28-1.15,0.28-1.83v-2.34c0-0.68-0.09-1.3-0.28-1.83   c-0.18-0.54-0.44-1-0.78-1.38c-0.33-0.38-0.74-0.66-1.21-0.86c-0.47-0.2-0.99-0.3-1.56-0.3c-0.58,0-1.1,0.1-1.57,0.3   c-0.47,0.2-0.87,0.49-1.2,0.86c-0.33,0.38-0.59,0.84-0.78,1.38c-0.18,0.54-0.28,1.15-0.28,1.83v2.34c0,0.68,0.09,1.3,0.28,1.83   c0.18,0.54,0.44,1,0.78,1.38c0.33,0.38,0.73,0.66,1.2,0.86C1865.63,766.05,1866.16,766.15,1866.74,766.15z">
      </path>
    </g>
    <path class="st3"
      d="M2215.32,862.3v8.36h-8.36v8.36h-8.36v8.36h-8.36v10.39c23.64,0,47.29,0,70.93,0v-70.93h-10.39v8.36h-8.36v8.36  h-8.36v8.36h-8.36v10.39H2215.32L2215.32,862.3z M2191.27,878.12l-2.87-2.87l7.34-7.34h-3.87v-4.06h10.79v10.79h-4.06v-3.87  L2191.27,878.12z">
    </path>
    <path class="st3"
      d="M2191.91,1527.84v8.36h8.36v8.36h8.36v8.36h8.36v10.39c-23.64,0-47.29,0-70.93,0v-70.93h10.39v8.36h8.36v8.36  h8.36v8.36h8.36v10.39H2191.91L2191.91,1527.84z M2215.96,1543.66l2.87-2.87l-7.34-7.34h3.87v-4.06h-10.79v10.79h4.06v-3.87  L2215.96,1543.66z">
    </path>
    <path class="st3"
      d="M1328.25,1184.23v8.36h8.36v8.36h8.36v8.36h8.36v10.39c-23.64,0-47.29,0-70.93,0v-70.93h10.39v8.36h8.36v8.36  h8.36v8.36h8.36v10.39H1328.25L1328.25,1184.23z M1352.31,1200.06l2.87-2.87l-7.34-7.34h3.87v-4.06h-10.79v10.79h4.06v-3.87  L1352.31,1200.06z">
    </path>
    <g>
      <path class="st6"
        d="M2146.99,876.13h-31.79c-3.58,0-6.51-2.93-6.51-6.51v-45.48c0-3.58,2.93-6.51,6.51-6.51h31.79   c3.58,0,6.51,2.93,6.51,6.51v45.48C2153.5,873.2,2150.57,876.13,2146.99,876.13z">
      </path>
      <path class="st0"
        d="M2132.24,842.18h-2.38v-6.08l-1.6,1.6l-1.68-1.68l4.47-4.47l4.48,4.47l-1.68,1.68l-1.6-1.6V842.18   L2132.24,842.18z M2132.32,851.58h-2.38v6.08l-1.6-1.6l-1.68,1.68l4.47,4.48l4.48-4.48l-1.68-1.68l-1.6,1.6V851.58z">
      </path>
    </g>
    <g>
      <path class="st6"
        d="M446.38,1235.1h-31.79c-3.58,0-6.51-2.93-6.51-6.51v-45.48c0-3.58,2.93-6.51,6.51-6.51h31.79   c3.58,0,6.51,2.93,6.51,6.51v45.48C452.89,1232.17,449.96,1235.1,446.38,1235.1z">
      </path>
      <path class="st0"
        d="M431.63,1201.15h-2.38v-6.08l-1.6,1.6l-1.68-1.68l4.47-4.47l4.48,4.47l-1.68,1.68l-1.6-1.6V1201.15   L431.63,1201.15z M431.71,1210.54h-2.38v6.08l-1.6-1.6l-1.68,1.68l4.47,4.47l4.48-4.47l-1.68-1.68l-1.6,1.6V1210.54z">
      </path>
    </g>
    <path class="st3"
      d="M918.53,1397.41h90.46c9.39,0,17.07-7.68,17.07-17.07l0,0c0-9.39-7.68-17.07-17.07-17.07h-90.46  c-9.39,0-17.07,7.68-17.07,17.07l0,0C901.46,1389.73,909.14,1397.41,918.53,1397.41z">
    </path>
    <g>
      <path class="st4"
        d="M930.35,1385.53h-0.09c-0.16,0.71-0.58,1.31-1.26,1.78c-0.69,0.47-1.6,0.7-2.73,0.7   c-0.88,0-1.69-0.17-2.44-0.5s-1.4-0.82-1.94-1.47c-0.55-0.64-0.97-1.44-1.27-2.4c-0.3-0.96-0.46-2.06-0.46-3.3   c0-1.23,0.16-2.33,0.47-3.28c0.31-0.96,0.75-1.76,1.32-2.41c0.57-0.65,1.25-1.14,2.04-1.48c0.79-0.33,1.68-0.5,2.66-0.5   c1.33,0,2.46,0.29,3.38,0.88c0.92,0.59,1.64,1.4,2.15,2.45l-1.95,1.14c-0.28-0.7-0.72-1.26-1.32-1.7   c-0.59-0.44-1.35-0.65-2.25-0.65c-1.18,0-2.12,0.38-2.84,1.13c-0.71,0.75-1.07,1.82-1.07,3.2v2.43c0,1.38,0.36,2.45,1.07,3.2   c0.72,0.75,1.66,1.13,2.84,1.13c0.47,0,0.91-0.06,1.34-0.18c0.42-0.12,0.8-0.3,1.12-0.53c0.32-0.23,0.57-0.53,0.76-0.87   c0.19-0.35,0.29-0.76,0.29-1.23v-1.15h-3.06v-2.06h5.37v7.9h-2.1V1385.53z">
      </path>
      <path class="st4"
        d="M945.05,1387.76l-1.34-4.01h-5.54l-1.3,4.01h-2.44l5.06-14.83h3.02l5.06,14.83H945.05L945.05,1387.76z    M941,1375.14h-0.11l-2.15,6.54h4.38L941,1375.14z">
      </path>
      <polygon class="st4"
        points="949.85,1387.76 949.85,1372.93 952.25,1372.93 952.25,1385.64 958.29,1385.64 958.29,1387.76  "></polygon>
      <polygon class="st4"
        points="960.75,1387.76 960.75,1372.93 963.15,1372.93 963.15,1385.64 969.18,1385.64 969.18,1387.76  "></polygon>
      <polygon class="st4"
        points="971.65,1387.76 971.65,1372.93 981.14,1372.93 981.14,1375.06 974.05,1375.06 974.05,1379.18    980.48,1379.18 980.48,1381.3 974.05,1381.3 974.05,1385.64 981.14,1385.64 981.14,1387.76  ">
      </polygon>
      <path class="st4"
        d="M986.64,1387.76h-2.4v-14.83h6.39c1.33,0,2.38,0.4,3.14,1.2c0.76,0.8,1.15,1.89,1.15,3.26   c0,1.06-0.24,1.94-0.73,2.64c-0.49,0.7-1.21,1.19-2.16,1.48l3.21,6.25h-2.68l-2.97-5.99h-2.95V1387.76L986.64,1387.76z    M990.47,1379.75c0.61,0,1.08-0.16,1.42-0.47c0.34-0.32,0.51-0.77,0.51-1.37v-1.01c0-0.59-0.17-1.05-0.51-1.37   c-0.34-0.32-0.81-0.47-1.42-0.47h-3.82v4.69H990.47z">
      </path>
      <polygon class="st4"
        points="1000.86,1387.76 1000.86,1381.92 995.76,1372.93 998.5,1372.93 1002.11,1379.54 1002.17,1379.54    1005.76,1372.93 1008.4,1372.93 1003.26,1381.88 1003.26,1387.76  ">
      </polygon>
    </g>
    <path class="st3"
      d="M1797.88,1454.84h64.21c16.36,0,29.74-13.38,29.74-29.74l0,0c0-16.36-13.38-29.74-29.74-29.74h-64.21  c-16.36,0-29.74,13.38-29.74,29.74l0,0C1768.15,1441.46,1781.53,1454.84,1797.88,1454.84z">
    </path>
    <g>
      <polygon class="st4"
        points="1809.04,1407.36 1808.94,1407.36 1807.77,1409.76 1804.52,1415.69 1801.27,1409.76 1800.1,1407.36    1800,1407.36 1800,1418.71 1797.7,1418.71 1797.7,1403.88 1800.55,1403.88 1804.52,1411.42 1804.65,1411.42 1808.62,1403.88    1811.34,1403.88 1811.34,1418.71 1809.04,1418.71  ">
      </polygon>
      <path class="st4"
        d="M1817.27,1403.88v9.15c0,1.26,0.24,2.21,0.72,2.85c0.48,0.64,1.3,0.96,2.46,0.96c1.16,0,1.98-0.32,2.46-0.96   c0.48-0.64,0.72-1.59,0.72-2.85v-9.15h2.36v8.75c0,1.09-0.1,2.03-0.3,2.83c-0.2,0.79-0.52,1.45-0.96,1.96   c-0.44,0.52-1.01,0.9-1.71,1.16c-0.7,0.26-1.56,0.38-2.58,0.38c-1.02,0-1.88-0.13-2.58-0.38c-0.7-0.25-1.27-0.64-1.71-1.16   c-0.44-0.52-0.76-1.17-0.96-1.96c-0.2-0.79-0.3-1.73-0.3-2.83v-8.75H1817.27z">
      </path>
      <path class="st4"
        d="M1834,1418.96c-1.25,0-2.3-0.23-3.18-0.68c-0.87-0.45-1.62-1.06-2.24-1.83l1.66-1.55   c0.52,0.64,1.1,1.12,1.73,1.44c0.63,0.33,1.35,0.49,2.16,0.49c0.95,0,1.66-0.21,2.15-0.64c0.48-0.42,0.72-1,0.72-1.72   c0-0.58-0.17-1.04-0.51-1.38s-0.94-0.59-1.81-0.76l-1.32-0.23c-1.44-0.27-2.53-0.74-3.25-1.42c-0.72-0.68-1.08-1.61-1.08-2.8   c0-0.65,0.12-1.24,0.37-1.77c0.25-0.53,0.59-0.98,1.04-1.34c0.45-0.36,0.99-0.64,1.62-0.84c0.64-0.2,1.35-0.3,2.15-0.3   c1.12,0,2.09,0.19,2.91,0.58c0.82,0.39,1.52,0.95,2.1,1.69l-1.68,1.49c-0.38-0.5-0.85-0.89-1.4-1.19c-0.55-0.3-1.24-0.45-2.06-0.45   c-0.85,0-1.51,0.17-1.98,0.51c-0.47,0.34-0.7,0.84-0.7,1.49c0,0.62,0.19,1.09,0.57,1.39c0.38,0.3,0.98,0.53,1.78,0.69l1.32,0.28   c1.49,0.28,2.57,0.76,3.26,1.44c0.69,0.68,1.03,1.61,1.03,2.8c0,0.69-0.12,1.32-0.36,1.89c-0.24,0.57-0.59,1.05-1.05,1.46   c-0.46,0.4-1.02,0.72-1.69,0.93C1835.61,1418.85,1834.85,1418.96,1834,1418.96z">
      </path>
      <polygon class="st4"
        points="1841.63,1418.71 1841.63,1416.75 1843.65,1416.75 1843.65,1405.83 1841.63,1405.83 1841.63,1403.88    1848.09,1403.88 1848.09,1405.83 1846.05,1405.83 1846.05,1416.75 1848.09,1416.75 1848.09,1418.71  ">
      </polygon>
      <path class="st4"
        d="M1856.67,1418.96c-1.94,0-3.46-0.65-4.57-1.96c-1.1-1.31-1.66-3.21-1.66-5.7c0-1.25,0.14-2.34,0.42-3.29   c0.28-0.95,0.69-1.75,1.23-2.4c0.54-0.65,1.19-1.14,1.96-1.48c0.77-0.33,1.64-0.5,2.6-0.5c1.29,0,2.37,0.28,3.24,0.84   c0.87,0.56,1.55,1.39,2.05,2.49l-2.02,1.1c-0.25-0.71-0.65-1.27-1.18-1.69c-0.53-0.42-1.23-0.63-2.09-0.63   c-1.15,0-2.05,0.39-2.7,1.17c-0.65,0.78-0.98,1.86-0.98,3.24v2.26c0,1.38,0.33,2.46,0.98,3.24c0.65,0.78,1.55,1.17,2.7,1.17   c0.89,0,1.62-0.23,2.18-0.69c0.56-0.46,0.97-1.05,1.24-1.77l1.93,1.17c-0.5,1.07-1.19,1.91-2.08,2.52   C1859.05,1418.66,1857.96,1418.96,1856.67,1418.96z">
      </path>
      <path class="st4"
        d="M1802.92,1446.32h-2.4v-14.83h6.39c1.33,0,2.38,0.4,3.14,1.2c0.76,0.8,1.15,1.89,1.15,3.26   c0,1.06-0.24,1.94-0.73,2.64c-0.49,0.7-1.21,1.19-2.16,1.48l3.21,6.25h-2.68l-2.97-5.99h-2.95V1446.32L1802.92,1446.32z    M1806.74,1438.31c0.61,0,1.08-0.16,1.42-0.47c0.34-0.32,0.51-0.77,0.51-1.37v-1.01c0-0.59-0.17-1.05-0.51-1.37   c-0.34-0.32-0.81-0.47-1.42-0.47h-3.82v4.69H1806.74z">
      </path>
      <path class="st4"
        d="M1819.95,1446.58c-0.96,0-1.84-0.17-2.62-0.5c-0.79-0.33-1.46-0.82-2.02-1.47c-0.56-0.64-0.99-1.44-1.3-2.4   c-0.3-0.96-0.46-2.06-0.46-3.3c0-1.25,0.15-2.35,0.46-3.3c0.3-0.96,0.74-1.76,1.3-2.4c0.56-0.64,1.23-1.13,2.02-1.47   c0.79-0.33,1.66-0.5,2.62-0.5s1.84,0.17,2.62,0.5c0.79,0.33,1.46,0.82,2.02,1.47c0.56,0.64,0.99,1.44,1.3,2.4s0.46,2.06,0.46,3.3   c0,1.25-0.15,2.35-0.46,3.3c-0.3,0.96-0.74,1.76-1.3,2.4c-0.56,0.64-1.23,1.13-2.02,1.47   C1821.79,1446.41,1820.92,1446.58,1819.95,1446.58L1819.95,1446.58z M1819.95,1444.45c0.57,0,1.09-0.1,1.56-0.3   c0.47-0.2,0.88-0.49,1.21-0.86c0.33-0.38,0.59-0.84,0.78-1.38c0.18-0.54,0.28-1.15,0.28-1.83v-2.34c0-0.68-0.09-1.3-0.28-1.83   c-0.18-0.54-0.44-1-0.78-1.38c-0.33-0.38-0.74-0.66-1.21-0.86c-0.47-0.2-0.99-0.3-1.56-0.3c-0.58,0-1.1,0.1-1.57,0.3   c-0.47,0.2-0.87,0.49-1.2,0.86c-0.33,0.38-0.59,0.84-0.78,1.38c-0.18,0.54-0.28,1.15-0.28,1.83v2.34c0,0.68,0.09,1.3,0.28,1.83   c0.18,0.54,0.44,1,0.78,1.38c0.33,0.38,0.73,0.66,1.2,0.86C1818.85,1444.35,1819.37,1444.45,1819.95,1444.45z">
      </path>
      <path class="st4"
        d="M1835.08,1446.58c-0.96,0-1.84-0.17-2.62-0.5c-0.79-0.33-1.46-0.82-2.02-1.47c-0.56-0.64-0.99-1.44-1.3-2.4   c-0.3-0.96-0.46-2.06-0.46-3.3c0-1.25,0.15-2.35,0.46-3.3s0.74-1.76,1.3-2.4c0.56-0.64,1.23-1.13,2.02-1.47   c0.79-0.33,1.66-0.5,2.62-0.5c0.96,0,1.84,0.17,2.62,0.5c0.79,0.33,1.46,0.82,2.02,1.47s0.99,1.44,1.3,2.4   c0.3,0.96,0.46,2.06,0.46,3.3c0,1.25-0.15,2.35-0.46,3.3c-0.3,0.96-0.74,1.76-1.3,2.4c-0.56,0.64-1.23,1.13-2.02,1.47   C1836.91,1446.41,1836.04,1446.58,1835.08,1446.58L1835.08,1446.58z M1835.08,1444.45c0.57,0,1.09-0.1,1.56-0.3   c0.47-0.2,0.88-0.49,1.21-0.86c0.33-0.38,0.59-0.84,0.78-1.38c0.18-0.54,0.28-1.15,0.28-1.83v-2.34c0-0.68-0.09-1.3-0.28-1.83   c-0.18-0.54-0.44-1-0.78-1.38c-0.33-0.38-0.74-0.66-1.21-0.86c-0.47-0.2-0.99-0.3-1.56-0.3c-0.58,0-1.1,0.1-1.57,0.3   c-0.47,0.2-0.87,0.49-1.2,0.86c-0.33,0.38-0.59,0.84-0.78,1.38c-0.18,0.54-0.28,1.15-0.28,1.83v2.34c0,0.68,0.09,1.3,0.28,1.83   c0.18,0.54,0.44,1,0.78,1.38c0.33,0.38,0.73,0.66,1.2,0.86C1833.97,1444.35,1834.5,1444.45,1835.08,1444.45z">
      </path>
      <polygon class="st4"
        points="1855.81,1434.98 1855.7,1434.98 1854.53,1437.38 1851.29,1443.31 1848.03,1437.38 1846.87,1434.98    1846.76,1434.98 1846.76,1446.32 1844.47,1446.32 1844.47,1431.49 1847.31,1431.49 1851.29,1439.04 1851.41,1439.04    1855.38,1431.49 1858.1,1431.49 1858.1,1446.32 1855.81,1446.32  ">
      </polygon>
    </g>
    <path class="st3"
      d="M1208.09,259.91h105.33c9.39,0,17.07-7.68,17.07-17.07l0,0c0-9.39-7.68-17.07-17.07-17.07h-105.33  c-9.39,0-17.07,7.68-17.07,17.07l0,0C1191.02,252.23,1198.7,259.91,1208.09,259.91z">
    </path>
    <g>
      <path class="st4"
        d="M1217.95,250.51c-1.94,0-3.46-0.65-4.57-1.96c-1.1-1.31-1.66-3.21-1.66-5.7c0-1.25,0.14-2.34,0.42-3.29   c0.28-0.95,0.69-1.75,1.23-2.4c0.54-0.65,1.19-1.14,1.96-1.48c0.77-0.33,1.64-0.5,2.6-0.5c1.29,0,2.37,0.28,3.24,0.84   c0.87,0.56,1.55,1.39,2.05,2.49l-2.02,1.1c-0.25-0.71-0.65-1.27-1.18-1.69c-0.53-0.42-1.23-0.63-2.09-0.63   c-1.15,0-2.05,0.39-2.7,1.17c-0.65,0.78-0.98,1.86-0.98,3.24v2.26c0,1.38,0.33,2.46,0.98,3.24c0.65,0.78,1.55,1.17,2.7,1.17   c0.89,0,1.62-0.23,2.18-0.69c0.56-0.46,0.97-1.05,1.24-1.77l1.93,1.17c-0.5,1.07-1.19,1.91-2.08,2.52   C1220.33,250.21,1219.24,250.51,1217.95,250.51z">
      </path>
      <path class="st4"
        d="M1235.05,250.26l-1.34-4.01h-5.54l-1.3,4.01h-2.44l5.06-14.83h3.02l5.06,14.83H1235.05L1235.05,250.26z    M1231,237.64h-0.11l-2.15,6.54h4.38L1231,237.64z">
      </path>
      <path class="st4"
        d="M1242.25,250.26h-2.4v-14.83h6.39c1.33,0,2.38,0.4,3.14,1.2c0.76,0.8,1.15,1.89,1.15,3.26   c0,1.06-0.24,1.94-0.73,2.64c-0.49,0.7-1.21,1.19-2.16,1.48l3.21,6.25h-2.68l-2.97-5.99h-2.95V250.26L1242.25,250.26z    M1246.08,242.25c0.61,0,1.08-0.16,1.42-0.47c0.34-0.32,0.51-0.77,0.51-1.37v-1.01c0-0.6-0.17-1.05-0.51-1.37   c-0.34-0.32-0.81-0.47-1.42-0.47h-3.82v4.69H1246.08z">
      </path>
      <path class="st4"
        d="M1258.78,250.26v-14.83h6.37c1.37,0,2.44,0.4,3.19,1.21c0.75,0.81,1.13,1.89,1.13,3.25s-0.38,2.44-1.13,3.25   c-0.75,0.81-1.81,1.21-3.19,1.21h-3.97v5.91H1258.78L1258.78,250.26z M1261.18,242.23h3.82c0.61,0,1.08-0.16,1.42-0.47   c0.34-0.32,0.51-0.77,0.51-1.36v-1.01c0-0.59-0.17-1.04-0.51-1.36c-0.34-0.32-0.81-0.47-1.42-0.47h-3.82V242.23z">
      </path>
      <path class="st4"
        d="M1280.15,250.26l-1.34-4.01h-5.54l-1.3,4.01h-2.44l5.06-14.83h3.02l5.06,14.83H1280.15L1280.15,250.26z    M1276.09,237.64h-0.11l-2.15,6.54h4.38L1276.09,237.64z">
      </path>
      <path class="st4"
        d="M1287.35,250.26h-2.4v-14.83h6.39c1.33,0,2.38,0.4,3.14,1.2c0.76,0.8,1.15,1.89,1.15,3.26   c0,1.06-0.24,1.94-0.73,2.64c-0.49,0.7-1.21,1.19-2.16,1.48l3.21,6.25h-2.68l-2.97-5.99h-2.95V250.26L1287.35,250.26z    M1291.18,242.25c0.61,0,1.08-0.16,1.42-0.47c0.34-0.32,0.51-0.77,0.51-1.37v-1.01c0-0.6-0.17-1.05-0.51-1.37   c-0.34-0.32-0.81-0.47-1.42-0.47h-3.82v4.69H1291.18z">
      </path>
      <polygon class="st4"
        points="1303.3,243.33 1301.27,245.67 1301.27,250.26 1298.87,250.26 1298.87,235.43 1301.27,235.43    1301.27,242.95 1301.35,242.95 1303.47,240.25 1307.47,235.43 1310.27,235.43 1304.98,241.68 1310.7,250.26 1307.81,250.26  ">
      </polygon>
    </g>

    <!---->

    <defs>
      <filter id="dropShadow809297">
        <feDropShadow dx="0" dy="0" stdDeviation="3" flood-opacity="0.2"></feDropShadow>
      </filter>
    </defs>

    

    <!---->
    

    <!---->
    <!---->
    <!---->
    <rect role="button" x="643.929931640625" y="859.9278564453125" width="1322.573974609375" height="281.6593017578125"
      opacity="0" class="cursor-pointer"></rect>



    <defs>
      <filter id="dropShadow801611">
        <feDropShadow dx="0" dy="0" stdDeviation="3" flood-opacity="0.2"></feDropShadow>
      </filter>
    </defs>

    

    <!---->
    

    <!---->
    <!---->
    <!---->
    <rect role="button" x="1652.69873046875" y="1206.950439453125" width="359.329833984375" height="418.6007080078125"
      opacity="0" class="cursor-pointer"></rect>



    <defs>
      <filter id="dropShadow794964">
        <feDropShadow dx="0" dy="0" stdDeviation="3" flood-opacity="0.2"></feDropShadow>
      </filter>
    </defs>

    

    <!---->
    

    <!---->
    <!---->
    <defs>
      <filter id="dropShadowPin794964">
        <feDropShadow dx="0" dy="0" stdDeviation="0.2" flood-opacity="0.1"></feDropShadow>
      </filter>
    </defs>

    

    <svg x="867.6402526855469" y="1377.4970751953124" width="13.299999999999999" height="13.299999999999999" class="text-secondary
    ">
      <svg style="transform-origin: 0.5em 0.5em;" class="svg-inline--fa fa-stamp" data-prefix="fas" data-icon="stamp"
        data-fa-transform="" data-fa-mask="" data-fa-processed="" aria-hidden="true" aria-labelledby="" role="img"
        viewBox="0 0 512 512">
        <g transform="translate(256 256)">
          <g transform="translate(0, 0)  scale(1, 1)  rotate(360 0 0)">
            <path fill="currentColor"
              d="M312 201.8c0-17.4 9.2-33.2 19.9-47 12.6-16.2 20.1-36.6 20.1-58.8 0-53-43-96-96-96s-96 43-96 96c0 22.1 7.5 42.5 20.1 58.8 10.7 13.8 19.9 29.6 19.9 47 0 29.9-24.3 54.2-54.2 54.2L112 256c-61.9 0-112 50.1-112 112 0 26.5 21.5 48 48 48l416 0c26.5 0 48-21.5 48-48 0-61.9-50.1-112-112-112l-33.8 0c-29.9 0-54.2-24.3-54.2-54.2zM56 464c-13.3 0-24 10.7-24 24s10.7 24 24 24l400 0c13.3 0 24-10.7 24-24s-10.7-24-24-24L56 464z"
              transform="translate(-256 -256)"></path>
          </g>
        </g>
      </svg>
    </svg>

    <rect role="button" x="404.30523681640625" y="1181.0194091796875" width="977.9700317382812" height="388.96533203125"
      opacity="0" class="cursor-pointer"></rect>



    <defs>
      <filter id="dropShadow794951">
        <feDropShadow dx="0" dy="0" stdDeviation="3" flood-opacity="0.2"></feDropShadow>
      </filter>
    </defs>

    

    <!---->
    

    <!---->
    <!---->
    <defs>
      <filter id="dropShadowPin794951">
        <feDropShadow dx="0" dy="0" stdDeviation="0.2" flood-opacity="0.1"></feDropShadow>
      </filter>
    </defs>

    

    <svg x="352.72421798706057" y="514.3644801330566" width="13.299999999999999" height="13.299999999999999" class="text-secondary
    ">
      <svg style="transform-origin: 0.5em 0.5em;" class="svg-inline--fa fa-stamp" data-prefix="fas" data-icon="stamp"
        data-fa-transform="" data-fa-mask="" data-fa-processed="" aria-hidden="true" aria-labelledby="" role="img"
        viewBox="0 0 512 512">
        <g transform="translate(256 256)">
          <g transform="translate(0, 0)  scale(1, 1)  rotate(360 0 0)">
            <path fill="currentColor"
              d="M312 201.8c0-17.4 9.2-33.2 19.9-47 12.6-16.2 20.1-36.6 20.1-58.8 0-53-43-96-96-96s-96 43-96 96c0 22.1 7.5 42.5 20.1 58.8 10.7 13.8 19.9 29.6 19.9 47 0 29.9-24.3 54.2-54.2 54.2L112 256c-61.9 0-112 50.1-112 112 0 26.5 21.5 48 48 48l416 0c26.5 0 48-21.5 48-48 0-61.9-50.1-112-112-112l-33.8 0c-29.9 0-54.2-24.3-54.2-54.2zM56 464c-13.3 0-24 10.7-24 24s10.7 24 24 24l400 0c13.3 0 24-10.7 24-24s-10.7-24-24-24L56 464z"
              transform="translate(-256 -256)"></path>
          </g>
        </g>
      </svg>
    </svg>

    <rect role="button" x="115.35958099365234" y="69.68988800048828" width="526.0292739868164"
      height="885.3591842651367" opacity="0" class="cursor-pointer"></rect>



    <defs>
      <filter id="dropShadow794965">
        <feDropShadow dx="0" dy="0" stdDeviation="3" flood-opacity="0.2"></feDropShadow>
      </filter>
    </defs>

    

    <!---->
    

    <!---->
    <!---->
    <defs>
      <filter id="dropShadowPin794965">
        <feDropShadow dx="0" dy="0" stdDeviation="0.2" flood-opacity="0.1"></feDropShadow>
      </filter>
    </defs>

    

    <svg x="1245.4922729492187" y="558.8176470947266" width="13.299999999999999" height="13.299999999999999" class="text-secondary
    ">
      <svg style="transform-origin: 0.5em 0.5em;" class="svg-inline--fa fa-stamp" data-prefix="fas" data-icon="stamp"
        data-fa-transform="" data-fa-mask="" data-fa-processed="" aria-hidden="true" aria-labelledby="" role="img"
        viewBox="0 0 512 512">
        <g transform="translate(256 256)">
          <g transform="translate(0, 0)  scale(1, 1)  rotate(360 0 0)">
            <path fill="currentColor"
              d="M312 201.8c0-17.4 9.2-33.2 19.9-47 12.6-16.2 20.1-36.6 20.1-58.8 0-53-43-96-96-96s-96 43-96 96c0 22.1 7.5 42.5 20.1 58.8 10.7 13.8 19.9 29.6 19.9 47 0 29.9-24.3 54.2-54.2 54.2L112 256c-61.9 0-112 50.1-112 112 0 26.5 21.5 48 48 48l416 0c26.5 0 48-21.5 48-48 0-61.9-50.1-112-112-112l-33.8 0c-29.9 0-54.2-24.3-54.2-54.2zM56 464c-13.3 0-24 10.7-24 24s10.7 24 24 24l400 0c13.3 0 24-10.7 24-24s-10.7-24-24-24L56 464z"
              transform="translate(-256 -256)"></path>
          </g>
        </g>
      </svg>
    </svg>

    <rect role="button" x="1119.2606201171875" y="436.4286193847656" width="303.7633056640625"
      height="240.78805541992188" opacity="0" class="cursor-pointer"></rect>



    <defs>
      <filter id="dropShadow810216">
        <feDropShadow dx="0" dy="0" stdDeviation="3" flood-opacity="0.2"></feDropShadow>
      </filter>
    </defs>

    

    <!---->
    

    <!---->
    <!---->
    <!---->
    <rect role="button" x="1104.44287109375" y="692.034423828125" width="318.5810546875" height="148.17724609375"
      opacity="0" class="cursor-pointer"></rect>



    <defs>
      <filter id="dropShadow811681">
        <feDropShadow dx="0" dy="0" stdDeviation="3" flood-opacity="0.2"></feDropShadow>
      </filter>
    </defs>

    

    <!---->
    

    <!---->
    <!---->
    <!---->
    <rect role="button" x="1715.674072265625" y="654.9901123046875" width="244.492431640625" height="181.51715087890625"
      opacity="0" class="cursor-pointer"></rect>



    <defs>
      <filter id="dropShadow844898">
        <feDropShadow dx="0" dy="0" stdDeviation="3" flood-opacity="0.2"></feDropShadow>
      </filter>
    </defs>

    

    <!---->
    

    <!---->
    <!---->
    <!---->
    <rect role="button" x="1048.8763427734375" y="51.167724609375" width="1229.8712158203125" height="374.1476135253906"
      opacity="0" class="cursor-pointer"></rect>


  </g>
</svg>